<?xml version="1.0" standalone="no"?>
<!DOCTYPE svg PUBLIC "-//W3C//DTD SVG 1.1//EN" "http://www.w3.org/Graphics/SVG/1.1/DTD/svg11.dtd" >
<svg xmlns="http://www.w3.org/2000/svg" xmlns:xlink="http://www.w3.org/1999/xlink" version="1.1">
<metadata>
Created by FontForge 20170731 at Mon Mar 12 01:47:33 2012
 By Aleksey,,,
Copyright (c) 2011, Gustavo Dipre (gbrenda1987@gmail.com), with Reserved Font Name "Gorditas".
</metadata>
<defs>
<font id="Gorditas-Regular" horiz-adv-x="747" >
  <font-face 
    font-family="Gorditas"
    font-weight="400"
    font-stretch="normal"
    units-per-em="1000"
    panose-1="2 9 5 0 4 0 0 0 0 0"
    ascent="800"
    descent="-200"
    x-height="500"
    cap-height="698"
    bbox="-60 -250 1827 948"
    underline-thickness="50"
    underline-position="-150"
    unicode-range="U+000D-E000"
  />
<missing-glyph horiz-adv-x="203" 
 />
    <glyph glyph-name=".notdef" horiz-adv-x="203" 
 />
    <glyph glyph-name=".null" horiz-adv-x="0" 
 />
    <glyph glyph-name="nonmarkingreturn" unicode="&#xd;" horiz-adv-x="333" 
 />
    <glyph glyph-name="NULL" horiz-adv-x="0" 
 />
    <glyph glyph-name="NULL" horiz-adv-x="0" 
 />
    <glyph glyph-name="space" unicode=" " horiz-adv-x="203" 
 />
    <glyph glyph-name="exclam" unicode="!" horiz-adv-x="256" 
d="M51 490q0 125 38 200q24 9 38 9q20 0 39 -9q37 -114 37 -229q0 -141 -52 -263q-9 -4 -21 -4q-10 0 -17 1q-28 53 -45 133.5t-17 161.5zM96 62q0 28 6 57q21 4 33 4q11 0 27 -4q9 -30 9 -59q0 -30 -9 -60q-17 -5 -30 -5q-15 0 -30 5q-6 32 -6 62z" />
    <glyph glyph-name="quotedbl" unicode="&#x22;" horiz-adv-x="354" 
d="M36 554q0 35 14 53t36 18t36.5 -18t14.5 -52q0 -54 -39 -157l-27 12q-8 13 -21.5 73.5t-13.5 70.5zM216 554q0 35 14 53t36 18t36.5 -18t14.5 -52q0 -54 -39 -157l-27 12q-8 13 -21.5 73.5t-13.5 70.5z" />
    <glyph glyph-name="numbersign" unicode="#" horiz-adv-x="631" 
d="M37 195q0 13 5 24l107 4q5 26 15.5 99t17.5 109l-136 6q-7 7 -7 24q0 19 7 26q58 8 157 12l30 137q38 0 49 -14l-13 -121q82 0 164 -2l30 137q42 0 49 -14q-1 -5 -6 -56t-8 -73q68 -3 93 -6q4 -15 4 -24q0 -11 -4 -26l-107 -4q-5 -26 -15.5 -99t-17.5 -109l136 -6
q2 -7 2 -24q0 -18 -2 -26q-58 -8 -157 -12l-30 -137q-6 -2 -11 -2q-27 0 -38 16l13 121q-82 0 -164 2l-30 -137q-6 -2 -10 -2q-18 0 -39 16q1 5 6 56t8 73q-67 3 -93 6q-5 15 -5 26zM222 226q13 0 65.5 0.5t91.5 0.5l32 203q-13 0 -65.5 -0.5t-91.5 -0.5z" />
    <glyph glyph-name="dollar" unicode="$" horiz-adv-x="618" 
d="M37 101q0 49 19 84q44 14 57 14q24 0 73 -14q5 -13 7 -38q35 -23 76 -29q-8 112 -10 168q-46 7 -78.5 16.5t-65.5 29t-50.5 53t-17.5 80.5q0 99 70 170t163 75l9 69q6 8 50 13l9 -88q38 -7 83 -30q6 30 21 42q19 10 48 10q46 0 64 -18q6 -18 6 -90q0 -48 -8.5 -68
t-32.5 -25q-17 -5 -33 -5q-36 0 -59 15q-6 15 -6 33q-27 12 -71 16q8 -88 9 -177q114 -13 165 -47t51 -114q0 -97 -67 -170t-172 -83l-10 -99q-12 -7 -47 -10l-9 107q-54 7 -93 36q0 -25 -10 -37q-18 -10 -59 -10q-44 0 -60 15q-21 40 -21 106zM188 485q0 -62 70 -73
q1 57 9 168q-79 -17 -79 -95zM357 125q35 14 58.5 40t23.5 54q0 49 -73 59q-3 -76 -9 -153z" />
    <glyph glyph-name="percent" unicode="%" horiz-adv-x="874" 
d="M30 485q0 91 46.5 145t116.5 54t116.5 -54t46.5 -145t-46.5 -145t-116.5 -54t-116.5 54t-46.5 145zM116 486q0 -55 20.5 -91t60.5 -36q39 0 58.5 35t19.5 91t-20 90.5t-59 34.5q-40 0 -60 -34.5t-20 -89.5zM191 11q37 57 98.5 183t96.5 181t117 153.5t117 155.5
q16 4 22 4q20 0 37 -21q-37 -56 -95 -177t-95 -179q-36 -56 -120 -158t-120 -159q-15 -5 -24 -5q-19 0 -34 22zM518 191q0 91 46.5 145t116.5 54t116.5 -54t46.5 -145t-46.5 -145t-116.5 -54t-116.5 54t-46.5 145zM602 186q0 -55 20.5 -91t60.5 -36q39 0 58.5 35t19.5 91
t-20 90.5t-59 34.5q-40 0 -60 -34.5t-20 -89.5z" />
    <glyph glyph-name="ampersand" unicode="&#x26;" horiz-adv-x="710" 
d="M35 154q0 62 32 121.5t85 88.5q-62 66 -62 155q0 85 58.5 148t150.5 63q83 0 134.5 -51t51.5 -122q0 -69 -48 -132t-120 -99q63 -64 116 -131q9 7 24 19t19.5 16t13 11.5t12 12t7.5 11t7 14.5q-30 27 -39 43q55 55 95 72q36 -18 90.5 -75.5t55.5 -79.5q0 -5 -41.5 -40.5
t-46.5 -38.5q-14 6 -35 38q-25 -26 -49 -45.5t-38 -32.5q51 -55 62 -65l-98 -70q-2 2 -29 30.5t-43 46.5q-125 -74 -202 -74q-79 0 -121 48t-42 118zM138 154q0 -30 21 -51.5t52 -21.5q27 0 64.5 17.5t65.5 46.5q-11 12 -51 63t-69 79q-83 -75 -83 -133zM191 530
q0 -16 6 -31t10.5 -22t20.5 -26.5t22 -26.5q66 28 97 56.5t31 65.5q0 34 -23 57t-63 23q-45 0 -73 -28t-28 -68z" />
    <glyph glyph-name="quotesingle" unicode="'" horiz-adv-x="150" 
d="M42 570q0 18 1 27q21 7 28 7q1 0 33 -7q3 -24 3 -47q0 -73 -27 -161q-3 2 -13 12q-25 95 -25 169z" />
    <glyph glyph-name="parenleft" unicode="(" horiz-adv-x="336" 
d="M29 234q0 128 68 237t189 185q37 -13 37 -37q0 -19 -23 -47q-81 -58 -115.5 -141t-34.5 -196q0 -115 39.5 -200.5t142.5 -179.5q-3 -34 -34 -34q-121 64 -195 170.5t-74 242.5z" />
    <glyph glyph-name="parenright" unicode=")" horiz-adv-x="336" 
d="M4 -145q103 94 142.5 179.5t39.5 200.5q0 113 -34.5 196t-115.5 141q-23 28 -23 47q0 24 37 37q121 -76 189 -185t68 -237q0 -136 -74 -242.5t-195 -170.5q-31 0 -34 34z" />
    <glyph glyph-name="asterisk" unicode="*" horiz-adv-x="384" 
d="M31 497q0 2 4 7t6 6q55 0 128 -23q0 87 14 125q4 4 9 4q3 0 9 -4q14 -38 14 -125q73 23 128 23q2 -1 6 -6t4 -7q-5 -8 -23 -17t-34.5 -15t-37.5 -13t-23 -8q30 -28 57 -117q-4 -7 -15 -7q-59 39 -85 94q-27 -57 -88 -94q-8 0 -12 7q27 89 57 117q-2 1 -23 8t-37.5 13
t-34.5 15t-23 17z" />
    <glyph glyph-name="plus" unicode="+" horiz-adv-x="539" 
d="M24 310q0 6 16 23q47 10 98 10q66 0 110 -10q-14 56 -14 122q0 50 14 92q15 11 25 11q11 0 23 -11q14 -45 14 -95q0 -66 -14 -119q41 8 105 8q49 0 103 -8q9 -13 9 -20t-9 -24q-55 -13 -102 -13q-61 0 -106 13q14 -43 14 -108q0 -52 -14 -106q-12 -8 -25 -8q-11 0 -23 8
q-11 53 -11 103q0 66 11 111q-50 -11 -114 -11q-50 0 -94 11q-16 19 -16 21z" />
    <glyph glyph-name="comma" unicode="," horiz-adv-x="214" 
d="M23 -83q1 64 8.5 110.5t30.5 100.5q45 24 72 24q17 0 44 -6q-11 -58 -37.5 -106t-71.5 -103q-20 -20 -46 -20z" />
    <glyph glyph-name="hyphen" unicode="-" horiz-adv-x="360" 
d="M53 277q0 12 4 21q83 11 137 11q58 0 109 -11q4 -11 4 -24q0 -15 -4 -23q-45 -13 -99 -13q-106 0 -147 14q-4 6 -4 25z" />
    <glyph glyph-name="period" unicode="." horiz-adv-x="200" 
d="M39 80q0 35 22 67q28 8 40 8q19 0 39 -8q21 -32 21 -70q0 -37 -21 -74q-16 -8 -35 -8t-44 8q-22 39 -22 77z" />
    <glyph glyph-name="slash" unicode="/" horiz-adv-x="533" 
d="M20 -90q176 505 472 809q9 -1 14.5 -7t5.5 -10q-146 -465 -472 -809q-20 3 -20 17z" />
    <glyph glyph-name="zero" unicode="0" horiz-adv-x="742" 
d="M38 268q0 74 31 151t83.5 140t130.5 103t165 40q128 0 191 -80.5t63 -205.5q0 -59 -13.5 -118t-43.5 -114.5t-72.5 -98.5t-105 -69t-137.5 -26q-134 0 -213 78t-79 200zM199 282q0 -73 39 -116.5t102 -43.5q66 0 122 49t85 116t29 129q0 66 -35.5 107.5t-103.5 41.5
q-70 0 -126 -45.5t-84 -109.5t-28 -128z" />
    <glyph glyph-name="one" unicode="1" horiz-adv-x="376" 
d="M32 568q0 40 7 54q13 27 56 52t116 25q35 0 55 -9q14 -29 14 -203q0 -247 -14 -338q6 1 17 1q26 0 48 -11q3 -5 3 -18q0 -27 -7.5 -61t-19.5 -46q-8 -8 -24.5 -10.5t-63.5 -2.5q-83 0 -112.5 5.5t-38.5 21.5q-7 13 -7 53q0 51 6 60l56 9q20 3 23 3q-12 101 -12 201
q0 97 12 193q-46 -32 -108 -38q-6 6 -6 59z" />
    <glyph glyph-name="two" unicode="2" horiz-adv-x="647" 
d="M34 4q0 40 8.5 85.5t29.5 97t52.5 93.5t82.5 73t114 38q40 4 61 7.5t43.5 11.5t32 22t9.5 35q0 49 -47.5 88t-114.5 39q-82 0 -112 -56q0 -18 -6 -33q-16 -11 -74 -11q-6 0 -11 0.5t-7 0.5q-41 9 -41 113q0 52 6 70q8 6 37 11t55 5q22 0 26 -4q5 -4 7 -6.5t3 -4t2 -6
t3 -9.5q73 46 160 46q110 0 176 -71.5t66 -170.5q0 -168 -220 -187q-26 -2 -43 -4t-44.5 -10.5t-44 -20.5t-29.5 -35.5t-13 -55.5q0 -17 2 -27q68 -14 168 -14q55 0 106 20q-1 3 -1 7q0 5 2 10t6 12t6 10q17 10 46 10q28 0 45 -10q27 -15 27 -75q0 -38 -7 -67t-13 -39
t-9 -12q-25 -5 -61 -5q-49 0 -52 10q-9 36 -10 44q-36 -30 -148 -30q-27 0 -135 6q-1 -16 -8 -18q-9 -12 -71 -12q-44 0 -59 5q-1 7 -1 24z" />
    <glyph glyph-name="three" unicode="3" horiz-adv-x="554" 
d="M6 119q0 5 2 13q4 16 42.5 40.5t103.5 40.5q16 -7 33.5 -33t18.5 -43q0 -3 -4 -5t-9.5 -5.5t-8.5 -6.5q28 -22 67 -22q49 0 89 33t40 81q0 46 -46 81q-12 -3 -24 -3q-16 0 -28 5q-23 29 -23 79q0 36 12 59q10 10 33 10q9 0 25.5 -2t17.5 -2q45 25 45 63q0 31 -29.5 54.5
t-69.5 23.5q-29 0 -56 -14l6 -22q-3 -8 -22.5 -14.5t-32.5 -6.5q-25 0 -48.5 42t-26.5 73q8 15 30.5 30t46.5 16l8 -8q44 14 91 14q86 0 149.5 -43t63.5 -126q0 -93 -83 -167q88 -64 88 -150q0 -87 -84 -156t-185 -69q-102 0 -166 77q-22 -11 -28 -11q-38 36 -38 74z" />
    <glyph glyph-name="four" unicode="4" horiz-adv-x="564" 
d="M13 346q0 16 2 26t7 20t7 15q89 172 257 269q49 23 88 23q30 0 72 -13q14 -45 14 -209q0 -74 -1 -96q3 0 10.5 0.5t11.5 0.5q11 0 21 -2q15 -22 15 -50t-9 -46q-2 -5 -29 -5q-15 0 -24 1q5 -35 5 -58q0 -63 -14 -87q8 2 22 2q24 0 41 -10q13 -16 13 -60q0 -50 -12 -59
q-48 -12 -150 -12q-100 0 -108 15q-12 14 -12 55q0 44 18 61q25 12 78 12q-6 32 -6 81q0 41 5 58q-9 0 -29.5 -1.5t-53 -2.5t-82.5 -1q-123 0 -151 7q-6 11 -6 66zM114 377q32 2 154 2q38 0 64 -3q0 135 4 217q-35 -27 -117.5 -106.5t-104.5 -109.5z" />
    <glyph glyph-name="five" unicode="5" horiz-adv-x="634" 
d="M48 120q0 60 12 92q30 6 64 6q52 0 77 -10q6 -15 6 -43q53 -56 139 -56q54 0 89 29.5t35 78.5q0 54 -43 74t-123 20q-42 0 -114 -5.5t-93 -5.5q-33 86 -33 223q0 90 13 183q25 15 79 15q72 0 83 -15q6 -1 8 -28q24 6 82 6q74 0 111 -10q2 25 9 42q23 12 62 12q24 0 42 -5
q4 -3 9.5 -10t12.5 -33.5t7 -63.5q0 -71 -26 -86q-18 -10 -56 -10q-35 0 -56 6q-6 12 -6 26q0 12 3 22q-22 14 -111 14q-110 0 -134 -8q-14 -19 -14 -57q0 -20 6.5 -55t17.5 -39l10 1h24h27q98 0 165.5 -16t101.5 -45.5t47.5 -61.5t13.5 -72q0 -105 -75.5 -176t-172.5 -71
q-79 0 -140 51q-7 -18 -31 -37q-15 -6 -50 -6q-40 0 -62 9q-16 37 -16 115z" />
    <glyph glyph-name="six" unicode="6" horiz-adv-x="648" 
d="M40 354q0 93 31.5 172.5t99 132t160.5 52.5q75 0 149 -37q1 1 3.5 6.5t5.5 10t4 4.5q12 4 29 4q24 0 47.5 -7.5t31.5 -18.5q2 -10 2 -19q0 -34 -22 -77.5t-47 -57.5q-5 -1 -15 -1q-21 0 -52.5 9.5t-41.5 17.5q-3 7 -3 16q0 19 7 26q-42 19 -81 19q-79 0 -134 -70.5
t-55 -151.5q0 -30 9 -55q62 107 209 107q108 0 169 -53.5t61 -149.5q0 -113 -80 -180.5t-189 -67.5q-94 0 -163.5 55t-102 137t-32.5 177zM229 197q0 -41 30.5 -68t81.5 -27q67 0 105 43.5t38 87.5q0 40 -35 66.5t-83 26.5q-59 0 -98 -40t-39 -89z" />
    <glyph glyph-name="seven" unicode="7" horiz-adv-x="447" 
d="M14 589q0 80 36 103q14 7 80 12.5t130 5.5q137 0 185 -33q-62 -232 -130.5 -433.5t-114.5 -242.5q-2 -3 -31 -3q-67 0 -71 11q118 433 206 581q-38 5 -69 5q-51 0 -104 -12q0 -31 -11 -47q-24 -8 -58 -8q-31 0 -43 9q-5 22 -5 52z" />
    <glyph glyph-name="eight" unicode="8" horiz-adv-x="562" 
d="M37 186q0 125 106 214q-62 45 -62 115q0 78 54.5 137.5t158.5 59.5q86 0 134 -42t48 -104q0 -69 -55 -125q105 -80 105 -193q0 -103 -76.5 -180.5t-201.5 -77.5q-105 0 -158 56t-53 140zM158 206q0 -43 27.5 -71.5t80.5 -28.5q65 0 101.5 39.5t36.5 90.5q0 43 -27 73
t-76 30q-55 0 -99 -37t-44 -96zM192 517q0 -26 16.5 -43t47.5 -17q40 0 69.5 26.5t29.5 63.5q0 30 -20 49.5t-50 19.5q-38 0 -65.5 -31.5t-27.5 -67.5z" />
    <glyph glyph-name="nine" unicode="9" horiz-adv-x="632" 
d="M37 454q0 98 73 177.5t188 79.5q90 0 159 -54.5t102 -136.5t33 -175q0 -148 -82 -255t-210 -107q-63 0 -128 29q-1 -1 -3.5 -6.5t-5.5 -10t-4 -4.5q-12 -4 -29 -4q-24 0 -47.5 7.5t-31.5 18.5q-2 10 -2 19q0 34 22 77.5t47 57.5q5 1 15 1q21 0 52.5 -9.5t41.5 -17.5
q3 -7 3 -16q0 -19 -7 -26q31 -9 58 -9q80 0 136 70.5t56 151.5q0 30 -9 55q-62 -107 -205 -107q-108 0 -165 55.5t-57 138.5zM152 470q0 -42 27.5 -69.5t82.5 -27.5q69 0 106.5 41.5t37.5 89.5q0 40 -27.5 67t-77.5 27q-58 0 -103.5 -35t-45.5 -93z" />
    <glyph glyph-name="colon" unicode=":" horiz-adv-x="228" 
d="M53 80q0 35 22 67q28 8 40 8q19 0 39 -8q21 -32 21 -70q0 -37 -21 -74q-16 -8 -35 -8t-44 8q-22 39 -22 77zM53 415q0 35 22 67q28 8 40 8q19 0 39 -8q21 -32 21 -70q0 -36 -21 -74q-16 -8 -35 -8t-44 8q-22 39 -22 77z" />
    <glyph glyph-name="semicolon" unicode=";" horiz-adv-x="240" 
d="M24 -83q1 64 8.5 110.5t30.5 100.5q45 24 72 24q17 0 44 -6q-11 -58 -37.5 -106t-71.5 -103q-20 -20 -46 -20zM74 385q0 35 22 67q28 8 40 8q19 0 39 -8q21 -32 21 -70q0 -36 -21 -74q-16 -8 -35 -8t-44 8q-22 39 -22 77z" />
    <glyph glyph-name="less" unicode="&#x3c;" horiz-adv-x="558" 
d="M26 318q0 17 21 34q251 164 447 222q7 -7 7 -12q0 -9 -7 -24q-79 -79 -194.5 -142.5t-210.5 -76.5q99 -18 214 -81.5t191 -138.5q9 -13 9 -22q0 -6 -9 -15q-267 91 -447 222q-21 18 -21 34z" />
    <glyph glyph-name="equal" unicode="=" horiz-adv-x="545" 
d="M61 277q0 12 4 21q83 11 214 11q157 0 202 -11q4 -11 4 -24q0 -15 -4 -23q-45 -13 -213 -13q-97 0 -203 14q-4 6 -4 25zM61 442q0 12 4 21q83 11 214 11q157 0 202 -11q4 -11 4 -24q0 -15 -4 -23q-45 -13 -216 -13q-89 0 -200 14q-4 6 -4 25z" />
    <glyph glyph-name="greater" unicode="&#x3e;" horiz-adv-x="558" 
d="M55 77q0 9 9 22q76 75 191 138.5t214 81.5q-95 13 -210.5 76.5t-194.5 142.5q-7 15 -7 24q0 5 7 12q196 -58 447 -222q21 -17 21 -34q0 -16 -21 -34q-180 -131 -447 -222q-9 9 -9 15z" />
    <glyph glyph-name="question" unicode="?" horiz-adv-x="548" 
d="M26 547q0 49 43 91q35 35 94 54.5t122 19.5q97 0 165 -45t68 -127q0 -81 -64.5 -135.5t-156.5 -77.5q9 -22 9 -56q0 -33 -9 -71q-19 -5 -51 -5q-10 0 -27 5q-14 27 -14 80q0 54 9 93q91 30 126 60t35 98q0 46 -23 75t-90 29q-128 0 -128 -116q0 -17 1 -24q-25 -7 -47 -7
q-62 0 -62 59zM206 69q0 31 13 60q27 12 39 12t41 -12q19 -38 19 -60q0 -26 -19 -59q-30 -15 -42 -15q-16 0 -38 15q-13 29 -13 59z" />
    <glyph glyph-name="at" unicode="@" horiz-adv-x="910" 
d="M39 197q0 138 61 255t170.5 186.5t243.5 69.5q164 0 265.5 -101.5t101.5 -264.5q0 -64 -17.5 -116t-46.5 -86t-68 -57t-80 -32.5t-85 -9.5q-26 0 -42 2.5t-33 13.5t-24 33q-21 -17 -57.5 -31.5t-68.5 -14.5q-57 0 -89 53t-32 129q0 58 17.5 112.5t56.5 94t90 39.5
q23 0 41.5 -8t28.5 -20t16 -24t9 -20l3 -8v58q25 23 81 23q25 0 44.5 -2t29 -4t15.5 -4.5t8 -3.5l1 -1q3 -9 3 -45q0 -37 -3 -46q-27 -15 -64 -15q-8 0 -13 0.5t-8 0.5q3 -3 3 -42q0 -154 -7 -166q20 -7 44 -7q62 0 107.5 47.5t45.5 148.5q0 131 -80.5 208t-203.5 77
q-155 0 -262.5 -117.5t-107.5 -294.5q0 -148 79.5 -221t216.5 -73q119 0 217 50l32 -83q-121 -55 -256 -55q-179 0 -281 97.5t-102 274.5zM339 246q0 -45 27.5 -76.5t58.5 -31.5q17 0 40 9.5t23 16.5q2 35 4 68t3.5 50.5t1.5 28.5q0 16 -22 33t-50 17q-40 0 -63 -36.5
t-23 -78.5z" />
    <glyph glyph-name="A" unicode="A" 
d="M5 69q0 44 9 59.5t38 15.5q31 0 31 -8q7 42 106.5 299.5t110.5 259.5q32 5 78 5q24 0 69 -5q11 -5 110.5 -261.5t106.5 -297.5q0 8 31 8q29 0 38 -15.5t9 -59.5q0 -51 -11 -57q-13 -12 -156 -12q-103 0 -103 11q-22 13 -22 89q0 11 1 17t8 12t20 6q29 0 29 -4q4 0 4 10
q0 25 -27 114q-41 -4 -109 -4q-73 0 -114 4q-27 -90 -27 -115q0 -8 4 -9q6 4 26 4q15 0 22.5 -7t8.5 -14t1 -23q0 -66 -22 -80q0 -11 -103 -11q-143 0 -156 12q-11 6 -11 57zM298 371q38 3 73 3q41 0 77 -4q-45 133 -75 206q-28 -69 -75 -205z" />
    <glyph glyph-name="B" unicode="B" horiz-adv-x="656" 
d="M50 66q0 20 1.5 31t13.5 22.5t36 11.5q3 0 13 -2q-8 93 -8 177q0 152 13 253q-22 0 -55 5q-6 8 -6 60t3 59q30 25 121 25q27 0 69 -4q4 -13 4 -40q28 17 73 30t81 13q77 0 128.5 -62.5t51.5 -141.5q0 -93 -73 -159q102 -58 102 -166q0 -76 -52.5 -132t-127.5 -56
q-151 0 -196 41q0 -26 -14 -31.5t-65 -5.5q-58 0 -106 12q-7 33 -7 60zM249 119q0 -6 55 -16.5t73 -10.5q32 0 54.5 28.5t22.5 69.5t-16 75t-50 34q-31 0 -82 -13.5t-52 -26.5q-1 -10 -1.5 -27t-1.5 -49.5t-2 -63.5zM249 419q0 -6 55 -16.5t73 -10.5q32 0 54.5 28.5
t22.5 69.5t-16 75t-50 34q-31 0 -82 -13.5t-52 -26.5q-1 -10 -1.5 -27t-1.5 -49.5t-2 -63.5z" />
    <glyph glyph-name="C" unicode="C" horiz-adv-x="675" 
d="M41 344q0 153 78.5 258t208.5 105q95 0 140 -44q2 30 21 37q25 11 61 11q47 0 74 -20q1 -11 4.5 -34.5t5.5 -42.5t2 -35q0 -62 -36 -94q-21 -23 -69 -23q-50 0 -75 23q-1 2 -1 9q0 12 3 16q-17 37 -55 57t-69 20q-58 0 -107.5 -74.5t-49.5 -170.5q0 -91 46.5 -147.5
t107.5 -56.5q31 0 69 14t56 39q-3 18 -3 20t0.5 4t0.5 3q37 17 65 17t82 -20q36 -32 36 -93q0 -16 -2.5 -35.5t-6 -42.5t-4.5 -35q-31 -25 -80 -25q-36 0 -55 16q-21 8 -21 39q-66 -45 -134 -45q-53 0 -104 22t-94 64t-69 110.5t-26 153.5z" />
    <glyph glyph-name="D" unicode="D" horiz-adv-x="710" 
d="M45 614q0 22 9 33q95 54 210 54q105 0 183.5 -28t126 -80t70.5 -119.5t23 -151.5q0 -166 -92 -249t-290 -83q-117 0 -224 42q-10 10 -10 69q0 33 3 43q3 15 42 15q11 0 25 -2q-10 70 -10 186q0 103 12 190q-11 -3 -27 -3q-39 0 -42 15q-9 38 -9 69zM264 133
q29 -10 63 -10q83 0 143.5 57.5t60.5 148.5q0 93 -60 167t-144 74q-35 0 -63 -14q9 -90 9 -205q0 -137 -9 -218z" />
    <glyph glyph-name="E" unicode="E" horiz-adv-x="690" 
d="M46 103q0 16 16 52q18 9 40 9q10 0 16 -3q-12 89 -12 181q0 135 21 222q-23 -5 -37 -5q-18 0 -28 7q-14 20 -14 62q0 26 19 52q32 15 117 23.5t164 8.5q184 0 296 -38q10 -50 10 -77q0 -47 -23 -77q-25 -6 -43 -6q-32 0 -82 33l3 33q-19 13 -104 13q-30 0 -77 -3t-48 -6
q4 -36 4 -53q0 -89 -13 -122q98 0 99 3q-1 3 -1 9q0 11 9 27q6 5 33 5q42 0 58 -7q20 -33 20 -95q0 -56 -21 -77q-8 -7 -47 -7t-45 7q-9 12 -9 30l-101 -5q0 -59 -11 -164q16 -14 65 -21.5t81 -7.5q24 0 59.5 5.5t48.5 12.5l-3 33q50 33 83 33q18 0 42 -6q23 -30 23 -77
q0 -27 -10 -77q-75 -43 -272 -43q-96 0 -183 10.5t-122 26.5q-12 15 -16.5 30t-4.5 49z" />
    <glyph glyph-name="F" unicode="F" horiz-adv-x="642" 
d="M45 109q0 21 4 25q28 4 45 4q3 0 10.5 -0.5t11.5 -0.5q-7 90 -7 157q0 90 13 270q-33 -9 -45 -9q-9 0 -12 2q-16 12 -16 56q0 47 13 67q64 30 219 30q97 0 202 -11t146 -25q10 -50 10 -77q0 -47 -23 -77q-20 -5 -42 -5q-57 0 -73 32l3 33q-20 13 -104 13q-29 0 -71.5 -3
t-43.5 -6q-14 -49 -26 -153q86 0 87 3q0 25 10 35q32 7 36 7q29 0 53 -10q18 -21 18 -76q0 -31 -5.5 -59.5t-13.5 -36.5q-9 -7 -57 -7q-27 0 -33 6q-2 2 -4.5 5.5t-3.5 5t-2 4t-1.5 5.5t-0.5 8h-90q0 -89 5 -189q9 3 29 3q26 0 29 -4q10 -13 10 -72q0 -48 -2 -48
q-32 -25 -124 -25q-102 0 -141 20q-13 17 -13 103z" />
    <glyph glyph-name="G" unicode="G" horiz-adv-x="680" 
d="M42 345q0 161 77 263t196 102q70 0 144 -37q3 0 7 17t14 20q44 8 72 8q41 0 62 -17q7 -28 7 -63q0 -72 -21 -131q-5 -10 -66 -10q-33 0 -51 9q-9 7 -9 19q0 6 5 21q-70 46 -130 46q-76 0 -123.5 -69.5t-47.5 -174.5q0 -114 53.5 -172t123.5 -58q65 0 121 53q12 31 12 69
q0 36 -12 66q-18 0 -63 4.5t-46 12.5q-7 14 -7 30q0 21 10 35q21 31 91 31q37 0 80 -9.5t61 -24.5q9 -21 17 -87t8 -140q0 -88 -12 -149q-22 -16 -49 -16q-25 0 -61 12q-16 6 -16 54q-100 -65 -172 -65q-32 0 -67.5 10.5t-73 37t-67 65t-48.5 100.5t-19 138z" />
    <glyph glyph-name="H" unicode="H" horiz-adv-x="752" 
d="M50 86q0 48 6 54q12 7 25 9q18 3 23 3q-12 100 -12 201q0 97 12 193q-5 0 -23 3q-14 3 -25 9q-6 6 -6 54q0 52 6 59q37 28 130 28q60 0 83 -10q6 -10 14.5 -50.5t8.5 -61.5q0 -13 -3 -17q-22 -11 -38 -11q-11 0 -17 1q11 -70 12 -135q29 13 113 13q83 0 134 -15
q3 77 11 133q-5 0 -23 3q-14 3 -25 9q-6 6 -6 54q0 52 6 59q-1 12 32 20t83 8q65 0 108 -10q6 -10 14.5 -50.5t8.5 -61.5q0 -13 -3 -17q-22 -11 -48 -11q-11 0 -17 1q12 -81 12 -176q0 -78 -12 -226q6 1 17 1q16 0 38 -11q3 -4 3 -17q0 -21 -8.5 -61.5t-14.5 -50.5
q-18 -9 -65 -9q-53 0 -101 8t-47 19q-6 7 -6 59q0 48 6 54q12 7 25 9q18 3 23 3q-9 71 -11 161q-60 -8 -132 -8q-86 0 -118 8q-3 -80 -9 -165q6 1 17 1q16 0 38 -11q3 -4 3 -17q0 -21 -8 -61.5t-15 -50.5q-23 -10 -91 -10q-102 0 -122 28q-6 7 -6 59z" />
    <glyph glyph-name="I" unicode="I" horiz-adv-x="356" 
d="M55 86q0 48 6 54q9 5 35 9q18 3 23 3q-12 100 -12 201q0 97 12 193q-5 0 -23 3q-26 4 -35 9q-6 6 -6 54q0 52 6 59q-1 12 32.5 19.5t83.5 7.5q53 0 107 -9q6 -10 15 -50.5t8 -61.5q0 -13 -3 -17q-22 -11 -48 -11q-11 0 -17 1q12 -81 12 -176q0 -78 -12 -226q6 1 17 1
q26 0 48 -11q3 -4 3 -17q0 -21 -8.5 -61.5t-14.5 -50.5q-57 -5 -104 -5q-52 0 -86 6t-33 17q-6 7 -6 59z" />
    <glyph glyph-name="J" unicode="J" horiz-adv-x="598" 
d="M12 32q0 41 23.5 111.5t36.5 78.5q8 3 19 3q22 0 58.5 -7t45.5 -14q2 0 2 -8l-7 -51q37 -25 65 -25q30 0 51.5 26t33 70t16.5 91t5 101q0 103 -15 171q-13 -10 -38 -10q-27 0 -37 14q0 4 -0.5 12.5t-0.5 15.5q0 46 20 80q40 8 124 8q126 0 155 -25q3 -12 3 -45
q0 -50 -12 -64q-4 -5 -23 -5q-27 0 -37 5q13 -74 13 -154q0 -116 -25 -210.5t-76 -153t-120 -58.5q-62 0 -134 49q-8 -28 -13 -28q-5 -5 -67 -5q-59 0 -62 8q-4 1 -4 19z" />
    <glyph glyph-name="K" unicode="K" horiz-adv-x="746" 
d="M53 96q0 37 7 44q26 12 58 12q-12 100 -12 201q0 97 12 193q-47 5 -58 12q-7 8 -7 56q0 47 7 57q31 26 134 26q73 0 89 -8q8 -15 16 -49t8 -58q0 -15 -4 -22q-24 -12 -40 -12q-5 0 -15 2q11 -78 12 -124q5 -1 16 -1q64 0 138.5 37.5t89.5 88.5q-4 -1 -11 -1q-14 0 -30 14
q-12 19 -12 52q0 41 14 74q26 10 77 10q97 0 142 -25q12 -15 12 -49q0 -36 -12 -68q-12 -15 -38 -15q-10 0 -18 3q-10 -47 -41.5 -81t-91.5 -75q35 -29 76 -84t63.5 -92t37.5 -66q25 0 33 -8q22 -41 22 -90q0 -20 -6 -37q-10 -17 -133 -17q-81 0 -94 13q-22 29 -22 83
q0 24 8 35q7 13 33 13q-10 37 -44 98.5t-77 93.5q-21 -15 -60.5 -28t-74.5 -13l-9 -143q4 1 13 1q20 0 42 -11q12 -22 12 -78q0 -35 -7 -48q-58 -16 -125 -16q-98 0 -121 28q-9 18 -9 72z" />
    <glyph glyph-name="L" unicode="L" horiz-adv-x="639" 
d="M45 612q0 64 14 86q33 9 115 9q146 0 159 -9q15 -26 15 -87q0 -25 -6 -31q-22 -8 -52 -8q-19 0 -34 4q-3 -57 -3 -130q0 -194 33 -312q2 -9 66 -9q94 0 113 13l-3 43q56 31 107 31q21 0 38 -4q23 -67 23 -109q0 -32 -10 -65q-41 -14 -141.5 -25t-196.5 -11
q-155 0 -219 30q-12 24 -12 72q0 28 10 30q12 6 33 6q11 0 29 -2q-14 185 -14 294q0 31 10 149q-15 -3 -31 -3q-22 0 -38 6q-5 6 -5 32z" />
    <glyph glyph-name="M" unicode="M" horiz-adv-x="818" 
d="M50 84q0 38 15 56q25 12 48 12q-12 100 -12 201q0 97 12 193q-7 3 -23.5 5t-24.5 7q-8 12 -8 57q0 44 8 56q23 28 114 28q87 0 108 -26q17 -41 17 -84q0 -19 -6 -29q-21 -10 -35 -11q14 -15 71 -67.5t74 -73.5q17 21 73.5 74t70.5 68q-20 4 -27 8q-8 12 -8 57q0 44 8 56
q22 29 96 29q40 0 80 -8.5t57 -20.5q12 -15 12 -51q0 -39 -12 -60q-24 -12 -40 -12q-5 0 -15 2q12 -81 12 -176q0 -78 -12 -226q4 1 13 1q20 0 42 -11q5 -13 5 -43q0 -76 -25 -86q-11 -9 -91 -9q-87 0 -112 27q-16 17 -16 57q0 39 16 56q23 12 48 12q-12 100 -12 259
q-33 -44 -85 -88t-78 -44t-78.5 43.5t-84.5 87.5q-5 -171 -12 -262q4 1 13 1q20 0 42 -11q17 -23 17 -62q0 -34 -15 -50q-24 -27 -97 -27q-43 0 -83 9t-45 19q-15 18 -15 57z" />
    <glyph glyph-name="N" unicode="N" horiz-adv-x="761" 
d="M52 91q0 42 15 49q23 14 32 14q6 0 16 -2q-12 100 -12 201q0 97 12 193q-12 -2 -19 -2q-15 0 -29 14q-8 12 -8 57q0 44 8 56q-1 11 42.5 19t95.5 8q47 0 65 -9q29 -15 29 -70q0 -34 -9 -59q-19 -13 -36 -13q-8 0 -19 3q44 -33 139 -113.5t139 -126.5q0 148 12 236
q-6 -1 -18 -1q-16 0 -30 13q-15 26 -15 66q0 36 15 47q37 28 121 28q60 0 82 -10q33 -19 33 -79q0 -33 -13 -50q-26 -12 -38 -12q-7 0 -17 2q12 -81 12 -176q0 -78 -12 -226q12 3 16 3q26 0 39 -13q11 -14 11 -41q0 -25 -9 -51.5t-22 -36.5q-20 -9 -98 -9q-82 0 -105 26
q-15 15 -15 64q0 40 15 50q20 14 29 14q6 0 16 -2q-40 26 -142 121.5t-134 120.5q-2 -142 -11 -246q12 2 21 2q20 0 34 -12q9 -10 9 -38t-8.5 -56.5t-20.5 -34.5q-18 -9 -65 -9q-52 0 -95.5 8t-42.5 19q-15 15 -15 64z" />
    <glyph glyph-name="O" unicode="O" horiz-adv-x="742" 
d="M38 266q0 75 31 152.5t83.5 140.5t130.5 103t165 40q127 0 190.5 -80t63.5 -203q0 -74 -23 -147.5t-66.5 -137.5t-117 -104t-164.5 -40q-130 0 -211.5 75.5t-81.5 200.5zM187 282q0 -73 39 -116.5t102 -43.5q66 0 122 49t85 116t29 129q0 66 -35.5 107.5t-103.5 41.5
q-70 0 -126 -45.5t-84 -109.5t-28 -128z" />
    <glyph glyph-name="P" unicode="P" horiz-adv-x="654" 
d="M38 626q0 46 15 65q60 21 118 21q55 0 80 -18q5 -19 5 -35q0 -8 -1 -9q19 6 58.5 19.5t58.5 19.5t45.5 11.5t46.5 5.5q75 0 122.5 -60.5t47.5 -150.5q0 -107 -66.5 -192t-179.5 -85q-60 0 -109 30q2 -10 2 -49q0 -22 -6 -70q4 1 26 1q16 0 33.5 -5t22.5 -13
q15 -10 15 -46q0 -31 -15 -47q-6 -20 -126 -20q-161 0 -167 20q-13 14 -13 44q0 31 13 49q11 18 48 18q10 0 14 -1q0 17 -1 63t-1 95q0 177 10 233q-3 -1 -17 -1q-31 0 -53 5q-26 32 -26 102zM267 431q0 -42 21.5 -65t54.5 -23q48 0 93.5 41.5t45.5 99.5q0 40 -22.5 67.5
t-60.5 27.5q-49 0 -90.5 -44t-41.5 -104z" />
    <glyph glyph-name="Q" unicode="Q" horiz-adv-x="764" 
d="M38 272q0 75 31 151.5t83.5 138.5t130.5 101t165 39q72 0 126.5 -27.5t85 -74.5t45.5 -104t15 -123q0 -175 -106 -290q18 -62 26 -93q21 16 44 16q12 0 20 -4q12 -8 20 -34t8 -51q0 -16 -2 -22q-25 -25 -84 -44.5t-107 -19.5q-27 0 -42 7q-18 8 -31.5 30t-13.5 44
q0 8 1 11q4 14 22 23t34 9q-6 11 -15.5 31t-12.5 26q-31 -22 -124 -22q-159 0 -239 80.5t-80 201.5zM195 292q0 -70 42.5 -120t111.5 -50q91 0 168 81.5t77 184.5q0 74 -44 125.5t-116 51.5q-66 0 -122.5 -44t-86.5 -106.5t-30 -122.5z" />
    <glyph glyph-name="R" unicode="R" horiz-adv-x="719" 
d="M39 614q0 70 23 86q27 8 72 8q56 0 101 -14q5 -19 5 -35q0 -8 -1 -9q17 5 47.5 15t43.5 14t34.5 10.5t33 9t26 4.5t25.5 2q44 0 78.5 -24.5t54 -61.5t29 -74t9.5 -68q0 -67 -41.5 -117t-99.5 -82q69 -48 130 -98.5t64 -65.5q8 4 18 4q11 0 26 -6q15 -14 15 -48t-13 -47
q-33 -17 -139 -17q-51 0 -100 17q-10 4 -17 20.5t-7 36.5q0 25 11 36q7 6 17 6q7 0 19 -4q-11 26 -33 46.5t-46 32t-51.5 20t-48 11.5t-36.5 4l-15 2q5 -25 5 -52q0 -26 -5 -49q7 3 19 3q32 0 49 -18q4 -9 4 -47q0 -37 -4 -46q-6 -20 -176 -20q-61 0 -82.5 4.5t-24.5 15.5
q-4 9 -4 46q0 38 4 47q5 8 22.5 13t33.5 5q12 0 16 -1q0 17 -1 63t-1 95q0 177 10 233q-12 -5 -31 -5q-29 0 -40 11q-28 6 -28 88zM260 434q0 -42 21.5 -65t54.5 -23q48 0 93.5 41.5t45.5 99.5q0 40 -22.5 67.5t-60.5 27.5q-49 0 -90.5 -44t-41.5 -104z" />
    <glyph glyph-name="S" unicode="S" horiz-adv-x="628" 
d="M41 101q0 49 19 84q44 14 57 14q24 0 73 -14q5 -13 7 -38q48 -32 108 -32q55 0 96.5 32.5t41.5 72.5q0 57 -110 61q-42 2 -73 5.5t-73.5 15t-69.5 30.5t-46.5 53.5t-19.5 81.5q0 100 73 171.5t175 71.5q71 0 136 -36q6 30 21 42q19 10 48 10q46 0 64 -18q6 -18 6 -90
q0 -48 -8.5 -68t-32.5 -25q-17 -5 -33 -5q-36 0 -59 15q-6 15 -6 33q-34 17 -99 17q-70 0 -107 -22.5t-37 -75.5q0 -39 22.5 -56.5t72.5 -19.5q142 -7 193 -23q109 -33 109 -144q0 -105 -78 -179.5t-200 -74.5q-69 0 -120 37q0 -25 -10 -37q-18 -10 -59 -10q-44 0 -60 15
q-21 40 -21 106z" />
    <glyph glyph-name="T" unicode="T" horiz-adv-x="725" 
d="M11 577q0 69 14 111q19 1 81 4.5t124.5 5.5t127.5 2t129 -2t129.5 -5.5t83.5 -4.5q14 -42 14 -111q0 -36 -7 -63q-50 -10 -71 -10q-44 0 -74 17l-17 52q-13 8 -113 11q6 -128 6 -266q0 -108 -11 -166q5 0 23 -3q26 -4 35 -9q6 -8 6 -61q0 -39 -7 -51q-16 -28 -121 -28
q-106 0 -122 28q-7 12 -7 52q0 52 6 60q9 5 35 9q18 3 23 3q-11 58 -11 166q0 138 6 266q-100 -3 -113 -11l-17 -52q-30 -17 -74 -17q-21 0 -71 10q-7 27 -7 63z" />
    <glyph glyph-name="U" unicode="U" horiz-adv-x="771" 
d="M7 611q0 36 21 68q60 23 123 23q61 0 124 -21q24 -29 24 -67q0 -33 -19 -58q-10 -6 -21 -6t-24 5q-8 -34 -8 -85q0 -144 52 -231.5t121 -87.5q67 0 107 90.5t40 243.5q0 51 -6 80q-10 -12 -32 -12q-17 0 -21 10q-17 25 -17 57t17 58q60 24 138 24q82 0 118 -31
q18 -29 18 -50q0 -18 -16 -45q-16 -14 -42 -14q-11 0 -20 3q10 -54 10 -118q0 -206 -85 -327t-201 -121q-60 0 -118 35t-104.5 97t-75 157.5t-28.5 206.5q0 13 0.5 28t0.5 23q-6 -5 -21 -5q-27 0 -35 8q-20 27 -20 62z" />
    <glyph glyph-name="V" unicode="V" horiz-adv-x="771" 
d="M4 627q0 37 15 61q13 12 156 12q103 0 103 -11q22 -14 22 -80q0 -19 -3 -28q0 -6 -7.5 -11t-18.5 -5q-29 0 -29 4q-4 0 -4 -10q0 -42 50 -194t98 -241q48 80 98.5 234t50.5 201q0 10 -4 10q0 -4 -29 -4q-11 0 -18.5 5t-7.5 11q-3 9 -3 28q0 66 22 80q0 11 123 11t136 -12
q12 -16 12 -56q0 -51 -17 -68q-9 -4 -23 -4q-29 0 -33 6q-2 -53 -91.5 -302t-111.5 -259q-46 -9 -99 -9q-55 0 -108 9q-21 9 -110 261.5t-89 296.5q0 4 1 5q-23 -9 -37 -9q-11 0 -24 5q-20 14 -20 63z" />
    <glyph glyph-name="W" unicode="W" horiz-adv-x="913" 
d="M15 615q0 44 8 56q31 25 127 25q47 0 96 -7q8 -15 16 -49t8 -58q0 -15 -4 -22q-15 -11 -44 -11q-8 0 -11 1q16 -29 43.5 -131t28.5 -151q14 13 49.5 69.5t69.5 102.5t54 46t54 -45.5t70 -103t49 -70.5q6 51 30 139.5t42 139.5q-12 4 -17 7t-11 8t-13 9q-14 11 -14 70
q0 39 7 47q17 12 82 12q91 0 141 -10q11 -8 17.5 -40t6.5 -62q0 -20 -4 -27q-26 -12 -48 -12q-7 0 -17 2q-12 -205 -110 -402q6 -2 11.5 -3t8 -1t6.5 -1.5t9 -4.5q4 -8 4 -24q0 -24 -8 -57.5t-16 -47.5q-20 -9 -72 -9q-53 0 -91.5 7.5t-39.5 19.5q-7 12 -7 63q0 43 7 50
q2 1 11 2.5t20.5 3t15.5 2.5q-4 4 -125 152q-123 -149 -124 -151q39 -4 55 -11q4 -8 4 -24q0 -24 -8 -57.5t-16 -47.5q-20 -10 -88 -10q-114 0 -115 28q-8 18 -8 67q0 38 8 46q12 12 28 12q-100 214 -110 394q-47 5 -58 12q-8 12 -8 57z" />
    <glyph glyph-name="X" unicode="X" horiz-adv-x="750" 
d="M26 51q0 41 29 83q24 0 46 -2q0 35 63 114t107 107q-46 30 -107.5 103.5t-62.5 111.5q-13 -4 -47 -4q-26 26 -26 82q0 21 4 37q53 20 124 20q38 0 61 -9q19 -6 30.5 -28.5t11.5 -46.5q0 -20 -9 -32q-9 -5 -18 -5q-6 0 -18 2q18 -7 70.5 -62.5t88.5 -106.5
q31 36 86.5 92.5t84.5 76.5q-6 -2 -18 -2q-17 0 -20 6q-8 22 -8 40q0 39 32 65q45 10 84 10q58 0 104 -21q7 -19 7 -41q0 -41 -21 -64q-36 0 -46 3q-1 -37 -66.5 -116.5t-110.5 -110.5q43 -27 106 -107t63 -113l9 1h19h13q13 -9 24 -37t11 -52q0 -20 -9 -26
q-60 -23 -124 -23q-51 0 -92 16q-16 37 -16 69q0 22 7 37q18 9 45 9q-62 39 -164 166q-30 -37 -84 -94t-78 -71q5 1 16 1q16 0 23 -6q3 -17 3 -31q0 -39 -36 -85q-25 -11 -66 -11q-66 0 -119 22q-6 16 -6 33z" />
    <glyph glyph-name="Y" unicode="Y" horiz-adv-x="682" 
d="M4 605q17 25 75.5 55t135.5 42q39 -61 39 -82q0 -5 -25 -17q-18 -9 -31 -9q6 -19 57.5 -80t90.5 -102q25 15 78 87.5t60 94.5q-12 0 -31 9q-24 11 -25 16q1 8 18 44t21 39q116 0 211 -97q-12 -67 -28 -86q-19 4 -42 15q-4 -6 -20.5 -32t-28.5 -42t-32.5 -40.5
t-46.5 -46.5t-56 -42q-5 -23 -7.5 -109t-4.5 -101q25 0 51 -14q4 -4 4 -21q0 -19 -5 -45t-8 -33q-7 -9 -118 -9q-36 0 -52 0.5t-35.5 1.5t-28.5 4.5t-13 9.5q-4 10 -4 50q0 36 8 44q25 12 58 12q0 11 -1.5 60t-3.5 89.5t-5 60.5q-60 39 -119.5 110.5t-65.5 92.5
q-23 -11 -42 -15q-20 39 -28 86z" />
    <glyph glyph-name="Z" unicode="Z" 
d="M23 3q0 69 38.5 135t100 120t125.5 101.5t127 98.5t92 93q-2 -1 -35 -2.5t-78.5 -3t-72.5 -1.5q-79 0 -89 -5q-10 -36 -13 -41q-43 -8 -74 -8q-33 0 -65 9q-18 36 -18 117q0 56 18 81q22 5 84 5q78 0 89 -10q2 -8 2 -11q0 -1 -2 -9q102 4 166 4q70 0 109 -3q3 18 9 21
q4 10 95 10q64 0 69 -4q-3 -89 -51 -172t-113.5 -141.5t-130.5 -106.5t-110 -84t-45 -56q34 -9 87 -9q132 0 193 23q0 40 13 49q23 9 79 9q48 0 63 -9q11 -6 18 -42.5t7 -80.5q0 -96 -26 -99q-27 -5 -80 -5q-75 0 -86 11q-5 1 -9 42q-91 -30 -195 -30q-34 0 -118 6
q-1 -16 -8 -18q-4 -11 -93 -11q-63 0 -71 4q-1 8 -1 23z" />
    <glyph glyph-name="bracketleft" unicode="[" horiz-adv-x="383" 
d="M55 257q0 195 42 393q91 16 155 16t116 -16q7 -12 7 -20q0 -10 -7 -18q-54 -13 -100 -13q-84 0 -126 13q21 -162 21 -354q0 -198 -21 -364q42 13 126 13q44 0 96 -13q13 -13 13 -26q0 -4 -2 -12q-51 -16 -116 -16q-64 0 -162 16q-42 207 -42 401z" />
    <glyph glyph-name="backslash" unicode="\" horiz-adv-x="533" 
d="M21 702q0 4 5.5 10t14.5 7q296 -304 472 -809q0 -14 -20 -17q-326 344 -472 809z" />
    <glyph glyph-name="bracketright" unicode="]" horiz-adv-x="383" 
d="M6 -132q0 13 13 26q52 13 96 13q84 0 126 -13q-21 166 -21 364q0 192 21 354q-42 -13 -126 -13q-46 0 -100 13q-7 8 -7 18q0 8 7 20q52 16 116 16t155 -16q42 -198 42 -393q0 -194 -42 -401q-98 -16 -162 -16q-65 0 -116 16q-2 8 -2 12z" />
    <glyph glyph-name="asciicircum" unicode="^" horiz-adv-x="833" 
d="M172 503q3 5 13 23t14 25t14 22t17 24.5t18 22.5t23 24q18 14 39 14q20 0 45 -14q55 -52 99 -141q-9 -4 -17 -4t-19 4q-24 13 -56 44.5t-49 56.5q-67 -84 -105 -101q-12 -4 -16 -4q-8 0 -20 4z" />
    <glyph glyph-name="underscore" unicode="_" horiz-adv-x="730" 
d="M104 -172q0 10 8 20q94 11 334 11q57 0 99.5 -2t72.5 -5.5t40 -3.5q8 -8 8 -20t-8 -27q-4 -6 -101 -9.5t-165 -3.5q-88 0 -280 13q-8 15 -8 27z" />
    <glyph glyph-name="grave" unicode="`" horiz-adv-x="833" 
d="M233 721q23 25 65 25q8 0 13 -1q45 -49 86 -151q-3 -3 -15 -3q-9 0 -15 3q-93 57 -134 127z" />
    <glyph glyph-name="a" unicode="a" horiz-adv-x="623" 
d="M35 207q0 72 21.5 139.5t69 116.5t111.5 49q29 0 51.5 -10t35 -24.5t20.5 -29t11 -24.5t4 -10q0 54 -1 71q20 17 41.5 22.5t59.5 5.5q30 0 53.5 -2t35.5 -5t19.5 -6t9.5 -4l2 -1q4 -9 4 -56q0 -48 -4 -57q-3 -7 -32 -12.5t-50 -5.5q-10 0 -22 2q3 -6 3 -51
q0 -131 -9 -145q7 3 17 3q44 0 86 -9q8 -6 8 -85q0 -44 -3 -56q-7 -11 -44 -21t-84 -10q-85 0 -105 4q-7 19 -7 32q0 8 3 12q-12 -4 -68 -30t-81 -26q-77 0 -116.5 65t-39.5 158zM160 233q0 -56 34.5 -94.5t72.5 -38.5q21 0 48 11t29 20q3 46 5.5 84.5t4 59t1.5 26.5v12
q0 21 -27.5 41.5t-61.5 20.5q-50 0 -78 -45.5t-28 -96.5z" />
    <glyph glyph-name="b" unicode="b" horiz-adv-x="605" 
d="M15 683q0 45 4 56l1 1q2 2 8 5t15.5 6t29.5 5t45 2q118 0 153 -30q5 -10 5 -109q0 -42 -1.5 -79.5t-1.5 -39.5q42 12 78 12q101 0 160.5 -78.5t59.5 -179.5q0 -58 -19.5 -117t-61.5 -102t-95 -43q-33 0 -81.5 25.5t-64.5 30.5q1 -1 1 -9q0 -16 -5 -35q-20 -4 -115 -4
q-89 0 -108 31q-3 12 -3 56q0 79 8 85q16 10 73 10q29 0 36 -4q-1 38 -1 112q0 46 0.5 98.5t1.5 116.5t1 104q-4 -1 -16 -1q-72 0 -103 18q-4 11 -4 57zM263 163q0 -9 29 -22.5t53 -13.5q39 0 70 38t31 99q0 50 -21.5 96.5t-68.5 49.5q-36 0 -61.5 -17.5t-26.5 -36.5
q-1 -13 -1.5 -37t-1.5 -69t-2 -87z" />
    <glyph glyph-name="c" unicode="c" horiz-adv-x="610" 
d="M32 237q0 49 21.5 96.5t60.5 87.5t102.5 65t140.5 25q24 0 37 -1l8 25q30 6 58 6q55 0 107 -33q6 -48 6 -73q0 -74 -29 -86q-28 -11 -54 -11q-48 0 -118 19l6 39q-20 2 -32 2q-73 0 -126.5 -40.5t-53.5 -116.5q0 -64 37.5 -95t89.5 -31q31 0 81 13l-3 36q50 33 122 33
q20 0 47 -5q37 -46 37 -106q0 -25 -7 -79q-42 -34 -116 -34q-20 0 -46 2l-11 16q-29 -3 -56 -3q-136 0 -222.5 73.5t-86.5 175.5z" />
    <glyph glyph-name="d" unicode="d" horiz-adv-x="606" 
d="M34 254q0 101 59.5 179.5t160.5 78.5q36 0 78 -12q0 2 -1.5 39.5t-1.5 79.5q0 99 5 109q35 30 153 30q25 0 45 -2t29.5 -5t15.5 -6t7 -5l2 -1q4 -9 4 -56q0 -48 -4 -57q-33 -18 -103 -18q-12 0 -16 1q0 -51 2.5 -154t2.5 -152q0 -63 -3 -125q7 4 36 4q57 0 73 -10
q8 -6 8 -85q0 -44 -3 -56q-24 -31 -118 -31q-57 0 -105 4q-5 19 -5 35q0 8 1 9q-16 -5 -64.5 -30.5t-81.5 -25.5q-53 0 -95 43t-61.5 102t-19.5 117zM159 265q0 -62 31.5 -100t69.5 -38q24 0 53 13.5t29 22.5q-1 42 -2 87t-1.5 69t-1.5 37q0 19 -27.5 36.5t-58.5 17.5
q-34 0 -56 -26.5t-29 -57t-7 -61.5z" />
    <glyph glyph-name="e" unicode="e" horiz-adv-x="559" 
d="M32 209q0 113 81.5 207t182.5 94q62 0 106 -38t44 -99q0 -71 -58.5 -121.5t-154.5 -50.5q-55 0 -77 17q1 -48 34 -76.5t76 -28.5q56 0 91 44q0 8 3 17q44 36 95 36q10 0 15 -1q66 -36 81 -118q-1 -8 -7.5 -17t-13.5 -15.5t-20 -15t-20.5 -12.5t-22 -12t-16.5 -9
q-6 0 -10 1.5t-7.5 5t-4.5 5t-4 8t-4 7.5q-74 -49 -159 -49q-95 0 -162.5 61t-67.5 160zM188 326q0 -33 48 -33q36 0 69 17t33 42q0 17 -11.5 35.5t-36.5 18.5q-31 0 -66.5 -25t-35.5 -55z" />
    <glyph glyph-name="f" unicode="f" horiz-adv-x="385" 
d="M40 389q0 76 13 93q15 8 59 13q0 38 -1.5 89.5t-1.5 64.5q0 70 25.5 89t117.5 19q69 0 100 -6t63 -20q13 -17 13 -63q0 -39 -10 -68l-92 21l6 21q-6 1 -18 1q-80 0 -80 -79q0 -6 0.5 -34t0.5 -32q14 0 36 0.5t31 0.5q29 0 52 -4q4 -4 4 -25q0 -76 -13 -93
q-18 -11 -103 -14l7 -189q14 8 37 8q22 0 26 -6q13 -16 13 -74q0 -39 -6 -87q-36 -18 -156 -18q-89 0 -108 16q-10 14 -10 65q0 72 29 89q15 9 29 9q3 0 13 -2q0 10 -1.5 78t-1.5 109q-1 0 -4.5 -0.5t-10.5 -0.5h-12q-14 0 -42 4q-4 4 -4 25z" />
    <glyph glyph-name="g" unicode="g" horiz-adv-x="586" 
d="M31 196q0 74 37 145.5t108 120t158 48.5q29 0 57 -7q19 30 31.5 44t23.5 14q22 0 69.5 -34t47.5 -62q-1 -11 -76 -62q41 -61 41 -141q0 -101 -60.5 -181t-147.5 -80q-13 0 -19 1q-1 -2 -1 -5q0 -15 26.5 -26t59 -17.5t59 -24.5t26.5 -47q0 -33 -34 -60t-82.5 -41.5
t-94.5 -22.5t-78 -8q-47 0 -56 86q202 9 202 43q0 11 -31 18.5t-68 12.5t-68 25.5t-31 54.5q0 14 4 27q-52 26 -77.5 73.5t-25.5 105.5zM156 205q0 -45 27 -76t71 -31q58 0 107.5 50t49.5 117q0 49 -27.5 80.5t-75.5 31.5q-65 0 -108.5 -55.5t-43.5 -116.5z" />
    <glyph glyph-name="h" unicode="h" horiz-adv-x="717" 
d="M2 639q0 76 13 93q29 18 127 18q29 0 66 -3t39 -5q10 -17 10 -228q0 -66 -3 -74q93 70 193 70q84 0 136.5 -55t52.5 -173q0 -96 -6 -119q2 2 10 2q26 0 46 -5q9 -10 9 -55q0 -69 -10 -85q-75 -20 -137 -20q-59 0 -110 18q-7 5 -15 35.5t-8 51.5q0 19 18 43q11 7 29 7
q14 0 27 -5q0 3 0.5 53.5t0.5 56.5q0 61 -34 104.5t-88 43.5q-99 0 -99 -167q0 -19 3 -97q12 7 31 7q18 0 22 -5q10 0 10 -40q0 -10 -1 -16l-4 -21q-2 -15 -5 -35q-77 -34 -200 -34q-85 0 -106 28q-9 12 -9 35q0 85 82 85q22 0 39 -4q-5 230 -5 401q0 60 2 66q-4 0 -12 -0.5
t-15 -0.5q-67 0 -95 4q-4 4 -4 25z" />
    <glyph glyph-name="i" unicode="i" horiz-adv-x="358" 
d="M28 83q0 51 6 58q12 7 30 9q12 2 52 2q-6 63 -6 137q0 81 10 103q-49 0 -65 4q1 27 7 57q2 13 12 51q37 7 124 7q35 0 64.5 -4t45 -9.5t15.5 -10.5q2 0 2 -36q0 -57 -10 -72q-4 -6 -24 -6q-37 0 -47 5q-11 -70 -11 -182q0 -46 3 -48q6 1 17 1q36 0 58 -11q3 -4 3 -18
q0 -25 -7 -60t-20 -48q-12 -12 -78 -12q-157 0 -174 29q-7 13 -7 54zM108 706q0 28 30 28q25 0 54 -15q21 21 56 21q22 0 39 -15t17 -41q0 -13 -5.5 -25t-11.5 -20t-20 -18.5t-21.5 -15t-26.5 -15t-24 -13.5q-39 29 -63 65.5t-24 63.5z" />
    <glyph glyph-name="j" unicode="j" horiz-adv-x="481" 
d="M-60 -168q0 41 23.5 111.5t36.5 78.5q8 3 19 3q20 0 47.5 -7t36.5 -14q2 0 2 -15q0 -1 -6 -38q56 -39 92 -39q41 0 60 54t19 142q0 48 -5 100.5t-12.5 103t-8.5 60.5q-8 -7 -25 -7q-21 0 -50 11q-7 10 -7 32q0 27 8 60.5t18 35.5q42 8 94 8q137 0 165 -25q6 -12 6 -38
q0 -23 -4 -53.5t-10 -38.5q-9 -6 -26 -6q-21 0 -35 7q1 -31 9 -133t8 -160q0 -285 -152 -285q-74 0 -175 61q-9 -31 -14 -31h-1q-5 -5 -48 -5q-58 0 -61 8q-4 1 -4 19zM237 706q0 28 30 28q25 0 54 -15q21 21 56 21q22 0 39 -15t17 -41q0 -13 -5.5 -25t-11.5 -20t-20 -18.5
t-21.5 -15t-26.5 -15t-24 -13.5q-39 29 -63 65.5t-24 63.5z" />
    <glyph glyph-name="k" unicode="k" horiz-adv-x="617" 
d="M8 666q0 50 25 66q51 14 120 14q64 0 102 -14q13 -13 13 -56q0 -47 -13 -62q-24 -4 -39 -4q1 -48 10 -206q11 8 32.5 23t35.5 25.5t29 23.5t23 24t8 21q0 9 -10 18q-7 -7 -25 -7q-7 5 -13 20t-6 28q0 12 6 15q60 20 112 20q57 0 110 -22q5 -12 5 -28q0 -42 -24 -49
q-3 -1 -13 -1q-25 0 -33 8q-1 -6 -18.5 -28t-52 -55.5t-73.5 -64.5q96 -40 162.5 -119t66.5 -112q8 4 19 4q9 0 25 -6q17 -8 17 -58q0 -44 -15 -67q-39 -18 -93 -18q-45 0 -121 16q-12 18 -12 57q0 48 14 68q8 5 19 5q8 0 17 -3q-18 95 -192 159q-1 -14 -2 -45.5t-2.5 -57.5
t-5.5 -46q15 9 48 9q17 0 21 -5q7 -4 12 -30.5t5 -56.5q0 -46 -10 -55q-53 -14 -149 -14q-75 0 -102 12q-17 26 -17 84q0 42 15 50q14 10 44 10q8 0 14 -2q-1 78 -2.5 155.5t-2.5 119.5t-1 71t2 111q-18 -8 -35 -8q-20 0 -34 11q-16 22 -16 52z" />
    <glyph glyph-name="l" unicode="l" horiz-adv-x="318" 
d="M31 90q0 43 7 50q26 12 58 12q-11 66 -11 202q0 160 10 278q-29 0 -45 4q-2 20 -2 32q0 44 21 76q43 10 81 10q48 0 75 -10q10 -94 10 -199q0 -74 -6.5 -211t-7.5 -186q5 1 16 1q30 0 49 -11q4 -8 4 -24q0 -24 -8 -57.5t-16 -47.5q-13 -10 -99 -10q-47 0 -84.5 8
t-44.5 20t-7 63z" />
    <glyph glyph-name="m" unicode="m" horiz-adv-x="1064" 
d="M33 70q0 62 27 77q25 9 68 9q6 0 16 -2q0 29 -2 93.5t-2 97.5q-4 0 -33 -2.5t-34 -2.5q-4 0 -12 2t-12 2q-4 4 -4 21q0 27 8 67.5t15 49.5q30 18 114 18q54 0 72 -7t18 -31q0 -30 -5 -60q93 108 198 108q50 0 91.5 -25.5t63.5 -73.5v5q90 94 189 94q173 0 173 -242
q0 -47 -6 -95q0 2 9 2q15 0 47 -5q9 -10 9 -65q0 -69 -10 -85q-75 -20 -130 -20q-39 0 -90 18q-7 5 -15 35.5t-8 52.5q0 33 18 57q11 7 29 7q14 0 27 -5q0 3 0.5 26t0.5 30q0 65 -36 111t-82 46q-27 0 -57 -16.5t-46 -43.5q1 -7 0 -23q0 -72 -6 -121h2q1 1 2 1q32 0 62 -5
q9 -10 9 -65q0 -69 -10 -85q-75 -20 -140 -20q-49 0 -100 18q-7 5 -15 35.5t-8 52.5q0 33 18 57q11 7 29 7q24 0 37 -5q0 3 0.5 26t0.5 29q0 63 -34.5 110.5t-86.5 47.5q-45 0 -82.5 -36.5t-37.5 -114.5q0 -28 3 -73q12 7 31 7q18 0 22 -5q10 0 10 -40q0 -9 -10 -82
q-72 -35 -186 -35q-86 0 -110 29q-9 12 -9 42z" />
    <glyph glyph-name="n" unicode="n" horiz-adv-x="724" 
d="M33 70q0 62 27 77q25 9 68 9q6 0 16 -2q0 29 -2 93.5t-2 97.5q-4 0 -33 -2.5t-34 -2.5q-4 0 -12 2t-12 2q-4 4 -4 21q0 27 8 67.5t15 49.5q29 18 106 18q61 0 79.5 -6.5t18.5 -31.5q0 -30 -5 -60q94 108 203 108q172 0 172 -242q0 -49 -6 -95q0 2 9 2q15 0 47 -5
q9 -10 9 -65q0 -69 -10 -85q-75 -20 -130 -20q-39 0 -90 18q-7 5 -15 35.5t-8 52.5q0 33 18 57q11 7 29 7q14 0 27 -5q0 3 0.5 26t0.5 29q0 63 -34.5 110.5t-86.5 47.5q-45 0 -82.5 -36.5t-37.5 -114.5q0 -28 3 -73q12 7 31 7q18 0 22 -5q10 0 10 -40q0 -9 -10 -82
q-72 -35 -183 -35q-91 0 -113 28q-9 11 -9 43z" />
    <glyph glyph-name="o" unicode="o" horiz-adv-x="532" 
d="M35 213q0 124 74 210.5t192 86.5q54 0 93.5 -19.5t61 -54t31 -75t9.5 -89.5q0 -138 -70.5 -210t-183.5 -72q-60 0 -103 20.5t-64.5 55t-30.5 70.5t-9 77zM178 221q0 -50 31 -86t74 -36q37 0 64 30.5t37 65t10 64.5q0 45 -27 78.5t-68 33.5q-50 0 -85.5 -47.5
t-35.5 -102.5z" />
    <glyph glyph-name="p" unicode="p" horiz-adv-x="605" 
d="M14 -180q0 47 4 56q30 18 103 18q12 0 16 -1q0 51 -2 155t-2 157q0 79 2 119q-7 -4 -36 -4q-57 0 -73 10q-8 6 -8 85q0 44 3 56q19 31 108 31q95 0 115 -4q5 -19 5 -35q0 -8 -1 -9q15 5 64.5 30.5t74.5 25.5q58 0 101.5 -43.5t62.5 -101.5t19 -116q0 -102 -59.5 -180.5
t-160.5 -78.5q-36 0 -78 12q0 -2 1.5 -39.5t1.5 -79.5q0 -93 -5 -103q-35 -30 -153 -30q-25 0 -45 2t-29.5 5t-15.5 6t-7 5l-2 1q-4 9 -4 51zM262 339q1 -42 2 -87t1.5 -69t1.5 -37q0 -18 26 -36t58 -18q34 0 56.5 25.5t30 56t7.5 62.5q0 64 -31.5 101.5t-69.5 37.5
q-24 0 -53 -13.5t-29 -22.5z" />
    <glyph glyph-name="q" unicode="q" horiz-adv-x="605" 
d="M34 248q0 58 19.5 117t61.5 102t95 43q33 0 81.5 -25.5t64.5 -30.5q-1 1 -1 9q0 16 5 35q20 4 115 4q89 0 108 -31q3 -12 3 -56q0 -79 -8 -85q-16 -10 -73 -10q-29 0 -36 4q1 -15 1 -88q0 -199 -3 -343q4 1 16 1q72 0 103 -18q4 -9 4 -56q0 -42 -4 -51l-2 -1q-1 -2 -7 -5
t-15.5 -6t-29.5 -5t-45 -2q-118 0 -153 30q-5 10 -5 103q0 42 1.5 79.5t1.5 39.5q-42 -12 -78 -12q-101 0 -160.5 78.5t-59.5 179.5zM159 236q0 -32 7.5 -62.5t30 -56t56.5 -25.5q32 0 58 18t26 36q1 13 1.5 37t1.5 69t2 87q0 9 -29 22.5t-53 13.5q-38 0 -69.5 -37.5
t-31.5 -101.5z" />
    <glyph glyph-name="r" unicode="r" horiz-adv-x="516" 
d="M40 437q0 41 6 58q57 17 111 17q65 0 100 -27q-1 -17 -1 -51l4 8q3 8 11.5 19.5t20.5 23t34 19.5t49 8q76 0 129 -65q-7 -44 -35 -67t-56 -25q-37 26 -71 26q-99 0 -99 -126q0 -43 11 -94q2 5 28 5q30 0 37 -7q12 -19 12 -62q0 -65 -23 -85q-51 -11 -123 -11
q-118 0 -137 22q-3 12 -3 61q0 70 6 75q7 9 39 9q23 0 34 -7q-9 23 -9 155q0 44 3 50q-12 -2 -22 -2q-36 0 -50 18q-6 15 -6 55z" />
    <glyph glyph-name="s" unicode="s" horiz-adv-x="556" 
d="M29 30q6 104 71 143q7 1 21 1q53 0 81 -35q0 -1 0.5 -3.5t0.5 -3.5q0 -3 -2 -11q9 -15 32.5 -24.5t50.5 -9.5q38 0 60.5 18t22.5 43q0 49 -81 53q-31 1 -50 3t-51.5 7t-53.5 15t-42.5 25t-32.5 40t-11 58q0 78 61.5 118t152.5 40q80 0 136 -18q6 10 16.5 20t16.5 12
q74 -7 98 -50q-6 -104 -71 -143q-7 -1 -21 -1q-53 0 -81 35q0 1 -0.5 3.5t-0.5 3.5q0 3 2 11q-11 13 -39.5 22t-58.5 9q-77 0 -77 -51q0 -60 109 -64q31 -1 49 -2.5t48.5 -6t49.5 -14t38.5 -24.5t29 -39.5t9.5 -57.5q0 -158 -232 -158q-78 0 -130 18q-16 -30 -23 -32
q-74 7 -98 50z" />
    <glyph glyph-name="t" unicode="t" horiz-adv-x="420" 
d="M12 475q0 22 6 28q18 3 47 3h22v188q52 4 67 4t61 -4l10 -190q110 -5 126 -14q15 -26 15 -80q0 -22 -6 -28q-31 -4 -71 -4q-13 0 -39 0.5t-39 0.5q0 -33 -0.5 -83t-0.5 -71q0 -78 10.5 -95.5t57.5 -17.5q18 0 30 2l-6 21l92 21q10 -29 10 -68q0 -65 -13 -82
q-98 -14 -163 -14q-85 0 -112 24q-12 11 -19 29t-9.5 51.5t-3.5 67t-3 97.5t-5 121q-32 3 -49 13q-15 26 -15 80z" />
    <glyph glyph-name="u" unicode="u" horiz-adv-x="725" 
d="M23 395q0 69 10 85q75 20 130 20q39 0 90 -18q7 -5 15 -35.5t8 -52.5q0 -33 -18 -57q-11 -7 -29 -7q-14 0 -27 5q0 -3 -0.5 -26t-0.5 -29q0 -63 34.5 -110.5t86.5 -47.5q45 0 82.5 36.5t37.5 114.5q0 28 -3 73q-12 -7 -31 -7q-18 0 -22 5q-10 0 -10 40q0 9 10 82
q72 35 186 35q86 0 110 -29q9 -12 9 -42q0 -62 -27 -77q-36 -9 -60 -9q-14 0 -24 2q0 -29 2 -93.5t2 -97.5q4 0 33 2.5t34 2.5q4 0 12 -2t12 -2q4 -4 4 -21q0 -27 -8 -67.5t-15 -49.5q-30 -18 -114 -18q-54 0 -72 7t-18 31q0 30 5 60q-94 -108 -203 -108q-172 0 -172 242
q0 48 6 94q-1 -1 -9 -1q-15 0 -47 5q-9 10 -9 65z" />
    <glyph glyph-name="v" unicode="v" horiz-adv-x="601" 
d="M8 427q81 65 201 75q9 -14 24 -42.5t15 -37.5q-2 -8 -24 -17t-32 -9q9 -38 46 -124.5t62 -127.5q62 92 108 252q-14 1 -33.5 8.5t-22.5 16.5q1 6 18.5 42.5t20.5 38.5q127 0 201 -75q-10 -64 -28 -106q-19 4 -42 15q-4 -28 -16.5 -60.5t-23 -52t-33 -56.5t-29.5 -49
q28 -9 48 -35q-1 -20 -15.5 -45.5t-31.5 -29.5q-37 -8 -140 -8q-82 0 -102 8q-19 9 -33 30.5t-14 44.5q6 7 24.5 21t23.5 14q-98 144 -102 218q-23 -11 -42 -15q-18 47 -28 106z" />
    <glyph glyph-name="w" unicode="w" horiz-adv-x="907" 
d="M10 404q36 40 82.5 62t128.5 35q20 -12 29.5 -42.5t9.5 -59.5q-2 -8 -24 -17t-32 -9q2 -14 11.5 -34.5t17 -35t25.5 -46.5t24 -43q20 15 43.5 52t38.5 68.5t34 75t22 49.5q22 17 48 17q25 0 50 -17q4 -13 15 -50t19 -60t19.5 -54t25 -53.5t28.5 -37.5q22 35 47.5 88.5
t30.5 80.5q-11 1 -33.5 10t-22.5 16l1 11q0 12 0.5 18.5t3 19t6 21t11 18t17.5 14.5q81 -13 125 -34t86 -63q-10 -64 -28 -106q-19 4 -42 15q-1 -15 -20 -52.5t-51 -90.5l-31 -52q28 -9 48 -35q0 -36 -49 -75q-32 -8 -96 -8q-16 0 -38 22t-50.5 67.5t-44 71.5t-42.5 76
q-128 -237 -174 -237q-77 0 -97 8q-19 10 -33.5 35t-14.5 40q6 7 24.5 21t23.5 14q-100 162 -102 195q-23 -11 -42 -15q-18 47 -28 106z" />
    <glyph glyph-name="x" unicode="x" horiz-adv-x="680" 
d="M20 17q0 48 29 86q5 1 18 1q17 0 26 -3q67 104 129 151q-43 28 -81 67.5t-56 78.5q-13 -3 -36 -3q-26 33 -28 87q49 19 114 19t110 -8q10 -1 24.5 -34.5t14.5 -50.5q-15 -9 -32 -9t-27 2q3 -3 25 -27t42.5 -40.5t46.5 -29.5q71 44 115 97q-7 -2 -31 -2q-23 0 -28 9
q0 13 14 44t24 41q42 9 108 9q67 0 116 -20q0 -60 -27 -87q-7 -5 -12 -5t-24 8q-76 -106 -135 -146q98 -84 125 -148q8 4 19 4q9 0 27 -5q28 -21 28 -81v-5q-50 -21 -113 -21q-60 0 -112 9q-15 8 -26.5 36.5t-11.5 48.5q10 11 30 11q11 0 19 -3q-16 29 -44.5 56t-60.5 39
q-13 -5 -25.5 -13t-20.5 -14.5t-18.5 -18t-14.5 -16.5t-14 -18t-11 -15q3 0 16 1t18 1q18 0 25 -8q-1 -14 -15.5 -50t-23.5 -37q-54 -9 -124 -9q-63 0 -111 21z" />
    <glyph glyph-name="y" unicode="y" horiz-adv-x="714" 
d="M2 -199q0 44 11.5 95.5t27.5 69.5q13 6 29 6q39 0 74 -24q4 -3 4 -13q0 -6 -3 -18q38 -28 71.5 -37t86.5 -9q39 0 66.5 4.5t56 17t43.5 41.5t15 73q0 37 -7 63q-85 -71 -178 -71q-98 0 -158 78.5t-60 199.5q0 33 6 59q-6 -3 -14 -3t-24 3.5t-18 3.5q-13 27 -13 70
q0 46 14 70q78 19 128 19q61 0 109 -17q24 -30 24 -73q0 -37 -19 -62q-10 -6 -21 -6q-9 0 -24 5q-12 -36 -12 -75q0 -133 106 -133q62 0 106 44t44 111q0 24 -8 53q-14 -8 -36 -8q-13 0 -17 6q-17 11 -17 60q0 51 17 62q22 35 118 35q46 0 93.5 -8t64.5 -16q4 -26 4 -50
q0 -44 -12 -60q-9 -9 -22 -9q-7 0 -13.5 1.5t-14.5 4.5t-11 4q6 -168 6 -192q0 -104 -12.5 -179t-35.5 -122.5t-60.5 -75.5t-80.5 -38.5t-103 -10.5q-115 0 -208 47q-9 -33 -11 -33q-17 -14 -50 -14q-20 0 -38.5 5.5t-20.5 11.5q-3 13 -3 34z" />
    <glyph glyph-name="z" unicode="z" horiz-adv-x="625" 
d="M19 29q0 40 78 114.5t157.5 131.5t138.5 93q-26 27 -72 27q-55 0 -139 -41q3 -9 3 -24q0 -10 -3 -14q-27 -8 -55 -8q-39 0 -62 15q-17 6 -17 72q0 25 2.5 48.5t6.5 38.5t8 14q9 3 49 3q73 0 77 -8q6 -1 7 -22q83 31 169 31q67 0 124 -17.5t91 -42.5q-17 -42 -56 -87
t-87 -84t-88 -67.5t-79 -53t-40 -25.5q22 -11 62 -11q46 0 90.5 14t64.5 39q-1 4 -1 11q0 14 11 34q19 8 56 8q35 0 53 -8q11 -8 15 -19.5t4 -42.5q0 -47 -6.5 -94.5t-14.5 -50.5q-20 -4 -61 -4q-59 0 -65 9q-5 1 -7 32q-26 -20 -99 -30t-139 -10q-124 0 -176 29z" />
    <glyph glyph-name="braceleft" unicode="{" horiz-adv-x="435" 
d="M-6 257q0 32 23 50q145 0 145 77q0 20 -16.5 85.5t-16.5 92.5q0 52 39 79t98 27q80 0 138 -38q16 -13 16 -31q0 -14 -16 -37q-64 29 -113 29q-36 0 -56.5 -15.5t-20.5 -38.5q0 -16 17 -74.5t17 -80.5q0 -29 -21.5 -53.5t-47.5 -37.5t-47.5 -23.5t-21.5 -15.5t21.5 -16
t47.5 -24t47.5 -36.5t21.5 -51.5q0 -22 -17 -80.5t-17 -72.5q0 -25 24.5 -37t60.5 -12q49 0 100 22q23 -11 23 -31q0 -11 -12 -37q-60 -38 -143 -38q-59 0 -98.5 26.5t-39.5 78.5q0 27 16.5 92.5t16.5 87.5q0 38 -29 52t-105 25q-34 15 -34 57z" />
    <glyph glyph-name="bar" unicode="|" horiz-adv-x="189" 
d="M59 303q0 220 21 406q8 11 30 13q20 -194 20 -410q0 -215 -20 -485q-4 -11 -30 -13q-21 265 -21 489z" />
    <glyph glyph-name="braceright" unicode="}" horiz-adv-x="435" 
d="M13 -87q0 20 23 31q51 -22 100 -22q36 0 60.5 12t24.5 37q0 14 -17 72.5t-17 80.5q0 28 21.5 51.5t47.5 36.5t47.5 24t21.5 16t-21.5 15.5t-47.5 23.5t-47.5 37.5t-21.5 53.5q0 22 17 80.5t17 74.5q0 23 -20.5 38.5t-56.5 15.5q-49 0 -113 -29q-16 23 -16 37q0 18 16 31
q58 38 138 38q59 0 98 -27t39 -79q0 -27 -16.5 -92.5t-16.5 -85.5q0 -77 145 -77q23 -18 23 -50q0 -42 -34 -57q-76 -11 -105 -25t-29 -52q0 -22 16.5 -87.5t16.5 -92.5q0 -52 -39.5 -78.5t-98.5 -26.5q-83 0 -143 38q-12 26 -12 37z" />
    <glyph glyph-name="asciitilde" unicode="~" horiz-adv-x="595" 
d="M38 204q6 55 26 74.5t62 19.5q46 0 169 -24t150 -24q22 0 33 12t21 50q8 4 13 4q22 0 45 -37q-6 -54 -26.5 -74t-60.5 -20q-43 0 -167.5 24t-155.5 24q-19 0 -30.5 -11.5t-20.5 -49.5q-8 -5 -17 -5q-23 0 -41 37z" />
    <glyph glyph-name="exclamdown" unicode="&#xa1;" horiz-adv-x="238" 
d="M43 -26q0 81 17 161.5t45 133.5q7 1 17 1q12 0 21 -4q52 -122 52 -263q0 -115 -37 -229q-19 -9 -39 -9q-14 0 -38 9q-38 75 -38 200zM88 402q0 30 6 62q15 5 30 5q13 0 30 -5q9 -30 9 -60q0 -29 -9 -59q-16 -4 -27 -4q-12 0 -33 4q-6 29 -6 57z" />
    <glyph glyph-name="cent" unicode="&#xa2;" horiz-adv-x="625" 
d="M28 237q0 85 61 161t169 102l14 129q8 11 30 13q2 -19 6.5 -65t6.5 -68q24 2 38 2q24 0 37 -1l8 25q30 6 58 6q55 0 107 -33q6 -48 6 -73q0 -74 -29 -86q-28 -11 -54 -11q-48 0 -118 19l6 39q-20 2 -31 2q-5 0 -12 -0.5t-10 -0.5q0 -12 0.5 -39t0.5 -53q0 -91 -5 -188
q27 3 53 11l-3 36q50 33 122 33q20 0 47 -5q37 -46 37 -106q0 -25 -7 -79q-42 -34 -116 -34q-20 0 -46 2l-11 16q-29 -3 -53 -3q-8 0 -17.5 0.5t-14.5 0.5l-6 -82q-4 -11 -30 -13l-8 101q-107 18 -171.5 86.5t-64.5 155.5zM162 240q0 -101 94 -121q-5 77 -5 185v75
q-89 -40 -89 -139z" />
    <glyph glyph-name="sterling" unicode="&#xa3;" horiz-adv-x="661" 
d="M38 367q0 40 13 59q49 5 70 7q20 150 87.5 237t189.5 87q64 0 143 -24q21 -21 21 -52q0 -29 -13 -48q-80 16 -109 16q-83 0 -122.5 -51t-60.5 -163q99 -2 130 -9q15 -18 15 -59q0 -7 -1.5 -10t-6 -7.5t-7.5 -10.5q-36 -7 -142 -11q0 -146 -6 -184q200 -38 278 -38
q19 0 25 9t15 43q5 3 10 3q21 0 42.5 -35t25.5 -71q-26 -67 -111 -67q-44 0 -146 25.5t-144 25.5q-16 0 -23 -1q-17 -30 -27 -40q-16 -6 -30 -6q-24 0 -51 14t-37 34q30 74 38 131.5t8 160.5q-44 4 -61 7q-2 3 -3.5 5.5t-2.5 4t-2.5 3l-2.5 2.5v4q-1 1 -1.5 3.5t-0.5 5.5z
" />
    <glyph glyph-name="currency" unicode="&#xa4;" horiz-adv-x="703" 
d="M35 55q20 40 55 75q18 18 37 33q-35 50 -35 121q0 107 71 197q-24 18 -43 38q-35 36 -55 75q6 24 20 38q13 13 35 18q46 -25 77 -58q23 -25 38 -45q73 50 160 50q71 0 118 -39q15 20 29 34q35 35 77 58q22 -5 35 -18q14 -14 20 -38q-20 -40 -55 -75q-25 -25 -50 -43
q21 -57 21 -126q0 -111 -56 -181q30 -24 45 -39q35 -35 55 -75q-6 -24 -20 -38q-13 -13 -35 -18q-42 23 -77 58q-22 22 -43 51q-58 -31 -136 -31q-70 0 -119 23q-22 -28 -37 -43q-35 -35 -77 -58q-22 5 -35 18q-14 14 -20 38zM223 302q0 -46 28 -79t74 -33q59 0 110 53.5
t51 120.5q0 49 -29.5 82.5t-76.5 33.5q-64 0 -110.5 -58t-46.5 -120z" />
    <glyph glyph-name="yen" unicode="&#xa5;" horiz-adv-x="725" 
d="M26 605q17 25 75.5 55t135.5 42q39 -61 39 -82q0 -5 -25 -17q-18 -9 -31 -9q6 -19 57.5 -80t90.5 -102q25 15 78 87.5t60 94.5q-12 0 -31 9q-24 11 -25 16q1 8 18 44t21 39q116 0 211 -97q-12 -67 -28 -86q-19 4 -42 15q-4 -6 -20.5 -32t-28.5 -41.5t-32.5 -40
t-45.5 -46.5t-55 -42q78 -2 118 -9q4 -11 4 -24q0 -5 -4 -13q-29 -8 -126 -12q-1 -8 -1 -27q95 -2 127 -9q4 -11 4 -14q0 -15 -4 -23q-24 -8 -129 -12q-2 -63 -3 -68q25 0 51 -14q4 -4 4 -21q0 -19 -5 -45t-8 -33q-7 -9 -118 -9q-36 0 -52 0.5t-35.5 1.5t-28.5 4.5t-13 9.5
q-4 10 -4 50q0 36 8 44q25 12 58 12q-1 8 -1.5 32.5t-0.5 36.5q-3 0 -20.5 0.5t-34.5 1.5t-36 2t-32 3t-16 5q-4 6 -4 25q0 2 4 11q51 6 137 9q-1 9 -1 28q-132 7 -136 12t-4 15q0 12 4 21q50 6 129 9q-60 39 -118.5 110t-64.5 92q-23 -11 -42 -15q-20 39 -28 86z" />
    <glyph glyph-name="brokenbar" unicode="&#xa6;" horiz-adv-x="203" 
d="M66 -1q0 85 11 167q9 4 21 4q19 0 25 -4q14 -79 14 -159q0 -121 -13 -167q-8 -4 -23 -4q-13 0 -24 4q-11 51 -11 159zM66 462q0 108 11 159q11 4 24 4q15 0 23 -4q13 -45 13 -159q0 -106 -14 -167q-6 -4 -25 -4q-12 0 -21 4q-11 83 -11 167z" />
    <glyph glyph-name="section" unicode="&#xa7;" horiz-adv-x="462" 
d="M44 49q0 27 5.5 44t21.5 44q51 0 59 -6q3 -7 5 -24q20 -25 72 -25q69 0 69 46q0 26 -22.5 42t-54.5 25t-64 20.5t-54.5 36.5t-22.5 64q0 47 29 99q-7 21 -7 45q0 72 47.5 117t111.5 45q44 0 87 -23q6 16 20 24q14 7 36 7t28 -9q5 -13 5 -45q0 -64 -27 -71q-14 -2 -24 -2
q-23 0 -34 8q-4 10 -4 21q-35 15 -68 15q-34 0 -52.5 -16t-18.5 -40q0 -26 23.5 -41t57 -22.5t67 -16.5t57 -32t23.5 -60q0 -20 -8.5 -39.5t-18 -32.5t-29.5 -35q13 -32 13 -64q0 -63 -48.5 -105.5t-115.5 -42.5q-44 0 -77 24q-3 -7 -18 -22q-11 -3 -25 -3q-22 0 -40 5
q-4 21 -4 45zM155 311q0 -28 29.5 -41t70.5 -13q14 0 21 1q44 26 44 50t-37.5 41t-78.5 17q-14 0 -28 -2q-21 -29 -21 -53z" />
    <glyph glyph-name="dieresis" unicode="&#xa8;" horiz-adv-x="833" 
d="M186 590q0 35 22 67q28 8 40 8q19 0 39 -8q21 -32 21 -70q0 -37 -21 -74q-16 -8 -35 -8t-44 8q-22 39 -22 77zM356 590q0 35 22 67q28 8 40 8q19 0 39 -8q21 -32 21 -70q0 -37 -21 -74q-16 -8 -35 -8t-44 8q-22 39 -22 77z" />
    <glyph glyph-name="copyright" unicode="&#xa9;" horiz-adv-x="778" 
d="M37 291q0 77 31.5 155.5t85.5 142t134 104t170 40.5q75 0 130.5 -28.5t87 -77.5t46.5 -108.5t15 -128.5q0 -193 -105 -292t-273 -99q-159 0 -240.5 83.5t-81.5 208.5zM149 300q0 -83 51 -144.5t154 -61.5q124 0 205 89t81 221q0 109 -56 169t-141 60q-80 0 -149.5 -53.5
t-107 -129.5t-37.5 -150zM236 371q0 67 35 120.5t83 53.5q39 0 85 -39q1 0 2 8.5t2.5 17t4.5 9.5q1 0 8.5 0.5t15.5 0.5q35 0 41 -5q5 -27 5 -79q0 -43 -53 -43q-35 0 -35 13q0 3 2 5q-32 24 -58 24q-28 0 -43.5 -25t-15.5 -60t16.5 -61t45.5 -26q25 0 55 18v5q-1 4 -1 7
t7 4q51 0 66 -5q2 -3 4.5 -6t3.5 -4.5t2 -4t2 -4t1.5 -4.5t0.5 -6v-7q0 -51 -5 -79q-5 -5 -37 -5q-25 0 -31 7.5t-6 29.5q-46 -37 -83 -37q-49 0 -84.5 54.5t-35.5 122.5z" />
    <glyph glyph-name="ordfeminine" unicode="&#xaa;" horiz-adv-x="487" 
d="M29 456q0 83 52.5 151.5t131.5 68.5q50 0 83 -44q0 20 -1 29q30 24 84 24q12 0 21.5 -2t12.5 -3t12.5 -6.5t12.5 -7.5q4 -5 4 -35q0 -43 -4 -48q-6 -11 -26 -11q-3 0 -7.5 0.5t-5.5 0.5q1 -2 1 -43q0 -120 -5 -127q8 2 10 2q6 0 18 -3l12 -2q4 -3 4 -55q0 -11 -0.5 -22.5
t-0.5 -12.5q-28 -18 -119 -18q-18 0 -28 1q-4 12 -4 19q0 2 0.5 4.5t0.5 3.5q-37 -32 -99 -32q-76 0 -118 48.5t-42 119.5zM137 477q0 -40 23 -70t64 -30q34 0 62 21v144q0 11 -23.5 23t-44.5 12q-32 0 -56.5 -29t-24.5 -71z" />
    <glyph glyph-name="guillemotleft" unicode="&#xab;" horiz-adv-x="439" 
d="M29 239q70 148 161 238q16 16 33 16q14 0 19 -16q-13 -136 -146 -238q115 -75 140 -228q-12 -22 -29 -22q-7 0 -15 6q-31 21 -85.5 98.5t-77.5 145.5zM193 239q70 148 161 238q16 16 33 16q14 0 19 -16q-13 -136 -146 -238q115 -75 140 -228q-12 -22 -29 -22q-7 0 -15 6
q-31 21 -85.5 98.5t-77.5 145.5z" />
    <glyph glyph-name="logicalnot" unicode="&#xac;" horiz-adv-x="523" 
d="M33 430q0 11 8 24q24 13 185 13q145 0 230 -15q7 -25 7 -81q0 -70 -7 -112q-14 -7 -24 -7t-20 7q-6 35 -6 111q0 22 1 36q-83 -5 -181 -5q-146 0 -185 9q-8 10 -8 20z" />
    <glyph glyph-name="uni00AD" unicode="&#xad;" horiz-adv-x="371" 
d="M52 267q0 15 4 23q46 13 117 13q87 0 139 -14q4 -6 4 -25q0 -12 -4 -21q-82 -11 -137 -11q-68 0 -119 11q-4 11 -4 24z" />
    <glyph glyph-name="registered" unicode="&#xae;" horiz-adv-x="778" 
d="M37 291q0 77 31.5 155.5t85.5 142t134 104t170 40.5q75 0 130.5 -28.5t87 -77.5t46.5 -108.5t15 -128.5q0 -193 -105 -292t-273 -99q-159 0 -240.5 83.5t-81.5 208.5zM149 300q0 -83 51 -144.5t154 -61.5q124 0 205 89t81 221q0 109 -56 169t-141 60q-80 0 -149.5 -53.5
t-107 -129.5t-37.5 -150zM247 236q0 12 5 24q5 7 21 7q0 156 4 177q-5 0 -22 3q-8 10 -8 31q0 15 6 33q11 15 50 15q15 0 26 -4q1 -5 1 -20q34 29 84 29t80 -30.5t30 -70.5q0 -59 -59 -79q29 -9 51 -35t22 -56q16 0 20 -4q7 -9 7 -20q0 -15 -9 -26q-10 -5 -41 -5
q-38 0 -60 8q-13 6 -13 28q0 9 3 13q6 5 27 7q-2 32 -44 46.5t-81 14.5l-6 -55q16 0 23 -7q6 -8 6 -20q0 -13 -6 -22q-12 -9 -56 -9q-51 0 -56 9q-5 5 -5 18zM346 406q0 -30 35 -30q26 0 49 16.5t23 41.5q0 17 -11 26t-28 9q-27 0 -47.5 -20.5t-20.5 -42.5z" />
    <glyph glyph-name="macron" unicode="&#xaf;" horiz-adv-x="833" 
 />
    <glyph glyph-name="degree" unicode="&#xb0;" horiz-adv-x="431" 
d="M28 460q0 86 65 160.5t159 74.5q76 0 112 -52t36 -131q0 -102 -55.5 -154.5t-143.5 -52.5q-84 0 -128.5 44.5t-44.5 110.5zM115 470q0 -36 22.5 -61.5t56.5 -25.5q46 0 86 42.5t40 96.5q0 38 -21.5 64t-57.5 26q-51 0 -88.5 -46.5t-37.5 -95.5z" />
    <glyph glyph-name="plusminus" unicode="&#xb1;" horiz-adv-x="559" 
d="M33 29q0 11 13 27q123 15 304 15q79 0 159 -9q17 -19 17 -32q0 -12 -17 -25q-58 -15 -227 -15q-204 0 -238 13q-11 17 -11 26zM44 400q0 8 15 28q23 10 80 10q69 0 113 -10q-14 56 -14 107q0 50 14 92q22 12 30 12q10 0 28 -12q14 -45 14 -95q0 -51 -14 -104q41 8 90 8
t103 -8q10 -13 10 -26q0 -14 -10 -28q-35 -13 -101 -13q-47 0 -92 13q14 -43 14 -114q0 -43 -14 -85q-20 -9 -29 -9q-12 0 -29 9q-11 53 -11 83q0 71 11 116q-50 -11 -119 -11q-30 0 -74 11q-15 16 -15 26z" />
    <glyph glyph-name="uni00B2" unicode="&#xb2;" horiz-adv-x="382" 
d="M43 345q0 39 21 72.5t50.5 55t59.5 39t51 31.5t21 25q0 46 -52 46q-26 0 -49.5 -12t-25.5 -27q0 -6 -1 -12q-14 -9 -33 -9q-10 0 -17 4q-19 13 -19 76q0 26 5 34q20 9 33 9q12 0 27 -4q4 -13 5 -19q33 26 95 26q47 0 82 -31.5t35 -80.5q0 -32 -18.5 -57t-45.5 -39.5
t-53.5 -27t-45 -28t-18.5 -34.5q12 -6 46 -6q48 0 66 8q0 12 6 27q16 4 38 4q17 0 22 -4q14 -19 14 -67q0 -33 -14 -47q-4 -2 -35 -2q-33 0 -37 6l-2 18q-24 -15 -64 -15q-14 0 -59 5q-1 -7 -2 -8q-17 -9 -43 -9q-19 0 -34 5q-9 19 -9 48z" />
    <glyph glyph-name="uni00B3" unicode="&#xb3;" horiz-adv-x="344" 
d="M20 372q4 12 26.5 34t52.5 29l24 -37q-2 -6 -9 -13q12 -12 30 -12q27 0 50.5 20.5t23.5 46.5q0 20 -16 35q-12 -2 -20 -2q-12 0 -20 3q-8 11 -8 41q0 25 4 34q3 6 29 6q15 0 20 -3q13 16 13 40q0 20 -18 33.5t-40 13.5q-19 0 -30 -11q0 -5 1 -8q-7 -12 -28 -12
q-8 0 -18 2q-7 3 -16 30t-9 41q1 5 17.5 9t27.5 4l4 -5q29 18 61 18q51 0 91 -36.5t40 -89.5q0 -42 -31 -73q36 -33 36 -77q0 -59 -50.5 -94.5t-117.5 -35.5q-58 0 -88 33q-12 -5 -14 -5q-18 18 -18 41z" />
    <glyph glyph-name="acute" unicode="&#xb4;" horiz-adv-x="833" 
d="M378 595q41 102 86 151q9 2 27 2q44 0 81 -26q-27 -47 -78.5 -91t-90.5 -44q-14 0 -25 8z" />
    <glyph glyph-name="uni00B5" unicode="&#xb5;" horiz-adv-x="766" 
d="M30 -186q0 41 11 68q5 8 27 13t39 5q12 0 16 -1q0 15 -2 119.5t-2 162.5q0 123 7 145q-1 -1 -9 -1q-15 0 -47 5q-12 21 -12 70q0 57 13 80q72 20 119 20q46 0 98 -18q7 -5 15 -35.5t8 -52.5q0 -33 -18 -57q-11 -7 -28 -7q-5 0 -7 1t-4.5 2.5t-5.5 2.5q-8 -35 -8 -61
q0 -70 42 -109.5t99 -39.5t99 40.5t42 114.5q0 33 -8 65q-14 -8 -36 -8q-13 0 -17 6q-17 6 -17 61q0 51 17 61q35 35 143 35q96 0 123 -29q11 -16 11 -45q0 -57 -29 -74q-12 -9 -27 -9q-5 0 -15 2q0 -29 2 -93.5t2 -97.5q1 0 13.5 1.5t18.5 1.5q7 0 17 -2q5 -6 5 -27
q0 -29 -8 -64t-16 -47q-7 -4 -44.5 -12.5t-69.5 -8.5q-35 0 -51 12q-6 17 -6 31q0 8 2 20q-87 -61 -184 -61q-58 0 -102 30q3 -57 3 -140q0 -99 -5 -109q-1 -30 -79 -30q-27 0 -59 3.5t-51.5 8t-19.5 6.5q-5 22 -5 46z" />
    <glyph glyph-name="paragraph" unicode="&#xb6;" horiz-adv-x="728" 
d="M25 479q0 87 95 155.5t222 68.5q54 0 119 -13.5t113 -35.5q56 0 107 -11q15 -18 15 -29t-15 -38q-43 -11 -84 -14q21 -111 21 -258q0 -220 -41 -466q-6 -5 -13 -12.5t-11 -10.5t-7 -3q-7 0 -22 26q-49 201 -49 419q0 178 48 306h-220q28 -119 28 -252q0 -221 -40 -473
q-16 -24 -22 -24q-3 0 -6.5 2.5t-11 9.5t-13.5 12q-21 86 -35 214.5t-14 247.5q-164 69 -164 179z" />
    <glyph glyph-name="periodcentered" unicode="&#xb7;" horiz-adv-x="218" 
d="M42 318q0 29 18 55q23 17 48 17t51 -17q17 -27 17 -57t-17 -62q-29 -19 -53 -19t-46 19q-18 34 -18 64z" />
    <glyph glyph-name="cedilla" unicode="&#xb8;" horiz-adv-x="833" 
d="M252 -207q0 25 10 41q12 3 24 3q11 0 23 -3v-8q24 -24 50 -24q22 0 36.5 17.5t14.5 45.5q0 24 -11 42t-27 18q-11 0 -28 -16t-26 -16q-14 0 -26 5q-11 16 -11 49q0 27 6 59q3 3 42 3q2 0 3 -13.5t1.5 -26.5t1.5 -13q27 23 55 23q36 0 57 -32.5t21 -76.5
q0 -48 -24.5 -83.5t-68.5 -35.5q-34 0 -70 24q0 -21 -6 -23q-4 0 -11 -0.5t-10 -0.5q-10 0 -21 3q-5 22 -5 39z" />
    <glyph glyph-name="uni00B9" unicode="&#xb9;" horiz-adv-x="263" 
d="M26 627q0 21 8 37q48 41 110 41q27 0 46 -10q12 -63 12 -160t-12 -159q3 1 8 1q12 0 23 -7q3 -12 3 -25q0 -27 -12 -43q-48 -10 -80 -10q-46 0 -64 18q-8 20 -8 38q0 16 8 24q12 6 35 6q-3 64 -3 127q0 61 3 121q-3 -2 -13 -9t-18 -12t-19 -10t-19 -6q-8 16 -8 38z" />
    <glyph glyph-name="ordmasculine" unicode="&#xba;" horiz-adv-x="431" 
d="M28 460q0 86 65 160.5t159 74.5q76 0 112 -52t36 -131q0 -102 -55.5 -154.5t-143.5 -52.5q-84 0 -128.5 44.5t-44.5 110.5zM115 470q0 -36 22.5 -61.5t56.5 -25.5q46 0 86 42.5t40 96.5q0 38 -21.5 64t-57.5 26q-51 0 -88.5 -46.5t-37.5 -95.5z" />
    <glyph glyph-name="guillemotright" unicode="&#xbb;" horiz-adv-x="441" 
d="M34 477q5 16 19 16q17 0 33 -16q91 -90 161 -238q-23 -68 -77 -144.5t-86 -99.5q-8 -6 -15 -6q-17 0 -29 22q25 153 140 228q-133 102 -146 238zM198 477q5 16 19 16q17 0 33 -16q91 -90 161 -238q-23 -68 -77 -144.5t-86 -99.5q-8 -6 -15 -6q-17 0 -29 22
q25 153 140 228q-133 102 -146 238z" />
    <glyph glyph-name="onequarter" unicode="&#xbc;" horiz-adv-x="741" 
d="M29 627q0 21 8 37q48 41 110 41q27 0 46 -10q12 -63 12 -160t-12 -159q3 1 8 1q13 0 23 -7q3 -12 3 -25q0 -27 -12 -43q-47 -10 -80 -10q-46 0 -64 18q-8 20 -8 38q0 16 8 24q12 6 35 6q-3 64 -3 127q0 61 3 121q-3 -2 -13 -9t-18 -12t-19 -10t-19 -6q-8 16 -8 38z
M151 43q124 353 330 564q7 4 13 4q11 0 13 -16q-104 -329 -330 -565q-7 -3 -12 -3q-14 0 -14 16zM381 195q0 3 3 24q20 43 65.5 96t87.5 76q21 9 62 9q63 0 71 -13q7 -28 7 -77q0 -72 -3 -93q4 1 12 1q5 0 7 -1q13 -18 13 -43q0 -21 -11 -31q-5 -3 -12 -3q-6 0 -10 2
q1 -5 1 -15q0 -31 -5 -49q2 1 7 1q11 0 21 -5q11 -8 11 -46q0 -18 -4 -25q-5 -5 -98 -5q-71 0 -77 7q-5 17 -5 46q0 19 8 23q6 3 42 6q-1 9 -1 27q0 22 1 34q-28 -3 -101 -3q-77 0 -89 4q-3 26 -3 53zM462 212h4q4 0 16.5 0.5t35.5 0.5q30 0 42.5 -0.5t14.5 -0.5q0 8 0.5 55
t0.5 59q-18 -14 -61 -57t-53 -57z" />
    <glyph glyph-name="onehalf" unicode="&#xbd;" horiz-adv-x="780" 
d="M29 627q0 21 8 37q48 41 110 41q27 0 46 -10q12 -63 12 -160t-12 -159q3 1 8 1q13 0 23 -7q3 -12 3 -25q0 -27 -12 -43q-47 -10 -80 -10q-46 0 -64 18q-8 20 -8 38q0 16 8 24q12 6 35 6q-3 64 -3 127q0 61 3 121q-3 -2 -13 -9t-18 -12t-19 -10t-19 -6q-8 16 -8 38z
M151 43q124 353 330 564q7 4 13 4q11 0 13 -16q-104 -329 -330 -565q-7 -3 -12 -3q-14 0 -14 16zM451 35q0 43 21 78t50.5 56.5t59.5 38.5t51 33t21 32t-16 27t-38 11q-29 0 -50.5 -13t-23.5 -38q-14 -9 -34 -9q-10 0 -16 5q-19 17 -19 73q0 28 5 36q20 9 33 9q12 0 27 -4
q4 -13 5 -19q33 26 95 26q47 0 82 -31t35 -80q0 -40 -28.5 -69.5t-62 -43t-62 -33t-28.5 -41.5q12 -6 45 -6q49 0 67 8q0 12 6 27q16 4 38 4q17 0 22 -4q14 -19 14 -67q0 -33 -14 -47q-2 -2 -34 -2q-34 0 -38 6l-2 18q-24 -15 -62 -15q-16 0 -61 5q0 -7 -2 -11
q-18 -6 -46 -6q-16 0 -31 5q-9 19 -9 41z" />
    <glyph glyph-name="threequarters" unicode="&#xbe;" horiz-adv-x="794" 
d="M27 372q4 12 26.5 34t52.5 29l24 -37q-2 -6 -9 -13q12 -12 30 -12q27 0 50.5 20.5t23.5 46.5q0 20 -16 35q-12 -2 -20 -2q-13 0 -20 3q-8 11 -8 39q0 29 4 36q3 6 29 6q16 0 20 -3q13 16 13 40q0 20 -18 33.5t-40 13.5q-19 0 -30 -11q0 -5 1 -8q-7 -12 -28 -12
q-8 0 -18 2q-7 3 -16 30t-9 41q1 5 17.5 9t27.5 4l4 -5q28 18 61 18q51 0 91 -36.5t40 -89.5q0 -42 -31 -73q36 -33 36 -77q0 -59 -50.5 -94.5t-117.5 -35.5q-58 0 -88 33q-12 -5 -14 -5q-18 18 -18 41zM199 40q124 353 330 564q7 4 13 4q11 0 13 -16q-104 -329 -330 -565
q-7 -3 -12 -3q-14 0 -14 16zM431 195q0 3 3 24q20 43 65.5 96t87.5 76q21 9 62 9q63 0 71 -13q7 -28 7 -77q0 -72 -3 -93q4 1 12 1q5 0 7 -1q13 -18 13 -43q0 -24 -11 -31q-5 -3 -12 -3q-6 0 -10 2q1 -5 1 -15q0 -31 -5 -49q2 1 7 1q11 0 21 -5q11 -8 11 -45q0 -24 -4 -26
q-8 -5 -98 -5q-71 0 -77 7q-5 17 -5 46q0 23 5 27q4 0 20 0.5t25 1.5q-2 11 -2 31q0 10 2 30q-28 -3 -101 -3q-77 0 -89 4q-3 26 -3 53zM512 212h4q4 0 16.5 0.5t35.5 0.5q30 0 42.5 -0.5t14.5 -0.5q0 8 0.5 55t0.5 59q-18 -14 -61 -57t-53 -57z" />
    <glyph glyph-name="questiondown" unicode="&#xbf;" horiz-adv-x="542" 
d="M27 -73q0 81 64.5 135.5t156.5 77.5q-9 22 -9 56q0 33 9 71q19 5 51 5q10 0 27 -5q14 -27 14 -80q0 -54 -9 -93q-91 -30 -126 -60t-35 -98q0 -46 23 -75t90 -29q128 0 128 116q0 17 -1 24q25 7 47 7q62 0 62 -59q0 -49 -43 -91q-35 -35 -94 -54.5t-122 -19.5
q-97 0 -165 45t-68 127zM227 398q0 26 19 59q30 15 42 15q16 0 38 -15q13 -29 13 -59q0 -31 -13 -60q-27 -12 -39 -12q-13 0 -41 12q-19 38 -19 60z" />
    <glyph glyph-name="Agrave" unicode="&#xc0;" 
d="M5 69q0 44 9 59.5t38 15.5q31 0 31 -8q7 42 106.5 299.5t110.5 259.5q32 5 78 5q24 0 69 -5q11 -5 110.5 -261.5t106.5 -297.5q0 8 31 8q29 0 38 -15.5t9 -59.5q0 -51 -11 -57q-13 -12 -156 -12q-103 0 -103 11q-22 13 -22 89q0 11 1 17t8 12t20 6q29 0 29 -4q4 0 4 10
q0 25 -27 114q-41 -4 -109 -4q-73 0 -114 4q-27 -90 -27 -115q0 -8 4 -9q6 4 26 4q15 0 22.5 -7t8.5 -14t1 -23q0 -66 -22 -80q0 -11 -103 -11q-143 0 -156 12q-11 6 -11 57zM251 921q23 25 65 25q8 0 13 -1q45 -49 86 -151q-3 -3 -15 -3q-9 0 -15 3q-93 57 -134 127z
M298 371q38 3 73 3q41 0 77 -4q-45 133 -75 206q-28 -69 -75 -205z" />
    <glyph glyph-name="Aacute" unicode="&#xc1;" 
d="M5 69q0 44 9 59.5t38 15.5q31 0 31 -8q7 42 106.5 299.5t110.5 259.5q32 5 78 5q24 0 69 -5q11 -5 110.5 -261.5t106.5 -297.5q0 8 31 8q29 0 38 -15.5t9 -59.5q0 -51 -11 -57q-13 -12 -156 -12q-103 0 -103 11q-22 13 -22 89q0 11 1 17t8 12t20 6q29 0 29 -4q4 0 4 10
q0 25 -27 114q-41 -4 -109 -4q-73 0 -114 4q-27 -90 -27 -115q0 -8 4 -9q6 4 26 4q15 0 22.5 -7t8.5 -14t1 -23q0 -66 -22 -80q0 -11 -103 -11q-143 0 -156 12q-11 6 -11 57zM298 371q38 3 73 3q41 0 77 -4q-45 133 -75 206q-28 -69 -75 -205zM371 794q41 102 86 151
q5 1 13 1q42 0 65 -25q-41 -70 -134 -127q-6 -3 -15 -3q-12 0 -15 3z" />
    <glyph glyph-name="Acircumflex" unicode="&#xc2;" 
d="M5 69q0 44 9 59.5t38 15.5q31 0 31 -8q7 42 106.5 299.5t110.5 259.5q32 5 78 5q24 0 69 -5q11 -5 110.5 -261.5t106.5 -297.5q0 8 31 8q29 0 38 -15.5t9 -59.5q0 -51 -11 -57q-13 -12 -156 -12q-103 0 -103 11q-22 13 -22 89q0 11 1 17t8 12t20 6q29 0 29 -4q4 0 4 10
q0 25 -27 114q-41 -4 -109 -4q-73 0 -114 4q-27 -90 -27 -115q0 -8 4 -9q6 4 26 4q15 0 22.5 -7t8.5 -14t1 -23q0 -66 -22 -80q0 -11 -103 -11q-143 0 -156 12q-11 6 -11 57zM202 753q25 42 80 98.5t90 56.5t91.5 -55.5t80.5 -99.5q-9 -4 -17 -4t-19 4q-32 17 -76.5 48.5
t-58.5 52.5q-17 -21 -62.5 -55t-72.5 -46q-12 -4 -16 -4q-8 0 -20 4zM298 371q38 3 73 3q41 0 77 -4q-45 133 -75 206q-28 -69 -75 -205z" />
    <glyph glyph-name="Atilde" unicode="&#xc3;" 
d="M5 69q0 44 9 59.5t38 15.5q31 0 31 -8q7 42 106.5 299.5t110.5 259.5q32 5 78 5q24 0 69 -5q11 -5 110.5 -261.5t106.5 -297.5q0 8 31 8q29 0 38 -15.5t9 -59.5q0 -51 -11 -57q-13 -12 -156 -12q-103 0 -103 11q-22 13 -22 89q0 11 1 17t8 12t20 6q29 0 29 -4q4 0 4 10
q0 25 -27 114q-41 -4 -109 -4q-73 0 -114 4q-27 -90 -27 -115q0 -8 4 -9q6 4 26 4q15 0 22.5 -7t8.5 -14t1 -23q0 -66 -22 -80q0 -11 -103 -11q-143 0 -156 12q-11 6 -11 57zM219 784q10 94 75 94q32 0 77.5 -24t54.5 -24q30 0 44 62q8 4 13 4q22 0 45 -37q-10 -94 -75 -94
q-28 0 -74 24t-58 24q-31 0 -44 -61q-7 -5 -17 -5q-23 0 -41 37zM298 371q38 3 73 3q41 0 77 -4q-45 133 -75 206q-28 -69 -75 -205z" />
    <glyph glyph-name="Adieresis" unicode="&#xc4;" 
d="M5 69q0 44 9 59.5t38 15.5q31 0 31 -8q7 42 106.5 299.5t110.5 259.5q32 5 78 5q24 0 69 -5q11 -5 110.5 -261.5t106.5 -297.5q0 8 31 8q29 0 38 -15.5t9 -59.5q0 -51 -11 -57q-13 -12 -156 -12q-103 0 -103 11q-22 13 -22 89q0 11 1 17t8 12t20 6q29 0 29 -4q4 0 4 10
q0 25 -27 114q-41 -4 -109 -4q-73 0 -114 4q-27 -90 -27 -115q0 -8 4 -9q6 4 26 4q15 0 22.5 -7t8.5 -14t1 -23q0 -66 -22 -80q0 -11 -103 -11q-143 0 -156 12q-11 6 -11 57zM227 834q0 35 22 67q28 8 40 8q19 0 39 -8q21 -32 21 -70q0 -37 -21 -74q-16 -8 -35 -8t-44 8
q-22 39 -22 77zM298 371q38 3 73 3q41 0 77 -4q-45 133 -75 206q-28 -69 -75 -205zM397 834q0 35 22 67q28 8 40 8q19 0 39 -8q21 -32 21 -70q0 -37 -21 -74q-16 -8 -35 -8t-44 8q-22 39 -22 77z" />
    <glyph glyph-name="Aring" unicode="&#xc5;" 
d="M5 69q0 44 9 59.5t38 15.5q28 0 31 -7q8 45 107 300.5t110 257.5q-29 26 -29 71q0 50 38.5 94t93.5 44q45 0 66 -30.5t21 -77.5q0 -70 -43 -101q11 -5 110.5 -261.5t106.5 -297.5q0 8 31 8q29 0 38 -15.5t9 -59.5q0 -51 -11 -57q-13 -12 -156 -12q-103 0 -103 11
q-22 13 -22 89q0 11 1 17t8 12t20 6q29 0 29 -4q4 0 4 10q0 25 -27 114q-41 -4 -109 -4q-73 0 -114 4q-27 -90 -27 -115q0 -8 4 -9q6 4 26 4q15 0 22.5 -7t8.5 -14t1 -23q0 -66 -22 -80q0 -11 -103 -11q-143 0 -156 12q-11 6 -11 57zM298 371q38 3 73 3q41 0 77 -4
q-45 133 -75 206q-28 -69 -75 -205zM322 773q0 -21 13.5 -36.5t33.5 -15.5q26 0 49.5 25.5t23.5 56.5q0 22 -12.5 38t-33.5 16q-29 0 -51.5 -28t-22.5 -56z" />
    <glyph glyph-name="AE" unicode="&#xc6;" horiz-adv-x="1010" 
d="M-1 62q0 71 16 74q0 8 31 8q29 0 31 -8q41 94 127.5 251t195.5 308q191 17 266 17q186 0 298 -38q10 -50 10 -77q0 -47 -23 -77q-25 -6 -43 -6q-32 0 -82 33l3 33q-23 13 -125 13q-27 0 -49.5 -0.5t-36 -1.5t-23.5 -2.5t-14.5 -2t-5.5 -0.5v-174q9 0 43 -0.5t48 -0.5
q24 0 24 1q-1 3 -1 9q0 11 9 27q6 5 33 5q42 0 58 -7q20 -35 20 -105q0 -44 -23 -63q-15 -13 -43 -13q-26 0 -43 10q-9 5 -11 9t-2 20l-113 -4l1 -175q42 -29 120 -29q81 0 134 28l-3 33q50 33 83 33q18 0 42 -6q23 -30 23 -77q0 -27 -10 -77q-75 -43 -272 -43
q-96 0 -183 10.5t-122 26.5q-21 21 -21 55q0 43 16 56q18 9 40 9q10 0 16 -3q-5 30 -9 111q-21 -1 -58 -1q-42 0 -85 4q-46 -83 -53 -124q12 4 24 4q31 0 31 -16q3 -9 3 -28q0 -66 -22 -80q0 -11 -103 -11q-143 0 -156 12q-11 4 -11 50zM323 371q24 4 55 4q29 0 48 -5
l11 192z" />
    <glyph glyph-name="Ccedilla" unicode="&#xc7;" horiz-adv-x="675" 
d="M41 344q0 153 78.5 258t208.5 105q95 0 140 -44q2 30 21 37q25 11 61 11q47 0 74 -20q1 -11 4.5 -34.5t5.5 -42.5t2 -35q0 -62 -36 -94q-21 -23 -69 -23q-50 0 -75 23q-1 2 -1 9q0 12 3 16q-17 37 -55 57t-69 20q-58 0 -107.5 -74.5t-49.5 -170.5q0 -91 46.5 -147.5
t107.5 -56.5q31 0 69 14t56 39q-3 18 -3 20t0.5 4t0.5 3q37 17 65 17t82 -20q36 -32 36 -93q0 -16 -2.5 -35.5t-6 -42.5t-4.5 -35q-31 -25 -80 -25q-36 0 -55 16q-21 8 -21 39q-66 -45 -134 -45q-4 0 -11.5 0.5t-11.5 0.5q1 -6 1.5 -16t0.5 -16.5t1 -6.5q27 23 55 23
q36 0 57 -32.5t21 -76.5q0 -48 -24.5 -83.5t-68.5 -35.5q-34 0 -70 24q0 -21 -6 -23q-4 0 -11 -0.5t-10 -0.5q-11 0 -21 3q-5 22 -5 39q0 25 10 41q12 3 24 3q11 0 23 -3v-8q24 -24 50 -24q22 0 36.5 17.5t14.5 45.5q0 24 -11 42t-27 18q-11 0 -28 -16t-26 -16q-14 0 -26 5
q-11 16 -11 49q0 29 5 56q-95 25 -159.5 113t-64.5 228z" />
    <glyph glyph-name="Egrave" unicode="&#xc8;" horiz-adv-x="690" 
d="M46 103q0 16 16 52q18 9 40 9q10 0 16 -3q-12 89 -12 181q0 135 21 222q-23 -5 -37 -5q-18 0 -28 7q-14 20 -14 62q0 26 19 52q32 15 117 23.5t164 8.5q184 0 296 -38q10 -50 10 -77q0 -47 -23 -77q-25 -6 -43 -6q-32 0 -82 33l3 33q-19 13 -104 13q-30 0 -77 -3t-48 -6
q4 -36 4 -53q0 -89 -13 -122q98 0 99 3q-1 3 -1 9q0 11 9 27q6 5 33 5q42 0 58 -7q20 -33 20 -95q0 -56 -21 -77q-8 -7 -47 -7t-45 7q-9 12 -9 30l-101 -5q0 -59 -11 -164q16 -14 65 -21.5t81 -7.5q24 0 59.5 5.5t48.5 12.5l-3 33q50 33 83 33q18 0 42 -6q23 -30 23 -77
q0 -27 -10 -77q-75 -43 -272 -43q-96 0 -183 10.5t-122 26.5q-12 15 -16.5 30t-4.5 49zM268 921q22 25 65 25q8 0 13 -1q45 -49 86 -151q-3 -3 -15 -3q-9 0 -15 3q-93 57 -134 127z" />
    <glyph glyph-name="Eacute" unicode="&#xc9;" horiz-adv-x="690" 
d="M46 103q0 16 16 52q18 9 40 9q10 0 16 -3q-12 89 -12 181q0 135 21 222q-23 -5 -37 -5q-18 0 -28 7q-14 20 -14 62q0 26 19 52q32 15 117 23.5t164 8.5q184 0 296 -38q10 -50 10 -77q0 -47 -23 -77q-25 -6 -43 -6q-32 0 -82 33l3 33q-19 13 -104 13q-30 0 -77 -3t-48 -6
q4 -36 4 -53q0 -89 -13 -122q98 0 99 3q-1 3 -1 9q0 11 9 27q6 5 33 5q42 0 58 -7q20 -33 20 -95q0 -56 -21 -77q-8 -7 -47 -7t-45 7q-9 12 -9 30l-101 -5q0 -59 -11 -164q16 -14 65 -21.5t81 -7.5q24 0 59.5 5.5t48.5 12.5l-3 33q50 33 83 33q18 0 42 -6q23 -30 23 -77
q0 -27 -10 -77q-75 -43 -272 -43q-96 0 -183 10.5t-122 26.5q-12 15 -16.5 30t-4.5 49zM253 795q41 102 86 151q9 2 27 2q44 0 81 -26q-27 -47 -78.5 -91t-90.5 -44q-14 0 -25 8z" />
    <glyph glyph-name="Ecircumflex" unicode="&#xca;" horiz-adv-x="690" 
d="M46 103q0 16 16 52q18 9 40 9q10 0 16 -3q-12 89 -12 181q0 135 21 222q-23 -5 -37 -5q-18 0 -28 7q-14 20 -14 62q0 26 19 52q32 15 117 23.5t164 8.5q184 0 296 -38q10 -50 10 -77q0 -47 -23 -77q-25 -6 -43 -6q-32 0 -82 33l3 33q-19 13 -104 13q-30 0 -77 -3t-48 -6
q4 -36 4 -53q0 -89 -13 -122q98 0 99 3q-1 3 -1 9q0 11 9 27q6 5 33 5q42 0 58 -7q20 -33 20 -95q0 -56 -21 -77q-8 -7 -47 -7t-45 7q-9 12 -9 30l-101 -5q0 -59 -11 -164q16 -14 65 -21.5t81 -7.5q24 0 59.5 5.5t48.5 12.5l-3 33q50 33 83 33q18 0 42 -6q23 -30 23 -77
q0 -27 -10 -77q-75 -43 -272 -43q-96 0 -183 10.5t-122 26.5q-12 15 -16.5 30t-4.5 49zM179 753q25 42 80 98.5t90 56.5t91.5 -55.5t80.5 -99.5q-9 -4 -17 -4t-19 4q-32 17 -76.5 48.5t-58.5 52.5q-17 -21 -62.5 -55t-72.5 -46q-12 -4 -16 -4q-8 0 -20 4z" />
    <glyph glyph-name="Edieresis" unicode="&#xcb;" horiz-adv-x="690" 
d="M46 103q0 16 16 52q18 9 40 9q10 0 16 -3q-12 89 -12 181q0 135 21 222q-23 -5 -37 -5q-18 0 -28 7q-14 20 -14 62q0 26 19 52q32 15 117 23.5t164 8.5q184 0 296 -38q10 -50 10 -77q0 -47 -23 -77q-25 -6 -43 -6q-32 0 -82 33l3 33q-19 13 -104 13q-30 0 -77 -3t-48 -6
q4 -36 4 -53q0 -89 -13 -122q98 0 99 3q-1 3 -1 9q0 11 9 27q6 5 33 5q42 0 58 -7q20 -33 20 -95q0 -56 -21 -77q-8 -7 -47 -7t-45 7q-9 12 -9 30l-101 -5q0 -59 -11 -164q16 -14 65 -21.5t81 -7.5q24 0 59.5 5.5t48.5 12.5l-3 33q50 33 83 33q18 0 42 -6q23 -30 23 -77
q0 -27 -10 -77q-75 -43 -272 -43q-96 0 -183 10.5t-122 26.5q-12 15 -16.5 30t-4.5 49zM204 840q0 35 22 67q28 8 40 8q19 0 39 -8q21 -32 21 -70q0 -37 -21 -74q-16 -8 -35 -8t-44 8q-22 39 -22 77zM374 840q0 35 22 67q28 8 40 8q19 0 39 -8q21 -32 21 -70q0 -37 -21 -74
q-16 -8 -35 -8t-44 8q-22 39 -22 77z" />
    <glyph glyph-name="Igrave" unicode="&#xcc;" horiz-adv-x="356" 
d="M49 921q23 25 65 25q8 0 13 -1q45 -49 86 -151q-3 -3 -15 -3q-9 0 -15 3q-93 57 -134 127zM55 86q0 48 6 54q9 5 35 9q18 3 23 3q-12 100 -12 201q0 97 12 193q-5 0 -23 3q-26 4 -35 9q-6 6 -6 54q0 52 6 59q-1 12 32.5 19.5t83.5 7.5q53 0 107 -9q6 -10 14.5 -50.5
t8.5 -61.5q0 -13 -3 -17q-22 -11 -48 -11q-11 0 -17 1q12 -81 12 -176q0 -78 -12 -226q6 1 17 1q26 0 48 -11q3 -4 3 -17q0 -21 -8.5 -61.5t-14.5 -50.5q-57 -5 -104 -5q-52 0 -86 6t-33 17q-6 7 -6 59z" />
    <glyph glyph-name="Iacute" unicode="&#xcd;" horiz-adv-x="356" 
d="M55 86q0 48 6 54q9 5 35 9q18 3 23 3q-12 100 -12 201q0 97 12 193q-5 0 -23 3q-26 4 -35 9q-6 6 -6 54q0 52 6 59q-1 12 32.5 19.5t83.5 7.5q53 0 107 -9q6 -10 14.5 -50.5t8.5 -61.5q0 -13 -3 -17q-22 -11 -48 -11q-11 0 -17 1q12 -81 12 -176q0 -78 -12 -226q6 1 17 1
q26 0 48 -11q3 -4 3 -17q0 -21 -8.5 -61.5t-14.5 -50.5q-57 -5 -104 -5q-52 0 -86 6t-33 17q-6 7 -6 59zM144 795q41 102 86 151q9 2 27 2q44 0 81 -26q-27 -47 -78.5 -91t-90.5 -44q-14 0 -25 8z" />
    <glyph glyph-name="Icircumflex" unicode="&#xce;" horiz-adv-x="356" 
d="M10 753q25 42 80 98.5t90 56.5t91.5 -55.5t80.5 -99.5q-9 -4 -17 -4t-19 4q-32 17 -76.5 48.5t-58.5 52.5q-17 -21 -62.5 -55t-72.5 -46q-12 -4 -16 -4q-8 0 -20 4zM55 86q0 48 6 54q9 5 35 9q18 3 23 3q-12 100 -12 201q0 97 12 193q-5 0 -23 3q-26 4 -35 9q-6 6 -6 54
q0 52 6 59q-1 12 32.5 19.5t83.5 7.5q53 0 107 -9q6 -10 14.5 -50.5t8.5 -61.5q0 -13 -3 -17q-22 -11 -48 -11q-11 0 -17 1q12 -81 12 -176q0 -78 -12 -226q6 1 17 1q26 0 48 -11q3 -4 3 -17q0 -21 -8.5 -61.5t-14.5 -50.5q-57 -5 -104 -5q-52 0 -86 6t-33 17q-6 7 -6 59z
" />
    <glyph glyph-name="Idieresis" unicode="&#xcf;" horiz-adv-x="356" 
d="M35 840q0 35 22 67q28 8 40 8q19 0 39 -8q21 -32 21 -70q0 -37 -21 -74q-16 -8 -35 -8t-44 8q-22 39 -22 77zM55 86q0 48 6 54q9 5 35 9q18 3 23 3q-12 100 -12 201q0 97 12 193q-5 0 -23 3q-26 4 -35 9q-6 6 -6 54q0 52 6 59q-1 12 32.5 19.5t83.5 7.5q53 0 107 -9
q6 -10 14.5 -50.5t8.5 -61.5q0 -13 -3 -17q-22 -11 -48 -11q-11 0 -17 1q12 -81 12 -176q0 -78 -12 -226q6 1 17 1q26 0 48 -11q3 -4 3 -17q0 -21 -8.5 -61.5t-14.5 -50.5q-57 -5 -104 -5q-52 0 -86 6t-33 17q-6 7 -6 59zM205 840q0 35 22 67q28 8 40 8q19 0 39 -8
q21 -32 21 -70q0 -37 -21 -74q-16 -8 -35 -8t-44 8q-22 39 -22 77z" />
    <glyph glyph-name="Eth" unicode="&#xd0;" horiz-adv-x="711" 
d="M46 614q0 22 9 33q95 54 210 54q105 0 183.5 -28t126 -80t70.5 -119.5t23 -151.5q0 -166 -92 -249t-290 -83q-117 0 -224 42q-10 10 -10 69q0 33 3 43q3 15 42 15q11 0 25 -2q-8 53 -10 155q-23 4 -25 6q-4 6 -4 25q0 12 4 21l25 3q2 93 12 166q-10 -3 -27 -3
q-39 0 -42 15q-9 38 -9 69zM265 133q29 -10 63 -10q83 0 143.5 57.5t60.5 148.5q0 93 -60 167t-144 74q-35 0 -63 -14q7 -75 9 -183q30 -3 59 -9q4 -11 4 -24q0 -15 -4 -23q-25 -7 -60 -11q-2 -109 -8 -173z" />
    <glyph glyph-name="Ntilde" unicode="&#xd1;" horiz-adv-x="761" 
d="M52 91q0 42 15 49q23 14 32 14q6 0 16 -2q-12 100 -12 201q0 97 12 193q-12 -2 -19 -2q-15 0 -29 14q-8 12 -8 57q0 44 8 56q-1 11 42.5 19t95.5 8q47 0 65 -9q29 -15 29 -70q0 -34 -9 -59q-19 -13 -36 -13q-8 0 -19 3q44 -33 139 -113.5t139 -126.5q0 148 12 236
q-6 -1 -18 -1q-16 0 -30 13q-15 26 -15 66q0 36 15 47q37 28 121 28q60 0 82 -10q33 -19 33 -79q0 -33 -13 -50q-26 -12 -38 -12q-7 0 -17 2q12 -81 12 -176q0 -78 -12 -226q12 3 16 3q26 0 39 -13q11 -14 11 -41q0 -25 -9 -51.5t-22 -36.5q-20 -9 -98 -9q-82 0 -105 26
q-15 15 -15 64q0 40 15 50q20 14 29 14q6 0 16 -2q-40 26 -142 121.5t-134 120.5q-2 -142 -11 -246q12 2 21 2q20 0 34 -12q9 -10 9 -38t-8.5 -56.5t-20.5 -34.5q-18 -9 -65 -9q-52 0 -95.5 8t-42.5 19q-15 15 -15 64zM248 794q10 94 75 94q32 0 77.5 -24t54.5 -24
q30 0 44 62q8 4 13 4q22 0 45 -37q-10 -94 -75 -94q-28 0 -74 24t-58 24q-31 0 -44 -61q-8 -5 -17 -5q-23 0 -41 37z" />
    <glyph glyph-name="Ograve" unicode="&#xd2;" horiz-adv-x="742" 
d="M38 266q0 75 31 152.5t83.5 140.5t130.5 103t165 40q127 0 190.5 -80t63.5 -203q0 -74 -23 -147.5t-66.5 -137.5t-117 -104t-164.5 -40q-130 0 -211.5 75.5t-81.5 200.5zM187 282q0 -73 39 -116.5t102 -43.5q66 0 122 49t85 116t29 129q0 66 -35.5 107.5t-103.5 41.5
q-70 0 -126 -45.5t-84 -109.5t-28 -128zM283 921q23 25 65 25q8 0 13 -1q45 -49 86 -151q-3 -3 -15 -3q-9 0 -15 3q-93 57 -134 127z" />
    <glyph glyph-name="Oacute" unicode="&#xd3;" horiz-adv-x="742" 
d="M38 266q0 75 31 152.5t83.5 140.5t130.5 103t165 40q127 0 190.5 -80t63.5 -203q0 -74 -23 -147.5t-66.5 -137.5t-117 -104t-164.5 -40q-130 0 -211.5 75.5t-81.5 200.5zM187 282q0 -73 39 -116.5t102 -43.5q66 0 122 49t85 116t29 129q0 66 -35.5 107.5t-103.5 41.5
q-70 0 -126 -45.5t-84 -109.5t-28 -128zM390 795q41 102 86 151q9 2 27 2q44 0 81 -26q-27 -47 -78.5 -91t-90.5 -44q-14 0 -25 8z" />
    <glyph glyph-name="Ocircumflex" unicode="&#xd4;" horiz-adv-x="742" 
d="M38 266q0 75 31 152.5t83.5 140.5t130.5 103t165 40q127 0 190.5 -80t63.5 -203q0 -74 -23 -147.5t-66.5 -137.5t-117 -104t-164.5 -40q-130 0 -211.5 75.5t-81.5 200.5zM187 282q0 -73 39 -116.5t102 -43.5q66 0 122 49t85 116t29 129q0 66 -35.5 107.5t-103.5 41.5
q-70 0 -126 -45.5t-84 -109.5t-28 -128zM264 753q25 42 80 98.5t90 56.5t91.5 -55.5t80.5 -99.5q-9 -4 -17 -4t-19 4q-32 17 -76.5 48.5t-58.5 52.5q-17 -21 -62.5 -55t-72.5 -46q-12 -4 -16 -4q-8 0 -20 4z" />
    <glyph glyph-name="Otilde" unicode="&#xd5;" horiz-adv-x="742" 
d="M38 266q0 75 31 152.5t83.5 140.5t130.5 103t165 40q127 0 190.5 -80t63.5 -203q0 -74 -23 -147.5t-66.5 -137.5t-117 -104t-164.5 -40q-130 0 -211.5 75.5t-81.5 200.5zM187 282q0 -73 39 -116.5t102 -43.5q66 0 122 49t85 116t29 129q0 66 -35.5 107.5t-103.5 41.5
q-70 0 -126 -45.5t-84 -109.5t-28 -128zM271 794q10 94 75 94q32 0 77.5 -24t54.5 -24q30 0 44 62q8 4 13 4q22 0 45 -37q-10 -94 -75 -94q-28 0 -74 24t-58 24q-31 0 -44 -61q-7 -5 -17 -5q-23 0 -41 37z" />
    <glyph glyph-name="Odieresis" unicode="&#xd6;" horiz-adv-x="742" 
d="M38 266q0 75 31 152.5t83.5 140.5t130.5 103t165 40q127 0 190.5 -80t63.5 -203q0 -74 -23 -147.5t-66.5 -137.5t-117 -104t-164.5 -40q-130 0 -211.5 75.5t-81.5 200.5zM187 282q0 -73 39 -116.5t102 -43.5q66 0 122 49t85 116t29 129q0 66 -35.5 107.5t-103.5 41.5
q-70 0 -126 -45.5t-84 -109.5t-28 -128zM279 840q0 35 22 67q28 8 40 8q19 0 39 -8q21 -32 21 -70q0 -37 -21 -74q-16 -8 -35 -8t-44 8q-22 39 -22 77zM449 840q0 35 22 67q28 8 40 8q19 0 39 -8q21 -32 21 -70q0 -37 -21 -74q-16 -8 -35 -8t-44 8q-22 39 -22 77z" />
    <glyph glyph-name="multiply" unicode="&#xd7;" horiz-adv-x="465" 
d="M46 458q5 22 12 29.5t29 12.5q40 -22 77 -59q45 -45 70 -89q20 32 65 77q36 36 79 65q19 -3 24.5 -8.5t12.5 -28.5q-15 -31 -63 -82q-37 -37 -79 -62q37 -18 81 -62q35 -35 66 -85q0 -29 -41 -41q-45 30 -80 65q-46 46 -67 82q-33 -47 -70 -84t-75 -59q-23 2 -28.5 7.5
t-8.5 29.5q26 42 62 78q43 43 81 67q-49 29 -92 72q-35 34 -55 75z" />
    <glyph glyph-name="Oslash" unicode="&#xd8;" horiz-adv-x="742" 
d="M38 265q0 102 51 201.5t147.5 167.5t212.5 68q46 0 88 -13q20 24 64 70q9 -1 14.5 -7t5.5 -10l-27 -80q54 -37 81 -101t27 -143q0 -76 -24.5 -151t-69 -137t-115 -101t-153.5 -39q-62 0 -123 18l-68 -75q-20 3 -20 17l30 84q-121 72 -121 231zM187 279q0 -64 30 -104
q95 214 220 389q-3 0 -9.5 0.5t-11.5 0.5q-94 0 -161.5 -92t-67.5 -194zM309 123q9 -1 28 -1q87 0 157 97t70 199q0 59 -28 97q-92 -209 -227 -392z" />
    <glyph glyph-name="Ugrave" unicode="&#xd9;" horiz-adv-x="771" 
d="M7 611q0 36 21 68q60 23 123 23q61 0 124 -21q24 -29 24 -67q0 -33 -19 -58q-10 -6 -21 -6t-24 5q-8 -34 -8 -85q0 -144 52 -231.5t121 -87.5q67 0 107 90.5t40 243.5q0 51 -6 80q-10 -12 -32 -12q-17 0 -21 10q-17 25 -17 57t17 58q60 24 138 24q82 0 118 -31
q18 -29 18 -50q0 -18 -16 -45q-16 -14 -42 -14q-11 0 -20 3q10 -54 10 -118q0 -206 -85 -327t-201 -121q-60 0 -118 35t-104.5 97t-75 157.5t-28.5 206.5q0 13 0.5 28t0.5 23q-6 -5 -21 -5q-27 0 -35 8q-20 27 -20 62zM272 921q22 25 65 25q8 0 13 -1q45 -49 86 -151
q-3 -3 -15 -3q-9 0 -15 3q-93 57 -134 127z" />
    <glyph glyph-name="Uacute" unicode="&#xda;" horiz-adv-x="771" 
d="M7 611q0 36 21 68q60 23 123 23q61 0 124 -21q24 -29 24 -67q0 -33 -19 -58q-10 -6 -21 -6t-24 5q-8 -34 -8 -85q0 -144 52 -231.5t121 -87.5q67 0 107 90.5t40 243.5q0 51 -6 80q-10 -12 -32 -12q-17 0 -21 10q-17 25 -17 57t17 58q60 24 138 24q82 0 118 -31
q18 -29 18 -50q0 -18 -16 -45q-16 -14 -42 -14q-11 0 -20 3q10 -54 10 -118q0 -206 -85 -327t-201 -121q-60 0 -118 35t-104.5 97t-75 157.5t-28.5 206.5q0 13 0.5 28t0.5 23q-6 -5 -21 -5q-27 0 -35 8q-20 27 -20 62zM348 795q41 102 86 151q9 2 27 2q44 0 81 -26
q-27 -47 -78.5 -91t-90.5 -44q-14 0 -25 8z" />
    <glyph glyph-name="Ucircumflex" unicode="&#xdb;" horiz-adv-x="771" 
d="M7 611q0 36 21 68q60 23 123 23q61 0 124 -21q24 -29 24 -67q0 -33 -19 -58q-10 -6 -21 -6t-24 5q-8 -34 -8 -85q0 -144 52 -231.5t121 -87.5q67 0 107 90.5t40 243.5q0 51 -6 80q-10 -12 -32 -12q-17 0 -21 10q-17 25 -17 57t17 58q60 24 138 24q82 0 118 -31
q18 -29 18 -50q0 -18 -16 -45q-16 -14 -42 -14q-11 0 -20 3q10 -54 10 -118q0 -206 -85 -327t-201 -121q-60 0 -118 35t-104.5 97t-75 157.5t-28.5 206.5q0 13 0.5 28t0.5 23q-6 -5 -21 -5q-27 0 -35 8q-20 27 -20 62zM233 753q25 42 80 98.5t90 56.5t91.5 -55.5t80.5 -99.5
q-9 -4 -17 -4t-19 4q-32 17 -76.5 48.5t-58.5 52.5q-17 -21 -62.5 -55t-72.5 -46q-12 -4 -16 -4q-8 0 -20 4z" />
    <glyph glyph-name="Udieresis" unicode="&#xdc;" horiz-adv-x="771" 
d="M7 611q0 36 21 68q60 23 123 23q61 0 124 -21q24 -29 24 -67q0 -33 -19 -58q-10 -6 -21 -6t-24 5q-8 -34 -8 -85q0 -144 52 -231.5t121 -87.5q67 0 107 90.5t40 243.5q0 51 -6 80q-10 -12 -32 -12q-17 0 -21 10q-17 25 -17 57t17 58q60 24 138 24q82 0 118 -31
q18 -29 18 -50q0 -18 -16 -45q-16 -14 -42 -14q-11 0 -20 3q10 -54 10 -118q0 -206 -85 -327t-201 -121q-60 0 -118 35t-104.5 97t-75 157.5t-28.5 206.5q0 13 0.5 28t0.5 23q-6 -5 -21 -5q-27 0 -35 8q-20 27 -20 62zM248 840q0 35 22 67q28 8 40 8q19 0 39 -8
q21 -32 21 -70q0 -37 -21 -74q-16 -8 -35 -8t-44 8q-22 39 -22 77zM418 840q0 35 22 67q28 8 40 8q19 0 39 -8q21 -32 21 -70q0 -37 -21 -74q-16 -8 -35 -8t-44 8q-22 39 -22 77z" />
    <glyph glyph-name="Yacute" unicode="&#xdd;" horiz-adv-x="682" 
d="M4 605q17 25 75.5 55t135.5 42q39 -61 39 -82q0 -5 -25 -17q-18 -9 -31 -9q6 -19 57.5 -80t90.5 -102q25 15 78 87.5t60 94.5q-12 0 -31 9q-24 11 -25 16q1 8 18 44t21 39q116 0 211 -97q-12 -67 -28 -86q-19 4 -42 15q-4 -6 -20.5 -32t-28.5 -42t-32.5 -40.5
t-46.5 -46.5t-56 -42q-5 -23 -7.5 -109t-4.5 -101q25 0 51 -14q4 -4 4 -21q0 -19 -5 -45t-8 -33q-7 -9 -118 -9q-36 0 -52 0.5t-35.5 1.5t-28.5 4.5t-13 9.5q-4 10 -4 50q0 36 8 44q25 12 58 12q0 11 -1.5 60t-3.5 89.5t-5 60.5q-60 39 -119.5 110.5t-65.5 92.5
q-23 -11 -42 -15q-20 39 -28 86zM310 795q41 102 86 151q9 2 27 2q44 0 81 -26q-27 -47 -78.5 -91t-90.5 -44q-14 0 -25 8z" />
    <glyph glyph-name="Thorn" unicode="&#xde;" horiz-adv-x="638" 
d="M42 608q0 48 18 59q20 37 138 37q28 0 54 -10q5 -19 5 -85q0 -7 -1 -9q46 30 78 42.5t70 12.5q98 0 153.5 -69t55.5 -165q0 -104 -66 -181.5t-186 -77.5q-49 0 -104 16q2 -10 2 -17q0 -15 -6 -32q4 1 26 1q39 0 50 -18q15 -10 15 -46q0 -31 -15 -47q-6 -20 -116 -20
q-151 0 -157 20q-13 14 -13 44q0 31 13 49q5 8 22.5 13t33.5 5q12 0 16 -1q0 17 -1 63t-1 95q0 177 10 233q-3 -1 -17 -1q-23 0 -54 7q-23 27 -23 82zM258 368q0 -47 24 -72t61 -25q53 0 102.5 46t49.5 109q0 43 -25 74t-67 31q-54 0 -99.5 -48.5t-45.5 -114.5z" />
    <glyph glyph-name="germandbls" unicode="&#xdf;" horiz-adv-x="811" 
d="M29 -15q0 40 5 45q2 2 49 11q-1 9 -8.5 111.5t-7.5 159.5q0 69 7.5 128.5t27 118.5t50.5 99.5t82 66t117 25.5q109 0 194 -58t85 -139q0 -54 -43 -107q190 -37 190 -176q0 -106 -100.5 -189t-215.5 -83q-35 0 -67 9q-8 2 -8 39q0 32 39 71q13 -4 32 -4q66 0 130 41t64 97
q0 62 -96 96q-16 -22 -47 -27q-32 6 -54.5 43t-22.5 80q20 41 63 43q4 16 4 33q0 53 -37.5 85.5t-104.5 32.5q-54 0 -85 -26t-48.5 -101t-17.5 -212q0 -113 14 -260q30 0 36 -9q2 -4 2 -15q0 -18 -7 -52.5t-12 -43.5q-24 -7 -86 -7q-93 0 -118 23q-5 5 -5 51z" />
    <glyph glyph-name="agrave" unicode="&#xe0;" horiz-adv-x="623" 
d="M35 207q0 72 21.5 139.5t69 116.5t111.5 49q29 0 51.5 -10t35 -24.5t20.5 -29t11 -24.5t4 -10q0 54 -1 71q20 17 41.5 22.5t59.5 5.5q30 0 53.5 -2t35.5 -5t19.5 -6t9.5 -4l2 -1q4 -9 4 -56q0 -48 -4 -57q-3 -7 -32 -12.5t-50 -5.5q-10 0 -22 2q3 -6 3 -51
q0 -131 -9 -145q7 3 17 3q44 0 86 -9q8 -6 8 -85q0 -44 -3 -56q-7 -11 -44 -21t-84 -10q-85 0 -105 4q-7 19 -7 32q0 8 3 12q-12 -4 -68 -30t-81 -26q-77 0 -116.5 65t-39.5 158zM160 233q0 -56 34.5 -94.5t72.5 -38.5q21 0 48 11t29 20q3 46 5.5 84.5t4 59t1.5 26.5v12
q0 21 -27.5 41.5t-61.5 20.5q-50 0 -78 -45.5t-28 -96.5zM188 721q22 25 65 25q8 0 13 -1q45 -49 86 -151q-3 -3 -15 -3q-9 0 -15 3q-93 57 -134 127z" />
    <glyph glyph-name="aacute" unicode="&#xe1;" horiz-adv-x="623" 
d="M35 207q0 72 21.5 139.5t69 116.5t111.5 49q29 0 51.5 -10t35 -24.5t20.5 -29t11 -24.5t4 -10q0 54 -1 71q20 17 41.5 22.5t59.5 5.5q30 0 53.5 -2t35.5 -5t19.5 -6t9.5 -4l2 -1q4 -9 4 -56q0 -48 -4 -57q-3 -7 -32 -12.5t-50 -5.5q-10 0 -22 2q3 -6 3 -51
q0 -131 -9 -145q7 3 17 3q44 0 86 -9q8 -6 8 -85q0 -44 -3 -56q-7 -11 -44 -21t-84 -10q-85 0 -105 4q-7 19 -7 32q0 8 3 12q-12 -4 -68 -30t-81 -26q-77 0 -116.5 65t-39.5 158zM160 233q0 -56 34.5 -94.5t72.5 -38.5q21 0 48 11t29 20q3 46 5.5 84.5t4 59t1.5 26.5v12
q0 21 -27.5 41.5t-61.5 20.5q-50 0 -78 -45.5t-28 -96.5zM273 595q41 102 86 151q9 2 27 2q44 0 81 -26q-27 -47 -78.5 -91t-90.5 -44q-14 0 -25 8z" />
    <glyph glyph-name="acircumflex" unicode="&#xe2;" horiz-adv-x="623" 
d="M35 207q0 72 21.5 139.5t69 116.5t111.5 49q29 0 51.5 -10t35 -24.5t20.5 -29t11 -24.5t4 -10q0 54 -1 71q20 17 41.5 22.5t59.5 5.5q30 0 53.5 -2t35.5 -5t19.5 -6t9.5 -4l2 -1q4 -9 4 -56q0 -48 -4 -57q-3 -7 -32 -12.5t-50 -5.5q-10 0 -22 2q3 -6 3 -51
q0 -131 -9 -145q7 3 17 3q44 0 86 -9q8 -6 8 -85q0 -44 -3 -56q-7 -11 -44 -21t-84 -10q-85 0 -105 4q-7 19 -7 32q0 8 3 12q-12 -4 -68 -30t-81 -26q-77 0 -116.5 65t-39.5 158zM159 563q25 42 80 98.5t90 56.5t91.5 -55.5t80.5 -99.5q-9 -4 -17 -4t-19 4
q-32 17 -76.5 48.5t-58.5 52.5q-17 -21 -62.5 -55t-72.5 -46q-12 -4 -16 -4q-8 0 -20 4zM160 233q0 -56 34.5 -94.5t72.5 -38.5q21 0 48 11t29 20q3 46 5.5 84.5t4 59t1.5 26.5v12q0 21 -27.5 41.5t-61.5 20.5q-50 0 -78 -45.5t-28 -96.5z" />
    <glyph glyph-name="atilde" unicode="&#xe3;" horiz-adv-x="623" 
d="M35 207q0 72 21.5 139.5t69 116.5t111.5 49q29 0 51.5 -10t35 -24.5t20.5 -29t11 -24.5t4 -10q0 54 -1 71q20 17 41.5 22.5t59.5 5.5q30 0 53.5 -2t35.5 -5t19.5 -6t9.5 -4l2 -1q4 -9 4 -56q0 -48 -4 -57q-3 -7 -32 -12.5t-50 -5.5q-10 0 -22 2q3 -6 3 -51
q0 -131 -9 -145q7 3 17 3q44 0 86 -9q8 -6 8 -85q0 -44 -3 -56q-7 -11 -44 -21t-84 -10q-85 0 -105 4q-7 19 -7 32q0 8 3 12q-12 -4 -68 -30t-81 -26q-77 0 -116.5 65t-39.5 158zM160 233q0 -56 34.5 -94.5t72.5 -38.5q21 0 48 11t29 20q3 46 5.5 84.5t4 59t1.5 26.5v12
q0 21 -27.5 41.5t-61.5 20.5q-50 0 -78 -45.5t-28 -96.5zM176 594q10 94 75 94q32 0 77.5 -24t54.5 -24q30 0 44 62q8 4 13 4q22 0 45 -37q-10 -94 -75 -94q-28 0 -74 24t-58 24q-31 0 -44 -61q-8 -5 -17 -5q-23 0 -41 37z" />
    <glyph glyph-name="adieresis" unicode="&#xe4;" horiz-adv-x="623" 
d="M35 207q0 72 21.5 139.5t69 116.5t111.5 49q29 0 51.5 -10t35 -24.5t20.5 -29t11 -24.5t4 -10q0 54 -1 71q20 17 41.5 22.5t59.5 5.5q30 0 53.5 -2t35.5 -5t19.5 -6t9.5 -4l2 -1q4 -9 4 -56q0 -48 -4 -57q-3 -7 -32 -12.5t-50 -5.5q-10 0 -22 2q3 -6 3 -51
q0 -131 -9 -145q7 3 17 3q44 0 86 -9q8 -6 8 -85q0 -44 -3 -56q-7 -11 -44 -21t-84 -10q-85 0 -105 4q-7 19 -7 32q0 8 3 12q-12 -4 -68 -30t-81 -26q-77 0 -116.5 65t-39.5 158zM160 233q0 -56 34.5 -94.5t72.5 -38.5q21 0 48 11t29 20q3 46 5.5 84.5t4 59t1.5 26.5v12
q0 21 -27.5 41.5t-61.5 20.5q-50 0 -78 -45.5t-28 -96.5zM204 670q0 35 22 67q28 8 40 8q19 0 39 -8q21 -32 21 -70q0 -37 -21 -74q-16 -8 -35 -8t-44 8q-22 39 -22 77zM374 670q0 35 22 67q28 8 40 8q19 0 39 -8q21 -32 21 -70q0 -37 -21 -74q-16 -8 -35 -8t-44 8
q-22 39 -22 77z" />
    <glyph glyph-name="aring" unicode="&#xe5;" horiz-adv-x="623" 
d="M35 207q0 72 21.5 139.5t69 116.5t111.5 49q29 0 51.5 -10t35 -24.5t20.5 -29t11 -24.5t4 -10q0 54 -1 71q20 17 41.5 22.5t59.5 5.5q30 0 53.5 -2t35.5 -5t19.5 -6t9.5 -4l2 -1q4 -9 4 -56q0 -48 -4 -57q-3 -7 -32 -12.5t-50 -5.5q-10 0 -22 2q3 -6 3 -51
q0 -131 -9 -145q7 3 17 3q44 0 86 -9q8 -6 8 -85q0 -44 -3 -56q-7 -11 -44 -21t-84 -10q-85 0 -105 4q-7 19 -7 32q0 8 3 12q-12 -4 -68 -30t-81 -26q-77 0 -116.5 65t-39.5 158zM160 233q0 -56 34.5 -94.5t72.5 -38.5q21 0 48 11t29 20q3 46 5.5 84.5t4 59t1.5 26.5v12
q0 21 -27.5 41.5t-61.5 20.5q-50 0 -78 -45.5t-28 -96.5zM240 656q0 50 38.5 94t93.5 44q45 0 66 -30.5t21 -77.5q0 -59 -32 -90t-85 -31q-50 0 -76 26t-26 65zM291 663q0 -21 13.5 -36.5t33.5 -15.5q26 0 49.5 25.5t23.5 56.5q0 22 -12.5 38t-33.5 16q-29 0 -51.5 -28
t-22.5 -56z" />
    <glyph glyph-name="ae" unicode="&#xe6;" horiz-adv-x="832" 
d="M35 209q0 72 21.5 139t70 115.5t114.5 48.5q27 0 48.5 -8t34 -19.5t20.5 -23t12 -19.5l3 -8q0 34 -1 51q38 31 92 31q38 0 83 -15q35 9 71 9q79 0 121.5 -38.5t42.5 -98.5q0 -74 -61.5 -123t-136.5 -49q-53 0 -89 26q0 -50 30.5 -76t76.5 -26q38 0 69.5 18.5t52.5 37
t31 18.5q19 0 42 -33.5t30 -74.5q-3 -24 -25 -51t-45 -40q-19 0 -36 12.5t-24 24.5q-49 -47 -120 -47q-36 0 -77 9q-45 -8 -81 -8q-28 0 -71 5q-7 19 -7 32q0 8 3 12q-15 -5 -63.5 -30.5t-82.5 -25.5q-70 0 -109.5 65.5t-39.5 159.5zM143 233q0 -56 34 -94.5t72 -38.5
q22 0 59.5 11t38.5 20q2 44 5 85t4.5 62.5t1.5 34.5q0 19 -37 40.5t-72 21.5q-50 0 -78 -45.5t-28 -96.5zM510 326q0 -33 48 -33q36 0 69 17t33 42q0 17 -11.5 35.5t-36.5 18.5q-31 0 -66.5 -25t-35.5 -55z" />
    <glyph glyph-name="ccedilla" unicode="&#xe7;" horiz-adv-x="610" 
d="M32 237q0 49 21.5 96.5t60.5 87.5t102.5 65t140.5 25q24 0 37 -1l8 25q30 6 58 6q55 0 107 -33q6 -48 6 -73q0 -74 -29 -86q-28 -11 -54 -11q-48 0 -118 19l6 39q-20 2 -32 2q-73 0 -126.5 -40.5t-53.5 -116.5q0 -64 37.5 -95t89.5 -31q31 0 81 13l-3 36q50 33 122 33
q20 0 47 -5q37 -46 37 -106q0 -25 -7 -79q-42 -34 -116 -34q-20 0 -46 2l-11 16q-29 -3 -56 -3q-21 0 -59 4q2 -36 3 -36q27 23 55 23q36 0 57 -32.5t21 -76.5q0 -48 -24.5 -83.5t-68.5 -35.5q-34 0 -70 24q0 -21 -6 -23q-4 0 -11 -0.5t-10 -0.5q-10 0 -21 3q-5 22 -5 39
q0 25 10 41q12 3 24 3q11 0 23 -3v-8q24 -24 50 -24q22 0 36.5 17.5t14.5 45.5q0 24 -11 42t-27 18q-11 0 -28 -16t-26 -16q-14 0 -26 5q-11 16 -11 49q0 29 5 54q-94 26 -149 90.5t-55 145.5z" />
    <glyph glyph-name="egrave" unicode="&#xe8;" horiz-adv-x="559" 
d="M32 209q0 113 81.5 207t182.5 94q62 0 106 -38t44 -99q0 -71 -58.5 -121.5t-154.5 -50.5q-55 0 -77 17q1 -48 34 -76.5t76 -28.5q56 0 91 44q0 8 3 17q44 36 95 36q10 0 15 -1q66 -36 81 -118q-1 -8 -7.5 -17t-13.5 -15.5t-20 -15t-20.5 -12.5t-22 -12t-16.5 -9
q-6 0 -10 1.5t-7.5 5t-4.5 5t-4 8t-4 7.5q-74 -49 -159 -49q-95 0 -162.5 61t-67.5 160zM135 721q23 25 65 25q8 0 13 -1q45 -49 86 -151q-3 -3 -15 -3q-9 0 -15 3q-93 57 -134 127zM188 326q0 -33 48 -33q36 0 69 17t33 42q0 17 -11.5 35.5t-36.5 18.5q-31 0 -66.5 -25
t-35.5 -55z" />
    <glyph glyph-name="eacute" unicode="&#xe9;" horiz-adv-x="559" 
d="M32 209q0 113 81.5 207t182.5 94q62 0 106 -38t44 -99q0 -71 -58.5 -121.5t-154.5 -50.5q-55 0 -77 17q1 -48 34 -76.5t76 -28.5q56 0 91 44q0 8 3 17q44 36 95 36q10 0 15 -1q66 -36 81 -118q-1 -8 -7.5 -17t-13.5 -15.5t-20 -15t-20.5 -12.5t-22 -12t-16.5 -9
q-6 0 -10 1.5t-7.5 5t-4.5 5t-4 8t-4 7.5q-74 -49 -159 -49q-95 0 -162.5 61t-67.5 160zM188 326q0 -33 48 -33q36 0 69 17t33 42q0 17 -11.5 35.5t-36.5 18.5q-31 0 -66.5 -25t-35.5 -55zM230 595q41 102 86 151q9 2 27 2q44 0 81 -26q-27 -47 -78.5 -91t-90.5 -44
q-14 0 -25 8z" />
    <glyph glyph-name="ecircumflex" unicode="&#xea;" horiz-adv-x="559" 
d="M32 209q0 113 81.5 207t182.5 94q62 0 106 -38t44 -99q0 -71 -58.5 -121.5t-154.5 -50.5q-55 0 -77 17q1 -48 34 -76.5t76 -28.5q56 0 91 44q0 8 3 17q44 36 95 36q10 0 15 -1q66 -36 81 -118q-1 -8 -7.5 -17t-13.5 -15.5t-20 -15t-20.5 -12.5t-22 -12t-16.5 -9
q-6 0 -10 1.5t-7.5 5t-4.5 5t-4 8t-4 7.5q-74 -49 -159 -49q-95 0 -162.5 61t-67.5 160zM116 553q25 42 80 98.5t90 56.5t91.5 -55.5t80.5 -99.5q-9 -4 -17 -4t-19 4q-32 17 -76.5 48.5t-58.5 52.5q-17 -21 -62.5 -55t-72.5 -46q-12 -4 -16 -4q-8 0 -20 4zM188 326
q0 -33 48 -33q36 0 69 17t33 42q0 17 -11.5 35.5t-36.5 18.5q-31 0 -66.5 -25t-35.5 -55z" />
    <glyph glyph-name="edieresis" unicode="&#xeb;" horiz-adv-x="559" 
d="M32 209q0 113 81.5 207t182.5 94q62 0 106 -38t44 -99q0 -71 -58.5 -121.5t-154.5 -50.5q-55 0 -77 17q1 -48 34 -76.5t76 -28.5q56 0 91 44q0 8 3 17q44 36 95 36q10 0 15 -1q66 -36 81 -118q-1 -8 -7.5 -17t-13.5 -15.5t-20 -15t-20.5 -12.5t-22 -12t-16.5 -9
q-6 0 -10 1.5t-7.5 5t-4.5 5t-4 8t-4 7.5q-74 -49 -159 -49q-95 0 -162.5 61t-67.5 160zM141 650q0 35 22 67q28 8 40 8q19 0 39 -8q21 -32 21 -70q0 -37 -21 -74q-16 -8 -35 -8t-44 8q-22 39 -22 77zM188 326q0 -33 48 -33q36 0 69 17t33 42q0 17 -11.5 35.5t-36.5 18.5
q-31 0 -66.5 -25t-35.5 -55zM311 650q0 35 22 67q28 8 40 8q19 0 39 -8q21 -32 21 -70q0 -37 -21 -74q-16 -8 -35 -8t-44 8q-22 39 -22 77z" />
    <glyph glyph-name="igrave" unicode="&#xec;" horiz-adv-x="358" 
d="M28 83q0 51 6 58q12 7 30 9q12 2 52 2q-6 63 -6 137q0 81 10 103q-49 0 -65 4q1 27 7 57q2 13 12 51q37 7 124 7q35 0 64.5 -4t45 -9.5t15.5 -10.5q2 0 2 -36q0 -51 -11 -72q-2 -6 -22 -6q-38 0 -48 5q-11 -70 -11 -182q0 -46 3 -48q6 1 17 1q36 0 58 -11q3 -4 3 -18
q0 -25 -7 -60t-20 -48q-12 -12 -78 -12q-157 0 -174 29q-7 13 -7 54zM95 721q23 25 65 25q8 0 13 -1q45 -49 86 -151q-3 -3 -15 -3q-9 0 -15 3q-93 57 -134 127z" />
    <glyph glyph-name="iacute" unicode="&#xed;" horiz-adv-x="358" 
d="M28 83q0 51 6 58q12 7 30 9q12 2 52 2q-6 63 -6 137q0 81 10 103q-49 0 -65 4q1 27 7 57q2 13 12 51q37 7 124 7q35 0 64.5 -4t45 -9.5t15.5 -10.5q2 0 2 -36q0 -51 -11 -72q-2 -6 -22 -6q-38 0 -48 5q-11 -70 -11 -182q0 -46 3 -48q6 1 17 1q36 0 58 -11q3 -4 3 -18
q0 -25 -7 -60t-20 -48q-12 -12 -78 -12q-157 0 -174 29q-7 13 -7 54zM160 595q41 102 86 151q9 2 27 2q44 0 81 -26q-27 -47 -78.5 -91t-90.5 -44q-14 0 -25 8z" />
    <glyph glyph-name="icircumflex" unicode="&#xee;" horiz-adv-x="358" 
d="M26 553q25 42 80 98.5t90 56.5t91.5 -55.5t80.5 -99.5q-9 -4 -17 -4t-19 4q-32 17 -76.5 48.5t-58.5 52.5q-17 -21 -62.5 -55t-72.5 -46q-12 -4 -16 -4q-8 0 -20 4zM28 83q0 51 6 58q12 7 30 9q12 2 52 2q-6 63 -6 137q0 81 10 103q-49 0 -65 4q1 27 7 57q2 13 12 51
q37 7 124 7q35 0 64.5 -4t45 -9.5t15.5 -10.5q2 0 2 -36q0 -51 -11 -72q-2 -6 -22 -6q-38 0 -48 5q-11 -70 -11 -182q0 -46 3 -48q6 1 17 1q36 0 58 -11q3 -4 3 -18q0 -25 -7 -60t-20 -48q-12 -12 -78 -12q-157 0 -174 29q-7 13 -7 54z" />
    <glyph glyph-name="idieresis" unicode="&#xef;" horiz-adv-x="358" 
d="M28 83q0 51 6 58q12 7 30 9q12 2 52 2q-6 63 -6 137q0 81 10 103q-49 0 -65 4q1 27 7 57q2 13 12 51q37 7 124 7q35 0 64.5 -4t45 -9.5t15.5 -10.5q2 0 2 -36q0 -51 -11 -72q-2 -6 -22 -6q-38 0 -48 5q-11 -70 -11 -182q0 -46 3 -48q6 1 17 1q36 0 58 -11q3 -4 3 -18
q0 -25 -7 -60t-20 -48q-12 -12 -78 -12q-157 0 -174 29q-7 13 -7 54zM61 660q0 35 22 67q28 8 40 8q19 0 39 -8q21 -32 21 -70q0 -37 -21 -74q-16 -8 -35 -8t-44 8q-22 39 -22 77zM231 660q0 35 22 67q28 8 40 8q19 0 39 -8q21 -32 21 -70q0 -37 -21 -74q-16 -8 -35 -8
t-44 8q-22 39 -22 77z" />
    <glyph glyph-name="eth" unicode="&#xf0;" horiz-adv-x="561" 
d="M34 207q0 68 32.5 133t96 108.5t142.5 43.5q20 0 41 -3q-9 18 -38.5 42.5t-52.5 30.5q-8 -7 -32 -27.5t-37 -30.5q-15 2 -27.5 11t-12.5 22q0 2 0.5 4t0.5 3q6 6 21 18t22 20q-39 10 -71 11q-6 5 -6 15q0 11 5.5 22t12.5 13q8 1 23 1q18 0 83 -9q29 25 64 59
q17 -1 28 -11t11 -26q-10 -13 -18.5 -23t-12.5 -15q99 -42 157 -133.5t58 -208.5q0 -127 -69.5 -202t-193.5 -75q-112 0 -169.5 59t-57.5 148zM160 217q0 -44 27 -76t70 -32q57 0 105.5 50.5t48.5 115.5q0 48 -28 80t-73 32q-62 0 -106 -55t-44 -115z" />
    <glyph glyph-name="ntilde" unicode="&#xf1;" horiz-adv-x="724" 
d="M33 70q0 62 27 77q25 9 68 9q6 0 16 -2q0 29 -2 93.5t-2 97.5q-4 0 -33 -2.5t-34 -2.5q-4 0 -12 2t-12 2q-4 4 -4 21q0 27 8 67.5t15 49.5q29 18 106 18q61 0 79.5 -6.5t18.5 -31.5q0 -30 -5 -60q94 108 203 108q172 0 172 -242q0 -49 -6 -95q0 2 9 2q15 0 47 -5
q9 -10 9 -65q0 -69 -10 -85q-75 -20 -130 -20q-39 0 -90 18q-7 5 -15 35.5t-8 52.5q0 33 18 57q11 7 29 7q14 0 27 -5q0 3 0.5 26t0.5 29q0 63 -34.5 110.5t-86.5 47.5q-45 0 -82.5 -36.5t-37.5 -114.5q0 -28 3 -73q12 7 31 7q18 0 22 -5q10 0 10 -40q0 -9 -10 -82
q-72 -35 -183 -35q-91 0 -113 28q-9 11 -9 43zM209 624q10 94 75 94q32 0 77.5 -24t54.5 -24q30 0 44 62q8 4 13 4q22 0 45 -37q-10 -94 -75 -94q-28 0 -74 24t-58 24q-31 0 -44 -61q-7 -5 -17 -5q-23 0 -41 37z" />
    <glyph glyph-name="ograve" unicode="&#xf2;" horiz-adv-x="532" 
d="M35 213q0 124 74 210.5t192 86.5q54 0 93.5 -19.5t61 -54t31 -75t9.5 -89.5q0 -138 -70.5 -210t-183.5 -72q-60 0 -103 20.5t-64.5 55t-30.5 70.5t-9 77zM178 221q0 -50 31 -86t74 -36q37 0 64 30.5t37 65t10 64.5q0 45 -27 78.5t-68 33.5q-50 0 -85.5 -47.5
t-35.5 -102.5zM183 721q23 25 65 25q8 0 13 -1q45 -49 86 -151q-3 -3 -15 -3q-9 0 -15 3q-93 57 -134 127z" />
    <glyph glyph-name="oacute" unicode="&#xf3;" horiz-adv-x="532" 
d="M35 213q0 124 74 210.5t192 86.5q54 0 93.5 -19.5t61 -54t31 -75t9.5 -89.5q0 -138 -70.5 -210t-183.5 -72q-60 0 -103 20.5t-64.5 55t-30.5 70.5t-9 77zM178 221q0 -50 31 -86t74 -36q37 0 64 30.5t37 65t10 64.5q0 45 -27 78.5t-68 33.5q-50 0 -85.5 -47.5
t-35.5 -102.5zM258 595q41 102 86 151q9 2 27 2q44 0 81 -26q-27 -47 -78.5 -91t-90.5 -44q-14 0 -25 8z" />
    <glyph glyph-name="ocircumflex" unicode="&#xf4;" horiz-adv-x="532" 
d="M35 213q0 124 74 210.5t192 86.5q54 0 93.5 -19.5t61 -54t31 -75t9.5 -89.5q0 -138 -70.5 -210t-183.5 -72q-60 0 -103 20.5t-64.5 55t-30.5 70.5t-9 77zM114 573q25 42 80 98.5t90 56.5t91.5 -55.5t80.5 -99.5q-9 -4 -17 -4t-19 4q-32 17 -76.5 48.5t-58.5 52.5
q-17 -21 -62.5 -55t-72.5 -46q-12 -4 -16 -4q-8 0 -20 4zM178 221q0 -50 31 -86t74 -36q37 0 64 30.5t37 65t10 64.5q0 45 -27 78.5t-68 33.5q-50 0 -85.5 -47.5t-35.5 -102.5z" />
    <glyph glyph-name="otilde" unicode="&#xf5;" horiz-adv-x="532" 
d="M35 213q0 124 74 210.5t192 86.5q54 0 93.5 -19.5t61 -54t31 -75t9.5 -89.5q0 -138 -70.5 -210t-183.5 -72q-60 0 -103 20.5t-64.5 55t-30.5 70.5t-9 77zM140 614q10 94 75 94q32 0 77.5 -24t54.5 -24q30 0 44 62q8 4 13 4q22 0 45 -37q-10 -94 -75 -94q-28 0 -74 24
t-58 24q-31 0 -44 -61q-8 -5 -17 -5q-23 0 -41 37zM178 221q0 -50 31 -86t74 -36q37 0 64 30.5t37 65t10 64.5q0 45 -27 78.5t-68 33.5q-50 0 -85.5 -47.5t-35.5 -102.5z" />
    <glyph glyph-name="odieresis" unicode="&#xf6;" horiz-adv-x="532" 
d="M35 213q0 124 74 210.5t192 86.5q54 0 93.5 -19.5t61 -54t31 -75t9.5 -89.5q0 -138 -70.5 -210t-183.5 -72q-60 0 -103 20.5t-64.5 55t-30.5 70.5t-9 77zM149 670q0 35 22 67q28 8 40 8q19 0 39 -8q21 -32 21 -70q0 -37 -21 -74q-16 -8 -35 -8t-44 8q-22 39 -22 77z
M178 221q0 -50 31 -86t74 -36q37 0 64 30.5t37 65t10 64.5q0 45 -27 78.5t-68 33.5q-50 0 -85.5 -47.5t-35.5 -102.5zM319 670q0 35 22 67q28 8 40 8q19 0 39 -8q21 -32 21 -70q0 -37 -21 -74q-16 -8 -35 -8t-44 8q-22 39 -22 77z" />
    <glyph glyph-name="divide" unicode="&#xf7;" horiz-adv-x="620" 
d="M29 299q0 19 8 24q93 11 334 11q57 0 99.5 -2t72.5 -5.5t40 -3.5q9 -11 9 -22t-9 -25q-4 -6 -101 -9.5t-165 -3.5q-88 0 -280 13q-8 9 -8 23zM257 140q0 35 22 67q28 8 40 8q19 0 39 -8q21 -32 21 -70q0 -37 -21 -74q-16 -8 -35 -8t-44 8q-22 39 -22 77zM257 475
q0 35 22 67q28 8 40 8q19 0 39 -8q21 -32 21 -70q0 -36 -21 -74q-16 -8 -35 -8t-44 8q-22 39 -22 77z" />
    <glyph glyph-name="oslash" unicode="&#xf8;" horiz-adv-x="532" 
d="M34 214q0 77 29.5 142.5t93 109.5t149.5 44q48 0 90 -20l19 20q18 9 29 9q16 0 24 -19l-19 -57q46 -66 46 -178q0 -133 -71.5 -204t-185.5 -71q-28 0 -55 5l-24 -26q-18 -15 -30 -15q-17 0 -23 26q4 14 14 40q-86 56 -86 194zM177 222q0 -40 21 -74q58 125 124 219
q-11 4 -25 4q-49 0 -84.5 -48t-35.5 -101zM248 105q15 -6 33 -6q38 0 65 30t37 65t10 65q0 37 -18 65q-51 -110 -127 -219z" />
    <glyph glyph-name="ugrave" unicode="&#xf9;" horiz-adv-x="725" 
d="M23 395q0 69 10 85q75 20 130 20q39 0 90 -18q7 -5 15 -35.5t8 -52.5q0 -33 -18 -57q-11 -7 -29 -7q-14 0 -27 5q0 -3 -0.5 -26t-0.5 -29q0 -63 34.5 -110.5t86.5 -47.5q45 0 82.5 36.5t37.5 114.5q0 28 -3 73q-12 -7 -31 -7q-18 0 -22 5q-10 0 -10 40q0 9 10 82
q72 35 186 35q86 0 110 -29q9 -12 9 -42q0 -62 -27 -77q-36 -9 -60 -9q-14 0 -24 2q0 -29 2 -93.5t2 -97.5q4 0 33 2.5t34 2.5q4 0 12 -2t12 -2q4 -4 4 -21q0 -27 -8 -67.5t-15 -49.5q-30 -18 -114 -18q-54 0 -72 7t-18 31q0 30 5 60q-94 -108 -203 -108q-172 0 -172 242
q0 48 6 94q-1 -1 -9 -1q-15 0 -47 5q-9 10 -9 65zM208 721q22 25 65 25q8 0 13 -1q45 -49 86 -151q-3 -3 -15 -3q-9 0 -15 3q-93 57 -134 127z" />
    <glyph glyph-name="uacute" unicode="&#xfa;" horiz-adv-x="725" 
d="M23 395q0 69 10 85q75 20 130 20q39 0 90 -18q7 -5 15 -35.5t8 -52.5q0 -33 -18 -57q-11 -7 -29 -7q-14 0 -27 5q0 -3 -0.5 -26t-0.5 -29q0 -63 34.5 -110.5t86.5 -47.5q45 0 82.5 36.5t37.5 114.5q0 28 -3 73q-12 -7 -31 -7q-18 0 -22 5q-10 0 -10 40q0 9 10 82
q72 35 186 35q86 0 110 -29q9 -12 9 -42q0 -62 -27 -77q-36 -9 -60 -9q-14 0 -24 2q0 -29 2 -93.5t2 -97.5q4 0 33 2.5t34 2.5q4 0 12 -2t12 -2q4 -4 4 -21q0 -27 -8 -67.5t-15 -49.5q-30 -18 -114 -18q-54 0 -72 7t-18 31q0 30 5 60q-94 -108 -203 -108q-172 0 -172 242
q0 48 6 94q-1 -1 -9 -1q-15 0 -47 5q-9 10 -9 65zM263 595q41 102 86 151q9 2 27 2q44 0 81 -26q-27 -47 -78.5 -91t-90.5 -44q-14 0 -25 8z" />
    <glyph glyph-name="ucircumflex" unicode="&#xfb;" horiz-adv-x="725" 
d="M23 395q0 69 10 85q75 20 130 20q39 0 90 -18q7 -5 15 -35.5t8 -52.5q0 -33 -18 -57q-11 -7 -29 -7q-14 0 -27 5q0 -3 -0.5 -26t-0.5 -29q0 -63 34.5 -110.5t86.5 -47.5q45 0 82.5 36.5t37.5 114.5q0 28 -3 73q-12 -7 -31 -7q-18 0 -22 5q-10 0 -10 40q0 9 10 82
q72 35 186 35q86 0 110 -29q9 -12 9 -42q0 -62 -27 -77q-36 -9 -60 -9q-14 0 -24 2q0 -29 2 -93.5t2 -97.5q4 0 33 2.5t34 2.5q4 0 12 -2t12 -2q4 -4 4 -21q0 -27 -8 -67.5t-15 -49.5q-30 -18 -114 -18q-54 0 -72 7t-18 31q0 30 5 60q-94 -108 -203 -108q-172 0 -172 242
q0 48 6 94q-1 -1 -9 -1q-15 0 -47 5q-9 10 -9 65zM169 573q25 42 80 98.5t90 56.5t91.5 -55.5t80.5 -99.5q-9 -4 -17 -4t-19 4q-32 17 -76.5 48.5t-58.5 52.5q-17 -21 -62.5 -55t-72.5 -46q-12 -4 -16 -4q-8 0 -20 4z" />
    <glyph glyph-name="udieresis" unicode="&#xfc;" horiz-adv-x="725" 
d="M23 395q0 69 10 85q75 20 130 20q39 0 90 -18q7 -5 15 -35.5t8 -52.5q0 -33 -18 -57q-11 -7 -29 -7q-14 0 -27 5q0 -3 -0.5 -26t-0.5 -29q0 -63 34.5 -110.5t86.5 -47.5q45 0 82.5 36.5t37.5 114.5q0 28 -3 73q-12 -7 -31 -7q-18 0 -22 5q-10 0 -10 40q0 9 10 82
q72 35 186 35q86 0 110 -29q9 -12 9 -42q0 -62 -27 -77q-36 -9 -60 -9q-14 0 -24 2q0 -29 2 -93.5t2 -97.5q4 0 33 2.5t34 2.5q4 0 12 -2t12 -2q4 -4 4 -21q0 -27 -8 -67.5t-15 -49.5q-30 -18 -114 -18q-54 0 -72 7t-18 31q0 30 5 60q-94 -108 -203 -108q-172 0 -172 242
q0 48 6 94q-1 -1 -9 -1q-15 0 -47 5q-9 10 -9 65zM174 640q0 35 22 67q28 8 40 8q19 0 39 -8q21 -32 21 -70q0 -37 -21 -74q-16 -8 -35 -8t-44 8q-22 39 -22 77zM344 640q0 35 22 67q28 8 40 8q19 0 39 -8q21 -32 21 -70q0 -37 -21 -74q-16 -8 -35 -8t-44 8q-22 39 -22 77z
" />
    <glyph glyph-name="yacute" unicode="&#xfd;" horiz-adv-x="714" 
d="M2 -199q0 44 11.5 95.5t27.5 69.5q13 6 29 6q39 0 74 -24q4 -3 4 -13q0 -6 -3 -18q38 -28 71.5 -37t86.5 -9q39 0 66.5 4.5t56 17t43.5 41.5t15 73q0 37 -7 63q-85 -71 -178 -71q-98 0 -158 78.5t-60 199.5q0 33 6 59q-6 -3 -14 -3t-24 3.5t-18 3.5q-13 27 -13 70
q0 46 14 70q78 19 128 19q61 0 109 -17q24 -30 24 -73q0 -37 -19 -62q-10 -6 -21 -6q-9 0 -24 5q-12 -36 -12 -75q0 -133 106 -133q62 0 106 44t44 111q0 24 -8 53q-14 -8 -36 -8q-13 0 -17 6q-17 11 -17 60q0 51 17 62q22 35 118 35q46 0 93.5 -8t64.5 -16q4 -26 4 -50
q0 -44 -12 -60q-9 -9 -22 -9q-7 0 -13.5 1.5t-14.5 4.5t-11 4q6 -168 6 -192q0 -104 -12.5 -179t-35.5 -122.5t-60.5 -75.5t-80.5 -38.5t-103 -10.5q-115 0 -208 47q-9 -33 -11 -33q-17 -14 -50 -14q-20 0 -38.5 5.5t-20.5 11.5q-3 13 -3 34zM301 595q41 102 86 151
q9 2 27 2q44 0 81 -26q-27 -47 -78.5 -91t-90.5 -44q-14 0 -25 8z" />
    <glyph glyph-name="thorn" unicode="&#xfe;" horiz-adv-x="586" 
d="M-20 -152q0 29 14 49q5 8 22.5 13t33.5 5q12 0 16 -1q0 18 -1 93.5t-1 162.5q0 105 1.5 185t3 113t3.5 67t2 40q-3 -1 -17 -1q-23 0 -54 7q-19 25 -19 72q0 39 14 69q21 16 60 26t77 10q34 0 55 -9q5 -19 5 -85q0 -208 -1 -209q46 30 78 42.5t70 12.5q98 0 153.5 -69
t55.5 -165q0 -104 -66 -181.5t-186 -77.5q-49 0 -104 16q4 -19 4 -51q0 -45 -8 -68q4 1 26 1q39 0 50 -18q6 -21 6 -48q0 -24 -6 -45q-26 -24 -141 -24q-104 0 -132 24q-14 15 -14 44zM196 223q0 -47 24 -72t61 -25q53 0 102.5 46t49.5 109q0 43 -25 74t-67 31
q-54 0 -99.5 -48.5t-45.5 -114.5z" />
    <glyph glyph-name="ydieresis" unicode="&#xff;" horiz-adv-x="714" 
d="M2 -199q0 44 11.5 95.5t27.5 69.5q13 6 29 6q39 0 74 -24q4 -3 4 -13q0 -6 -3 -18q38 -28 71.5 -37t86.5 -9q39 0 66.5 4.5t56 17t43.5 41.5t15 73q0 37 -7 63q-85 -71 -178 -71q-98 0 -158 78.5t-60 199.5q0 33 6 59q-6 -3 -14 -3t-24 3.5t-18 3.5q-13 27 -13 70
q0 46 14 70q78 19 128 19q61 0 109 -17q24 -30 24 -73q0 -37 -19 -62q-10 -6 -21 -6q-9 0 -24 5q-12 -36 -12 -75q0 -133 106 -133q62 0 106 44t44 111q0 24 -8 53q-14 -8 -36 -8q-13 0 -17 6q-17 11 -17 60q0 51 17 62q22 35 118 35q46 0 93.5 -8t64.5 -16q4 -26 4 -50
q0 -44 -12 -60q-9 -9 -22 -9q-7 0 -13.5 1.5t-14.5 4.5t-11 4q6 -168 6 -192q0 -104 -12.5 -179t-35.5 -122.5t-60.5 -75.5t-80.5 -38.5t-103 -10.5q-115 0 -208 47q-9 -33 -11 -33q-17 -14 -50 -14q-20 0 -38.5 5.5t-20.5 11.5q-3 13 -3 34zM202 660q0 35 22 67q28 8 40 8
q19 0 39 -8q21 -32 21 -70q0 -37 -21 -74q-16 -8 -35 -8t-44 8q-22 39 -22 77zM372 660q0 35 22 67q28 8 40 8q19 0 39 -8q21 -32 21 -70q0 -37 -21 -74q-16 -8 -35 -8t-44 8q-22 39 -22 77z" />
    <glyph glyph-name="OE" unicode="&#x152;" horiz-adv-x="919" 
d="M41 299q0 66 19.5 128t60.5 120t114 99.5t170 54.5q141 11 223 11q133 0 245 -38q10 -50 10 -77q0 -47 -23 -77q-26 -6 -43 -6q-32 0 -82 33l3 33q-17 14 -70 14q-49 0 -109 -10q4 -36 4 -53q0 -89 -13 -122q48 0 49 3q-1 3 -1 9q0 11 9 27q6 5 33 5q42 0 58 -7
q20 -33 20 -95q0 -56 -21 -77q-8 -7 -48 -7q-36 0 -44 7q-9 8 -9 30l-51 -5q0 -59 -11 -164q64 -29 133 -29q46 0 71 18l-3 33q49 33 83 33q18 0 42 -6q23 -30 23 -77q0 -27 -10 -77q-42 -24 -91.5 -33.5t-130.5 -9.5q-170 0 -274 26q-21 -9 -51 -9q-27 0 -59 6.5t-73.5 27
t-74.5 51t-55.5 85.5t-22.5 125zM170 334q0 -81 46.5 -134.5t117.5 -53.5q24 0 48 7q-4 44 -4 111q0 160 28 300q-108 0 -172 -68t-64 -162z" />
    <glyph glyph-name="oe" unicode="&#x153;" horiz-adv-x="893" 
d="M32 186q0 74 37.5 148.5t105 124.5t143.5 50q91 0 159 -79q80 80 193 80q78 0 120.5 -38.5t42.5 -98.5q0 -74 -61.5 -123t-136.5 -49q-53 0 -89 26q0 -2 -0.5 -5.5t-0.5 -8.5q0 -50 34.5 -83t75.5 -33q23 0 39 10q0 8 3 17q44 36 95 36q10 0 15 -1q34 -19 49 -40t22 -58
q-1 -8 -7.5 -17t-13.5 -15.5t-20 -15t-20.5 -12.5t-22 -12t-16.5 -9q-6 0 -10 1.5t-7.5 5t-4.5 5t-4 8t-4 7.5q-58 -20 -105 -20q-61 0 -106 29t-70 79q-37 -49 -98 -76t-126 -27q-88 0 -149.5 50t-61.5 144zM151 215q0 -46 28 -79t77 -33q64 0 111 57t47 119
q0 47 -29.5 80.5t-76.5 33.5q-64 0 -110.5 -58t-46.5 -120zM575 326q0 -33 48 -33q36 0 69 17t33 42q0 17 -11.5 35.5t-36.5 18.5q-31 0 -66.5 -25t-35.5 -55z" />
    <glyph glyph-name="Scaron" unicode="&#x160;" horiz-adv-x="628" 
d="M41 101q0 49 19 84q44 14 57 14q24 0 73 -14q5 -13 7 -38q48 -32 108 -32q55 0 96.5 32.5t41.5 72.5q0 57 -110 61q-42 2 -73 5.5t-73.5 15t-69.5 30.5t-46.5 53.5t-19.5 81.5q0 100 73 171.5t175 71.5q71 0 136 -36q6 30 21 42q19 10 48 10q46 0 64 -18q6 -18 6 -90
q0 -48 -8.5 -68t-32.5 -25q-17 -5 -33 -5q-36 0 -59 15q-6 15 -6 33q-34 17 -99 17q-70 0 -107 -22.5t-37 -75.5q0 -39 22.5 -56.5t72.5 -19.5q142 -7 193 -23q109 -33 109 -144q0 -105 -78 -179.5t-200 -74.5q-69 0 -120 37q0 -25 -10 -37q-18 -10 -59 -10q-44 0 -60 15
q-21 40 -21 106zM178 864q12 4 20 4q4 0 16 -4q75 -33 105 -71q6 9 15 17t22.5 16.5t21 13t25.5 13.5t21 11q11 4 19 4t17 -4q-24 -45 -65.5 -85t-78.5 -40q-33 0 -73.5 42t-64.5 83z" />
    <glyph glyph-name="scaron" unicode="&#x161;" horiz-adv-x="556" 
d="M29 30q6 104 71 143q7 1 21 1q53 0 81 -35q0 -1 0.5 -3.5t0.5 -3.5q0 -3 -2 -11q9 -15 32.5 -24.5t50.5 -9.5q38 0 60.5 18t22.5 43q0 49 -81 53q-31 1 -50 3t-51.5 7t-53.5 15t-42.5 25t-32.5 40t-11 58q0 78 61.5 118t152.5 40q80 0 136 -18q6 10 16.5 20t16.5 12
q74 -7 98 -50q-6 -104 -71 -143q-7 -1 -21 -1q-53 0 -81 35q0 1 -0.5 3.5t-0.5 3.5q0 3 2 11q-11 13 -39.5 22t-58.5 9q-77 0 -77 -51q0 -60 109 -64q31 -1 49 -2.5t48.5 -6t49.5 -14t38.5 -24.5t29 -39.5t9.5 -57.5q0 -158 -232 -158q-78 0 -130 18q-16 -30 -23 -32
q-74 7 -98 50zM162 674q12 4 20 4q4 0 16 -4q75 -33 105 -71q6 9 15 17t22.5 16.5t21 13t25.5 13.5t21 11q11 4 19 4t17 -4q-24 -44 -65.5 -84.5t-75.5 -40.5q-36 0 -76 41.5t-65 83.5z" />
    <glyph glyph-name="Ydieresis" unicode="&#x178;" horiz-adv-x="682" 
d="M4 605q17 25 75.5 55t135.5 42q39 -61 39 -82q0 -5 -25 -17q-18 -9 -31 -9q6 -19 57.5 -80t90.5 -102q25 15 78 87.5t60 94.5q-12 0 -31 9q-24 11 -25 16q1 8 18 44t21 39q116 0 211 -97q-12 -67 -28 -86q-19 4 -42 15q-4 -6 -20.5 -32t-28.5 -42t-32.5 -40.5
t-46.5 -46.5t-56 -42q-5 -23 -7.5 -109t-4.5 -101q25 0 51 -14q4 -4 4 -21q0 -19 -5 -45t-8 -33q-7 -9 -118 -9q-36 0 -52 0.5t-35.5 1.5t-28.5 4.5t-13 9.5q-4 10 -4 50q0 36 8 44q25 12 58 12q0 11 -1.5 60t-3.5 89.5t-5 60.5q-60 39 -119.5 110.5t-65.5 92.5
q-23 -11 -42 -15q-20 39 -28 86zM192 810q0 35 22 67q28 8 40 8q19 0 39 -8q21 -32 21 -70q0 -37 -21 -74q-16 -8 -35 -8t-44 8q-22 39 -22 77zM362 810q0 35 22 67q28 8 40 8q19 0 39 -8q21 -32 21 -70q0 -37 -21 -74q-16 -8 -35 -8t-44 8q-22 39 -22 77z" />
    <glyph glyph-name="Zcaron" unicode="&#x17d;" 
d="M23 3q0 69 38.5 135t100 120t125.5 101.5t127 98.5t92 93q-2 -1 -35 -2.5t-78.5 -3t-72.5 -1.5q-79 0 -89 -5q-10 -36 -13 -41q-43 -8 -74 -8q-33 0 -65 9q-18 36 -18 117q0 56 18 81q22 5 84 5q78 0 89 -10q2 -8 2 -11q0 -1 -2 -9q102 4 166 4q70 0 109 -3q3 18 9 21
q4 10 95 10q64 0 69 -4q-3 -89 -51 -172t-113.5 -141.5t-130.5 -106.5t-110 -84t-45 -56q34 -9 87 -9q132 0 193 23q0 40 13 49q23 9 79 9q48 0 63 -9q11 -6 18 -42.5t7 -80.5q0 -96 -26 -99q-27 -5 -80 -5q-75 0 -86 11q-5 1 -9 42q-91 -30 -195 -30q-34 0 -118 6
q-1 -16 -8 -18q-4 -11 -93 -11q-63 0 -71 4q-1 8 -1 23zM251 864q12 4 20 4q4 0 16 -4q23 -9 56.5 -30t48.5 -41q6 9 15 17t22.5 16.5t21 13t25.5 13.5t21 11q11 4 19 4t17 -4q-24 -44 -65.5 -84.5t-75.5 -40.5q-36 0 -76 41.5t-65 83.5z" />
    <glyph glyph-name="zcaron" unicode="&#x17e;" horiz-adv-x="625" 
d="M19 29q0 40 78 114.5t157.5 131.5t138.5 93q-26 27 -72 27q-55 0 -139 -41q3 -9 3 -24q0 -10 -3 -14q-27 -8 -55 -8q-39 0 -62 15q-17 6 -17 72q0 25 2.5 48.5t6.5 38.5t8 14q9 3 49 3q73 0 77 -8q6 -1 7 -22q83 31 169 31q67 0 124 -17.5t91 -42.5q-17 -42 -56 -87
t-87 -84t-88 -67.5t-79 -53t-40 -25.5q22 -11 62 -11q46 0 90.5 14t64.5 39q-1 4 -1 11q0 14 11 34q19 8 56 8q35 0 53 -8q11 -8 15 -19.5t4 -42.5q0 -47 -6.5 -94.5t-14.5 -50.5q-20 -4 -61 -4q-59 0 -65 9q-5 1 -7 32q-26 -20 -99 -30t-139 -10q-124 0 -176 29zM181 664
q12 4 20 4q4 0 16 -4q75 -33 105 -71q6 9 15 17t22.5 16.5t21 13t25.5 13.5t21 11q11 4 19 4t17 -4q-24 -44 -65.5 -84.5t-75.5 -40.5q-36 0 -76 41.5t-65 83.5z" />
    <glyph glyph-name="florin" unicode="&#x192;" horiz-adv-x="361" 
d="M26 289q0 76 13 93q15 8 59 13q0 38 -1.5 90.5t-1.5 55.5q0 115 160 115q76 0 146 -25q13 -17 13 -63q0 -39 -10 -68l-92 21l6 21q-6 1 -18 1q-80 0 -80 -79q0 -6 0.5 -34t0.5 -32q14 0 36 0.5t31 0.5q29 0 52 -4q4 -4 4 -25q0 -76 -13 -93q-18 -11 -103 -14
q1 -106 2.5 -203t2.5 -153t1 -77q-33 -3 -76 -3q-98 0 -117 16q-10 14 -10 35q0 72 29 89q15 9 29 9q3 0 13 -2q-3 198 -3 287q-1 0 -4.5 -0.5t-10.5 -0.5h-12q-14 0 -42 4q-4 4 -4 25z" />
    <glyph glyph-name="circumflex" unicode="&#x2c6;" horiz-adv-x="833" 
d="M142 553q25 42 80 98.5t90 56.5t91.5 -55.5t80.5 -99.5q-9 -4 -17 -4t-19 4q-32 17 -76.5 48.5t-58.5 52.5q-17 -21 -62.5 -55t-72.5 -46q-12 -4 -16 -4q-8 0 -20 4z" />
    <glyph glyph-name="tilde" unicode="&#x2dc;" horiz-adv-x="833" 
d="M156 544q10 94 75 94q32 0 77.5 -24t54.5 -24q30 0 44 62q8 4 13 4q22 0 45 -37q-10 -94 -75 -94q-28 0 -74 24t-58 24q-31 0 -44 -61q-8 -5 -17 -5q-23 0 -41 37z" />
    <glyph glyph-name="endash" unicode="&#x2013;" horiz-adv-x="491" 
d="M54 277q0 12 4 21q82 11 217 11q108 0 159 -11q4 -11 4 -24q0 -15 -4 -23q-49 -13 -175 -13q-85 0 -201 14q-4 6 -4 25z" />
    <glyph glyph-name="emdash" unicode="&#x2014;" horiz-adv-x="653" 
d="M55 277q0 12 4 21q95 11 317 11q60 0 104 -2t75 -5.5t40 -3.5q4 -11 4 -24q0 -15 -4 -23q-8 0 -36.5 -4t-70 -6.5t-96.5 -2.5q-85 0 -206 4.5t-127 9.5q-4 6 -4 25z" />
    <glyph glyph-name="quoteleft" unicode="&#x2018;" horiz-adv-x="215" 
d="M24 403q11 58 37.5 106t71.5 103q20 20 46 20q-1 -64 -8.5 -110.5t-30.5 -100.5q-45 -24 -72 -24q-17 0 -44 6z" />
    <glyph glyph-name="quoteright" unicode="&#x2019;" horiz-adv-x="214" 
d="M41 397q1 64 8.5 110.5t30.5 100.5q45 24 72 24q17 0 44 -6q-11 -58 -37.5 -106t-71.5 -103q-20 -20 -46 -20z" />
    <glyph glyph-name="quotesinglbase" unicode="&#x201a;" horiz-adv-x="210" 
d="M19 -103q1 64 8.5 110.5t30.5 100.5q45 24 72 24q17 0 44 -6q-11 -58 -37.5 -106t-71.5 -103q-20 -20 -46 -20z" />
    <glyph glyph-name="quotedblleft" unicode="&#x201c;" horiz-adv-x="385" 
d="M24 403q11 58 37.5 106t71.5 103q20 20 46 20q-1 -64 -8.5 -110.5t-30.5 -100.5q-45 -24 -72 -24q-17 0 -44 6zM194 403q11 58 37.5 106t71.5 103q20 20 46 20q-1 -64 -8.5 -110.5t-30.5 -100.5q-45 -24 -72 -24q-17 0 -44 6z" />
    <glyph glyph-name="quotedblright" unicode="&#x201d;" horiz-adv-x="384" 
d="M41 397q1 64 8.5 110.5t30.5 100.5q45 24 72 24q17 0 44 -6q-11 -58 -37.5 -106t-71.5 -103q-20 -20 -46 -20zM211 397q1 64 8.5 110.5t30.5 100.5q45 24 72 24q17 0 44 -6q-11 -58 -37.5 -106t-71.5 -103q-20 -20 -46 -20z" />
    <glyph glyph-name="quotedblbase" unicode="&#x201e;" horiz-adv-x="380" 
d="M19 -103q1 64 8.5 110.5t30.5 100.5q45 24 72 24q17 0 44 -6q-11 -58 -37.5 -106t-71.5 -103q-20 -20 -46 -20zM189 -103q1 64 8.5 110.5t30.5 100.5q45 24 72 24q17 0 44 -6q-11 -58 -37.5 -106t-71.5 -103q-20 -20 -46 -20z" />
    <glyph glyph-name="dagger" unicode="&#x2020;" horiz-adv-x="328" 
d="M37 277q0 12 4 21q42 6 87 9q0 217 21 402q7 11 30 13q20 -194 20 -413q40 -1 88 -11q4 -11 4 -24q0 -15 -4 -23q-36 -11 -89 -13q-3 -188 -19 -411q-4 -11 -30 -13q-18 214 -21 426q-78 0 -87 12q-4 6 -4 25z" />
    <glyph glyph-name="daggerdbl" unicode="&#x2021;" horiz-adv-x="478" 
d="M27 274q0 15 4 24q70 8 172 10q0 64 1 96q-160 6 -171 14q-6 4 -6 21q0 15 4 24q72 8 175 10q5 119 18 236q8 11 30 13q13 -133 17 -248q133 -3 176 -11q4 -11 4 -24q0 -15 -4 -23q-34 -10 -174 -13q1 -30 1 -94q129 -3 173 -11q4 -11 4 -24q0 -15 -4 -23
q-34 -10 -174 -13q-3 -188 -19 -411q-4 -11 -30 -13q-18 213 -21 425q-158 5 -170 14q-6 4 -6 21z" />
    <glyph glyph-name="bullet" unicode="&#x2022;" horiz-adv-x="351" 
d="M44 320q0 54 34 108q49 32 96 32q46 0 99 -32q33 -55 33 -114q0 -58 -33 -120q-57 -38 -103 -38q-47 0 -92 38q-34 70 -34 126z" />
    <glyph glyph-name="ellipsis" unicode="&#x2026;" horiz-adv-x="1866" 
d="M39 80q0 35 22 67q28 8 40 8q19 0 39 -8q21 -32 21 -70q0 -37 -21 -74q-16 -8 -35 -8t-44 8q-22 39 -22 77zM872 80q0 35 22 67q28 8 40 8q19 0 39 -8q21 -32 21 -70q0 -37 -21 -74q-16 -8 -35 -8t-44 8q-22 39 -22 77zM1705 80q0 35 22 67q28 8 40 8q19 0 39 -8
q21 -32 21 -70q0 -37 -21 -74q-16 -8 -35 -8t-44 8q-22 39 -22 77z" />
    <glyph glyph-name="perthousand" unicode="&#x2030;" horiz-adv-x="1243" 
d="M30 485q0 91 46.5 145t116.5 54t116.5 -54t46.5 -145t-46.5 -145t-116.5 -54t-116.5 54t-46.5 145zM116 486q0 -55 20.5 -91t60.5 -36q39 0 58.5 35t19.5 91t-20 90.5t-59 34.5q-40 0 -60 -34.5t-20 -89.5zM191 11q37 57 98.5 183.5t96.5 180.5q34 54 116 153t118 156
q16 4 22 4q20 0 37 -21q-37 -56 -95.5 -178t-94.5 -178q-35 -55 -119.5 -157.5t-120.5 -159.5q-15 -5 -24 -5q-19 0 -34 22zM518 191q0 91 46.5 145t116.5 54t116.5 -54t46.5 -145t-46.5 -145t-116.5 -54t-116.5 54t-46.5 145zM602 186q0 -55 20.5 -91t60.5 -36
q39 0 58.5 35t19.5 91t-20 90.5t-59 34.5q-40 0 -60 -34.5t-20 -89.5zM888 191q0 91 46.5 145t116.5 54t116.5 -54t46.5 -145t-46.5 -145t-116.5 -54t-116.5 54t-46.5 145zM972 186q0 -55 20.5 -91t60.5 -36q39 0 58.5 35t19.5 91t-20 90.5t-59 34.5q-40 0 -60 -34.5
t-20 -89.5z" />
    <glyph glyph-name="guilsinglleft" unicode="&#x2039;" horiz-adv-x="275" 
d="M29 239q70 148 161 238q16 16 33 16q14 0 19 -16q-13 -136 -146 -238q115 -75 140 -228q-12 -22 -29 -22q-8 0 -14 6q-110 98 -164 244z" />
    <glyph glyph-name="guilsinglright" unicode="&#x203a;" horiz-adv-x="277" 
d="M34 477q5 16 19 16q17 0 33 -16q91 -90 161 -238q-23 -68 -77 -144.5t-86 -99.5q-8 -6 -15 -6q-17 0 -29 22q25 153 140 228q-133 102 -146 238z" />
    <glyph glyph-name="Euro" unicode="&#x20ac;" 
d="M29 299q0 5 7 16l63 6q0 42 3 75q-61 4 -66 9q-7 16 -7 20q0 5 7 16q18 2 74 6q27 124 100 192t176 68q95 0 140 -44q2 30 21 37q25 11 61 11q47 0 74 -20q1 -11 4.5 -34.5t5.5 -42.5t2 -35q0 -62 -36 -94q-21 -23 -69 -23q-50 0 -75 23q-1 2 -1 9q0 12 3 16
q-17 37 -55 57t-69 20q-40 0 -78 -37.5t-60 -98.5q90 -2 128 -10q6 -12 6 -21q0 -6 -6 -16q-45 -13 -143 -13q-4 -24 -4 -65q107 -3 147 -11q6 -12 6 -21q0 -6 -6 -16q-35 -11 -137 -13q17 -58 57.5 -92.5t86.5 -34.5q31 0 69 14t56 39q-3 18 -3 20t0.5 4t0.5 3q37 17 65 17
t82 -20q36 -32 36 -93q0 -16 -2.5 -35.5t-6 -42.5t-4.5 -35q-31 -25 -80 -25q-36 0 -55 16q-21 8 -21 39q-66 -45 -134 -45q-104 0 -187.5 77.5t-101.5 198.5q-62 4 -67 9q-7 16 -7 20z" />
    <glyph glyph-name="trademark" unicode="&#x2122;" horiz-adv-x="862" 
d="M52 559q0 37 7 58q100 7 169 7t165 -7q5 -15 5 -55q0 -26 -3 -36q-15 -5 -37 -5q-24 0 -37 7l-8 29q-8 7 -52 7q3 -12 3 -96q0 -97 -10 -102q13 0 29 -6q4 -8 4 -28q0 -18 -4 -26q-15 -15 -58 -15t-58 15q-2 12 -2 35q0 17 2 19q2 0 5.5 1t12.5 3q8 2 12 2
q-10 39 -10 104q0 19 2.5 50t2.5 44q-50 -2 -55 -7l-8 -29q-12 -7 -35 -7q-24 0 -39 5q-3 10 -3 33zM417 343q0 12 5 17q18 6 28 6q-6 45 -6 90q0 44 6 87q-21 0 -28 4q-4 16 -4 40q0 16 4 24q11 14 65 14q40 0 55 -5q9 -27 9 -72q-8 -4 -17 -4q12 -14 37 -35t38 -29
q14 9 39 30t35 34q-1 0 -4.5 0.5t-5.5 1t-3 1.5q-4 16 -4 40q0 16 4 24q31 17 75 17q28 0 45 -8q10 -37 10 -72q-11 -4 -32 -4q6 -36 6 -81q0 -21 -3 -57t-3 -43q3 1 9 1q13 0 23 -5q6 -15 6 -26q0 -17 -16 -35q-18 -8 -62 -8q-42 0 -58 16q-7 10 -7 31q0 16 7 23q21 6 26 6
q-4 62 -4 107q-9 -8 -42.5 -33t-40.5 -32q-9 7 -42 32.5t-42 32.5q-2 -62 -5 -110q3 1 9 1q12 0 22 -5q1 -5 1 -15q0 -23 -10 -46q-24 -6 -42 -6q-68 0 -78 14q0 1 -2.5 14.5t-2.5 22.5z" />
    <glyph glyph-name="uniE000" unicode="&#xe000;" horiz-adv-x="500" 
d="M0 500h500v-500h-500v500z" />
    </font>
</defs>
</svg>
