<?xml version="1.0" standalone="no"?>
<!DOCTYPE svg PUBLIC "-//W3C//DTD SVG 1.1//EN" "http://www.w3.org/Graphics/SVG/1.1/DTD/svg11.dtd" >
<svg xmlns="http://www.w3.org/2000/svg" xmlns:xlink="http://www.w3.org/1999/xlink" version="1.1">
<metadata>
Created by FontForge 20170731 at Mon Mar 12 01:47:31 2012
 By Aleksey,,,
Copyright (c) 2011, Gustavo Dipre (gbrenda1987@gmail.com), with Reserved Font Name "Gorditas".
</metadata>
<defs>
<font id="Gorditas-Bold" horiz-adv-x="805" >
  <font-face 
    font-family="Gorditas"
    font-weight="700"
    font-stretch="normal"
    units-per-em="1000"
    panose-1="2 9 8 0 4 0 0 0 0 0"
    ascent="800"
    descent="-200"
    x-height="500"
    cap-height="698"
    bbox="-62 -259 1833 954"
    underline-thickness="50"
    underline-position="-150"
    unicode-range="U+000D-E000"
  />
<missing-glyph horiz-adv-x="195" 
 />
    <glyph glyph-name=".notdef" horiz-adv-x="195" 
 />
    <glyph glyph-name=".null" horiz-adv-x="0" 
 />
    <glyph glyph-name="nonmarkingreturn" unicode="&#xd;" horiz-adv-x="333" 
 />
    <glyph glyph-name="NULL" horiz-adv-x="0" 
 />
    <glyph glyph-name="NULL" horiz-adv-x="0" 
 />
    <glyph glyph-name="space" unicode=" " horiz-adv-x="195" 
 />
    <glyph glyph-name="exclam" unicode="!" horiz-adv-x="288" 
d="M36 476q0 113 55 214q5 1 16 5.5t20.5 6.5t19.5 2q23 0 51 -14q54 -112 54 -231q0 -136 -69 -261q-16 -14 -35 -14q-17 0 -33 11q-79 144 -79 281zM88 62q0 28 6 57q21 8 47 8t53 -8q9 -30 9 -59q0 -30 -9 -60q-19 -8 -47 -8q-34 0 -53 8q-6 32 -6 62z" />
    <glyph glyph-name="quotedbl" unicode="&#x22;" horiz-adv-x="370" 
d="M31 554q0 33 15.5 53.5t46.5 20.5t48 -20.5t17 -54.5q0 -52 -39 -155l-53 12q-8 13 -21.5 73.5t-13.5 70.5zM211 554q0 33 15.5 53.5t46.5 20.5t48 -20.5t17 -54.5q0 -52 -39 -155l-53 12q-8 13 -21.5 73.5t-13.5 70.5z" />
    <glyph glyph-name="numbersign" unicode="#" horiz-adv-x="655" 
d="M44 193q0 19 9 36l87 4l14 84q11 66 19 104l-116 6q-12 18 -12 38q0 19 12 42q69 9 137 12l30 117q2 3 13 3q16 0 38 -5.5t28 -11.5l-13 -101q62 0 144 -2l30 117q2 3 13 3q16 0 38 -5.5t28 -11.5q-3 -30 -14 -109q37 -2 73 -6q9 -25 9 -44t-9 -36l-87 -4l-14 -84
q-11 -66 -19 -104l116 -6q12 -18 12 -38q0 -19 -12 -42q-69 -9 -137 -12l-30 -117q-1 -3 -13 -3q-16 0 -38 5.5t-28 11.5l13 101q-62 0 -144 2l-30 -117q-1 -3 -13 -3q-16 0 -38 5.5t-28 11.5q3 30 14 109q-38 2 -73 6q-9 25 -9 44zM243 236q13 0 55.5 0.5t81.5 0.5l32 183
q-13 0 -55.5 -0.5t-81.5 -0.5z" />
    <glyph glyph-name="dollar" unicode="$" horiz-adv-x="620" 
d="M40 458q0 101 62.5 173t164.5 85q3 69 8 120q14 9 29 9q16 0 39 -19l8 -108q48 -6 87 -35q6 24 28 34q9 4 34 4q45 0 67 -6q6 -37 6 -72q0 -93 -43 -168q-77 0 -91 10q-5 13 -7 38q-28 34 -75 34q2 -90 2 -131q44 -2 77 -9.5t68.5 -25t54.5 -53.5t19 -88q0 -102 -68 -173
t-159 -77q-2 -40 -8 -122q-18 -10 -33 -10q-22 0 -35 22q-1 21 -4 60t-4 57q-38 9 -73 29q-7 -18 -31 -37q-10 -10 -44 -10q-45 0 -58 13q-6 18 -6 70q0 134 41 143q2 0 7 0.5t11 0.5q58 0 74 -11q6 -15 6 -33q29 -25 67 -28q-3 76 -3 154q-13 0 -37 -0.5t-29 -0.5
q-64 0 -108 37.5t-44 123.5zM236 483q0 -32 43 -47q0 33 2 109q-45 -18 -45 -62zM329 161q23 15 36.5 36.5t13.5 42.5q0 41 -48 54q0 -43 -2 -133z" />
    <glyph glyph-name="percent" unicode="%" horiz-adv-x="886" 
d="M36 485q0 91 46.5 145t116.5 54t116.5 -54t46.5 -145t-46.5 -145t-116.5 -54t-116.5 54t-46.5 145zM172 505q0 -42 15.5 -68.5t44.5 -26.5q30 0 44.5 26.5t14.5 68.5t-15 68.5t-44 26.5q-30 0 -45 -26.5t-15 -68.5zM192 11q37 57 93.5 183t91.5 181t121.5 153.5
t122.5 155.5q12 4 25 4q29 0 44 -21q-37 -56 -90.5 -178t-89.5 -178q-35 -55 -124.5 -158t-125.5 -159q-18 -5 -29 -5q-26 0 -39 22zM524 191q0 91 46.5 145t116.5 54t116.5 -54t46.5 -145t-46.5 -145t-116.5 -54t-116.5 54t-46.5 145zM660 211q0 -42 15.5 -68.5t44.5 -26.5
q30 0 44.5 26.5t14.5 68.5t-15 68.5t-44 26.5q-30 0 -45 -26.5t-15 -68.5z" />
    <glyph glyph-name="ampersand" unicode="&#x26;" horiz-adv-x="761" 
d="M26 154q0 62 31.5 119.5t84.5 86.5q-67 98 -67 176q0 82 64.5 137.5t170.5 55.5q98 0 145.5 -47t47.5 -117q0 -60 -34.5 -113.5t-100.5 -85.5q85 -87 96 -101q92 75 113 125q-3 4 -19.5 21t-19.5 22q44 39 75 52q35 -18 99.5 -90t66.5 -95q0 -5 -31 -30.5t-37 -28.5
q-11 0 -21.5 13t-13.5 25q-53 -78 -107 -129q45 -49 52 -55l-158 -110q-2 2 -24 25.5t-38 41.5q-108 -64 -208 -64q-83 0 -125 47.5t-42 118.5zM188 195q0 -23 14.5 -38t37.5 -15q37 0 73 37q-9 11 -26.5 30.5t-31 35.5t-24.5 31q-43 -39 -43 -81zM250 531q0 -14 6 -29
t13 -24.5t22 -29.5q83 50 83 96q0 20 -19.5 34t-44.5 14q-27 0 -43.5 -17.5t-16.5 -43.5z" />
    <glyph glyph-name="quotesingle" unicode="'" horiz-adv-x="181" 
d="M37 570q0 18 1 27q22 7 47 7q23 0 54 -7q3 -24 3 -47q0 -73 -27 -161q-8 -4 -18 -4q-19 0 -35 16q-25 95 -25 169z" />
    <glyph glyph-name="parenleft" unicode="(" horiz-adv-x="379" 
d="M16 230q0 63 26 125t72 116t100 99t119 86q37 -13 37 -37q0 -19 -23 -47q-81 -58 -115.5 -141t-34.5 -196q0 -115 39.5 -200.5t142.5 -179.5q-3 -34 -34 -34q-21 0 -52 15q-22 22 -68.5 63t-77 70.5t-64 71t-50.5 89t-17 100.5z" />
    <glyph glyph-name="parenright" unicode=")" horiz-adv-x="379" 
d="M0 -145q103 94 142.5 179.5t39.5 200.5q0 113 -34.5 196t-115.5 141q-23 28 -23 47q0 24 37 37q65 -41 119 -86t100 -99t72 -116t26 -125q0 -53 -17 -100.5t-50.5 -89t-64 -71t-77 -70.5t-68.5 -63q-32 -15 -52 -15q-31 0 -34 34z" />
    <glyph glyph-name="asterisk" unicode="*" horiz-adv-x="404" 
d="M41 493q0 13 11 22q8 2 17 2q16 0 40.5 -4.5t41.5 -9.5t19 -6q0 5 -1 15t-1 20q0 36 16 80q7 7 16 7q6 0 17 -7q16 -41 16 -83q0 -13 -2 -35q50 21 119 21q13 -3 13 -15q0 -6 -3 -14q-33 -33 -109 -52q38 -34 58 -107q0 -18 -19 -18q-5 0 -7 1q-53 29 -82 87
q-24 -48 -83 -87q-21 0 -25 17q22 75 57 107q-56 8 -108 52q0 1 -0.5 3t-0.5 4z" />
    <glyph glyph-name="plus" unicode="+" horiz-adv-x="553" 
d="M30 310q0 18 16 38q47 10 98 10t95 -10q-14 56 -14 107q0 50 14 92q23 12 41 12q20 0 37 -12q14 -45 14 -95q0 -51 -14 -104q41 8 90 8t103 -8q11 -15 11 -34q0 -18 -11 -40q-55 -13 -102 -13q-46 0 -91 13q14 -43 14 -93q0 -52 -14 -106q-23 -10 -41 -10q-20 0 -37 10
q-11 53 -11 103q0 51 11 96q-50 -11 -99 -11q-50 0 -94 11q-16 18 -16 36z" />
    <glyph glyph-name="comma" unicode="," horiz-adv-x="235" 
d="M20 -93q2 142 39 231q49 26 95 26q19 0 51 -8q-21 -111 -109 -219q-37 -31 -61 -31q-10 0 -15 1z" />
    <glyph glyph-name="hyphen" unicode="-" horiz-adv-x="359" 
d="M43 279q0 20 13 39q82 11 137 11q58 0 109 -11q15 -18 15 -39t-15 -48q-46 -13 -106 -13q-53 0 -140 13q-13 26 -13 48z" />
    <glyph glyph-name="period" unicode="." horiz-adv-x="228" 
d="M33 80q0 35 22 67q29 21 58 21t61 -21q21 -32 21 -70q0 -37 -21 -74q-34 -24 -63 -24t-56 24q-22 39 -22 77z" />
    <glyph glyph-name="slash" unicode="/" horiz-adv-x="600" 
d="M24 -90q176 505 472 809q25 13 43 13q27 0 37 -30q-146 -465 -472 -809q-26 -22 -46 -22q-25 0 -34 39z" />
    <glyph glyph-name="zero" unicode="0" horiz-adv-x="752" 
d="M33 272q0 75 31 151.5t83.5 138.5t130.5 101t165 39q73 0 127 -27.5t85 -75t45.5 -105t14.5 -125.5q0 -186 -102.5 -282.5t-265.5 -96.5q-155 0 -234.5 80.5t-79.5 201.5zM232 302q0 -52 31.5 -90t82.5 -38q67 0 125 60t58 139q0 56 -32.5 94t-86.5 38q-74 0 -126 -66
t-52 -137z" />
    <glyph glyph-name="one" unicode="1" horiz-adv-x="414" 
d="M27 563q0 51 6 59q14 13 36 27.5t75 32t111 17.5q36 0 56 -9q14 -29 14 -203q0 -247 -14 -338q6 1 17 1q26 0 48 -11q3 -5 3 -17q0 -21 -8.5 -61.5t-14.5 -50.5q-18 -9 -109 -9q-161 0 -185 27q-6 8 -6 59q0 48 6 54l56 9q20 3 23 3q-12 101 -12 201q0 97 12 193
q-46 -32 -108 -38q-6 6 -6 54z" />
    <glyph glyph-name="two" unicode="2" horiz-adv-x="660" 
d="M40 0q2 52 3.5 80.5t5 68.5t8 60t12.5 48.5t18.5 43t26.5 33t35.5 28t46 20.5t58.5 17.5t72 11.5q5 1 16 2t15.5 2t13.5 2.5t12.5 3t9 4t8 5.5t5.5 7.5t4 10.5t1 13q0 40 -32 62.5t-77 22.5q-36 0 -65.5 -15t-38.5 -43q0 -18 -6 -33q-16 -11 -74 -11q-6 0 -11 0.5t-7 0.5
q-22 5 -31.5 54.5t-9.5 108.5q0 52 6 70q8 6 37 11t55 5q22 0 26 -4q8 -6 10.5 -23.5t4.5 -22.5q74 64 170 64q99 0 171.5 -69t72.5 -178q0 -40 -10 -70.5t-31 -49t-41 -30.5t-51.5 -18t-50 -8t-48.5 -4q-69 -4 -90 -17t-22 -66q68 -14 108 -14q55 0 106 20q-1 3 -1 7
q0 5 2 10t6 12t6 10q17 10 45 10q29 0 47 -10q13 -7 19.5 -47t6.5 -79q0 -37 -7 -66t-13 -39t-9 -12q-25 -5 -61 -5q-49 0 -52 10q-9 36 -10 44q-36 -30 -148 -30q-27 0 -135 6q-1 -16 -8 -18q-9 -12 -71 -12q-44 0 -59 5z" />
    <glyph glyph-name="three" unicode="3" horiz-adv-x="582" 
d="M-1 125q0 4 1 7q3 11 21.5 31t61 47.5t93.5 42.5q16 -7 33.5 -33t18.5 -43q-1 -8 -14 -21q21 -9 42 -9q35 0 60.5 22t25.5 59q0 34 -26 55q-16 -4 -40 -4q-28 0 -42 6q-19 22 -19 83q0 43 8 75q3 3 26 7.5t45 4.5q29 0 35 -6q14 16 14 40q0 34 -23 59.5t-58 25.5
q-16 0 -29 -6q0 -4 2 -14q-11 -21 -37 -21q-7 0 -12 4q-21 17 -41 57t-20 64q14 25 57 26l8 -8q58 37 120 37q99 0 160 -66t61 -150q0 -92 -70 -143q83 -64 83 -156q0 -64 -43 -115t-109 -77t-139 -26q-121 0 -188 77q-23 -12 -29 -12q-16 14 -26.5 37.5t-10.5 42.5z" />
    <glyph glyph-name="four" unicode="4" horiz-adv-x="569" 
d="M12 350q0 49 6 67q89 172 257 269q47 20 94 20q46 0 76 -20q14 -45 14 -209q0 -44 -1 -66q3 0 10.5 0.5t11.5 0.5q11 0 21 -2q24 -11 24 -68q0 -44 -18 -59q-5 -4 -29 -4q-15 0 -24 1q5 -35 5 -58q0 -53 -14 -77q6 1 17 1q26 0 48 -11q23 -11 23 -79q0 -34 -7 -48
q-48 -12 -167 -12q-148 0 -158 15q-8 12 -8 68q0 45 14 58q9 6 35 9q18 3 43 3q-6 58 -6 77q0 35 5 52q-45 -5 -135 -5q-110 0 -131 7q-6 12 -6 70zM163 417q32 2 54 2q39 0 64 -3q0 35 4 117q-82 -62 -122 -116z" />
    <glyph glyph-name="five" unicode="5" horiz-adv-x="639" 
d="M50 483q0 156 25 223q20 14 56 14q73 0 106 -14q6 -1 8 -28q24 6 82 6q74 0 111 -10q2 25 9 42q9 11 86 11q26 0 38 -4q2 -1 8.5 -21.5t13.5 -59.5t7 -76q0 -71 -26 -86q-33 -15 -61 -15q-43 0 -71 11q-10 9 -10 24q0 14 7 24q-22 14 -111 14q-60 0 -84 -8
q-14 -19 -14 -57q0 -13 6 -26.5t18 -17.5q12 1 60 1q140 0 209.5 -58t69.5 -143q0 -93 -72 -166.5t-164 -73.5q-72 0 -132 50q-7 -18 -31 -37q-28 -7 -62 -7q-43 0 -70 10q-7 14 -7 64q0 58 10.5 110t31.5 59q25 5 51 5q46 0 71 -15q6 -15 6 -33q29 -40 88 -40
q38 0 66.5 18.5t28.5 47.5q0 45 -68 65t-162 20q-54 0 -93 -6q-35 14 -35 183z" />
    <glyph glyph-name="six" unicode="6" horiz-adv-x="661" 
d="M35 355q0 93 33.5 172t105 131.5t168.5 52.5q76 0 150 -37q1 1 3.5 6.5t5.5 10t4 4.5q12 4 29 4q24 0 47.5 -7.5t31.5 -18.5q0 -3 0.5 -8.5t0.5 -12.5q0 -48 -18.5 -100.5t-49.5 -82.5q-5 -1 -15 -1q-21 0 -52.5 9.5t-41.5 17.5q-3 7 -3 16q0 19 7 26q-40 17 -77 17
q-55 0 -90 -36.5t-35 -105.5q0 -6 0.5 -13t0.5 -10q66 57 158 57q107 0 164 -62t57 -153q0 -112 -80.5 -179t-192.5 -67q-97 0 -169.5 55t-107 137.5t-34.5 177.5zM278 200q0 -36 20 -55t52 -19q45 0 74 35.5t29 78.5q0 32 -18 53t-53 21q-45 0 -74.5 -35t-29.5 -79z" />
    <glyph glyph-name="seven" unicode="7" horiz-adv-x="450" 
d="M22 565q0 104 36 127q14 7 80 12.5t130 5.5q137 0 185 -33q-62 -232 -130.5 -433.5t-114.5 -242.5q-44 -6 -86 -6q-65 0 -66 14q103 378 206 551q-3 0 -36.5 -3t-56.5 -4q-2 -48 -11 -67q-8 -4 -23 -4q-28 0 -63 12t-46 26q-4 25 -4 45z" />
    <glyph glyph-name="eight" unicode="8" horiz-adv-x="592" 
d="M32 190q0 56 27.5 112t78.5 98q-62 44 -62 112q0 78 63.5 139t178.5 61q94 0 143.5 -44.5t49.5 -124.5q0 -41 -13.5 -63.5t-41.5 -38.5q105 -79 105 -190q0 -104 -85.5 -182.5t-213.5 -78.5q-107 0 -168.5 58t-61.5 142zM218 213q0 -28 17.5 -49t45.5 -21q36 0 68.5 33
t32.5 75q0 31 -19 52t-49 21q-40 0 -68 -36.5t-28 -74.5zM241 506q0 -20 12.5 -35t33.5 -15q26 0 48.5 23.5t22.5 54.5q0 22 -12.5 37t-33.5 15q-29 0 -50 -26t-21 -54z" />
    <glyph glyph-name="nine" unicode="9" horiz-adv-x="668" 
d="M44 459q0 113 83 182.5t196 69.5q96 0 168 -55t107 -137.5t35 -177.5q0 -93 -33.5 -172t-105 -131.5t-168.5 -52.5q-86 0 -160 37q-1 -1 -3.5 -6.5t-5.5 -10t-4 -4.5q-28 0 -67 6.5t-41 15.5q2 86 24 137.5t43 66.5q5 1 15 1q21 0 52.5 -9.5t41.5 -17.5q3 -7 3 -16
q0 -19 -7 -26q40 -17 89 -17q43 0 75 17.5t48 45.5t23 55t7 52q0 20 -4 27q-32 -46 -83.5 -70t-111.5 -24q-98 0 -157 60t-59 154zM210 450q0 -31 18 -52t52 -21q46 0 78 37t32 83q0 35 -20.5 54t-51.5 19q-45 0 -76.5 -38t-31.5 -82z" />
    <glyph glyph-name="colon" unicode=":" horiz-adv-x="268" 
d="M53 80q0 35 22 67q29 21 58 21t61 -21q21 -32 21 -70q0 -37 -21 -74q-34 -24 -63 -24t-56 24q-22 39 -22 77zM53 420q0 35 22 67q29 21 58 21t61 -21q21 -32 21 -70q0 -37 -21 -74q-34 -24 -63 -24t-56 24q-22 39 -22 77z" />
    <glyph glyph-name="semicolon" unicode=";" horiz-adv-x="265" 
d="M39 -93q2 142 39 231q49 26 95 26q19 0 51 -8q-21 -111 -109 -219q-37 -31 -61 -31q-10 0 -15 1zM59 420q0 35 22 67q29 21 58 21t61 -21q21 -32 21 -70q0 -37 -21 -74q-34 -24 -63 -24t-56 24q-22 39 -22 77z" />
    <glyph glyph-name="less" unicode="&#x3c;" horiz-adv-x="574" 
d="M31 318q0 17 21 34q251 164 447 222q11 -22 11 -42t-11 -44q-143 -104 -355 -169q222 -69 355 -170q15 -21 15 -42q0 -20 -15 -45q-267 91 -447 222q-21 18 -21 34z" />
    <glyph glyph-name="equal" unicode="=" horiz-adv-x="534" 
d="M55 279q0 20 13 39q82 11 204 11q41 0 114.5 -3.5t77.5 -7.5q15 -18 15 -39t-15 -48q-42 -13 -188 -13q-121 0 -208 13q-13 26 -13 48zM55 449q0 20 13 39q82 11 204 11q41 0 114.5 -3.5t77.5 -7.5q15 -18 15 -39t-15 -48q-42 -13 -188 -13q-121 0 -208 13q-13 26 -13 48
z" />
    <glyph glyph-name="greater" unicode="&#x3e;" horiz-adv-x="574" 
d="M60 105q0 21 15 42q133 101 355 170q-212 65 -355 169q-11 24 -11 44t11 42q196 -58 447 -222q21 -17 21 -34q0 -16 -21 -34q-180 -131 -447 -222q-15 25 -15 45z" />
    <glyph glyph-name="question" unicode="?" horiz-adv-x="558" 
d="M32 546q0 52 43 93q38 35 96 54t121 19q97 0 164.5 -45t67.5 -129q0 -27 -7 -49.5t-24 -42t-32.5 -33.5t-46.5 -31t-51 -27t-60 -28q9 -22 9 -56q0 -33 -9 -71q-19 -5 -55 -5q-53 0 -63 5q-14 27 -14 80q0 54 9 93q66 18 97.5 50t31.5 68t-26 60t-60 24q-29 0 -51.5 -20
t-30.5 -60q-25 -7 -47 -7q-31 0 -46.5 16t-15.5 42zM172 69q0 31 13 60q25 12 70 12q24 0 50 -12q19 -38 19 -60q0 -26 -19 -59q-30 -15 -55 -15q-46 0 -65 15q-13 29 -13 59z" />
    <glyph glyph-name="at" unicode="@" horiz-adv-x="925" 
d="M46 197q0 138 61 255t171 186.5t244 69.5q164 0 265 -101.5t101 -270.5q0 -151 -87 -232.5t-248 -81.5q-32 0 -77 5q-7 16 -7 29q0 6 3 10q-14 -4 -57.5 -27t-73.5 -23q-61 0 -95.5 58t-34.5 142q0 101 48 184.5t133 83.5q24 0 43 -7t30 -17t18.5 -20.5t10.5 -17.5l4 -7
q0 30 -1 45q30 25 105 25q88 0 105 -16q3 -9 3 -50t-3 -50q-13 -17 -44 -17q-10 0 -20 2q3 -6 3 -44q0 -117 -8 -128q23 -16 45 -16q39 0 61.5 43t22.5 113q0 128 -73.5 198t-186.5 70q-143 0 -241.5 -107.5t-98.5 -270.5q0 -136 73 -203t199 -67q110 0 199 46l47 -108
q-121 -55 -256 -55q-179 0 -281 97.5t-102 274.5zM328 231q0 -28 17 -48.5t44 -20.5q35 0 66 32.5t31 72.5q0 30 -17.5 50.5t-45.5 20.5q-37 0 -66 -34.5t-29 -72.5z" />
    <glyph glyph-name="A" unicode="A" 
d="M4 62q0 71 16 74q0 8 31 8q26 0 31 -8q7 44 97 301t100 258q57 5 137 5q49 0 110 -5q10 -1 100 -257.5t97 -301.5q8 8 31 8q31 0 31 -8q16 -3 16 -74q0 -46 -11 -50q-13 -12 -156 -12q-61 0 -117 3.5t-56 7.5q-22 14 -22 80q0 19 3 28q0 6 7.5 11t18.5 5q29 0 29 -4
q4 0 4 11q0 17 -10 74q-24 -5 -87 -5q-66 0 -90 5q-10 -49 -10 -74q0 -11 4 -11q0 4 29 4q11 0 18.5 -5t7.5 -11q3 -9 3 -28q0 -66 -22 -80q0 -4 -56 -7.5t-117 -3.5q-143 0 -156 12q-11 4 -11 50zM339 330q28 4 59 4q37 0 67 -5q-30 121 -63 207q-33 -85 -63 -206z" />
    <glyph glyph-name="B" unicode="B" horiz-adv-x="632" 
d="M38 66q0 26 7 50q9 15 42 15q5 0 15 -2q-8 93 -8 177q0 152 13 253q-22 0 -55 5q-6 8 -6 60t3 59q4 8 33.5 15.5t72.5 7.5q72 0 84 -2q4 -13 4 -40q28 17 73 30t80 13q77 0 129 -62.5t52 -141.5q0 -93 -73 -159q102 -58 102 -166q0 -76 -52 -132t-137 -56q-72 0 -117 41
q0 -22 -8 -28q-57 -12 -135 -12q-54 0 -112 15q-7 33 -7 60zM277 231q0 -39 30 -70t64 -31q26 0 40 17.5t14 43.5q0 37 -26.5 70t-62.5 33q-25 0 -42 -17t-17 -46zM280 520q0 -36 27.5 -65t60.5 -29q24 0 40.5 16t16.5 42q0 35 -25.5 66.5t-60.5 31.5q-25 0 -42 -17.5
t-17 -44.5z" />
    <glyph glyph-name="C" unicode="C" horiz-adv-x="663" 
d="M31 344q0 153 78.5 258t208.5 105q95 0 140 -44q2 30 21 37q25 11 61 11q47 0 74 -20q12 -70 12 -118q0 -86 -36 -138q-53 -20 -93 -20q-38 0 -81 20q-1 2 -1 9q0 12 3 16q0 38 -32 60.5t-60 22.5q-41 0 -70 -63t-29 -139q0 -72 28 -112.5t70 -40.5q48 0 91 53
q-3 18 -3 20t0.5 4t0.5 3q37 17 80 17q45 0 97 -20q35 -53 35 -137q0 -47 -12 -119q-31 -25 -80 -25q-36 0 -55 16q-21 8 -21 39q-66 -45 -134 -45q-53 0 -104 22t-94 64t-69 110.5t-26 153.5z" />
    <glyph glyph-name="D" unicode="D" horiz-adv-x="697" 
d="M38 583q0 61 13 64q95 54 210 54q105 0 183.5 -28t126 -80t70.5 -119.5t23 -151.5q0 -166 -92 -249t-290 -83q-117 0 -224 42q-14 30 -14 88q0 51 7 64q3 15 42 15q11 0 25 -2q-10 70 -10 146q0 63 12 150q-10 -3 -27 -3q-39 0 -42 15q-4 7 -8.5 34t-4.5 44zM291 183
q25 -6 50 -6q61 0 99 38.5t38 115.5q0 79 -38.5 140.5t-105.5 61.5q-22 0 -43 -7q9 -90 9 -175q0 -87 -9 -168z" />
    <glyph glyph-name="E" unicode="E" horiz-adv-x="678" 
d="M45 71q0 78 27 92q14 9 28 9q3 0 5 -1q-12 89 -12 171q0 105 21 192q-10 -2 -14 -2q-14 0 -28 9q-27 14 -27 92q0 35 9 47q32 15 117 23.5t164 8.5q184 0 296 -38q10 -30 10 -86q0 -42 -23 -118q-24 -6 -47 -6q-58 0 -108 33l3 33q-20 13 -74 13q-61 0 -65 -9
q4 -36 4 -53q0 -39 -13 -72q38 0 39 3q-1 3 -1 9q0 11 9 27q6 5 33 5q42 0 58 -7q20 -33 20 -95q0 -56 -21 -77q-8 -7 -47 -7t-45 7q-9 12 -9 30l-41 -5q0 -9 -11 -114q35 -29 86 -29q44 0 78 18l-3 33q50 33 108 33q23 0 47 -6q23 -76 23 -118q0 -56 -10 -86
q-75 -43 -272 -43q-96 0 -183 10.5t-122 26.5q-9 12 -9 47z" />
    <glyph glyph-name="F" unicode="F" horiz-adv-x="643" 
d="M37 109q0 21 4 25q28 4 45 4q3 0 10.5 -0.5t11.5 -0.5q-7 90 -7 157q0 60 13 240q-10 -2 -14 -2q-14 0 -28 9q-29 20 -29 90q0 35 11 49q64 30 219 30q98 0 208 -11t150 -25q10 -30 10 -86q0 -42 -23 -118q-24 -6 -47 -6q-58 0 -108 33l3 33q-20 13 -74 13q-61 0 -65 -9
q-14 -49 -26 -153q46 0 47 3q-1 4 -1 32q0 13 11 33q4 3 17 3q21 0 61.5 -8.5t50.5 -14.5q8 -6 8 -59q0 -112 -26 -137q-7 -6 -59 -6q-48 0 -54 6q-12 16 -12 48l-50 -2q0 -47 5 -147q9 3 29 3q26 0 29 -4q10 -13 10 -72q0 -48 -2 -48q-14 -11 -64.5 -18t-109.5 -7
q-102 0 -141 20q-13 17 -13 103z" />
    <glyph glyph-name="G" unicode="G" horiz-adv-x="660" 
d="M32 346q0 160 77 262t196 102q70 0 144 -37q3 0 7 17t14 20q44 8 72 8q41 0 62 -17q7 -28 7 -63q0 -72 -21 -131q-5 -10 -66 -10q-53 0 -71 9q-9 7 -9 19q0 6 5 21q-40 13 -76 13q-77 0 -116 -59.5t-39 -149.5q0 -89 36.5 -130t91.5 -41q31 0 61 14q15 26 15 45
q0 21 -15 43q-88 0 -90 12q-9 7 -9 39q0 49 12 56q20 31 115 31q53 0 102 -9.5t55 -24.5q9 -21 17 -87t8 -140q0 -88 -12 -149q-21 -17 -62 -17q-27 0 -73 8q-21 8 -21 39q-66 -45 -134 -45q-52 0 -101.5 21.5t-90.5 63t-66 111t-25 156.5z" />
    <glyph glyph-name="H" unicode="H" horiz-adv-x="766" 
d="M43 86q0 48 6 54q9 5 35 9q18 3 23 3q-12 100 -12 201q0 97 12 193q-5 0 -23 3q-26 4 -35 9q-6 6 -6 54q0 52 6 59q23 27 160 27q96 0 113 -9q6 -10 14.5 -50.5t8.5 -61.5q0 -13 -3 -17q-22 -11 -48 -11q-11 0 -17 1q11 -70 12 -135q16 13 96 13q79 0 91 -15q3 77 11 133
q-5 0 -23 3q-26 4 -35 9q-6 6 -6 54q0 52 6 59q23 27 160 27q96 0 113 -9q6 -10 14.5 -50.5t8.5 -61.5q0 -13 -3 -17q-22 -11 -48 -11q-11 0 -17 1q12 -81 12 -176q0 -78 -12 -226q6 1 17 1q26 0 48 -11q3 -4 3 -17q0 -21 -8.5 -61.5t-14.5 -50.5q-18 -9 -111 -9
q-139 0 -162 27q-6 7 -6 59q0 48 6 54q9 5 35 9q18 3 23 3q-10 75 -11 141q-16 -8 -88 -8q-86 0 -102 8q-1 -31 -9 -145q6 1 17 1q26 0 48 -11q3 -4 3 -17q0 -21 -8.5 -61.5t-14.5 -50.5q-18 -9 -111 -9q-139 0 -162 27q-6 7 -6 59z" />
    <glyph glyph-name="I" unicode="I" horiz-adv-x="385" 
d="M43 86q0 48 6 54q9 5 35 9q18 3 23 3q-12 100 -12 201q0 97 12 193q-5 0 -23 3q-26 4 -35 9q-6 6 -6 54q0 52 6 59q23 27 160 27q96 0 113 -9q6 -10 14.5 -50.5t8.5 -61.5q0 -13 -3 -17q-22 -11 -48 -11q-11 0 -17 1q12 -81 12 -176q0 -78 -12 -226q6 1 17 1q26 0 48 -11
q3 -4 3 -17q0 -21 -8.5 -61.5t-14.5 -50.5q-18 -9 -111 -9q-139 0 -162 27q-6 7 -6 59z" />
    <glyph glyph-name="J" unicode="J" horiz-adv-x="616" 
d="M10 32q0 44 24 148.5t36 111.5q8 3 19 3q22 0 58.5 -7t45.5 -14q2 0 2 -8q0 -22 -7 -71q35 -23 60 -23q47 0 69 69t22 171q0 99 -15 167q-13 -10 -38 -10q-27 0 -37 14q0 4 -0.5 12.5t-0.5 15.5q0 46 20 80q40 8 124 8q176 0 205 -25q3 -12 3 -45q0 -50 -12 -64
q-4 -5 -23 -5q-27 0 -37 5q13 -74 13 -153q0 -112 -24.5 -206.5t-74.5 -155t-117 -60.5q-33 0 -81.5 13.5t-87.5 34.5q-8 -28 -13 -28q-5 -5 -67 -5q-59 0 -62 8q-4 1 -4 19z" />
    <glyph glyph-name="K" unicode="K" horiz-adv-x="758" 
d="M44 86q0 48 6 54q9 5 35 10q18 3 23 2q-12 100 -12 201q0 97 12 193q-5 0 -23 3q-26 4 -35 9q-6 6 -6 54q0 52 6 59q23 27 164 27q90 0 109 -9q6 -10 14.5 -50.5t8.5 -61.5q0 -13 -3 -17q-22 -11 -48 -11q-11 0 -17 1q11 -79 12 -114q155 37 204 115q-4 -1 -13 -1
q-21 0 -38 14q-9 9 -9 43q0 57 11 83q10 10 85 10q64 0 120.5 -8t57.5 -21q12 -13 12 -64q0 -34 -6 -49q-30 -13 -53 -13q-9 0 -13 1q-19 -92 -143 -176q52 -43 104 -112.5t73 -109.5q35 0 43 -8q22 -12 22 -72q0 -42 -6 -55q-24 -17 -152 -17q-127 0 -145 13q-22 6 -22 68
q0 37 8 50q7 13 43 13q-9 19 -48 63.5t-89 80.5q-30 -11 -49 -13l-9 -123q6 1 17 2q26 0 48 -12q3 -4 3 -17q0 -21 -8.5 -61.5t-14.5 -50.5q-4 -6 -51 -11t-84 -5q-49 0 -89 10.5t-49 23.5q-6 7 -6 59z" />
    <glyph glyph-name="L" unicode="L" horiz-adv-x="649" 
d="M35 612q0 64 14 86q33 9 165 9q146 0 159 -9q15 -26 15 -87q0 -25 -6 -31q-22 -8 -52 -8q-19 0 -34 4q-3 -57 -3 -131q0 -150 33 -271q4 -9 65 -9q55 0 74 13l-3 63q55 32 109 32q19 0 46 -5q23 -76 23 -148q0 -56 -10 -86q-40 -14 -150 -25t-208 -11q-155 0 -219 30
q-9 12 -9 33q0 92 27 106q13 9 28 9q4 0 14 -2q-14 185 -14 254q0 31 10 149q-15 -3 -31 -3q-22 0 -38 6q-5 6 -5 32z" />
    <glyph glyph-name="M" unicode="M" horiz-adv-x="810" 
d="M39 84q0 40 13 56q26 12 58 12q-12 100 -12 201q0 97 12 193q-5 0 -23 3q-26 4 -35 9q-7 8 -7 56q0 47 7 57q7 12 49 19.5t82 7.5q43 0 93.5 -9t57.5 -16q16 -36 16 -87q0 -18 -5 -26q-21 -10 -35 -11q40 -45 94 -111q53 64 95 112q-20 4 -27 8q-7 8 -7 56q0 47 7 57
q8 12 47.5 19.5t91.5 7.5q117 0 154 -27q11 -11 11 -49q0 -46 -11 -62q-22 -11 -48 -11q-11 0 -17 1q12 -81 12 -176q0 -78 -12 -226q6 1 17 1q26 0 48 -11q5 -11 5 -36q0 -32 -7.5 -61t-17.5 -32q-20 -9 -107 -9q-128 0 -166 27q-14 14 -14 57q0 41 14 56q9 5 35 9
q18 3 23 3q-12 100 -12 209q-61 -82 -114 -82q-52 0 -112 81q-3 -92 -12 -212q6 1 17 1q26 0 48 -11q16 -20 16 -63q0 -34 -14 -49q-38 -26 -150 -26q-126 0 -145 27q-13 10 -13 57z" />
    <glyph glyph-name="N" unicode="N" horiz-adv-x="775" 
d="M39 86q0 48 15 54q21 14 42 14q6 0 16 -2q-12 100 -12 201q0 97 12 193q-12 -2 -19 -2q-25 0 -39 14q-7 8 -7 56q0 47 7 57q23 27 162 27q93 0 111 -9q13 -5 21.5 -27t8.5 -49q0 -29 -10 -53q-18 -13 -44 -13q-11 0 -21 3q91 -69 198 -180q0 88 12 176q-6 -1 -19 -1
q-25 0 -39 13q-14 20 -14 62q0 41 14 51q23 27 165 27q88 0 108 -9q13 -5 23 -30t10 -52q0 -28 -13 -47q-22 -11 -48 -11q-11 0 -17 1q12 -81 12 -176q0 -78 -12 -226q10 3 23 3q27 0 42 -13q10 -10 10 -37t-9 -55t-21 -37q-19 -9 -109 -9q-141 0 -164 27q-15 15 -15 62
q0 42 15 51q16 14 40 14q5 0 15 -2q-111 91 -196 192q-1 -81 -11 -196q12 2 21 2q31 0 44 -12q9 -10 9 -38t-8.5 -56.5t-20.5 -34.5q-17 -9 -113 -9q-137 0 -160 27q-15 11 -15 59z" />
    <glyph glyph-name="O" unicode="O" horiz-adv-x="742" 
d="M28 272q0 75 31 151.5t83.5 138.5t130.5 101t165 39q73 0 127 -27.5t85 -75t45.5 -105t14.5 -125.5q0 -186 -102.5 -282.5t-265.5 -96.5q-155 0 -234.5 80.5t-79.5 201.5zM240 305q0 -53 32 -90.5t84 -37.5q68 0 126 61t58 138q0 57 -33 95.5t-88 38.5q-73 0 -126 -66.5
t-53 -138.5z" />
    <glyph glyph-name="P" unicode="P" horiz-adv-x="651" 
d="M32 608q0 48 18 59q9 17 59.5 27t108.5 10q59 0 85 -10q5 -19 5 -35q0 -8 -1 -9q11 4 66.5 30t89.5 26q53 0 95 -43t61.5 -102t19.5 -117q0 -97 -58.5 -162.5t-159.5 -65.5q-48 0 -90 12q2 -8 2 -23q0 -40 -6 -76q4 1 26 1q16 0 33.5 -5t22.5 -13q15 -10 15 -46
q0 -31 -15 -47q-6 -20 -176 -20q-70 0 -127 5.5t-60 14.5q-13 14 -13 44q0 31 13 49q5 8 22.5 13t33.5 5q12 0 16 -1q0 17 -1 63t-1 95q0 177 10 233q-3 -1 -17 -1q-23 0 -54 7q-23 27 -23 82zM326 428q0 -32 16 -48.5t41 -16.5q37 0 70.5 31.5t33.5 74.5q0 30 -17 50
t-45 20q-38 0 -68.5 -33t-30.5 -78z" />
    <glyph glyph-name="Q" unicode="Q" horiz-adv-x="748" 
d="M28 272q0 75 31 151.5t83.5 138.5t130.5 101t165 39q73 0 127 -27t85 -75t45.5 -106t14.5 -126q0 -173 -96 -275q18 -62 26 -93q20 16 44 16q12 0 20 -4q14 -7 24 -33.5t10 -54.5q0 -26 -8 -39q-25 -28 -100.5 -55t-130.5 -27q-21 0 -32 5q-15 6 -30 36.5t-15 56.5
q0 8 1 12q4 14 22 23t34 9q-6 11 -15.5 31t-12.5 26q-49 -12 -107 -12q-157 0 -236.5 80.5t-79.5 201.5zM240 305q0 -53 32 -90.5t84 -37.5q68 0 126 61t58 138q0 57 -33 95.5t-88 38.5q-73 0 -126 -66.5t-53 -138.5z" />
    <glyph glyph-name="R" unicode="R" horiz-adv-x="716" 
d="M32 601q0 49 16 66q13 18 57.5 27.5t95.5 9.5q55 0 80 -10q5 -19 5 -35q0 -8 -1 -9q14 4 68.5 30t87.5 26q73 0 129 -76t56 -164q0 -59 -27.5 -112t-73.5 -76q57 -40 103.5 -92.5t50.5 -71.5q8 4 18 4q11 0 26 -6q15 -14 15 -48t-13 -47q-33 -17 -139 -17q-71 0 -120 17
q-10 4 -17 20.5t-7 36.5q0 25 11 36q7 6 17 6q7 0 19 -4q-9 22 -23.5 40.5t-29.5 30t-31.5 20.5t-31.5 13.5t-26 7t-19 3.5l-9 1q5 -25 5 -52q0 -26 -5 -49q7 3 19 3q32 0 49 -18q4 -9 4 -47q0 -37 -4 -46q-6 -20 -176 -20q-161 0 -167 20q-4 9 -4 46q0 38 4 47q5 8 22.5 13
t33.5 5q12 0 16 -1q0 17 -1 63t-1 95q0 177 10 233q-12 -5 -31 -5q-29 0 -40 11q-21 15 -21 75zM304 428q0 -32 16 -48.5t41 -16.5q37 0 70.5 31.5t33.5 74.5q0 30 -17 50t-45 20q-38 0 -68.5 -33t-30.5 -78z" />
    <glyph glyph-name="S" unicode="S" horiz-adv-x="607" 
d="M38 461q0 109 74.5 179t174.5 70q71 0 135 -36q6 30 21 42q19 10 48 10q46 0 64 -18q6 -18 6 -70q0 -134 -41 -143q-17 -5 -33 -5q-37 0 -59 15q-6 15 -6 33q-34 28 -76 28q-43 0 -76 -30t-33 -66q0 -59 87 -59q9 0 49.5 1t49.5 1q65 0 109 -37t44 -124
q0 -115 -78 -188.5t-199 -73.5q-70 0 -121 37q0 -25 -10 -37q-18 -10 -59 -10q-44 0 -60 15q-6 37 -6 72q0 93 43 168q18 7 37 7q37 0 54 -17q5 -13 7 -38q29 -34 81 -34q53 0 84 20t31 52q0 18 -9.5 29.5t-29.5 17t-33.5 7t-37.5 2.5q-25 1 -40 2.5t-42.5 6.5t-45 12
t-39.5 20.5t-34.5 31t-21.5 45.5t-9 62z" />
    <glyph glyph-name="T" unicode="T" horiz-adv-x="741" 
d="M9 542q0 104 14 146q17 1 83 4.5t130.5 5.5t129.5 2t130.5 -2t136 -5t85.5 -5q14 -42 14 -146q0 -46 -7 -73q-50 -10 -81 -10q-44 0 -74 17l-17 62q-14 9 -88 11q6 -128 6 -231q0 -108 -11 -166q5 0 23 -3q26 -4 35 -9q6 -6 6 -54q0 -52 -6 -59q-19 -27 -146 -27
q-130 0 -149 27q-6 7 -6 59q0 48 6 54q9 5 35 9q18 3 23 3q-11 58 -11 166q0 103 6 231q-74 -2 -88 -11l-17 -62q-30 -17 -74 -17q-31 0 -81 10q-7 27 -7 73z" />
    <glyph glyph-name="U" unicode="U" horiz-adv-x="764" 
d="M5 588q0 55 21 91q63 23 153 23q83 0 144 -21q23 -26 23 -88q0 -53 -18 -77q-10 -6 -21 -6q-9 0 -24 5q0 -6 -2.5 -44t-2.5 -67q0 -219 109 -219q33 0 54.5 19t32 54t14.5 71t4 84q0 29 -1.5 64.5t-1.5 47.5q-4 -11 -32 -11q-17 0 -21 9q-17 26 -17 78t17 77
q49 23 157 23q112 0 149 -30q19 -33 19 -73q0 -35 -17 -62q-12 -13 -42 -13q-14 0 -20 2q11 -55 11 -120q0 -115 -34 -207t-107.5 -150t-176.5 -58q-295 0 -295 480q0 18 0.5 23t0.5 13q-4 -4 -19 -4q-30 0 -37 7q-20 27 -20 79z" />
    <glyph glyph-name="V" unicode="V" horiz-adv-x="807" 
d="M2 627q0 37 15 61q13 12 156 12q61 0 117 -3.5t56 -7.5q22 -14 22 -80q0 -19 -3 -28q0 -6 -7.5 -11t-18.5 -5q-29 0 -29 4q-4 0 -4 -8q0 -35 2 -67t9 -65t11 -53.5t17 -56.5t17.5 -48.5t21 -54.5t20.5 -52q32 70 49.5 115.5t33.5 122t16 159.5q0 8 -4 8q0 -4 -29 -4
q-11 0 -18.5 5t-7.5 11q-3 9 -3 28q0 66 22 80q0 4 56 7.5t117 3.5q143 0 156 -12q12 -16 12 -56q0 -51 -17 -68q-9 -4 -23 -4q-28 0 -33 8q0 -51 -90.5 -302t-112.5 -261q-47 -18 -124 -18q-99 0 -123 18q-21 9 -110 261.5t-89 296.5q0 4 1 5q-23 -9 -37 -9q-11 0 -24 5
q-20 14 -20 63z" />
    <glyph glyph-name="W" unicode="W" horiz-adv-x="908" 
d="M14 612q0 52 6 59q23 27 164 27q90 0 109 -9q6 -10 14.5 -50.5t8.5 -61.5q0 -13 -3 -17q-22 -11 -48 -11q-11 0 -17 1q23 -42 47 -104t25 -108q9 9 38.5 41.5t51.5 49.5t43 17q16 0 35.5 -13t33 -26.5t35.5 -38t29 -31.5q4 33 16.5 70.5t31 80t24.5 58.5q-26 9 -51 24
q-13 9 -13 58q0 52 6 59q9 12 109 12q122 0 164 -10q23 -39 23 -99q0 -26 -3 -30q-22 -11 -48 -11q-11 0 -17 1q-12 -205 -110 -402q6 -2 21.5 -3.5t23.5 -6.5q3 -4 3 -17q0 -21 -8.5 -61.5t-14.5 -50.5q-5 -9 -81 -9q-132 0 -152 27q-6 7 -6 59q0 48 6 54q7 4 27 8
q-16 18 -43 60.5t-42 61.5q-15 -19 -41.5 -61t-42.5 -60q14 -1 35 -11q3 -4 3 -17q0 -21 -8.5 -61.5t-14.5 -50.5q-17 -9 -112 -9q-66 0 -87.5 5.5t-33.5 21.5q-7 12 -7 63q0 43 7 50q12 12 38 12q-100 214 -110 394q-5 0 -23 3q-26 4 -35 9q-6 6 -6 54z" />
    <glyph glyph-name="X" unicode="X" horiz-adv-x="733" 
d="M17 49q0 44 29 85q4 0 26 -2q0 36 59 115t101 106q-44 29 -101.5 103t-58.5 112q-13 -4 -27 -4q-26 26 -26 82q0 21 4 37q51 20 144 20q46 0 91 -9q19 -6 30.5 -28.5t11.5 -46.5q0 -20 -9 -32q-9 -5 -18 -5q-6 0 -18 2q5 -2 10.5 -6.5t12.5 -13t13 -16t16 -21.5t17 -24
t19.5 -28.5t20.5 -29.5q9 11 34 44t46.5 57.5t40.5 37.5q-6 -2 -18 -2q-17 0 -20 6q-8 22 -8 40q0 39 32 65q47 10 106 10q86 0 132 -21q7 -19 7 -41q0 -41 -21 -64q-16 0 -26 3q-1 -38 -62.5 -118t-104.5 -109q45 -37 76.5 -74.5t43 -58t23.5 -52t15 -36.5q6 2 22 2
q13 -9 24 -37t11 -52q0 -20 -9 -26q-60 -23 -133 -23q-35 0 -133 16q-16 9 -16 46q0 41 12 65q7 7 21 7q10 0 19 -3q-24 15 -43 37t-39.5 53.5t-31.5 45.5q-9 -11 -33 -45t-43.5 -57.5t-35.5 -32.5q5 1 16 1q16 0 23 -6q2 -7 2 -27q0 -31 -9 -58.5t-26 -30.5
q-58 -11 -102 -11q-84 0 -133 22q-6 14 -6 31z" />
    <glyph glyph-name="Y" unicode="Y" horiz-adv-x="680" 
d="M4 605q87 69 261 97q1 0 20 -39q19 -43 19 -63q0 -5 -25 -17q-18 -9 -31 -9q14 -43 98 -132q24 14 52 60t36 72q-12 0 -31 9q-24 11 -25 16q0 22 19 64q19 39 20 39q65 0 144.5 -29.5t116.5 -67.5q-7 -39 -11 -53q-9 -32 -17 -53q-19 4 -42 15q-5 -8 -23.5 -38t-31.5 -47
t-42.5 -45.5t-66.5 -52.5q-5 -23 -7.5 -94t-4.5 -86q29 0 55 -14q4 -7 4 -32q0 -71 -13 -97q-12 -9 -142 -9q-148 0 -159 16q-4 10 -4 50q0 66 8 74q25 12 58 12q-7 164 -10 180q-59 38 -103.5 98.5t-51.5 84.5q-23 -11 -42 -15q-9 22 -18 54q-6 19 -10 52z" />
    <glyph glyph-name="Z" unicode="Z" horiz-adv-x="756" 
d="M19 -20q0 97 30 168t79.5 114.5t100.5 75.5t106.5 71.5t85.5 81.5q-1 0 -12.5 5.5t-34.5 11.5t-49 6q-89 0 -99 -5q1 -4 1 -9q0 -10 -14 -32q-42 -16 -77 -16t-62 17q-22 28 -22 104q0 49 3.5 76.5t7.5 34.5t11 13q8 4 71 4q89 0 93 -11q6 -1 7 -5q2 -4 2 -13
q102 4 176 4q80 0 119 -3q3 18 9 21q4 10 95 10q64 0 69 -4q-7 -90 -50.5 -177t-105 -152t-121 -111t-113.5 -74q27 -3 63 -3q101 0 157 21q-1 5 -1 16q0 17 14 43q15 7 74 7q55 0 68 -7t19.5 -55.5t6.5 -90.5q0 -37 -7 -71t-13 -49t-9 -17q-6 -3 -69 -3q-91 0 -95 10
q-5 1 -9 42q-54 -18 -87 -24t-102 -6q-75 0 -144 6q-1 -16 -8 -18q-4 -11 -93 -11q-63 0 -71 4z" />
    <glyph glyph-name="bracketleft" unicode="[" horiz-adv-x="386" 
d="M51 257q0 195 42 393q91 16 155 16t116 -16q12 -18 12 -35t-12 -33q-54 -13 -100 -13q-44 0 -86 13q21 -162 21 -324q0 -168 -21 -334q42 13 86 13t96 -13q20 -14 20 -35q0 -11 -9 -33q-51 -16 -116 -16q-64 0 -162 16q-42 207 -42 401z" />
    <glyph glyph-name="backslash" unicode="\" horiz-adv-x="600" 
d="M24 702q10 30 37 30q18 0 43 -13q296 -304 472 -809q-9 -39 -34 -39q-20 0 -46 22q-326 344 -472 809z" />
    <glyph glyph-name="bracketright" unicode="]" horiz-adv-x="386" 
d="M6 -111q0 21 20 35q52 13 96 13t86 -13q-21 166 -21 334q0 162 21 324q-42 -13 -86 -13q-46 0 -100 13q-12 16 -12 33t12 35q52 16 116 16t155 -16q42 -198 42 -393q0 -194 -42 -401q-98 -16 -162 -16q-65 0 -116 16q-9 22 -9 33z" />
    <glyph glyph-name="asciicircum" unicode="^" horiz-adv-x="833" 
d="M172 503q3 5 13 23t14 25t14 22t17 24.5t18 22.5t23 24q19 15 39 15t45 -15q55 -52 99 -141q-14 -8 -27 -8t-29 8q-58 30 -85 71q-41 -51 -85 -71q-15 -6 -28 -6q-14 0 -28 6z" />
    <glyph glyph-name="underscore" unicode="_" horiz-adv-x="760" 
d="M96 -151q0 20 13 39q93 11 334 11q57 0 99.5 -2t72.5 -5.5t40 -3.5q15 -18 15 -39t-15 -48q-4 -6 -101 -9.5t-165 -3.5q-88 0 -280 13q-13 26 -13 48z" />
    <glyph glyph-name="grave" unicode="`" horiz-adv-x="833" 
d="M223 721q37 26 81 26q19 0 27 -2q45 -49 86 -151q-11 -8 -25 -8q-11 0 -35 8q-93 57 -134 127z" />
    <glyph glyph-name="a" unicode="a" horiz-adv-x="624" 
d="M26 208q0 73 21.5 140.5t70 115.5t114.5 48q27 0 48.5 -8t34 -19.5t20.5 -23t11 -19.5l4 -8q0 34 -1 51q33 28 118 28q30 0 53.5 -2t35.5 -5t19.5 -6t9.5 -4l2 -1q4 -9 4 -56q0 -48 -4 -57q-14 -18 -50 -18q-10 0 -22 2q3 -6 3 -51q0 -131 -9 -145q7 3 17 3q12 0 54 -9
q8 -6 8 -85q0 -44 -3 -56q-6 -11 -44.5 -21t-81.5 -10q-120 0 -134 4q-7 19 -7 32q0 8 3 12q-15 -5 -64.5 -30.5t-74.5 -25.5q-77 0 -116.5 65t-39.5 159zM159 227q0 -32 19 -55t50 -23q41 0 75.5 36t34.5 82q0 34 -19.5 57t-51.5 23q-30 0 -56 -20t-40 -53q-12 -23 -12 -47
z" />
    <glyph glyph-name="b" unicode="b" horiz-adv-x="611" 
d="M9 683q0 47 4 56l7 4q7 4 36 9.5t73 5.5q112 0 147 -30q5 -10 5 -109q0 -42 -1.5 -79.5t-1.5 -39.5q42 12 88 12q101 0 160.5 -78.5t59.5 -179.5q0 -58 -19.5 -117t-61.5 -102t-95 -43q-33 0 -81.5 25.5t-64.5 30.5q1 -1 1 -9q0 -16 -5 -35q-20 -4 -115 -4q-47 0 -84 10
t-44 21q-3 12 -3 56q0 79 8 85q32 7 64 7q14 0 17 -1q-10 56 -10 234q0 49 1 115t1 83q-8 -2 -17 -2q-17 0 -38.5 5t-26.5 13q-4 9 -4 57zM262 288q0 -47 35 -83t75 -36q31 0 50 23t19 54q0 42 -31.5 81.5t-75.5 39.5q-32 0 -52 -22.5t-20 -56.5z" />
    <glyph glyph-name="c" unicode="c" horiz-adv-x="570" 
d="M26 227q0 139 87 211t261 72l8 25q27 6 53 6q59 0 108 -33q3 -15 3 -42q0 -52 -17 -88t-42 -46q-43 -15 -79 -15q-37 0 -67 15l7 34q-24 7 -46 7q-46 0 -75.5 -42t-29.5 -93q0 -42 20 -75.5t50 -33.5q28 0 67 23l-7 27q47 34 108 34q21 0 53 -7q61 -67 61 -158
q0 -20 -3 -41q-55 -36 -126 -36q-10 0 -32 2l-9 27q-68 -13 -118 -13q-108 0 -171.5 59t-63.5 181z" />
    <glyph glyph-name="d" unicode="d" horiz-adv-x="630" 
d="M25 254q0 101 59.5 179.5t160.5 78.5q36 0 78 -12q0 2 -1.5 39.5t-1.5 79.5q0 99 5 109q35 30 172 30q44 0 73.5 -5.5t35.5 -9.5l7 -4q4 -9 4 -56q0 -48 -4 -57q-5 -8 -22.5 -13t-33.5 -5q-12 0 -16 1q0 -17 1 -82.5t1 -114.5q0 -178 -10 -234q3 1 17 1q22 0 54 -7
q8 -6 8 -85q0 -44 -3 -56q-28 -31 -146 -31q-4 0 -112 4q-5 19 -5 35q0 8 1 9q-16 -5 -64.5 -30.5t-81.5 -25.5q-53 0 -95 43t-61.5 102t-19.5 117zM178 247q0 -32 19 -55t50 -23q41 0 75.5 36t34.5 82q0 34 -19.5 57t-51.5 23q-42 0 -75 -38.5t-33 -81.5z" />
    <glyph glyph-name="e" unicode="e" horiz-adv-x="557" 
d="M23 222q0 47 18.5 96t54 92.5t96 71.5t135.5 28q83 0 129.5 -33.5t46.5 -95.5q0 -84 -77.5 -136.5t-173.5 -52.5q-26 0 -53 5q2 -73 122 -73q21 0 36 3q0 8 3 17q44 36 95 36q10 0 15 -1q66 -36 81 -118q-1 -8 -7.5 -17t-13.5 -15.5t-20 -15t-20.5 -12.5t-22 -12
t-16.5 -9q-6 0 -10 1.5t-7.5 5t-4.5 5t-4 8t-4 7.5q-56 -21 -115 -21q-134 0 -208.5 69t-74.5 167zM218 326q0 -33 48 -33q36 0 69 17t33 42q0 17 -11.5 35.5t-36.5 18.5q-31 0 -66.5 -25t-35.5 -55z" />
    <glyph glyph-name="f" unicode="f" horiz-adv-x="409" 
d="M29 389q0 76 13 93q15 8 59 13q0 65 1.5 100.5t8.5 70t18 48.5t34.5 26t52.5 14.5t77 2.5q65 0 96 -5.5t65 -20.5q13 -17 13 -93q0 -39 -10 -68l-92 21l6 21q-6 1 -18 1q-80 0 -80 -79q0 -6 0.5 -19t0.5 -17h42q18 0 25 0.5t8 0.5q16 0 44 -4q4 -4 4 -25q0 -76 -13 -93
q-18 -11 -103 -14l7 -209q12 7 31 7q18 0 22 -5q10 0 10 -40q0 -9 -10 -82q-42 -19 -75.5 -26.5t-89.5 -7.5q-114 0 -131 28q-9 12 -9 47q0 58 27 72q13 9 28 9q4 0 14 -2q-3 198 -3 207q-1 0 -4.5 -0.5t-9.5 -0.5h-13q-14 0 -42 4q-4 4 -4 25z" />
    <glyph glyph-name="g" unicode="g" horiz-adv-x="585" 
d="M25 196q0 74 37 145.5t108 120t158 48.5q29 0 57 -7q13 21 20.5 31.5t16.5 23t16 18t12 5.5q21 0 81.5 -47.5t60.5 -75.5q-1 -9 -33.5 -38.5t-52.5 -43.5q17 -48 17 -110q0 -120 -65.5 -193.5t-162.5 -80.5q19 -9 88 -12.5t120.5 -16t51.5 -48.5q0 -35 -49.5 -68
t-115.5 -53t-124 -32t-83 -12q-23 0 -37 14.5t-18 29.5t-8 42q172 41 172 49q0 2 -27.5 6t-60.5 11t-60.5 29t-27.5 56q0 13 12 30q-52 26 -77.5 73.5t-25.5 105.5zM218 226q0 -31 19 -54t50 -23q40 0 75 36t35 83q0 34 -20 56.5t-52 22.5q-44 0 -75.5 -39.5t-31.5 -81.5z
" />
    <glyph glyph-name="h" unicode="h" horiz-adv-x="703" 
d="M-9 644q0 75 28 88q34 20 122 20q46 0 105 -13q22 -33 22 -174q0 -103 -10 -135q107 80 198 80q79 0 127 -56t48 -171q0 -19 -7 -110q0 2 9 2q15 0 47 -5q9 -10 9 -65q0 -69 -10 -85q-75 -20 -137 -20q-69 0 -120 18q-7 5 -15 35.5t-8 52.5q0 33 18 57q11 7 28 7
q5 0 7 -1t4.5 -2.5t5.5 -2.5q6 30 6 55q0 58 -27 89t-66 31q-42 0 -73.5 -35.5t-31.5 -96.5q0 -25 6 -53q12 7 31 7q18 0 22 -5q10 0 10 -40q0 -9 -10 -82q-75 -34 -176 -34q-110 0 -130 28q-9 12 -9 33q0 72 27 86q12 9 37 9q5 0 15 -2q-11 69 -11 271q0 134 7 170
q-16 -5 -48 -5q-22 0 -41 4q-9 10 -9 50z" />
    <glyph glyph-name="i" unicode="i" horiz-adv-x="378" 
d="M21 83q0 49 20 57q9 5 35 9q18 3 23 3q-11 116 -11 148q0 70 10 92q-29 0 -45 4q-8 21 -8 37q0 31 27 71q37 7 139 7q35 0 68 -4t51.5 -9.5t18.5 -10.5q8 -12 8 -37q0 -53 -16 -73q-3 -4 -27 -4t-34 5q-11 -70 -11 -181q0 -47 3 -49q6 1 17 1q26 0 48 -11q4 -7 4 -24
q0 -25 -8 -58.5t-16 -46.5q-16 -9 -107 -9q-146 0 -169 27q-20 14 -20 56zM121 706q0 28 30 28q25 0 54 -15q21 21 56 21q22 0 39 -15t17 -41q0 -13 -5.5 -25t-11.5 -20t-20 -18.5t-21.5 -15t-26.5 -15t-24 -13.5q-39 29 -63 65.5t-24 63.5z" />
    <glyph glyph-name="j" unicode="j" horiz-adv-x="517" 
d="M-62 -198q0 43 24 137.5t36 102.5q8 3 19 3q20 0 47.5 -7t36.5 -14q2 0 2 -15q0 -21 -6 -58q42 -29 73 -29q23 0 39.5 10.5t25.5 27t14 45t6.5 55.5t1.5 68q0 156 -15 264q-8 -7 -25 -7q-21 0 -50 11q-7 12 -7 38q0 27 5.5 41.5t23.5 24.5q25 12 87 12q189 0 219 -25
q6 -12 6 -38q0 -53 -14 -72q-9 -6 -26 -6q-21 0 -35 7q2 -27 6.5 -74.5t7 -91t2.5 -89.5q0 -373 -198 -373q-75 0 -178 61q-9 -31 -14 -31h-1q-5 -5 -48 -5q-58 0 -61 8q-4 1 -4 19zM260 706q0 28 30 28q25 0 54 -15q21 21 56 21q22 0 39 -15t17 -41q0 -13 -5.5 -25
t-11.5 -20t-20 -18.5t-21.5 -15t-26.5 -15t-24 -13.5q-39 29 -63 65.5t-24 63.5z" />
    <glyph glyph-name="k" unicode="k" horiz-adv-x="704" 
d="M-1 666q0 50 25 66q42 20 124 20q105 0 139 -20q20 -9 20 -61q0 -46 -11 -57q-24 -4 -39 -4q1 -48 10 -206q53 34 95 73t42 61q0 7 -4 11q-7 -7 -25 -7q-7 0 -9 3q-9 9 -9 43q0 14 5 17q37 11 92 11q112 0 170 -23q4 -8 4 -24q0 -46 -23 -53q-3 -1 -10 -1q-28 0 -36 8
q-1 -6 -18.5 -28t-52 -55.5t-73.5 -64.5q96 -40 162.5 -119t66.5 -112q8 4 19 4q9 0 25 -6q17 -8 17 -58q0 -44 -15 -67q-33 -17 -139 -17q-66 0 -110 15q-24 29 -24 79q0 30 11 46q8 5 19 5q8 0 17 -3q-11 35 -33.5 61.5t-54.5 42.5t-52 23.5t-51 15.5q1 -24 1 -73
q0 -39 -1 -58q12 7 31 7q18 0 22 -5q11 -4 11 -63q0 -55 -4 -79q-53 -14 -200 -14q-70 0 -101 12q-17 26 -17 84q0 42 15 50q14 10 44 10q8 0 14 -2q-6 276 -6 387q0 64 2 70q-18 -8 -35 -8q-20 0 -34 11q-16 22 -16 52z" />
    <glyph glyph-name="l" unicode="l" horiz-adv-x="338" 
d="M22 86q0 48 6 54q9 5 35 9q18 3 23 3q-11 58 -11 195q0 161 10 285q-29 0 -45 4q-2 20 -2 32q0 44 21 76q43 10 114 10q54 0 82 -10q11 -92 11 -198q0 -74 -7 -210t-8 -188q6 1 17 1q26 0 48 -11q3 -4 3 -17q0 -21 -8.5 -61.5t-14.5 -50.5q-16 -9 -108 -9q-137 0 -160 27
q-6 7 -6 59z" />
    <glyph glyph-name="m" unicode="m" horiz-adv-x="1056" 
d="M29 70q0 61 27 77q12 9 27 9q5 0 15 -2q0 29 -2 93.5t-2 97.5q-4 0 -12 -2.5t-13 -2.5q-4 0 -12 2t-12 2q-4 4 -4 21q0 27 8 67.5t15 49.5q11 6 46 12.5t72 6.5q46 0 77 -12q7 -7 7 -25q0 -4 -5 -34q105 80 197 80q96 0 144 -79q117 79 211 79q76 0 123.5 -56.5
t47.5 -170.5q0 -15 -7 -110q0 2 9 2q14 0 47 -5q9 -10 9 -65q0 -69 -10 -85q-75 -20 -137 -20q-69 0 -120 18q-7 5 -15 35.5t-8 52.5q0 33 18 57q11 7 28 7q5 0 7 -1t4.5 -2.5t5.5 -2.5q6 30 6 55q0 58 -27 89t-66 31q-29 0 -55 -17.5t-40 -49.5q-2 -74 -6 -99q0 2 9 2
q14 0 47 -5q9 -10 9 -65q0 -69 -10 -85q-75 -20 -137 -20q-69 0 -120 18q-7 5 -15 35.5t-8 52.5q0 33 18 57q11 7 28 7q5 0 7 -1t4.5 -2.5t5.5 -2.5q4 23 4 39q0 68 -26.5 102t-66.5 34q-41 0 -72 -35t-31 -96q0 -26 6 -54q12 7 31 7q18 0 22 -5q10 0 10 -40q0 -9 -10 -82
q-72 -35 -177 -35q-92 0 -117 29q-9 12 -9 42z" />
    <glyph glyph-name="n" unicode="n" horiz-adv-x="717" 
d="M28 75q0 58 27 72q12 9 27 9q5 0 15 -2q0 29 -2 93.5t-2 97.5q-4 0 -12 -2.5t-13 -2.5q-4 0 -12 2t-12 2q-4 4 -4 21q0 27 8 67.5t15 49.5q10 6 48 12.5t77 6.5q50 0 82 -12q7 -6 7 -23q0 -6 -5 -36q107 80 198 80q79 0 127 -56t48 -171q0 -19 -7 -110q0 2 9 2
q15 0 47 -5q9 -10 9 -65q0 -69 -10 -85q-75 -20 -137 -20q-69 0 -120 18q-7 5 -15 35.5t-8 52.5q0 33 18 57q11 7 28 7q5 0 7 -1t4.5 -2.5t5.5 -2.5q6 30 6 55q0 58 -27 89t-66 31q-42 0 -73.5 -35.5t-31.5 -96.5q0 -25 6 -53q12 7 31 7q18 0 22 -5q10 0 10 -40
q0 -9 -10 -82q-75 -34 -176 -34q-110 0 -130 28q-9 12 -9 47z" />
    <glyph glyph-name="o" unicode="o" horiz-adv-x="547" 
d="M23 197q0 74 37.5 145t108 119.5t154.5 48.5q102 0 150 -69t48 -174q0 -136 -75 -206.5t-194 -70.5q-112 0 -170.5 59t-58.5 148zM216 226q0 -31 19 -54t50 -23q40 0 75 36t35 83q0 34 -20 56.5t-52 22.5q-44 0 -75.5 -39.5t-31.5 -81.5z" />
    <glyph glyph-name="p" unicode="p" horiz-adv-x="610" 
d="M8 -175q0 48 4 57q5 8 27 13t39 5q12 0 16 -1q0 17 -1 83t-1 115q0 177 10 233q-3 -1 -17 -1q-33 0 -64 7q-8 6 -8 85q0 44 3 56q7 11 44 21t84 10q95 0 115 -4q5 -19 5 -35q0 -8 -1 -9q16 5 64.5 30.5t81.5 25.5q53 0 95 -43t61.5 -102t19.5 -117q0 -101 -59.5 -179.5
t-160.5 -78.5q-46 0 -88 12q0 -2 1.5 -39.5t1.5 -79.5q0 -99 -5 -109q-35 -30 -147 -30q-44 0 -73 5.5t-36 9.5l-7 4q-4 9 -4 56zM253 221q0 -34 19.5 -57t51.5 -23q42 0 75 38.5t33 81.5q0 32 -19 55t-50 23q-41 0 -75.5 -36t-34.5 -82z" />
    <glyph glyph-name="q" unicode="q" horiz-adv-x="610" 
d="M25 254q0 58 19.5 117t61.5 102t95 43q33 0 81.5 -25.5t64.5 -30.5q-1 1 -1 9q0 16 5 35q20 4 115 4q47 0 84 -10t44 -21q3 -12 3 -56q0 -79 -8 -85q-31 -7 -64 -7q-14 0 -17 1q10 -56 10 -233q0 -49 -1 -115t-1 -83q4 1 16 1q17 0 39 -5t27 -13q4 -9 4 -57q0 -47 -4 -56
l-7 -4q-7 -4 -36 -9.5t-73 -5.5q-112 0 -147 30q-5 10 -5 109q0 42 1.5 79.5t1.5 39.5q-42 -12 -88 -12q-101 0 -160.5 78.5t-59.5 179.5zM178 262q0 -42 31.5 -81.5t75.5 -39.5q32 0 52 22.5t20 56.5q0 47 -35 83t-75 36q-31 0 -50 -23t-19 -54z" />
    <glyph glyph-name="r" unicode="r" horiz-adv-x="537" 
d="M33 439q0 47 4 56q36 18 144 18q43 0 65 -5.5t42 -22.5q-1 -17 -1 -51l3 8q4 8 12.5 19.5t20.5 23t34 19.5t49 8q76 0 129 -65q-21 -94 -111 -132q-36 26 -67 26q-40 0 -62.5 -39.5t-22.5 -97.5q0 -20 3 -43q6 0 42 -6l13 -2q15 -11 15 -53q0 -30 -9 -60t-24 -44
q-20 -4 -115 -4q-49 0 -100.5 10.5t-57.5 20.5q-3 12 -3 56q0 79 8 85q42 9 54 9q10 0 17 -3q-9 14 -9 145q0 45 3 51q-12 -2 -22 -2q-36 0 -50 18q-4 9 -4 57z" />
    <glyph glyph-name="s" unicode="s" horiz-adv-x="512" 
d="M16 30q1 29 9 57t29.5 52.5t51.5 24.5q25 0 54.5 -10.5t29.5 -30.5q0 -4 -2 -12q36 -12 49 -12q23 0 40.5 17.5t17.5 42.5q0 24 -18.5 36t-47 13t-61 6t-61 13.5t-47 36.5t-18.5 74q0 62 34 102t80.5 54t104.5 14q44 0 98 -9q10 18 23 22q74 -7 98 -50q-2 -29 -9.5 -56.5
t-29 -52.5t-52.5 -25q-25 0 -54 10.5t-29 30.5q0 4 2 12q-24 8 -38 8q-24 0 -41 -17t-17 -37q0 -24 28.5 -35t69 -15t81.5 -12t69.5 -36.5t28.5 -79.5q0 -86 -74 -129.5t-176 -43.5q-48 0 -102 9q-10 -18 -23 -22q-74 7 -98 50z" />
    <glyph glyph-name="t" unicode="t" horiz-adv-x="449" 
d="M3 478q0 21 4 25q28 4 42 4q6 0 15 -0.5t15 -0.5h7v188q74 6 90 6q36 0 88 -6l10 -190q78 -3 96 -14q13 -17 13 -93q0 -21 -4 -25q-28 -4 -44 -4h-8q-7 0 -24.5 0.5t-42.5 0.5q0 -5 -0.5 -72.5t-0.5 -73.5q0 -44 17 -61.5t52 -17.5q10 0 12.5 2.5t3.5 12.5q0 7 23 12
l66 16q10 -29 10 -68q0 -76 -13 -93q-4 -2 -16 -9t-16 -8.5t-14.5 -6t-17.5 -5.5t-20 -3.5t-28 -3t-35 -0.5q-44 0 -71.5 4.5t-53 18.5t-39.5 39t-25 68.5t-15 104t-4 147.5q-44 5 -59 13q-13 17 -13 93z" />
    <glyph glyph-name="u" unicode="u" horiz-adv-x="717" 
d="M14 395q0 69 10 85q75 20 137 20q69 0 120 -18q7 -5 15 -35.5t8 -52.5q0 -33 -18 -57q-11 -7 -28 -7q-5 0 -7 1t-4.5 2.5t-5.5 2.5q-6 -30 -6 -55q0 -58 27 -89t66 -31q42 0 73.5 35.5t31.5 96.5q0 25 -6 53q-14 -8 -36 -8q-13 0 -17 6q-17 6 -17 61q0 51 17 61
q75 34 176 34q110 0 130 -28q11 -16 11 -45q0 -57 -29 -74q-12 -9 -27 -9q-5 0 -15 2q0 -29 2 -93.5t2 -97.5q28 2 33 2q10 0 16 -1q4 -4 4 -21q0 -27 -8 -67.5t-15 -49.5q-11 -6 -52 -13.5t-81 -7.5q-48 0 -72 12q-9 6 -9 27q0 4 5 34q-107 -80 -198 -80q-79 0 -127 56
t-48 171q0 19 7 110q0 -2 -9 -2q-14 0 -47 5q-9 10 -9 65z" />
    <glyph glyph-name="v" unicode="v" horiz-adv-x="662" 
d="M-1 428q88 70 256 97q1 0 20 -39q17 -37 17 -56q0 -17 -22 -25t-32 -8q56 -181 93 -212q49 60 93 212q-12 0 -31 9q-24 11 -25 16q0 22 19 64q19 39 20 39q65 0 141.5 -29.5t114.5 -67.5l-10 -52q-8 -30 -18 -54q-19 4 -42 15q-8 -36 -25 -71t-49 -85.5t-38 -61.5
q11 0 30 -12q20 -11 28 -23q-4 -32 -12.5 -47.5t-35.5 -26.5q-22 -9 -98 -9q-203 0 -223 8q-47 38 -47 75q7 10 28 23q19 12 30 12q-2 2 -19.5 31t-23.5 38.5t-21 36t-22 41.5t-15 35t-11 36q-23 -11 -42 -15q-9 23 -18 54q-3 14 -10 52z" />
    <glyph glyph-name="w" unicode="w" horiz-adv-x="1044" 
d="M-2 424q87 69 261 97q39 -59 39 -102q-2 -8 -24 -17t-32 -9q11 -60 78 -182q26 19 49.5 74.5t42.5 118.5t25 75q26 18 87 18q40 0 82 -18q1 -3 16 -51t22 -68.5t21.5 -58t28.5 -61.5t29 -39q19 30 46 96.5t32 95.5q-11 1 -33.5 10t-22.5 17q0 10 14.5 52t24.5 49
q174 -28 261 -97q-10 -64 -28 -106q-19 4 -42 15q-1 -27 -30 -89q-17 -37 -72 -129q28 -9 48 -35q0 -37 -47 -75q-3 -1 -29 -3t-68.5 -3.5t-80.5 -1.5q-31 0 -81.5 65t-93.5 142q-41 -77 -92 -142t-82 -65q-38 0 -80.5 1.5t-68.5 3.5t-29 3q-47 38 -47 75q6 7 24.5 21
t23.5 14q-55 93 -72 129q-29 61 -30 89q-23 -11 -42 -15q-18 47 -28 106z" />
    <glyph glyph-name="x" unicode="x" horiz-adv-x="682" 
d="M16 17q0 48 29 86q7 1 17 1t17 -3q1 35 38 79.5t81 71.5q-47 31 -81.5 70t-35.5 76q-13 -3 -36 -3q-26 33 -28 87q42 18 151 18q64 0 103 -7q10 -1 24.5 -34.5t14.5 -50.5q-12 -9 -32 -9q-7 0 -17 2q20 -12 32.5 -25.5t46.5 -61.5q46 55 80 87q-7 -2 -21 -2q-23 0 -28 9
q0 13 14 44t24 41q45 8 105 8q105 0 149 -19q0 -60 -27 -87q-5 -5 -13 -5q-4 0 -23 8q-1 -68 -115 -146q42 -27 78.5 -71t36.5 -77q2 0 7.5 0.5t9.5 0.5q9 0 19 -2q28 -21 28 -81v-5q-40 -20 -146 -20q-63 0 -109 8q-15 8 -26.5 36.5t-11.5 48.5q8 11 30 11q11 0 19 -3
q-12 7 -17 10.5t-12.5 12.5t-10.5 13t-16.5 23.5t-23.5 34.5q-10 -13 -24.5 -34t-26 -34.5t-28.5 -25.5q8 1 22 1q21 0 27 -7q-1 -14 -15.5 -50t-23.5 -37q-46 -8 -109 -8q-106 0 -146 20z" />
    <glyph glyph-name="y" unicode="y" horiz-adv-x="713" 
d="M-15 -215q0 49 14.5 118t24.5 79q12 5 27 5q43 0 76 -23q2 0 2 -15q0 -10 -1 -16q14 -3 38 -9t35.5 -9t29 -6t32.5 -4.5t32 -1.5q83 0 120 38t45 129q-108 -80 -216 -80q-170 0 -170 244q0 56 6 102q-1 -1 -9 -1q-15 0 -47 5q-12 21 -12 70q0 57 13 80q75 20 137 20
q69 0 120 -18q23 -26 23 -76q0 -45 -18 -69q-11 -7 -28 -7q-5 0 -7 1t-4.5 2.5t-5.5 2.5q-6 -30 -6 -65q0 -58 27 -89t66 -31q42 0 73.5 35.5t31.5 96.5q0 25 -6 53q-12 -7 -31 -7q-18 0 -22 5q-16 6 -16 59q0 54 16 63q48 34 176 34q111 0 140 -23q3 -12 3 -40
q0 -56 -11 -70q-6 -9 -28 -9q-13 0 -33 10q1 -22 5.5 -70t7.5 -93t3 -84q0 -104 -22 -180t-61 -118.5t-85 -62t-101 -19.5q-56 0 -88 1.5t-82.5 11t-90.5 29.5q-9 -33 -11 -33q-6 -5 -43 -5q-63 0 -66 8q-3 12 -3 32z" />
    <glyph glyph-name="z" unicode="z" horiz-adv-x="610" 
d="M13 29q1 65 93 164t220 175q-29 17 -71 17q-53 0 -79 -29q3 -9 3 -24q0 -10 -3 -14q-18 -9 -50 -9q-41 0 -67 16q-14 13 -14 82q0 77 14 86q28 7 62 7q33 0 64 -7q6 -1 7 -22q38 31 158 31q113 0 226 -24q-1 -59 -106.5 -169.5t-186.5 -159.5q22 -7 46 -7q41 0 114 33
q-1 3 -1 8q0 17 11 37q19 8 56 8q35 0 53 -8q19 -14 19 -92q0 -45 -6 -83.5t-15 -41.5t-52 -3q-70 0 -74 8q-5 1 -7 32q-26 -20 -99 -30t-139 -10q-124 0 -176 29z" />
    <glyph glyph-name="braceleft" unicode="{" horiz-adv-x="424" 
d="M-9 297q0 32 23 50q145 0 145 77q0 20 -16.5 85.5t-16.5 93.5q0 55 42.5 80.5t108.5 25.5q62 0 124 -19q16 -13 16 -31q0 -14 -16 -37q-101 0 -135.5 -14.5t-34.5 -43.5q0 -26 27 -72.5t27 -71.5q0 -36 -34.5 -64t-69 -44t-34.5 -20q0 -5 34.5 -21t69 -44t34.5 -62
q0 -23 -27 -70t-27 -74q0 -19 10.5 -30t48.5 -19t106 -8q23 -11 23 -31q0 -11 -12 -37q-64 -19 -128 -19q-67 0 -110 25.5t-43 80.5q0 27 16.5 92.5t16.5 87.5q0 38 -29 52t-105 25q-34 15 -34 57z" />
    <glyph glyph-name="bar" unicode="|" horiz-adv-x="229" 
d="M54 303q0 220 21 406q2 1 8 5.5t9 6.5t8 5t10 4t11 1q16 0 34 -9q20 -194 20 -410q0 -215 -20 -485q-16 -25 -41 -25q-18 0 -39 12q-21 265 -21 489z" />
    <glyph glyph-name="braceright" unicode="}" horiz-adv-x="425" 
d="M6 653q0 11 12 37q64 19 128 19q67 0 110 -25.5t43 -80.5q0 -27 -16.5 -92.5t-16.5 -87.5q0 -38 29 -52t105 -25q34 -15 34 -57q0 -32 -23 -50q-145 0 -145 -77q0 -20 16.5 -85.5t16.5 -93.5q0 -55 -42.5 -80.5t-108.5 -25.5q-62 0 -124 19q-16 13 -16 31q0 14 16 37
q101 0 135.5 14.5t34.5 43.5q0 26 -27 72.5t-27 71.5q0 36 34.5 64t69 44t34.5 20q0 5 -34.5 21t-69 44t-34.5 62q0 23 27 70t27 74q0 19 -10.5 30t-48.5 19t-106 8q-23 11 -23 31z" />
    <glyph glyph-name="asciitilde" unicode="~" horiz-adv-x="584" 
d="M33 204q9 65 29.5 89.5t63.5 24.5q39 0 157 -24t150 -24q19 0 26 9t15 43q3 2 11 2q16 0 35.5 -14.5t31.5 -30.5q-9 -65 -30 -89.5t-62 -24.5q-36 0 -155.5 24t-155.5 24q-17 0 -24 -8.5t-14 -42.5q-8 -5 -16 -5q-16 0 -35 14t-27 33z" />
    <glyph glyph-name="exclamdown" unicode="&#xa1;" horiz-adv-x="274" 
d="M29 50q0 137 79 281q16 11 33 11q19 0 35 -14q69 -125 69 -261q0 -119 -54 -231q-28 -14 -51 -14q-10 0 -19.5 2t-20.5 6.5t-16 5.5q-55 101 -55 214zM81 464q0 30 6 62q19 8 53 8q28 0 47 -8q9 -30 9 -60q0 -29 -9 -59q-27 -8 -53 -8t-47 8q-6 29 -6 57z" />
    <glyph glyph-name="cent" unicode="&#xa2;" horiz-adv-x="613" 
d="M37 227q0 226 227 272q4 63 12 126q4 3 7.5 8t7.5 7.5t11 2.5q3 0 18 -8q3 -24 6.5 -68.5t4.5 -58.5q34 2 54 2l8 25q27 6 53 6q58 0 108 -33q3 -15 3 -42q0 -52 -17 -88t-42 -46q-43 -15 -79 -15q-37 0 -67 15l7 34q-15 4 -29 6v-68q0 -81 -3 -162q12 6 18 10l-7 27
q47 34 108 34q22 0 53 -7q61 -67 61 -158q0 -20 -3 -41q-55 -36 -126 -36q-10 0 -32 2l-9 27q-18 -3 -65 -10q-1 -28 -5 -79q-2 -3 -4.5 -7.5t-4 -6t-3.5 -4t-5 -3t-7 -0.5t-20 10l-7 87q-107 1 -169.5 60t-62.5 180zM208 238q0 -41 19 -74t47 -35q-3 84 -3 167v66
q-29 -17 -46 -51.5t-17 -72.5z" />
    <glyph glyph-name="sterling" unicode="&#xa3;" horiz-adv-x="674" 
d="M44 365q0 55 13 71q49 5 70 7q42 314 276 314q65 0 144 -24q21 -21 21 -52q0 -29 -13 -48q-41 16 -77 16q-132 0 -165 -204q99 -2 130 -9q7 -7 11 -30.5t4 -38.5q0 -21 -15 -48q-36 -7 -142 -11q0 -76 -6 -114q2 0 63.5 -12.5t102.5 -19t63 -6.5q18 0 24.5 9t14.5 43
q5 3 10 3q21 0 42.5 -35t25.5 -71q-9 -61 -28.5 -87.5t-65.5 -26.5q-34 0 -146.5 22.5t-153.5 24.5q-17 -30 -27 -40q-16 -6 -30 -6q-27 0 -67.5 14.5t-50.5 33.5q31 76 38.5 124.5t7.5 147.5q-44 4 -61 7q-13 26 -13 46z" />
    <glyph glyph-name="currency" unicode="&#xa4;" horiz-adv-x="718" 
d="M43 55q20 40 55 75q18 18 37 33q-35 50 -35 121q0 107 71 197q-24 18 -43 38q-35 36 -55 75q6 24 20 38q13 13 35 18q46 -25 77 -58q23 -25 38 -45q73 50 160 50q71 0 118 -39q15 20 29 34q35 35 77 58q22 -5 35 -18q14 -14 20 -38q-20 -40 -55 -75q-25 -25 -50 -43
q21 -57 21 -126q0 -111 -56 -181q30 -24 45 -39q35 -35 55 -75q-6 -24 -20 -38q-13 -13 -35 -18q-42 23 -77 58q-22 22 -43 51q-58 -31 -136 -31q-70 0 -119 23q-22 -28 -37 -43q-35 -35 -77 -58q-22 5 -35 18q-14 14 -20 38zM293 313q0 -31 19 -54t50 -23q40 0 75 36t35 83
q0 34 -20 56.5t-52 22.5q-44 0 -75.5 -39.5t-31.5 -81.5z" />
    <glyph glyph-name="yen" unicode="&#xa5;" horiz-adv-x="736" 
d="M32 605q87 69 261 97q1 0 20 -39q17 -37 17 -56q0 -17 -22 -25t-32 -8q6 -29 36.5 -90.5t61.5 -111.5q24 24 52.5 94t35.5 108q-12 0 -31 9q-24 11 -25 16q0 22 19 64q19 39 20 39q65 0 144.5 -29.5t116.5 -67.5l-10 -52q-9 -31 -18 -54q-19 4 -42 15q-5 -8 -23.5 -38
t-31.5 -47t-42.5 -45.5t-66.5 -52.5q81 -9 82 -10q16 -18 16 -22q0 -7 -16 -15q-20 -6 -88 -10l-2 -32q86 -4 90 -8q16 -18 16 -22q0 -7 -16 -15q-20 -6 -92 -10q0 -18 -2 -36q29 0 55 -14q4 -7 4 -32q0 -71 -13 -97q-12 -9 -142 -9q-148 0 -159 16q-4 10 -4 50q0 66 8 74
q25 12 58 12l-2 37q-75 4 -107 9q-13 8 -13 16q0 3 2.5 6.5t6 8t4.5 6.5q35 5 106 8l-2 32q-65 3 -104 10q-13 8 -13 16q0 3 2.5 6.5t6 8t4.5 6.5l25 3q15 1 37.5 3.5t36.5 3.5q-59 38 -103.5 98.5t-51.5 84.5q-23 -11 -42 -15q-9 22 -18 54q0 1 -0.5 3.5t-3.5 15.5t-6 33z
" />
    <glyph glyph-name="brokenbar" unicode="&#xa6;" horiz-adv-x="230" 
d="M60 50q0 108 11 159q18 15 39 15t48 -15q13 -45 13 -155q0 -134 -13 -221q-26 -13 -48 -13q-20 0 -39 13q-11 83 -11 217zM60 510q0 108 11 159q18 15 39 15t48 -15q13 -45 13 -155q0 -134 -13 -221q-26 -13 -48 -13q-20 0 -39 13q-11 83 -11 217z" />
    <glyph glyph-name="section" unicode="&#xa7;" horiz-adv-x="478" 
d="M48 300q0 69 46 115q-7 21 -7 45q0 72 47.5 117t111.5 45q44 0 87 -23q6 16 20 24q14 7 36 7t28 -9q5 -13 5 -45q0 -84 -27 -91q-14 -2 -24 -2q-23 0 -34 8q-4 10 -4 21q-22 18 -49 18t-48.5 -19t-21.5 -43q0 -37 57 -37q5 0 30.5 0.5t30.5 0.5q42 0 70.5 -23.5
t28.5 -76.5q0 -73 -45 -120q6 -16 6 -39q0 -79 -49.5 -126t-125.5 -47q-45 0 -79 24q-3 -7 -18 -22q-10 -3 -25 -3q-22 0 -40 5q-4 21 -4 45q0 61 27 108q51 0 59 -6q3 -7 5 -24q17 -23 52 -23q34 0 53 13t19 34q0 34 -70 36q-148 5 -148 113zM175 307q0 -38 65 -38
q16 0 32 2q15 4 24 16t9 24q0 23 -29 32t-61 9q-7 0 -11.5 -0.5t-6.5 -0.5q-22 -19 -22 -44z" />
    <glyph glyph-name="dieresis" unicode="&#xa8;" horiz-adv-x="833" 
d="M196 670q0 29 18 55q23 17 48 17t51 -17q17 -27 17 -57t-17 -62q-29 -19 -53 -19t-46 19q-18 34 -18 64zM386 670q0 29 18 55q23 17 48 17t51 -17q17 -27 17 -57t-17 -62q-29 -19 -53 -19t-46 19q-18 34 -18 64z" />
    <glyph glyph-name="copyright" unicode="&#xa9;" horiz-adv-x="789" 
d="M43 291q0 77 31.5 155.5t85.5 142t134 104t170 40.5q75 0 130.5 -28.5t87 -77.5t46.5 -108.5t15 -128.5q0 -193 -105 -292t-273 -99q-159 0 -240.5 83.5t-81.5 208.5zM186 307q0 -73 44.5 -126t134.5 -53q108 0 179 77.5t71 192.5q0 95 -49 148t-124 53
q-70 0 -130.5 -46.5t-93 -113.5t-32.5 -132zM242 371q0 67 35 120.5t83 53.5q39 0 85 -39q1 0 2 8.5t2.5 17t4.5 9.5q1 0 8.5 0.5t15.5 0.5q35 0 41 -5q5 -27 5 -79q0 -36 -14 -56q-21 -7 -39 -7q-14 0 -33 7q-1 1 -1 5t1 6q-14 32 -34 32q-16 0 -29 -27.5t-13 -59.5
q0 -53 34 -53q15 0 42 18q0 1 -0.5 3t-0.5 4q0 3 1 4q14 7 32 7q19 0 40 -7q14 -20 14 -56q0 -51 -5 -79q-5 -5 -36 -5q-9 0 -18.5 0.5t-10.5 0.5q-9 1 -9 36q-46 -37 -83 -37q-49 0 -84.5 54.5t-35.5 122.5z" />
    <glyph glyph-name="ordfeminine" unicode="&#xaa;" horiz-adv-x="509" 
d="M25 456q0 83 52.5 151.5t131.5 68.5q50 0 83 -44q0 20 -1 29q30 24 84 24t89 -19q4 -5 4 -35q0 -43 -4 -48q-6 -11 -26 -11q-3 0 -7.5 0.5t-5.5 0.5q1 -2 1 -43q0 -120 -5 -127q8 2 10 2q6 0 18 -3l12 -2q4 -3 4 -55q0 -11 -0.5 -22.5t-0.5 -12.5q-28 -18 -149 -18
q-28 0 -38 1q0 1 -1 5l-2 10l-3 10q-37 -30 -85 -30q-78 0 -119.5 48.5t-41.5 119.5zM140 460q0 -28 16.5 -46.5t41.5 -18.5q34 0 62.5 31t28.5 69q0 27 -16 45t-43 18q-36 0 -63 -30.5t-27 -67.5z" />
    <glyph glyph-name="guillemotleft" unicode="&#xab;" horiz-adv-x="462" 
d="M24 239q70 148 161 238q38 17 57 17q20 0 25 -17q-65 -152 -146 -238q100 -88 140 -228q-17 -28 -36 -28q-6 0 -12 2t-13.5 5.5t-11.5 4.5q-110 98 -164 244zM194 239q70 148 161 238q38 17 57 17q20 0 25 -17q-65 -152 -146 -238q100 -88 140 -228q-17 -28 -36 -28
q-6 0 -12 2t-13.5 5.5t-11.5 4.5q-110 98 -164 244z" />
    <glyph glyph-name="logicalnot" unicode="&#xac;" horiz-adv-x="530" 
d="M39 430q0 11 8 24q24 13 185 13q145 0 230 -15q7 -25 7 -81q0 -70 -7 -112q-14 -7 -24 -7t-20 7q-6 35 -6 111q0 22 1 36q-83 -5 -181 -5q-146 0 -185 9q-8 10 -8 20z" />
    <glyph glyph-name="uni00AD" unicode="&#xad;" horiz-adv-x="359" 
d="M43 279q0 20 13 39q82 11 137 11q58 0 109 -11q15 -18 15 -39t-15 -48q-46 -13 -106 -13q-53 0 -140 13q-13 26 -13 48z" />
    <glyph glyph-name="registered" unicode="&#xae;" horiz-adv-x="822" 
d="M42 287q0 109 55 214.5t159 177.5t228 72q63 0 114 -20t84 -53.5t54.5 -80t31 -97.5t9.5 -109q0 -202 -110 -306t-286 -104q-167 0 -253 87.5t-86 218.5zM181 301q0 -81 49.5 -139t147.5 -58q119 0 197.5 85.5t78.5 213.5q0 106 -55 163t-136 57q-58 0 -111.5 -30.5
t-90 -77.5t-58.5 -104t-22 -110zM270 236q0 12 5 24q5 7 21 7v67q0 89 4 110q-6 0 -22 3q-8 10 -8 31q0 15 6 33q16 16 67 16q24 0 39 -5q1 -6 1 -15v-5q32 29 70 29q42 0 74 -32.5t32 -73.5q0 -44 -41 -74q43 -13 43 -91q3 1 7 1q3 0 13 -5q7 -9 7 -20q0 -15 -9 -26
q-10 -5 -41 -5q-58 0 -80 8q-12 3 -12 38q0 9 2 13q6 5 27 7q-19 41 -75 41l-6 -45q16 0 23 -7q6 -8 6 -21t-6 -21q-3 -10 -68 -10q-72 0 -74 10q-5 5 -5 18zM397 402q0 -29 25 -29q17 0 31.5 13.5t14.5 32.5q0 14 -8.5 24t-20.5 10q-15 0 -28.5 -15.5t-13.5 -35.5z" />
    <glyph glyph-name="degree" unicode="&#xb0;" horiz-adv-x="423" 
d="M24 460q0 86 65 160.5t159 74.5q76 0 112 -52t36 -131q0 -102 -55.5 -154.5t-143.5 -52.5q-84 0 -128.5 44.5t-44.5 110.5zM144 479q0 -24 15.5 -41.5t38.5 -17.5q31 0 58.5 29t27.5 65q0 26 -15 44t-40 18q-34 0 -59.5 -32t-25.5 -65z" />
    <glyph glyph-name="plusminus" unicode="&#xb1;" horiz-adv-x="577" 
d="M43 47q0 20 13 39q123 15 276 15q139 0 187 -9q15 -18 15 -39t-15 -48q-60 -15 -244 -15q-58 0 -99.5 1.5t-73.5 4t-46 3.5q-13 26 -13 48zM43 400q0 18 16 38q47 10 98 10t95 -10q-14 56 -14 107q0 50 14 92q22 12 41 12q21 0 37 -12q14 -45 14 -95q0 -51 -14 -104
q41 8 90 8t103 -8q11 -15 11 -34q0 -18 -11 -40q-55 -13 -102 -13q-46 0 -91 13q14 -43 14 -93q0 -52 -14 -106q-23 -10 -41 -10q-20 0 -37 10q-11 53 -11 103q0 51 11 96q-50 -11 -99 -11q-50 0 -94 11q-16 18 -16 36z" />
    <glyph glyph-name="uni00B2" unicode="&#xb2;" horiz-adv-x="377" 
d="M45 350q0 58 12.5 97.5t31.5 55.5t41.5 25.5t41.5 11.5t31.5 9.5t12.5 23.5q0 29 -39 29q-21 0 -39 -7.5t-22 -19.5q0 -6 -1 -12q-13 -9 -33 -9q-12 0 -17 4q-8 6 -13.5 36.5t-5.5 57.5q0 28 5 36q14 8 33 8q14 0 20 -6q11 -11 12 -16q33 26 95 26q45 0 81 -29t36 -93
q0 -37 -14.5 -60t-35 -32t-41.5 -15t-35.5 -17.5t-14.5 -31.5q14 -7 30 -7q22 0 42 9q0 2 6 17q16 4 38 4q17 0 22 -4q14 -19 14 -77q0 -53 -14 -67q-4 -2 -35 -2q-33 0 -37 6l-2 18q-24 -15 -62 -15q-16 0 -61 5q-2 -7 -2 -8q-16 -9 -43 -9q-19 0 -34 5q-4 24 -4 53z" />
    <glyph glyph-name="uni00B3" unicode="&#xb3;" horiz-adv-x="338" 
d="M17 372q6 17 31 49.5t55 39.5l24 -37q-1 -4 -6 -9q7 -3 16 -3q17 0 31 11.5t14 26.5q0 13 -13 25q-12 -2 -20 -2q-13 0 -20 3q-8 11 -8 41q0 25 4 34q3 6 29 6q16 0 20 -3q9 9 9 20q0 15 -13 27.5t-29 12.5q-4 0 -12 -2q0 -5 1 -8q-7 -12 -28 -12q-8 0 -18 2
q-6 3 -15.5 39.5t-9.5 51.5q1 5 17.5 9t27.5 4l4 -5q23 16 56 16q64 0 100.5 -40.5t36.5 -91.5q0 -39 -32 -67q36 -35 36 -76q0 -53 -45 -92t-119 -39q-56 0 -92 33q-12 -5 -14 -5q-18 18 -18 41z" />
    <glyph glyph-name="acute" unicode="&#xb4;" horiz-adv-x="833" 
d="M378 595q41 104 85 151q18 2 28 2q44 0 81 -26q-41 -70 -134 -127q-24 -8 -35 -8q-14 0 -25 8z" />
    <glyph glyph-name="uni00B5" unicode="&#xb5;" horiz-adv-x="776" 
d="M40 -175q0 48 4 57q5 8 27 13t39 5q12 0 16 -1q0 4 -1 95t-1 97q-1 53 -1.5 76t-0.5 29q0 84 7 130q-1 -1 -9 -1q-14 0 -47 5q-9 10 -9 65q0 69 10 85q75 20 137 20q69 0 120 -18q7 -5 15 -35.5t8 -52.5q0 -33 -18 -57q-11 -7 -28 -7q-5 0 -7 1t-4.5 2.5t-5.5 2.5
q-6 -30 -6 -55q0 -58 27.5 -92.5t65.5 -34.5q41 0 73 38.5t32 100.5q0 25 -6 53q-14 -8 -36 -8q-13 0 -17 6q-17 6 -17 61q0 51 17 61q75 35 183 35q92 0 121 -30q13 -14 13 -38q0 -62 -29 -80q-12 -9 -27 -9q-5 0 -15 2q0 -29 2 -93.5t2 -97.5q28 2 33 2q10 0 16 -1
q4 -4 4 -21q0 -27 -8 -67.5t-15 -49.5q-11 -6 -52 -13.5t-81 -7.5q-48 0 -72 12q-9 6 -9 27q0 4 5 34q-87 -72 -135 -72q-31 0 -71 31q3 -57 3 -140q0 -99 -5 -109q-35 -30 -127 -30q-44 0 -73.5 5.5t-36.5 9.5l-6 4q-4 9 -4 56z" />
    <glyph glyph-name="paragraph" unicode="&#xb6;" horiz-adv-x="765" 
d="M30 486q0 98 94 171t236 73q149 0 246 -76q56 0 107 -11q15 -18 15 -29t-15 -38q-43 -11 -84 -14q21 -111 21 -258q0 -220 -41 -466q-33 -28 -56 -28t-37 28q-49 201 -49 419q0 178 48 306h-140q28 -119 28 -252q0 -221 -40 -473q-17 -25 -40 -25t-53 25q-49 201 -49 432
q-97 22 -144 85t-47 131z" />
    <glyph glyph-name="periodcentered" unicode="&#xb7;" horiz-adv-x="210" 
d="M38 318q0 29 18 55q23 17 48 17t51 -17q17 -27 17 -57t-17 -62q-29 -19 -53 -19t-46 19q-18 34 -18 64z" />
    <glyph glyph-name="cedilla" unicode="&#xb8;" horiz-adv-x="833" 
d="M252 -202q0 30 10 46q12 3 24 3q11 0 23 -3q1 -2 1 -3q0 -3 -1 -5q22 -13 44 -13q36 0 36 41q0 19 -8.5 35t-18.5 16t-23 -20q1 -1 1 -3q0 -3 -1 -4q-10 -5 -21 -5q-14 0 -26 5q-9 14 -9 46q0 40 4 72q3 3 42 3q2 0 3 -13.5t1.5 -26.5t1.5 -13q27 23 55 23q36 0 57 -32.5
t21 -76.5q0 -48 -24.5 -83.5t-68.5 -35.5q-34 0 -70 24q0 -21 -6 -23q-4 0 -11 -0.5t-10 -0.5q-10 0 -21 3q-5 22 -5 44z" />
    <glyph glyph-name="uni00B9" unicode="&#xb9;" horiz-adv-x="277" 
d="M36 626q0 25 7 38q15 16 51.5 27.5t70.5 11.5q28 0 44 -8q9 -36 9 -144q0 -125 -9 -175q2 1 7 1q12 0 24 -7q3 -9 3 -21q0 -31 -12 -47q-25 -7 -99 -7q-70 0 -85 15q-7 21 -7 38t7 24q12 6 35 6q-3 62 -3 120q0 54 3 108q-3 -2 -8 -6t-8 -5.5t-8.5 -3t-14.5 -2.5
q-7 13 -7 37z" />
    <glyph glyph-name="ordmasculine" unicode="&#xba;" horiz-adv-x="423" 
d="M24 460q0 86 65 160.5t159 74.5q76 0 112 -52t36 -131q0 -102 -55.5 -154.5t-143.5 -52.5q-84 0 -128.5 44.5t-44.5 110.5zM144 479q0 -24 15.5 -41.5t38.5 -17.5q31 0 58.5 29t27.5 65q0 26 -15 44t-40 18q-34 0 -59.5 -32t-25.5 -65z" />
    <glyph glyph-name="guillemotright" unicode="&#xbb;" horiz-adv-x="462" 
d="M25 477q5 17 25 17q19 0 57 -17q91 -90 161 -238q-54 -146 -164 -244q-4 -1 -11.5 -4.5t-13.5 -5.5t-12 -2q-19 0 -36 28q40 140 140 228q-81 86 -146 238zM195 477q5 17 25 17q19 0 57 -17q91 -90 161 -238q-54 -146 -164 -244q-4 -1 -11.5 -4.5t-13.5 -5.5t-12 -2
q-19 0 -36 28q40 140 140 228q-81 86 -146 238z" />
    <glyph glyph-name="onequarter" unicode="&#xbc;" horiz-adv-x="820" 
d="M41 625q0 25 7 38q15 16 51.5 27.5t70.5 11.5q28 0 44 -8q9 -36 9 -144q0 -125 -9 -175q2 1 7 1q12 0 24 -7q3 -9 3 -21q0 -30 -12 -47q-24 -7 -99 -7q-70 0 -85 15q-7 21 -7 38t7 24q12 6 35 6q-3 61 -3 120q0 54 3 108q-3 -2 -8 -6t-8 -5.5t-8.5 -3t-14.5 -2.5
q-7 13 -7 37zM172 43q124 353 330 564q14 9 30 9q19 0 26 -21q-104 -329 -330 -565q-16 -15 -33 -15t-23 28zM452 195q0 23 3 44q54 115 123 152q19 8 74 8q66 0 89 -12q7 -28 7 -77q0 -52 -3 -73q2 0 5 0.5t4 0.5q2 0 5.5 -0.5t4.5 -0.5q12 -15 12 -55q0 -30 -10 -39
q-3 -2 -12 -2q-8 0 -10 1q1 -5 1 -15q0 -31 -5 -49q2 1 7 1q11 0 21 -5q11 -8 11 -46q0 -17 -4 -25q-26 -4 -129 -4q-62 0 -76 6q-5 17 -5 46q0 19 8 23q6 3 42 6q-2 28 -2 35q0 10 2 26q-29 -3 -71 -3q-77 0 -89 4q-3 26 -3 53zM553 232q7 1 23 1q23 0 40 -1q0 8 0.5 45
t0.5 49q-14 -11 -39 -52z" />
    <glyph glyph-name="onehalf" unicode="&#xbd;" horiz-adv-x="849" 
d="M41 625q0 25 7 38q15 16 51.5 27.5t70.5 11.5q28 0 44 -8q9 -36 9 -144q0 -125 -9 -175q2 1 7 1q12 0 24 -7q3 -9 3 -21q0 -30 -12 -47q-24 -7 -99 -7q-70 0 -85 15q-7 21 -7 38t7 24q12 6 35 6q-3 61 -3 120q0 54 3 108q-3 -2 -8 -6t-8 -5.5t-8.5 -3t-14.5 -2.5
q-7 13 -7 37zM172 43q124 353 330 564q14 9 30 9q19 0 26 -21q-104 -329 -330 -565q-16 -15 -33 -15t-23 28zM515 46q0 58 12.5 97.5t31.5 55.5t41.5 25.5t41.5 11.5t31.5 9.5t12.5 23.5q0 29 -39 29q-21 0 -39 -7.5t-22 -19.5q0 -6 -1 -12q-13 -9 -33 -9q-12 0 -17 4
q-8 6 -13.5 36.5t-5.5 58.5q0 27 5 35q14 8 33 8q14 0 20 -6q11 -11 12 -16q33 26 95 26q45 0 81 -29t36 -93q0 -37 -14.5 -60t-35 -32t-41.5 -15t-35.5 -17.5t-14.5 -31.5q14 -7 30 -7q22 0 42 9q0 2 6 17q16 4 38 4q17 0 22 -4q14 -19 14 -75q0 -59 -14 -68q-5 -3 -31 -3
q-37 0 -41 6l-2 18q-24 -15 -62 -15q-16 0 -61 5q-2 -11 -4 -12q-15 -5 -44 -5q-16 0 -31 5q-4 24 -4 53z" />
    <glyph glyph-name="threequarters" unicode="&#xbe;" horiz-adv-x="860" 
d="M33 372q6 17 31 49.5t55 39.5l24 -37q-1 -4 -6 -9q7 -3 16 -3q17 0 31 11.5t14 26.5q0 13 -13 25q-12 -2 -20 -2q-13 0 -20 3q-8 11 -8 39q0 29 4 36q3 6 29 6q16 0 20 -3q9 9 9 20q0 15 -13 27.5t-29 12.5q-4 0 -12 -2q0 -5 1 -8q-7 -12 -28 -12q-8 0 -18 2
q-6 3 -15.5 39.5t-9.5 51.5q1 5 17.5 9t27.5 4l4 -5q23 16 56 16q64 0 100.5 -40.5t36.5 -91.5q0 -39 -32 -67q36 -35 36 -76q0 -53 -45 -92t-119 -39q-56 0 -92 33q-12 -5 -14 -5q-18 18 -18 41zM207 43q124 353 330 564q14 9 30 9q19 0 26 -21q-104 -329 -330 -565
q-16 -15 -33 -15t-23 28zM487 195q0 23 3 44q22 48 55 92t69 59q21 9 66 9q72 0 96 -12q7 -28 7 -77q0 -52 -3 -73q2 0 5 0.5t4 0.5q2 0 5.5 -0.5t4.5 -0.5q12 -15 12 -54q0 -33 -10 -40q-3 -2 -12 -2q-8 0 -10 1q1 -5 1 -15q0 -31 -5 -49q2 1 7 1q11 0 21 -5q11 -8 11 -46
q0 -17 -4 -25q-26 -4 -129 -4q-63 0 -76 6q-5 17 -5 46q0 20 7 25q6 3 43 4q-2 28 -2 34q0 11 2 27q-28 -3 -71 -3q-77 0 -89 4q-3 26 -3 53zM588 232q7 1 23 1q23 0 40 -1q0 8 0.5 45t0.5 49q-14 -11 -39 -52z" />
    <glyph glyph-name="questiondown" unicode="&#xbf;" horiz-adv-x="551" 
d="M31 -71q0 27 7 49.5t24 42t32.5 33.5t46.5 31t51 27t60 28q-9 22 -9 56q0 33 9 71q19 5 55 5q53 0 63 -5q14 -27 14 -80q0 -54 -9 -93q-66 -18 -97.5 -50t-31.5 -68t26 -60t60 -24q29 0 51.5 20t30.5 60q25 7 47 7q31 0 46.5 -16t15.5 -42q0 -52 -43 -93q-38 -35 -96 -54
t-121 -19q-97 0 -164.5 45t-67.5 129zM231 398q0 26 19 59q30 15 55 15q46 0 65 -15q13 -29 13 -59q0 -31 -13 -60q-26 -12 -70 -12q-24 0 -50 12q-19 38 -19 60z" />
    <glyph glyph-name="Agrave" unicode="&#xc0;" 
d="M4 62q0 71 16 74q0 8 31 8q26 0 31 -8q7 44 97 301t100 258q57 5 137 5q49 0 110 -5q10 -1 100 -257.5t97 -301.5q8 8 31 8q31 0 31 -8q16 -3 16 -74q0 -46 -11 -50q-13 -12 -156 -12q-61 0 -117 3.5t-56 7.5q-22 14 -22 80q0 19 3 28q0 6 7.5 11t18.5 5q29 0 29 -4
q4 0 4 11q0 17 -10 74q-24 -5 -87 -5q-66 0 -90 5q-10 -49 -10 -74q0 -11 4 -11q0 4 29 4q11 0 18.5 -5t7.5 -11q3 -9 3 -28q0 -66 -22 -80q0 -4 -56 -7.5t-117 -3.5q-143 0 -156 12q-11 4 -11 50zM223 921q37 26 81 26q19 0 27 -2q45 -49 86 -151q-11 -8 -25 -8
q-11 0 -35 8q-93 57 -134 127zM339 330q28 4 59 4q37 0 67 -5q-30 121 -63 207q-33 -85 -63 -206z" />
    <glyph glyph-name="Aacute" unicode="&#xc1;" 
d="M4 62q0 71 16 74q0 8 31 8q26 0 31 -8q7 44 97 301t100 258q57 5 137 5q49 0 110 -5q10 -1 100 -257.5t97 -301.5q8 8 31 8q31 0 31 -8q16 -3 16 -74q0 -46 -11 -50q-13 -12 -156 -12q-61 0 -117 3.5t-56 7.5q-22 14 -22 80q0 19 3 28q0 6 7.5 11t18.5 5q29 0 29 -4
q4 0 4 11q0 17 -10 74q-24 -5 -87 -5q-66 0 -90 5q-10 -49 -10 -74q0 -11 4 -11q0 4 29 4q11 0 18.5 -5t7.5 -11q3 -9 3 -28q0 -66 -22 -80q0 -4 -56 -7.5t-117 -3.5q-143 0 -156 12q-11 4 -11 50zM339 330q28 4 59 4q37 0 67 -5q-30 121 -63 207q-33 -85 -63 -206zM360 795
q41 104 85 151q18 2 28 2q44 0 81 -26q-41 -70 -134 -127q-24 -8 -35 -8q-14 0 -25 8z" />
    <glyph glyph-name="Acircumflex" unicode="&#xc2;" 
d="M4 62q0 71 16 74q0 8 31 8q26 0 31 -8q7 44 97 301t100 258q57 5 137 5q49 0 110 -5q10 -1 100 -257.5t97 -301.5q8 8 31 8q31 0 31 -8q16 -3 16 -74q0 -46 -11 -50q-13 -12 -156 -12q-61 0 -117 3.5t-56 7.5q-22 14 -22 80q0 19 3 28q0 6 7.5 11t18.5 5q29 0 29 -4
q4 0 4 11q0 17 -10 74q-24 -5 -87 -5q-66 0 -90 5q-10 -49 -10 -74q0 -11 4 -11q0 4 29 4q11 0 18.5 -5t7.5 -11q3 -9 3 -28q0 -66 -22 -80q0 -4 -56 -7.5t-117 -3.5q-143 0 -156 12q-11 4 -11 50zM274 793q3 5 13 23t14 25t14 22t17 24.5t18 22.5t23 24q19 15 39 15t45 -15
q55 -52 99 -141q-14 -8 -27 -8t-29 8q-58 30 -85 71q-41 -51 -85 -71q-15 -6 -28 -6q-14 0 -28 6zM339 330q28 4 59 4q37 0 67 -5q-30 121 -63 207q-33 -85 -63 -206z" />
    <glyph glyph-name="Atilde" unicode="&#xc3;" 
d="M4 62q0 71 16 74q0 8 31 8q26 0 31 -8q7 44 97 301t100 258q57 5 137 5q49 0 110 -5q10 -1 100 -257.5t97 -301.5q8 8 31 8q31 0 31 -8q16 -3 16 -74q0 -46 -11 -50q-13 -12 -156 -12q-61 0 -117 3.5t-56 7.5q-22 14 -22 80q0 19 3 28q0 6 7.5 11t18.5 5q29 0 29 -4
q4 0 4 11q0 17 -10 74q-24 -5 -87 -5q-66 0 -90 5q-10 -49 -10 -74q0 -11 4 -11q0 4 29 4q11 0 18.5 -5t7.5 -11q3 -9 3 -28q0 -66 -22 -80q0 -4 -56 -7.5t-117 -3.5q-143 0 -156 12q-11 4 -11 50zM211 824q9 65 29.5 89.5t63.5 24.5q39 0 87 -24t80 -24q19 0 26 9t15 43
q3 2 11 2q16 0 35.5 -14.5t31.5 -30.5q-9 -65 -30 -89.5t-62 -24.5q-36 0 -85.5 24t-85.5 24q-17 0 -24 -8.5t-14 -42.5q-8 -5 -16 -5q-16 0 -35 14t-27 33zM339 330q28 4 59 4q37 0 67 -5q-30 121 -63 207q-33 -85 -63 -206z" />
    <glyph glyph-name="Adieresis" unicode="&#xc4;" 
d="M4 62q0 71 16 74q0 8 31 8q26 0 31 -8q7 44 97 301t100 258q57 5 137 5q49 0 110 -5q10 -1 100 -257.5t97 -301.5q8 8 31 8q31 0 31 -8q16 -3 16 -74q0 -46 -11 -50q-13 -12 -156 -12q-61 0 -117 3.5t-56 7.5q-22 14 -22 80q0 19 3 28q0 6 7.5 11t18.5 5q29 0 29 -4
q4 0 4 11q0 17 -10 74q-24 -5 -87 -5q-66 0 -90 5q-10 -49 -10 -74q0 -11 4 -11q0 4 29 4q11 0 18.5 -5t7.5 -11q3 -9 3 -28q0 -66 -22 -80q0 -4 -56 -7.5t-117 -3.5q-143 0 -156 12q-11 4 -11 50zM261 870q0 29 18 55q23 17 48 17t51 -17q17 -27 17 -57t-17 -62
q-29 -19 -53 -19t-46 19q-18 34 -18 64zM339 330q28 4 59 4q37 0 67 -5q-30 121 -63 207q-33 -85 -63 -206zM451 870q0 29 18 55q23 17 48 17t51 -17q17 -27 17 -57t-17 -62q-29 -19 -53 -19t-46 19q-18 34 -18 64z" />
    <glyph glyph-name="Aring" unicode="&#xc5;" 
d="M4 62q0 71 16 74q0 8 31 8q26 0 31 -8q7 44 97 301t100 258q57 5 137 5q49 0 110 -5q10 -1 100 -257.5t97 -301.5q8 8 31 8q31 0 31 -8q16 -3 16 -74q0 -46 -11 -50q-13 -12 -156 -12q-61 0 -117 3.5t-56 7.5q-22 14 -22 80q0 19 3 28q0 6 7.5 11t18.5 5q29 0 29 -4
q4 0 4 11q0 17 -10 74q-24 -5 -87 -5q-66 0 -90 5q-10 -49 -10 -74q0 -11 4 -11q0 4 29 4q11 0 18.5 -5t7.5 -11q3 -9 3 -28q0 -66 -22 -80q0 -4 -56 -7.5t-117 -3.5q-143 0 -156 12q-11 4 -11 50zM273 775q0 55 42 103t103 48q50 0 77 -34.5t27 -84.5q0 -63 -40 -98
t-99 -35q-54 0 -82 29t-28 72zM339 330q28 4 59 4q37 0 67 -5q-30 121 -63 207q-33 -85 -63 -206zM339 781q0 -24 15 -41.5t39 -17.5q31 0 58.5 28.5t27.5 63.5q0 26 -15.5 44t-40.5 18q-34 0 -59 -31t-25 -64z" />
    <glyph glyph-name="AE" unicode="&#xc6;" horiz-adv-x="1010" 
d="M-12 62q0 71 16 74q3 8 29 8q33 0 33 -8q6 38 160.5 298t166.5 261q59 26 238 26q98 0 195 -7t136 -15q10 -30 10 -56q0 -42 -23 -118q-24 -6 -47 -6q-58 0 -108 33l3 33q-10 2 -20 2q-33 0 -85 -13.5t-54 -24.5q6 -45 6 -90q0 -30 -5 -35q58 0 59 3q-1 3 -1 9q0 11 9 27
q9 7 38 7q24 0 44.5 -6t22.5 -17q8 -14 8 -50q0 -33 -6.5 -65.5t-16.5 -42.5q-8 -7 -47 -7t-45 7q-9 12 -9 30l-61 -5q0 -14 2 -53t2 -58q0 -27 -3 -51q40 -10 81 -10q51 0 91 17l-3 33q50 33 108 33q23 0 47 -6q23 -76 23 -118q0 -56 -10 -86q1 -9 -55 -12.5t-148 -3.5
q-115 0 -218.5 4t-105.5 8q-22 14 -22 80q0 19 3 28q0 6 7.5 11t18.5 5q29 0 29 -4q1 8 1 36q0 41 -1 49q-24 -5 -92 -5q-77 0 -101 5q-27 -42 -27 -66q0 -12 1 -19q0 4 39 4q11 0 18.5 -5t7.5 -11q3 -9 3 -28q0 -66 -22 -80q0 -11 -153 -11q-143 0 -156 12q-11 4 -11 50z
M343 330q24 4 39 4q67 0 97 -5q1 71 1 203q-17 -21 -39.5 -54.5t-51.5 -78t-46 -69.5z" />
    <glyph glyph-name="Ccedilla" unicode="&#xc7;" horiz-adv-x="663" 
d="M31 344q0 153 78.5 258t208.5 105q95 0 140 -44q2 30 21 37q25 11 61 11q47 0 74 -20q12 -70 12 -118q0 -86 -36 -138q-53 -20 -93 -20q-38 0 -81 20q-1 2 -1 9q0 12 3 16q0 38 -32 60.5t-60 22.5q-41 0 -70 -63t-29 -139q0 -72 28 -112.5t70 -40.5q48 0 91 53
q-3 18 -3 20t0.5 4t0.5 3q37 17 80 17q45 0 97 -20q35 -53 35 -137q0 -47 -12 -119q-31 -25 -80 -25q-36 0 -55 16q-21 8 -21 39q-66 -45 -134 -45q-53 0 -104 22t-94 64t-69 110.5t-26 153.5zM255 -202q0 30 10 46q12 3 24 3q11 0 23 -3q1 -2 1 -3q0 -3 -1 -5
q22 -13 44 -13q36 0 36 41q0 19 -8.5 35t-18.5 16t-23 -20q1 -1 1 -3q0 -3 -1 -4q-10 -5 -21 -5q-14 0 -26 5q-9 14 -9 46q0 40 4 72q3 3 42 3q2 0 3 -13.5t1.5 -26.5t1.5 -13q27 23 55 23q36 0 57 -32.5t21 -76.5q0 -48 -24.5 -83.5t-68.5 -35.5q-34 0 -70 24q0 -21 -6 -23
q-4 0 -11 -0.5t-10 -0.5q-11 0 -21 3q-5 22 -5 44z" />
    <glyph glyph-name="Egrave" unicode="&#xc8;" horiz-adv-x="678" 
d="M45 71q0 78 27 92q14 9 28 9q3 0 5 -1q-12 89 -12 171q0 105 21 192q-10 -2 -14 -2q-14 0 -28 9q-27 14 -27 92q0 35 9 47q32 15 117 23.5t164 8.5q184 0 296 -38q10 -30 10 -86q0 -42 -23 -118q-24 -6 -47 -6q-58 0 -108 33l3 33q-20 13 -74 13q-61 0 -65 -9
q4 -36 4 -53q0 -39 -13 -72q38 0 39 3q-1 3 -1 9q0 11 9 27q6 5 33 5q42 0 58 -7q20 -33 20 -95q0 -56 -21 -77q-8 -7 -47 -7t-45 7q-9 12 -9 30l-41 -5q0 -9 -11 -114q35 -29 86 -29q44 0 78 18l-3 33q50 33 108 33q23 0 47 -6q23 -76 23 -118q0 -56 -10 -86
q-75 -43 -272 -43q-96 0 -183 10.5t-122 26.5q-9 12 -9 47zM206 921q37 26 81 26q19 0 27 -2q45 -49 86 -151q-11 -8 -25 -8q-11 0 -35 8q-93 57 -134 127z" />
    <glyph glyph-name="Eacute" unicode="&#xc9;" horiz-adv-x="678" 
d="M45 71q0 78 27 92q14 9 28 9q3 0 5 -1q-12 89 -12 171q0 105 21 192q-10 -2 -14 -2q-14 0 -28 9q-27 14 -27 92q0 35 9 47q32 15 117 23.5t164 8.5q184 0 296 -38q10 -30 10 -86q0 -42 -23 -118q-24 -6 -47 -6q-58 0 -108 33l3 33q-20 13 -74 13q-61 0 -65 -9
q4 -36 4 -53q0 -39 -13 -72q38 0 39 3q-1 3 -1 9q0 11 9 27q6 5 33 5q42 0 58 -7q20 -33 20 -95q0 -56 -21 -77q-8 -7 -47 -7t-45 7q-9 12 -9 30l-41 -5q0 -9 -11 -114q35 -29 86 -29q44 0 78 18l-3 33q50 33 108 33q23 0 47 -6q23 -76 23 -118q0 -56 -10 -86
q-75 -43 -272 -43q-96 0 -183 10.5t-122 26.5q-9 12 -9 47zM299 795q41 104 85 151q18 2 28 2q44 0 81 -26q-41 -70 -134 -127q-24 -8 -35 -8q-14 0 -25 8z" />
    <glyph glyph-name="Ecircumflex" unicode="&#xca;" horiz-adv-x="678" 
d="M45 71q0 78 27 92q14 9 28 9q3 0 5 -1q-12 89 -12 171q0 105 21 192q-10 -2 -14 -2q-14 0 -28 9q-27 14 -27 92q0 35 9 47q32 15 117 23.5t164 8.5q184 0 296 -38q10 -30 10 -86q0 -42 -23 -118q-24 -6 -47 -6q-58 0 -108 33l3 33q-20 13 -74 13q-61 0 -65 -9
q4 -36 4 -53q0 -39 -13 -72q38 0 39 3q-1 3 -1 9q0 11 9 27q6 5 33 5q42 0 58 -7q20 -33 20 -95q0 -56 -21 -77q-8 -7 -47 -7t-45 7q-9 12 -9 30l-41 -5q0 -9 -11 -114q35 -29 86 -29q44 0 78 18l-3 33q50 33 108 33q23 0 47 -6q23 -76 23 -118q0 -56 -10 -86
q-75 -43 -272 -43q-96 0 -183 10.5t-122 26.5q-9 12 -9 47zM208 793q3 5 13 23t14 25t14 22t17 24.5t18 22.5t23 24q19 15 39 15t45 -15q55 -52 99 -141q-14 -8 -27 -8t-29 8q-58 30 -85 71q-41 -51 -85 -71q-15 -6 -28 -6q-14 0 -28 6z" />
    <glyph glyph-name="Edieresis" unicode="&#xcb;" horiz-adv-x="675" 
d="M42 57q0 92 27 106q13 9 28 9q3 0 5 -1q-3 51 -3 101q0 88 12 262q-10 -2 -14 -2q-15 0 -28 9q-27 14 -27 92q0 35 9 47q32 15 117 23.5t164 8.5q184 0 296 -38q10 -30 10 -86q0 -42 -23 -118q-24 -6 -47 -6q-58 0 -108 33l3 33q-19 13 -74 13q-61 0 -65 -9q4 -36 4 -53
q0 -39 -13 -72q38 0 39 3q-1 3 -1 9q0 11 9 27q6 5 29 5q27 0 51 -6t25 -15q8 -14 8 -50q0 -33 -6.5 -65.5t-16.5 -42.5q-8 -7 -47 -7t-45 7q-9 12 -9 30l-41 -5q0 -9 -11 -114q35 -29 86 -29q44 0 78 18l-3 33q50 33 108 33q23 0 47 -6q23 -76 23 -118q0 -56 -10 -86
q-75 -43 -272 -43q-96 0 -183 10.5t-122 26.5q-9 12 -9 33zM180 871q0 29 18 55q23 17 48 17t51 -17q17 -27 17 -57t-17 -62q-29 -19 -53 -19t-46 19q-18 34 -18 64zM370 871q0 29 18 55q23 17 50 17q32 0 49 -17t17 -51q0 -36 -17 -68q-29 -19 -53 -19t-46 19
q-18 34 -18 64z" />
    <glyph glyph-name="Igrave" unicode="&#xcc;" horiz-adv-x="386" 
d="M26 921q37 26 81 26q10 0 28 -2q44 -47 85 -151q-11 -8 -25 -8q-11 0 -35 8q-93 57 -134 127zM42 90q0 43 7 50q25 12 58 12q-12 100 -12 201q0 97 12 193q-47 5 -58 12q-7 8 -7 56q0 47 7 57q12 27 162 27q85 0 111 -9q11 -6 18.5 -35t7.5 -58q0 -26 -6 -36
q-26 -12 -48 -12q-7 0 -17 2q12 -81 12 -176q0 -78 -12 -226q5 1 16 1q30 0 49 -11q4 -8 4 -24q0 -24 -8 -57.5t-16 -47.5q-26 -9 -111 -9q-150 0 -162 27q-7 12 -7 63z" />
    <glyph glyph-name="Iacute" unicode="&#xcd;" horiz-adv-x="385" 
d="M43 86q0 48 6 54q9 5 35 9q18 3 23 3q-12 100 -12 201q0 97 12 193q-5 0 -23 3q-26 4 -35 9q-6 6 -6 54q0 52 6 59q23 27 160 27q96 0 113 -9q6 -10 14.5 -50.5t8.5 -61.5q0 -13 -3 -17q-22 -11 -48 -11q-11 0 -17 1q12 -81 12 -176q0 -78 -12 -226q6 1 17 1q26 0 48 -11
q3 -4 3 -17q0 -21 -8.5 -61.5t-14.5 -50.5q-18 -9 -111 -9q-139 0 -162 27q-6 7 -6 59zM147 795q41 104 85 151q18 2 28 2q44 0 81 -26q-41 -70 -134 -127q-24 -8 -35 -8q-14 0 -25 8z" />
    <glyph glyph-name="Icircumflex" unicode="&#xce;" horiz-adv-x="386" 
d="M42 83q0 50 7 57q25 12 58 12q-12 100 -12 201q0 97 12 193q-47 5 -58 12q-7 8 -7 56q0 47 7 57q12 27 162 27q85 0 111 -9q11 -6 18.5 -35t7.5 -58q0 -26 -6 -36q-26 -12 -48 -12q-7 0 -17 2q12 -81 12 -176q0 -78 -12 -226q5 1 16 1q30 0 49 -11q4 -8 4 -24
q0 -24 -8 -57.5t-16 -47.5q-26 -9 -117 -9q-133 0 -154 28q-9 11 -9 55zM47 793q3 5 13 23t14 25t14 22t17 24.5t18 22.5t23 24q20 15 39 15q20 0 45 -15q55 -52 99 -141q-14 -8 -27 -8t-29 8q-58 30 -85 71q-41 -51 -85 -71q-15 -6 -28 -6q-15 0 -28 6z" />
    <glyph glyph-name="Idieresis" unicode="&#xcf;" horiz-adv-x="386" 
d="M34 870q0 29 18 55q23 17 48 17t51 -17q17 -27 17 -57t-17 -62q-29 -19 -53 -19t-46 19q-18 34 -18 64zM42 83q0 50 7 57q25 12 58 12q-12 100 -12 201q0 97 12 193q-47 5 -58 12q-7 8 -7 56q0 47 7 57q12 27 162 27q85 0 111 -9q11 -6 18.5 -35t7.5 -58q0 -26 -6 -36
q-26 -12 -48 -12q-7 0 -17 2q12 -81 12 -176q0 -78 -12 -226q5 1 16 1q30 0 49 -11q4 -8 4 -24q0 -24 -8 -57.5t-16 -47.5q-26 -9 -117 -9q-133 0 -154 28q-9 11 -9 55zM224 870q0 29 18 55q23 17 48 17t51 -17q17 -27 17 -57t-17 -62q-29 -19 -53 -19t-46 19q-18 34 -18 64
z" />
    <glyph glyph-name="Eth" unicode="&#xd0;" horiz-adv-x="715" 
d="M40 583q0 61 13 64q93 54 219 54q110 0 204 -47.5t152 -136t58 -197.5q0 -156 -113.5 -243t-279.5 -87q-127 0 -233 42q-14 27 -14 91q0 48 7 61q3 15 42 15q11 0 25 -2q-6 23 -6 46q0 24 8 41q-38 5 -50 7q-13 26 -13 48q0 20 13 39l47 6q-7 28 -7 59q0 37 10 70
q-10 -3 -27 -3q-39 0 -42 15q-13 23 -13 58zM313 183q14 -13 69 -13q53 0 85.5 45t32.5 120q0 85 -41 142t-109 57q-11 0 -37 -8v-142q48 0 65 -6q15 -18 15 -39t-15 -48q-4 -1 -65 -8v-100z" />
    <glyph glyph-name="Ntilde" unicode="&#xd1;" horiz-adv-x="775" 
d="M39 86q0 48 15 54q21 14 42 14q6 0 16 -2q-12 100 -12 201q0 97 12 193q-12 -2 -19 -2q-25 0 -39 14q-7 8 -7 56q0 47 7 57q23 27 162 27q93 0 111 -9q13 -5 21.5 -27t8.5 -49q0 -29 -10 -53q-18 -13 -44 -13q-11 0 -21 3q91 -69 198 -180q0 88 12 176q-6 -1 -19 -1
q-25 0 -39 13q-14 20 -14 62q0 41 14 51q23 27 165 27q88 0 108 -9q13 -5 23 -30t10 -52q0 -28 -13 -47q-22 -11 -48 -11q-11 0 -17 1q12 -81 12 -176q0 -78 -12 -226q10 3 23 3q27 0 42 -13q10 -10 10 -37t-9 -55t-21 -37q-19 -9 -109 -9q-141 0 -164 27q-15 15 -15 62
q0 42 15 51q16 14 40 14q5 0 15 -2q-111 91 -196 192q-1 -81 -11 -196q12 2 21 2q31 0 44 -12q9 -10 9 -38t-8.5 -56.5t-20.5 -34.5q-17 -9 -113 -9q-137 0 -160 27q-15 11 -15 59zM180 824q9 65 29.5 89.5t63.5 24.5q39 0 87 -24t80 -24q19 0 26 9t15 43q3 2 11 2
q16 0 35.5 -14.5t31.5 -30.5q-9 -65 -30 -89.5t-62 -24.5q-36 0 -85.5 24t-85.5 24q-17 0 -24 -8.5t-14 -42.5q-8 -5 -16 -5q-16 0 -35 14t-27 33z" />
    <glyph glyph-name="Ograve" unicode="&#xd2;" horiz-adv-x="742" 
d="M28 272q0 75 31 151.5t83.5 138.5t130.5 101t165 39q73 0 127 -27.5t85 -75t45.5 -105t14.5 -125.5q0 -186 -102.5 -282.5t-265.5 -96.5q-155 0 -234.5 80.5t-79.5 201.5zM240 305q0 -53 32 -90.5t84 -37.5q68 0 126 61t58 138q0 57 -33 95.5t-88 38.5q-73 0 -126 -66.5
t-53 -138.5zM258 921q37 26 81 26q19 0 27 -2q45 -49 86 -151q-11 -8 -25 -8q-11 0 -35 8q-93 57 -134 127z" />
    <glyph glyph-name="Oacute" unicode="&#xd3;" horiz-adv-x="742" 
d="M28 272q0 75 31 151.5t83.5 138.5t130.5 101t165 39q73 0 127 -27.5t85 -75t45.5 -105t14.5 -125.5q0 -186 -102.5 -282.5t-265.5 -96.5q-155 0 -234.5 80.5t-79.5 201.5zM240 305q0 -53 32 -90.5t84 -37.5q68 0 126 61t58 138q0 57 -33 95.5t-88 38.5q-73 0 -126 -66.5
t-53 -138.5zM399 795q41 104 85 151q18 2 28 2q44 0 81 -26q-41 -70 -134 -127q-24 -8 -35 -8q-14 0 -25 8z" />
    <glyph glyph-name="Ocircumflex" unicode="&#xd4;" horiz-adv-x="742" 
d="M28 272q0 75 31 151.5t83.5 138.5t130.5 101t165 39q73 0 127 -27.5t85 -75t45.5 -105t14.5 -125.5q0 -186 -102.5 -282.5t-265.5 -96.5q-155 0 -234.5 80.5t-79.5 201.5zM240 305q0 -53 32 -90.5t84 -37.5q68 0 126 61t58 138q0 57 -33 95.5t-88 38.5q-73 0 -126 -66.5
t-53 -138.5zM264 793q3 5 13 23t14 25t14 22t17 24.5t18 22.5t23 24q19 15 39 15t45 -15q55 -52 99 -141q-14 -8 -27 -8t-29 8q-58 30 -85 71q-41 -51 -85 -71q-15 -6 -28 -6q-14 0 -28 6z" />
    <glyph glyph-name="Otilde" unicode="&#xd5;" horiz-adv-x="742" 
d="M28 272q0 75 31 151.5t83.5 138.5t130.5 101t165 39q73 0 127 -27.5t85 -75t45.5 -105t14.5 -125.5q0 -186 -102.5 -282.5t-265.5 -96.5q-155 0 -234.5 80.5t-79.5 201.5zM196 824q9 65 29.5 89.5t63.5 24.5q39 0 87 -24t80 -24q19 0 26 9t15 43q3 2 11 2
q16 0 35.5 -14.5t31.5 -30.5q-9 -65 -30 -89.5t-62 -24.5q-36 0 -85.5 24t-85.5 24q-17 0 -24 -8.5t-14 -42.5q-8 -5 -16 -5q-16 0 -35 14t-27 33zM240 305q0 -53 32 -90.5t84 -37.5q68 0 126 61t58 138q0 57 -33 95.5t-88 38.5q-73 0 -126 -66.5t-53 -138.5z" />
    <glyph glyph-name="Odieresis" unicode="&#xd6;" horiz-adv-x="742" 
d="M28 272q0 75 31 151.5t83.5 138.5t130.5 101t165 39q73 0 127 -27.5t85 -75t45.5 -105t14.5 -125.5q0 -186 -102.5 -282.5t-265.5 -96.5q-155 0 -234.5 80.5t-79.5 201.5zM240 305q0 -53 32 -90.5t84 -37.5q68 0 126 61t58 138q0 57 -33 95.5t-88 38.5q-73 0 -126 -66.5
t-53 -138.5zM247 870q0 29 18 55q23 17 48 17t51 -17q17 -27 17 -57t-17 -62q-29 -19 -53 -19t-46 19q-18 34 -18 64zM437 870q0 29 18 55q23 17 48 17t51 -17q17 -27 17 -57t-17 -62q-29 -19 -53 -19t-46 19q-18 34 -18 64z" />
    <glyph glyph-name="multiply" unicode="&#xd7;" horiz-adv-x="474" 
d="M44 452q6 24 20 38q13 13 35 18q42 -23 77 -58q37 -37 63 -83q25 36 59 70q36 36 78 66q19 -3 32 -16q12 -12 20 -36q-27 -45 -63 -81q-33 -33 -73 -56q39 -19 75 -55q37 -37 65 -85q-8 -23 -21 -36q-15 -15 -34 -19q-45 30 -80 65q-39 39 -60 75q-30 -45 -62 -77
q-34 -34 -75 -59q-25 2 -37 14t-15 38q27 42 62 77q36 36 74 60q-49 29 -85 65q-35 35 -55 75z" />
    <glyph glyph-name="Oslash" unicode="&#xd8;" horiz-adv-x="743" 
d="M28 273q0 75 30.5 151t83.5 138t133 101t171 39q46 0 82 -12q38 42 58 62q25 13 43 13q27 0 37 -30q-29 -89 -37 -110q81 -91 81 -260q0 -181 -102.5 -278t-262.5 -97q-44 0 -86 8q-11 -13 -65 -72q-26 -22 -46 -22q-25 0 -34 39q11 33 35 95q-61 38 -91 99.5t-30 135.5z
M240 305q0 -49 26 -84q78 164 162 288q-1 0 -3.5 0.5t-7.5 0.5q-71 0 -124 -67t-53 -138zM360 177q64 0 122 61t58 139q0 44 -22 79q-66 -139 -158 -279z" />
    <glyph glyph-name="Ugrave" unicode="&#xd9;" horiz-adv-x="764" 
d="M5 588q0 55 21 91q63 23 153 23q83 0 144 -21q23 -26 23 -88q0 -53 -18 -77q-10 -6 -21 -6q-9 0 -24 5q0 -6 -2.5 -44t-2.5 -67q0 -219 109 -219q33 0 54.5 19t32 54t14.5 71t4 84q0 29 -1.5 64.5t-1.5 47.5q-4 -11 -32 -11q-17 0 -21 9q-17 26 -17 78t17 77
q49 23 157 23q112 0 149 -30q19 -33 19 -73q0 -35 -17 -62q-12 -13 -42 -13q-14 0 -20 2q11 -55 11 -120q0 -115 -34 -207t-107.5 -150t-176.5 -58q-295 0 -295 480q0 18 0.5 23t0.5 13q-4 -4 -19 -4q-30 0 -37 7q-20 27 -20 79zM211 921q37 26 81 26q19 0 27 -2
q45 -49 86 -151q-11 -8 -25 -8q-11 0 -35 8q-93 57 -134 127z" />
    <glyph glyph-name="Uacute" unicode="&#xda;" horiz-adv-x="764" 
d="M5 588q0 55 21 91q63 23 153 23q83 0 144 -21q23 -26 23 -88q0 -53 -18 -77q-10 -6 -21 -6q-9 0 -24 5q0 -6 -2.5 -44t-2.5 -67q0 -219 109 -219q33 0 54.5 19t32 54t14.5 71t4 84q0 29 -1.5 64.5t-1.5 47.5q-4 -11 -32 -11q-17 0 -21 9q-17 26 -17 78t17 77
q49 23 157 23q112 0 149 -30q19 -33 19 -73q0 -35 -17 -62q-12 -13 -42 -13q-14 0 -20 2q11 -55 11 -120q0 -115 -34 -207t-107.5 -150t-176.5 -58q-295 0 -295 480q0 18 0.5 23t0.5 13q-4 -4 -19 -4q-30 0 -37 7q-20 27 -20 79zM367 795q41 104 85 151q18 2 28 2
q44 0 81 -26q-41 -70 -134 -127q-24 -8 -35 -8q-14 0 -25 8z" />
    <glyph glyph-name="Ucircumflex" unicode="&#xdb;" horiz-adv-x="764" 
d="M5 588q0 55 21 91q63 23 153 23q83 0 144 -21q23 -26 23 -88q0 -53 -18 -77q-10 -6 -21 -6q-9 0 -24 5q0 -6 -2.5 -44t-2.5 -67q0 -219 109 -219q33 0 54.5 19t32 54t14.5 71t4 84q0 29 -1.5 64.5t-1.5 47.5q-4 -11 -32 -11q-17 0 -21 9q-17 26 -17 78t17 77
q49 23 157 23q112 0 149 -30q19 -33 19 -73q0 -35 -17 -62q-12 -13 -42 -13q-14 0 -20 2q11 -55 11 -120q0 -115 -34 -207t-107.5 -150t-176.5 -58q-295 0 -295 480q0 18 0.5 23t0.5 13q-4 -4 -19 -4q-30 0 -37 7q-20 27 -20 79zM242 793q3 5 13 23t14 25t14 22t17 24.5
t18 22.5t23 24q19 15 39 15t45 -15q55 -52 99 -141q-14 -8 -27 -8t-29 8q-58 30 -85 71q-41 -51 -85 -71q-15 -6 -28 -6q-14 0 -28 6z" />
    <glyph glyph-name="Udieresis" unicode="&#xdc;" horiz-adv-x="764" 
d="M5 588q0 55 21 91q63 23 153 23q83 0 144 -21q23 -26 23 -88q0 -53 -18 -77q-10 -6 -21 -6q-9 0 -24 5q0 -6 -2.5 -44t-2.5 -67q0 -219 109 -219q33 0 54.5 19t32 54t14.5 71t4 84q0 29 -1.5 64.5t-1.5 47.5q-4 -11 -32 -11q-17 0 -21 9q-17 26 -17 78t17 77
q49 23 157 23q112 0 149 -30q19 -33 19 -73q0 -35 -17 -62q-12 -13 -42 -13q-14 0 -20 2q11 -55 11 -120q0 -115 -34 -207t-107.5 -150t-176.5 -58q-295 0 -295 480q0 18 0.5 23t0.5 13q-4 -4 -19 -4q-30 0 -37 7q-20 27 -20 79zM225 870q0 29 18 55q23 17 48 17t51 -17
q17 -27 17 -57t-17 -62q-29 -19 -53 -19t-46 19q-18 34 -18 64zM415 870q0 29 18 55q23 17 48 17t51 -17q17 -27 17 -57t-17 -62q-29 -19 -53 -19t-46 19q-18 34 -18 64z" />
    <glyph glyph-name="Yacute" unicode="&#xdd;" horiz-adv-x="680" 
d="M4 605q87 69 261 97q18 -16 28.5 -46t10.5 -56q0 -5 -25 -17q-18 -9 -31 -9q14 -43 98 -132q24 14 52 60t36 72q-12 0 -31 9q-24 11 -25 16q1 16 15 56t24 47q65 0 144.5 -29.5t116.5 -67.5q-5 -34 -10 -52q-7 -28 -18 -54q-19 4 -42 15q-5 -8 -23.5 -38t-31.5 -47
t-42.5 -45.5t-66.5 -52.5q-5 -23 -7.5 -94t-4.5 -86q29 0 55 -14q4 -7 4 -32q0 -71 -13 -97q-12 -9 -142 -9q-148 0 -159 16q-4 10 -4 50q0 66 8 74q25 12 58 12q-7 164 -10 180q-59 38 -103.5 98.5t-51.5 84.5q-23 -11 -42 -15q-18 47 -28 106zM314 797q41 102 86 151
q9 2 27 2q44 0 81 -26q-41 -70 -134 -127q-24 -8 -35 -8q-14 0 -25 8z" />
    <glyph glyph-name="Thorn" unicode="&#xde;" horiz-adv-x="657" 
d="M32 608q0 48 18 59q9 17 59.5 27t108.5 10q59 0 85 -10q5 -19 5 -85q0 -8 -1 -9q11 4 66.5 30t89.5 26q53 0 95 -43t61.5 -102t19.5 -117q0 -97 -58.5 -162.5t-159.5 -65.5q-48 0 -90 12q2 -10 2 -17q0 -15 -6 -32q4 1 26 1q16 0 33.5 -5t22.5 -13q15 -10 15 -46
q0 -31 -15 -47q-6 -20 -176 -20q-70 0 -127 5.5t-60 14.5q-13 14 -13 43q0 35 13 50q15 18 56 18q12 0 16 -1q0 17 -1 63t-1 95q0 177 10 233q-3 -1 -17 -1q-23 0 -54 7q-23 27 -23 82zM326 378q0 -32 16 -48.5t41 -16.5q37 0 70.5 31.5t33.5 74.5q0 30 -17 50t-45 20
q-38 0 -68.5 -33t-30.5 -78z" />
    <glyph glyph-name="germandbls" unicode="&#xdf;" horiz-adv-x="788" 
d="M21 -16q0 44 5 46q11 6 49 11q-1 13 -8.5 114t-7.5 161q0 70 6.5 128t26 116.5t51.5 99t85.5 65.5t125.5 25q121 0 209 -60.5t88 -134.5q0 -64 -72 -109q98 -22 144 -69t46 -107q0 -98 -98.5 -185.5t-215.5 -87.5q-36 0 -69 10q-8 4 -8 43q0 28 5 68.5t14 48.5
q17 -5 35 -5q55 0 109 34.5t54 74.5q0 45 -78 76q-16 -22 -47 -27q-32 6 -54.5 43t-22.5 80q20 41 63 43q6 20 6 33q0 29 -33.5 48.5t-64.5 19.5q-24 0 -42 -14.5t-29 -43.5t-18.5 -62.5t-11 -81t-5 -88.5t-1.5 -95q4 -135 14 -164q30 0 36 -9q2 -4 2 -15q0 -18 -7 -52.5
t-12 -43.5q-24 -7 -86 -7q-59 0 -113 6.5t-65 16.5q-5 5 -5 50z" />
    <glyph glyph-name="agrave" unicode="&#xe0;" horiz-adv-x="624" 
d="M26 209q0 72 21.5 139t70 115.5t114.5 48.5q27 0 48.5 -8t34 -19.5t20.5 -23t11 -19.5l4 -8q0 34 -1 51q33 28 118 28q30 0 53.5 -2t35.5 -5t19.5 -6t9.5 -4l2 -1q4 -9 4 -56q0 -48 -4 -57q-14 -18 -50 -18q-10 0 -22 2q3 -6 3 -51q0 -131 -9 -145q7 3 17 3q12 0 54 -9
q8 -6 8 -85q0 -44 -3 -56q-6 -11 -44.5 -21t-81.5 -10q-120 0 -134 4q-7 19 -7 32q0 8 3 12q-15 -5 -63.5 -30.5t-82.5 -25.5q-70 0 -109.5 65.5t-39.5 159.5zM155 721q37 26 81 26q19 0 27 -2q45 -49 86 -151q-11 -8 -25 -8q-11 0 -35 8q-93 57 -134 127zM159 227
q0 -32 19 -55t50 -23q41 0 75.5 36t34.5 82q0 34 -19.5 57t-51.5 23q-42 0 -75 -38.5t-33 -81.5z" />
    <glyph glyph-name="aacute" unicode="&#xe1;" horiz-adv-x="624" 
d="M26 209q0 72 21.5 139t70 115.5t114.5 48.5q27 0 48.5 -8t34 -19.5t20.5 -23t11 -19.5l4 -8q0 34 -1 51q33 28 118 28q30 0 53.5 -2t35.5 -5t19.5 -6t9.5 -4l2 -1q4 -9 4 -56q0 -48 -4 -57q-14 -18 -50 -18q-10 0 -22 2q3 -6 3 -51q0 -131 -9 -145q7 3 17 3q12 0 54 -9
q8 -6 8 -85q0 -44 -3 -56q-6 -11 -44.5 -21t-81.5 -10q-120 0 -134 4q-7 19 -7 32q0 8 3 12q-15 -5 -63.5 -30.5t-82.5 -25.5q-70 0 -109.5 65.5t-39.5 159.5zM159 227q0 -32 19 -55t50 -23q41 0 75.5 36t34.5 82q0 34 -19.5 57t-51.5 23q-42 0 -75 -38.5t-33 -81.5z
M305 595q41 104 85 151q18 2 28 2q44 0 81 -26q-41 -70 -134 -127q-24 -8 -35 -8q-14 0 -25 8z" />
    <glyph glyph-name="acircumflex" unicode="&#xe2;" horiz-adv-x="624" 
d="M26 209q0 72 21.5 139t70 115.5t114.5 48.5q27 0 48.5 -8t34 -19.5t20.5 -23t11 -19.5l4 -8q0 34 -1 51q33 28 118 28q30 0 53.5 -2t35.5 -5t19.5 -6t9.5 -4l2 -1q4 -9 4 -56q0 -48 -4 -57q-14 -18 -50 -18q-10 0 -22 2q3 -6 3 -51q0 -131 -9 -145q7 3 17 3q12 0 54 -9
q8 -6 8 -85q0 -44 -3 -56q-6 -11 -44.5 -21t-81.5 -10q-120 0 -134 4q-7 19 -7 32q0 8 3 12q-15 -5 -63.5 -30.5t-82.5 -25.5q-70 0 -109.5 65.5t-39.5 159.5zM159 227q0 -32 19 -55t50 -23q41 0 75.5 36t34.5 82q0 34 -19.5 57t-51.5 23q-42 0 -75 -38.5t-33 -81.5z
M191 593q3 5 13 23t14 25t14 22t17 24.5t18 22.5t23 24q20 15 39 15q20 0 45 -15q55 -52 99 -141q-14 -8 -27 -8t-29 8q-58 30 -85 71q-41 -51 -85 -71q-15 -6 -28 -6q-15 0 -28 6z" />
    <glyph glyph-name="atilde" unicode="&#xe3;" horiz-adv-x="624" 
d="M26 209q0 72 21.5 139t70 115.5t114.5 48.5q27 0 48.5 -8t34 -19.5t20.5 -23t11 -19.5l4 -8q0 34 -1 51q33 28 118 28q30 0 53.5 -2t35.5 -5t19.5 -6t9.5 -4l2 -1q4 -9 4 -56q0 -48 -4 -57q-14 -18 -50 -18q-10 0 -22 2q3 -6 3 -51q0 -131 -9 -145q7 3 17 3q12 0 54 -9
q8 -6 8 -85q0 -44 -3 -56q-6 -11 -44.5 -21t-81.5 -10q-120 0 -134 4q-7 19 -7 32q0 8 3 12q-15 -5 -63.5 -30.5t-82.5 -25.5q-70 0 -109.5 65.5t-39.5 159.5zM142 624q9 65 29.5 89.5t63.5 24.5q39 0 87 -24t80 -24q19 0 26 9t15 43q3 2 11 2q16 0 35.5 -14.5t31.5 -30.5
q-9 -65 -30 -89.5t-62 -24.5q-36 0 -85.5 24t-85.5 24q-17 0 -24 -8.5t-14 -42.5q-8 -5 -16 -5q-16 0 -35 14t-27 33zM159 227q0 -32 19 -55t50 -23q41 0 75.5 36t34.5 82q0 34 -19.5 57t-51.5 23q-42 0 -75 -38.5t-33 -81.5z" />
    <glyph glyph-name="adieresis" unicode="&#xe4;" horiz-adv-x="624" 
d="M26 209q0 72 21.5 139t70 115.5t114.5 48.5q27 0 48.5 -8t34 -19.5t20.5 -23t11 -19.5l4 -8q0 34 -1 51q33 28 118 28q30 0 53.5 -2t35.5 -5t19.5 -6t9.5 -4l2 -1q4 -9 4 -56q0 -48 -4 -57q-14 -18 -50 -18q-10 0 -22 2q3 -6 3 -51q0 -131 -9 -145q7 3 17 3q12 0 54 -9
q8 -6 8 -85q0 -44 -3 -56q-6 -11 -44.5 -21t-81.5 -10q-120 0 -134 4q-7 19 -7 32q0 8 3 12q-15 -5 -63.5 -30.5t-82.5 -25.5q-70 0 -109.5 65.5t-39.5 159.5zM159 227q0 -32 19 -55t50 -23q41 0 75.5 36t34.5 82q0 34 -19.5 57t-51.5 23q-42 0 -75 -38.5t-33 -81.5z
M164 670q0 29 18 55q23 17 48 17t51 -17q17 -27 17 -57t-17 -62q-29 -19 -53 -19t-46 19q-18 34 -18 64zM354 670q0 29 18 55q23 17 48 17t51 -17q17 -27 17 -57t-17 -62q-29 -19 -53 -19t-46 19q-18 34 -18 64z" />
    <glyph glyph-name="aring" unicode="&#xe5;" horiz-adv-x="624" 
d="M26 209q0 72 21.5 139t70 115.5t114.5 48.5q27 0 48.5 -8t34 -19.5t20.5 -23t11 -19.5l4 -8q0 34 -1 51q33 28 118 28q30 0 53.5 -2t35.5 -5t19.5 -6t9.5 -4l2 -1q4 -9 4 -56q0 -48 -4 -57q-14 -18 -50 -18q-10 0 -22 2q3 -6 3 -51q0 -131 -9 -145q7 3 17 3q12 0 54 -9
q8 -6 8 -85q0 -44 -3 -56q-6 -11 -44.5 -21t-81.5 -10q-120 0 -134 4q-7 19 -7 32q0 8 3 12q-15 -5 -63.5 -30.5t-82.5 -25.5q-70 0 -109.5 65.5t-39.5 159.5zM159 227q0 -32 19 -55t50 -23q41 0 75.5 36t34.5 82q0 34 -19.5 57t-51.5 23q-42 0 -75 -38.5t-33 -81.5z
M229 627q0 50 38 93t92 43q45 0 65.5 -30.5t20.5 -75.5q0 -59 -32.5 -89.5t-83.5 -30.5q-49 0 -74.5 26t-25.5 64zM294 634q0 -19 12 -33t32 -14q26 0 48 22.5t22 51.5q0 21 -12 35.5t-33 14.5q-28 0 -48.5 -25t-20.5 -52z" />
    <glyph glyph-name="ae" unicode="&#xe6;" horiz-adv-x="823" 
d="M26 209q0 72 21.5 139t70 115.5t114.5 48.5q27 0 48.5 -8t34 -19.5t20.5 -23t11 -19.5l4 -8q0 34 -1 51q34 30 101 30q44 0 84 -14q34 9 71 9q79 0 121.5 -38.5t42.5 -98.5q0 -74 -61.5 -123t-136.5 -49q-53 0 -89 26q0 -50 30.5 -76t76.5 -26q38 0 69.5 18.5t52.5 37
t31 18.5q19 0 42 -33.5t30 -74.5q-3 -24 -25 -51t-45 -40q-19 0 -36 12.5t-24 24.5q-49 -47 -120 -47q-36 0 -77 9q-35 -7 -50 -7q-96 0 -112 4q-7 19 -7 32q0 8 3 12q-15 -5 -63.5 -30.5t-82.5 -25.5q-70 0 -109.5 65.5t-39.5 159.5zM159 227q0 -32 19 -55t50 -23
q41 0 75.5 36t34.5 82q0 34 -19.5 57t-51.5 23q-42 0 -75 -38.5t-33 -81.5zM511 326q0 -33 48 -33q36 0 69 17t33 42q0 17 -11.5 35.5t-36.5 18.5q-31 0 -66.5 -25t-35.5 -55z" />
    <glyph glyph-name="ccedilla" unicode="&#xe7;" horiz-adv-x="570" 
d="M26 227q0 139 87 211t261 72l8 25q27 6 53 6q59 0 108 -33q3 -15 3 -42q0 -52 -17 -88t-42 -46q-43 -15 -79 -15q-37 0 -67 15l7 34q-24 7 -46 7q-46 0 -75.5 -42t-29.5 -93q0 -42 20 -75.5t50 -33.5q28 0 67 23l-7 27q47 34 108 34q21 0 53 -7q61 -67 61 -158
q0 -20 -3 -41q-55 -36 -126 -36q-10 0 -32 2l-9 27q-68 -13 -118 -13q-108 0 -171.5 59t-63.5 181zM199 -202q0 30 10 46q12 3 24 3q11 0 23 -3q1 -2 1 -3q0 -3 -1 -5q22 -13 44 -13q36 0 36 41q0 19 -8.5 35t-18.5 16t-23 -20q1 -1 1 -3q0 -3 -1 -4q-10 -5 -21 -5
q-14 0 -26 5q-9 14 -9 46q0 40 4 72q3 3 42 3q2 0 3 -13.5t1.5 -26.5t1.5 -13q27 23 55 23q36 0 57 -32.5t21 -76.5q0 -48 -24.5 -83.5t-68.5 -35.5q-34 0 -70 24q0 -21 -6 -23q-4 0 -11 -0.5t-10 -0.5q-11 0 -21 3q-5 22 -5 44z" />
    <glyph glyph-name="egrave" unicode="&#xe8;" horiz-adv-x="557" 
d="M23 222q0 47 18.5 96t54 92.5t96 71.5t135.5 28q83 0 129.5 -33.5t46.5 -95.5q0 -84 -77.5 -136.5t-173.5 -52.5q-26 0 -53 5q2 -73 122 -73q21 0 36 3q0 8 3 17q44 36 95 36q10 0 15 -1q66 -36 81 -118q-1 -8 -7.5 -17t-13.5 -15.5t-20 -15t-20.5 -12.5t-22 -12
t-16.5 -9q-6 0 -10 1.5t-7.5 5t-4.5 5t-4 8t-4 7.5q-56 -21 -115 -21q-134 0 -208.5 69t-74.5 167zM141 721q37 26 81 26q19 0 27 -2q45 -49 86 -151q-11 -8 -25 -8q-11 0 -35 8q-93 57 -134 127zM218 326q0 -33 48 -33q36 0 69 17t33 42q0 17 -11.5 35.5t-36.5 18.5
q-31 0 -66.5 -25t-35.5 -55z" />
    <glyph glyph-name="eacute" unicode="&#xe9;" horiz-adv-x="557" 
d="M23 222q0 47 18.5 96t54 92.5t96 71.5t135.5 28q83 0 129.5 -33.5t46.5 -95.5q0 -84 -77.5 -136.5t-173.5 -52.5q-26 0 -53 5q2 -73 122 -73q21 0 36 3q0 8 3 17q44 36 95 36q10 0 15 -1q66 -36 81 -118q-1 -8 -7.5 -17t-13.5 -15.5t-20 -15t-20.5 -12.5t-22 -12
t-16.5 -9q-6 0 -10 1.5t-7.5 5t-4.5 5t-4 8t-4 7.5q-56 -21 -115 -21q-134 0 -208.5 69t-74.5 167zM218 326q0 -33 48 -33q36 0 69 17t33 42q0 17 -11.5 35.5t-36.5 18.5q-31 0 -66.5 -25t-35.5 -55zM261 595q41 104 85 151q18 2 28 2q44 0 81 -26q-41 -70 -134 -127
q-24 -8 -35 -8q-14 0 -25 8z" />
    <glyph glyph-name="ecircumflex" unicode="&#xea;" horiz-adv-x="557" 
d="M23 222q0 47 18.5 96t54 92.5t96 71.5t135.5 28q83 0 129.5 -33.5t46.5 -95.5q0 -84 -77.5 -136.5t-173.5 -52.5q-26 0 -53 5q2 -73 122 -73q21 0 36 3q0 8 3 17q44 36 95 36q10 0 15 -1q66 -36 81 -118q-1 -8 -7.5 -17t-13.5 -15.5t-20 -15t-20.5 -12.5t-22 -12
t-16.5 -9q-6 0 -10 1.5t-7.5 5t-4.5 5t-4 8t-4 7.5q-56 -21 -115 -21q-134 0 -208.5 69t-74.5 167zM157 593q3 5 13 23t14 25t14 22t17 24.5t18 22.5t23 24q20 15 39 15q20 0 45 -15q55 -52 99 -141q-14 -8 -27 -8t-29 8q-58 30 -85 71q-41 -51 -85 -71q-15 -6 -28 -6
q-15 0 -28 6zM218 326q0 -33 48 -33q36 0 69 17t33 42q0 17 -11.5 35.5t-36.5 18.5q-31 0 -66.5 -25t-35.5 -55z" />
    <glyph glyph-name="edieresis" unicode="&#xeb;" horiz-adv-x="557" 
d="M23 222q0 47 18.5 96t54 92.5t96 71.5t135.5 28q83 0 129.5 -33.5t46.5 -95.5q0 -84 -77.5 -136.5t-173.5 -52.5q-26 0 -53 5q2 -73 122 -73q21 0 36 3q0 8 3 17q44 36 95 36q10 0 15 -1q66 -36 81 -118q-1 -8 -7.5 -17t-13.5 -15.5t-20 -15t-20.5 -12.5t-22 -12
t-16.5 -9q-6 0 -10 1.5t-7.5 5t-4.5 5t-4 8t-4 7.5q-56 -21 -115 -21q-134 0 -208.5 69t-74.5 167zM130 670q0 29 18 55q23 17 48 17t51 -17q17 -27 17 -57t-17 -62q-29 -19 -53 -19t-46 19q-18 34 -18 64zM218 326q0 -33 48 -33q36 0 69 17t33 42q0 17 -11.5 35.5
t-36.5 18.5q-31 0 -66.5 -25t-35.5 -55zM320 670q0 29 18 55q23 17 48 17t51 -17q17 -27 17 -57t-17 -62q-29 -19 -53 -19t-46 19q-18 34 -18 64z" />
    <glyph glyph-name="igrave" unicode="&#xec;" horiz-adv-x="378" 
d="M21 86q0 38 20 53q11 7 35 10q20 3 23 3q-11 116 -11 148q0 70 10 92q-29 0 -45 4q-8 21 -8 37q0 31 27 71q37 7 139 7q35 0 68 -4t51.5 -9.5t18.5 -10.5q8 -12 8 -38q0 -50 -17 -71q-4 -5 -23 -5q-27 0 -37 5q-11 -70 -11 -181q0 -47 3 -49q6 1 17 1q26 0 48 -11
q4 -7 4 -26q0 -29 -7.5 -58.5t-19.5 -40.5q-13 -13 -89 -13q-156 0 -184 27q-20 14 -20 59zM35 721q37 26 81 26q19 0 27 -2q45 -49 86 -151q-11 -8 -25 -8q-11 0 -35 8q-93 57 -134 127z" />
    <glyph glyph-name="iacute" unicode="&#xed;" horiz-adv-x="378" 
d="M21 86q0 38 20 53q11 7 35 10q20 3 23 3q-11 116 -11 148q0 70 10 92q-29 0 -45 4q-8 21 -8 37q0 31 27 71q37 7 139 7q35 0 68 -4t51.5 -9.5t18.5 -10.5q8 -12 8 -38q0 -50 -17 -71q-4 -5 -23 -5q-27 0 -37 5q-11 -70 -11 -181q0 -47 3 -49q6 1 17 1q26 0 48 -11
q4 -7 4 -26q0 -29 -7.5 -58.5t-19.5 -40.5q-13 -13 -89 -13q-156 0 -184 27q-20 14 -20 59zM175 595q41 104 85 151q18 2 28 2q44 0 81 -26q-41 -70 -134 -127q-24 -8 -35 -8q-14 0 -25 8z" />
    <glyph glyph-name="icircumflex" unicode="&#xee;" horiz-adv-x="378" 
d="M21 86q0 38 20 53q11 7 35 10q20 3 23 3q-11 116 -11 148q0 70 10 92q-29 0 -45 4q-8 21 -8 37q0 31 27 71q37 7 139 7q35 0 68 -4t51.5 -9.5t18.5 -10.5q8 -12 8 -38q0 -50 -17 -71q-4 -5 -23 -5q-27 0 -37 5q-11 -70 -11 -181q0 -47 3 -49q6 1 17 1q26 0 48 -11
q4 -7 4 -26q0 -29 -7.5 -58.5t-19.5 -40.5q-13 -13 -89 -13q-156 0 -184 27q-20 14 -20 59zM61 593q3 5 13 23t14 25t14 22t17 24.5t18 22.5t23 24q20 15 39 15q20 0 45 -15q55 -52 99 -141q-14 -8 -27 -8t-29 8q-58 30 -85 71q-41 -51 -85 -71q-15 -6 -28 -6q-15 0 -28 6z
" />
    <glyph glyph-name="idieresis" unicode="&#xef;" horiz-adv-x="378" 
d="M21 86q0 38 20 53q9 6 35 10q20 3 23 3q-11 116 -11 148q0 70 10 92q-29 0 -45 4q-8 21 -8 37q0 31 27 71q37 7 139 7q35 0 68 -4t51.5 -9.5t18.5 -10.5q8 -12 8 -38q0 -50 -17 -71q-4 -5 -23 -5q-27 0 -37 5q-11 -70 -11 -181q0 -47 3 -49q6 1 17 1q26 0 48 -11
q4 -7 4 -26q0 -31 -7.5 -59.5t-19.5 -39.5q-13 -13 -89 -13q-156 0 -184 27q-20 14 -20 59zM44 670q0 29 18 55q23 17 48 17t51 -17q17 -27 17 -57t-17 -62q-29 -19 -53 -19t-46 19q-18 34 -18 64zM234 670q0 29 18 55q23 17 48 17t51 -17q17 -27 17 -57t-17 -62
q-29 -19 -53 -19t-46 19q-18 34 -18 64z" />
    <glyph glyph-name="eth" unicode="&#xf0;" horiz-adv-x="551" 
d="M23 198q0 67 31.5 133t93 115t139.5 60q-34 31 -52 41q-13 -11 -38.5 -30.5t-29.5 -22.5q-40 5 -40 31q0 3 0.5 5t0.5 4q20 30 32 44q-30 8 -67 9q-3 5 -3 10q0 14 9 31t17 19q28 2 43 2q29 0 62 -5q51 45 80 63q17 -1 28 -11t11 -26q-9 -23 -31 -51q99 -42 157 -133
t58 -206q0 -130 -74 -210t-201 -80q-110 0 -168 59.5t-58 148.5zM216 226q0 -31 19 -54t50 -23q40 0 75 36t35 83q0 34 -20 56.5t-52 22.5q-44 0 -75.5 -39.5t-31.5 -81.5z" />
    <glyph glyph-name="ntilde" unicode="&#xf1;" horiz-adv-x="717" 
d="M28 75q0 58 27 72q12 9 27 9q5 0 15 -2q0 29 -2 93.5t-2 97.5q-4 0 -12 -2.5t-13 -2.5q-4 0 -12 2t-12 2q-4 4 -4 21q0 27 8 67.5t15 49.5q10 6 48 12.5t77 6.5q50 0 82 -12q7 -6 7 -23q0 -6 -5 -36q107 80 198 80q79 0 127 -56t48 -171q0 -19 -7 -110q0 2 9 2
q15 0 47 -5q9 -10 9 -65q0 -69 -10 -85q-75 -20 -137 -20q-69 0 -120 18q-7 5 -15 35.5t-8 52.5q0 33 18 57q11 7 28 7q5 0 7 -1t4.5 -2.5t5.5 -2.5q6 30 6 55q0 58 -27 89t-66 31q-42 0 -73.5 -35.5t-31.5 -96.5q0 -25 6 -53q12 7 31 7q18 0 22 -5q10 0 10 -40
q0 -9 -10 -82q-75 -34 -176 -34q-110 0 -130 28q-9 12 -9 47zM156 624q9 65 29.5 89.5t63.5 24.5q39 0 87 -24t80 -24q19 0 26 9t15 43q3 2 11 2q16 0 35.5 -14.5t31.5 -30.5q-9 -65 -30 -89.5t-62 -24.5q-36 0 -85.5 24t-85.5 24q-17 0 -24 -8.5t-14 -42.5q-8 -5 -16 -5
q-16 0 -35 14t-27 33z" />
    <glyph glyph-name="ograve" unicode="&#xf2;" horiz-adv-x="547" 
d="M23 197q0 74 37.5 145t108 119.5t154.5 48.5q102 0 150 -69t48 -174q0 -136 -75 -206.5t-194 -70.5q-112 0 -170.5 59t-58.5 148zM164 721q37 26 81 26q19 0 27 -2q45 -49 86 -151q-11 -8 -25 -8q-11 0 -35 8q-93 57 -134 127zM216 226q0 -31 19 -54t50 -23q40 0 75 36
t35 83q0 34 -20 56.5t-52 22.5q-44 0 -75.5 -39.5t-31.5 -81.5z" />
    <glyph glyph-name="oacute" unicode="&#xf3;" horiz-adv-x="547" 
d="M23 197q0 74 37.5 145t108 119.5t154.5 48.5q102 0 150 -69t48 -174q0 -136 -75 -206.5t-194 -70.5q-112 0 -170.5 59t-58.5 148zM216 226q0 -31 19 -54t50 -23q40 0 75 36t35 83q0 34 -20 56.5t-52 22.5q-44 0 -75.5 -39.5t-31.5 -81.5zM264 595q41 104 85 151
q18 2 28 2q44 0 81 -26q-41 -70 -134 -127q-24 -8 -35 -8q-14 0 -25 8z" />
    <glyph glyph-name="ocircumflex" unicode="&#xf4;" horiz-adv-x="547" 
d="M23 197q0 74 37.5 145t108 119.5t154.5 48.5q102 0 150 -69t48 -174q0 -136 -75 -206.5t-194 -70.5q-112 0 -170.5 59t-58.5 148zM170 593q3 5 13 23t14 25t14 22t17 24.5t18 22.5t23 24q19 15 39 15t45 -15q55 -52 99 -141q-14 -8 -27 -8t-29 8q-58 30 -85 71
q-41 -51 -85 -71q-15 -6 -28 -6q-14 0 -28 6zM216 226q0 -31 19 -54t50 -23q40 0 75 36t35 83q0 34 -20 56.5t-52 22.5q-44 0 -75.5 -39.5t-31.5 -81.5z" />
    <glyph glyph-name="otilde" unicode="&#xf5;" horiz-adv-x="547" 
d="M23 197q0 74 37.5 145t108 119.5t154.5 48.5q102 0 150 -69t48 -174q0 -136 -75 -206.5t-194 -70.5q-112 0 -170.5 59t-58.5 148zM122 624q9 65 29.5 89.5t63.5 24.5q39 0 87 -24t80 -24q19 0 26 9t15 43q3 2 11 2q16 0 35.5 -14.5t31.5 -30.5q-9 -65 -30 -89.5
t-62 -24.5q-36 0 -85.5 24t-85.5 24q-17 0 -24 -8.5t-14 -42.5q-8 -5 -16 -5q-16 0 -35 14t-27 33zM216 226q0 -31 19 -54t50 -23q40 0 75 36t35 83q0 34 -20 56.5t-52 22.5q-44 0 -75.5 -39.5t-31.5 -81.5z" />
    <glyph glyph-name="odieresis" unicode="&#xf6;" horiz-adv-x="547" 
d="M23 197q0 74 37.5 145t108 119.5t154.5 48.5q102 0 150 -69t48 -174q0 -136 -75 -206.5t-194 -70.5q-112 0 -170.5 59t-58.5 148zM143 670q0 29 18 55q23 17 48 17t51 -17q17 -27 17 -57t-17 -62q-29 -19 -53 -19t-46 19q-18 34 -18 64zM216 226q0 -31 19 -54t50 -23
q40 0 75 36t35 83q0 34 -20 56.5t-52 22.5q-44 0 -75.5 -39.5t-31.5 -81.5zM333 670q0 29 18 55q23 17 48 17t51 -17q17 -27 17 -57t-17 -62q-29 -19 -53 -19t-46 19q-18 34 -18 64z" />
    <glyph glyph-name="divide" unicode="&#xf7;" horiz-adv-x="638" 
d="M32 264q0 20 13 39q93 11 334 11q57 0 99.5 -2t72.5 -5.5t40 -3.5q15 -18 15 -39t-15 -48q-4 -6 -101 -9.5t-165 -3.5q-88 0 -280 13q-13 26 -13 48zM246 80q0 35 22 67q28 21 58 21q29 0 61 -21q21 -32 21 -70q0 -37 -21 -74q-34 -24 -63 -24t-56 24q-22 39 -22 77z
M246 450q0 35 22 67q28 21 58 21q29 0 61 -21q21 -32 21 -70q0 -37 -21 -74q-34 -24 -63 -24t-56 24q-22 39 -22 77z" />
    <glyph glyph-name="oslash" unicode="&#xf8;" horiz-adv-x="548" 
d="M23 197q0 74 37.5 145t108 119.5t154.5 48.5q50 0 90 -19l18 19q18 9 29 9q16 0 24 -19l-17 -51q54 -65 54 -182q0 -136 -75 -206.5t-192 -70.5q-28 0 -56 5q-1 -1 -23 -26q-18 -15 -30 -15q-17 0 -23 26l11 34q-54 25 -82 74t-28 109zM216 225q0 -26 13 -45
q42 86 95 167q-45 0 -76.5 -40t-31.5 -82zM294 149q38 5 69.5 39.5t31.5 77.5q0 24 -10 44q-43 -88 -91 -161z" />
    <glyph glyph-name="ugrave" unicode="&#xf9;" horiz-adv-x="717" 
d="M14 395q0 69 10 85q75 20 137 20q69 0 120 -18q7 -5 15 -35.5t8 -52.5q0 -33 -18 -57q-11 -7 -28 -7q-5 0 -7 1t-4.5 2.5t-5.5 2.5q-6 -30 -6 -55q0 -58 27 -89t66 -31q42 0 73.5 35.5t31.5 96.5q0 25 -6 53q-14 -8 -36 -8q-13 0 -17 6q-17 6 -17 61q0 51 17 61
q75 35 183 35q92 0 121 -30q13 -14 13 -38q0 -62 -29 -80q-12 -9 -27 -9q-5 0 -15 2q0 -29 2 -93.5t2 -97.5q28 2 33 2q10 0 16 -1q4 -4 4 -21q0 -27 -8 -67.5t-15 -49.5q-11 -6 -52 -13.5t-81 -7.5q-48 0 -72 12q-9 6 -9 27q0 4 5 34q-107 -80 -198 -80q-79 0 -127 56
t-48 171q0 19 7 110q0 -2 -9 -2q-14 0 -47 5q-9 10 -9 65zM171 721q37 26 81 26q19 0 27 -2q45 -49 86 -151q-11 -8 -25 -8q-11 0 -35 8q-93 57 -134 127z" />
    <glyph glyph-name="uacute" unicode="&#xfa;" horiz-adv-x="717" 
d="M14 395q0 69 10 85q75 20 137 20q69 0 120 -18q7 -5 15 -35.5t8 -52.5q0 -33 -18 -57q-11 -7 -28 -7q-5 0 -7 1t-4.5 2.5t-5.5 2.5q-6 -30 -6 -55q0 -58 27 -89t66 -31q42 0 73.5 35.5t31.5 96.5q0 25 -6 53q-14 -8 -36 -8q-13 0 -17 6q-17 6 -17 61q0 51 17 61
q75 35 183 35q92 0 121 -30q13 -14 13 -38q0 -62 -29 -80q-12 -9 -27 -9q-5 0 -15 2q0 -29 2 -93.5t2 -97.5q28 2 33 2q10 0 16 -1q4 -4 4 -21q0 -27 -8 -67.5t-15 -49.5q-11 -6 -52 -13.5t-81 -7.5q-48 0 -72 12q-9 6 -9 27q0 4 5 34q-107 -80 -198 -80q-79 0 -127 56
t-48 171q0 19 7 110q0 -2 -9 -2q-14 0 -47 5q-9 10 -9 65zM302 595q41 104 85 151q18 2 28 2q44 0 81 -26q-41 -70 -134 -127q-24 -8 -35 -8q-14 0 -25 8z" />
    <glyph glyph-name="ucircumflex" unicode="&#xfb;" horiz-adv-x="717" 
d="M14 395q0 69 10 85q75 20 137 20q69 0 120 -18q7 -5 15 -35.5t8 -52.5q0 -33 -18 -57q-11 -7 -28 -7q-5 0 -7 1t-4.5 2.5t-5.5 2.5q-6 -30 -6 -55q0 -58 27 -89t66 -31q42 0 73.5 35.5t31.5 96.5q0 25 -6 53q-14 -8 -36 -8q-13 0 -17 6q-17 6 -17 61q0 51 17 61
q75 35 183 35q92 0 121 -30q13 -14 13 -38q0 -62 -29 -80q-12 -9 -27 -9q-5 0 -15 2q0 -29 2 -93.5t2 -97.5q28 2 33 2q10 0 16 -1q4 -4 4 -21q0 -27 -8 -67.5t-15 -49.5q-11 -6 -52 -13.5t-81 -7.5q-48 0 -72 12q-9 6 -9 27q0 4 5 34q-107 -80 -198 -80q-79 0 -127 56
t-48 171q0 19 7 110q0 -2 -9 -2q-14 0 -47 5q-9 10 -9 65zM192 593q3 5 13 23t14 25t14 22t17 24.5t18 22.5t23 24q19 15 39 15t45 -15q55 -52 99 -141q-14 -8 -27 -8t-29 8q-58 30 -85 71q-41 -51 -85 -71q-15 -6 -28 -6q-14 0 -28 6z" />
    <glyph glyph-name="udieresis" unicode="&#xfc;" horiz-adv-x="717" 
d="M14 395q0 69 10 85q75 20 137 20q69 0 120 -18q7 -5 15 -35.5t8 -52.5q0 -33 -18 -57q-11 -7 -28 -7q-5 0 -7 1t-4.5 2.5t-5.5 2.5q-6 -30 -6 -55q0 -58 27 -89t66 -31q42 0 73.5 35.5t31.5 96.5q0 25 -6 53q-14 -8 -36 -8q-13 0 -17 6q-17 6 -17 61q0 51 17 61
q75 35 183 35q92 0 121 -30q13 -14 13 -38q0 -62 -29 -80q-12 -9 -27 -9q-5 0 -15 2q0 -29 2 -93.5t2 -97.5q28 2 33 2q10 0 16 -1q4 -4 4 -21q0 -27 -8 -67.5t-15 -49.5q-11 -6 -52 -13.5t-81 -7.5q-48 0 -72 12q-9 6 -9 27q0 4 5 34q-107 -80 -198 -80q-79 0 -127 56
t-48 171q0 19 7 110q0 -2 -9 -2q-14 0 -47 5q-9 10 -9 65zM170 670q0 29 18 55q23 17 48 17t51 -17q17 -27 17 -57t-17 -62q-29 -19 -53 -19t-46 19q-18 34 -18 64zM360 670q0 29 18 55q23 17 48 17t51 -17q17 -27 17 -57t-17 -62q-29 -19 -53 -19t-46 19q-18 34 -18 64z
" />
    <glyph glyph-name="yacute" unicode="&#xfd;" horiz-adv-x="713" 
d="M-15 -207q0 42 14.5 110.5t24.5 78.5q12 5 27 5q43 0 76 -23q2 0 2 -15q0 -10 -1 -16q14 -3 38 -9t35.5 -9t29 -6t32.5 -4.5t32 -1.5q83 0 120 38t45 129q-108 -80 -216 -80q-170 0 -170 244q0 56 6 102q-1 -1 -9 -1q-15 0 -47 5q-12 21 -12 70q0 57 13 80q75 20 137 20
q69 0 120 -18q23 -26 23 -76q0 -45 -18 -69q-11 -7 -28 -7q-5 0 -7 1t-4.5 2.5t-5.5 2.5q-6 -30 -6 -65q0 -58 27 -89t66 -31q42 0 73.5 35.5t31.5 96.5q0 25 -6 53q-12 -7 -31 -7q-18 0 -22 5q-16 6 -16 59q0 54 16 63q48 34 176 34q111 0 140 -23q3 -12 3 -40
q0 -58 -11 -70q-9 -9 -28 -9q-13 0 -33 10q1 -22 5.5 -70t7.5 -93t3 -84q0 -104 -22 -180t-61 -118.5t-85 -62t-101 -19.5q-56 0 -88 1.5t-82.5 11t-90.5 29.5q-9 -33 -11 -33q-6 -5 -53 -5q-45 0 -54 10q-5 7 -5 38zM300 595q41 104 85 151q18 2 28 2q44 0 81 -26
q-41 -70 -134 -127q-24 -8 -35 -8q-14 0 -25 8z" />
    <glyph glyph-name="thorn" unicode="&#xfe;" horiz-adv-x="586" 
d="M-16 -145q0 48 4 57q5 8 22 13t33 5q9 0 17 -2q-4 111 -4 262q0 79 2 224t2 196q-8 -2 -17 -2q-16 0 -33 5t-22 13q-4 11 -4 57q0 45 4 56l6 4q7 4 36.5 9.5t73.5 5.5q122 0 157 -30q5 -10 5 -109q0 -42 -1.5 -79.5t-1.5 -39.5q42 12 78 12q101 0 160.5 -78.5
t59.5 -179.5q0 -58 -19.5 -116.5t-61.5 -102t-96 -43.5q-21 0 -38 5.5t-44 20t-39 20.5q3 -57 3 -119q0 -99 -5 -109q-35 -30 -157 -30q-44 0 -73.5 5.5t-36.5 9.5l-6 4q-4 9 -4 56zM237 288q0 -47 35 -83t75 -36q31 0 50 23t19 54q0 42 -31.5 81.5t-75.5 39.5
q-32 0 -52 -22.5t-20 -56.5z" />
    <glyph glyph-name="ydieresis" unicode="&#xff;" horiz-adv-x="713" 
d="M-15 -207q0 42 14.5 110.5t24.5 78.5q12 5 27 5q43 0 76 -23q2 0 2 -15q0 -10 -1 -16q14 -3 38 -9t35.5 -9t29 -6t32.5 -4.5t32 -1.5q83 0 120 38t45 129q-108 -80 -216 -80q-170 0 -170 244q0 56 6 102q-1 -1 -9 -1q-15 0 -47 5q-12 21 -12 70q0 57 13 80q75 20 137 20
q69 0 120 -18q23 -26 23 -76q0 -45 -18 -69q-11 -7 -28 -7q-5 0 -7 1t-4.5 2.5t-5.5 2.5q-6 -30 -6 -65q0 -58 27 -89t66 -31q42 0 73.5 35.5t31.5 96.5q0 25 -6 53q-12 -7 -31 -7q-18 0 -22 5q-16 6 -16 59q0 54 16 63q48 34 176 34q111 0 140 -23q3 -12 3 -40
q0 -58 -11 -70q-9 -9 -28 -9q-13 0 -33 10q1 -22 5.5 -70t7.5 -93t3 -84q0 -104 -22 -180t-61 -118.5t-85 -62t-101 -19.5q-56 0 -88 1.5t-82.5 11t-90.5 29.5q-9 -33 -11 -33q-6 -5 -53 -5q-45 0 -54 10q-5 8 -5 38zM173 670q0 29 18 55q23 17 48 17t51 -17q17 -27 17 -57
t-17 -62q-29 -19 -53 -19t-46 19q-18 34 -18 64zM363 670q0 29 18 55q23 17 48 17t51 -17q17 -27 17 -57t-17 -62q-29 -19 -53 -19t-46 19q-18 34 -18 64z" />
    <glyph glyph-name="OE" unicode="&#x152;" horiz-adv-x="918" 
d="M31 314q0 102 41 179.5t115 124.5t171.5 70.5t216.5 23.5q183 0 295 -38q10 -30 10 -86q0 -42 -23 -118q-24 -6 -47 -6q-58 0 -108 33l3 33q-19 13 -74 13q-61 0 -65 -9q-4 -82 -9 -125q38 0 39 3q-1 3 -1 9q0 11 9 27q7 5 27 5q24 0 51 -6.5t27 -14.5q8 -14 8 -50
q0 -33 -6.5 -65.5t-16.5 -42.5q-8 -7 -47 -7t-45 7q-9 12 -9 30l-41 -5q0 -9 -11 -114q35 -29 86 -29q44 0 78 18l-3 33q50 33 108 33q23 0 47 -6q23 -76 23 -118q0 -56 -10 -86q-182 -45 -375 -45q-81 0 -147 8.5t-126.5 31.5t-101.5 59t-65 94.5t-24 135.5zM228 313
q0 -54 39.5 -92t109.5 -45q-2 28 -2 90q0 181 9 269q-69 -32 -112.5 -97.5t-43.5 -124.5z" />
    <glyph glyph-name="oe" unicode="&#x153;" horiz-adv-x="888" 
d="M23 197q0 74 37 145t108 119.5t157 48.5q102 0 155 -80q80 80 193 80q78 0 120.5 -38.5t42.5 -98.5q0 -74 -61.5 -123t-136.5 -49q-53 0 -89 26q2 -48 33 -75.5t76 -27.5q14 0 29 3q0 8 3 17q44 36 95 36q10 0 15 -1q66 -36 81 -118q-1 -8 -7.5 -17t-13.5 -15.5t-20 -15
t-20.5 -12.5t-22 -12t-16.5 -9q-6 0 -10 1.5t-7.5 5t-4.5 5t-4 8t-4 7.5q-55 -21 -110 -21q-117 0 -191 79q-72 -75 -198 -75q-113 0 -171 59t-58 148zM216 225q0 -31 19 -53.5t52 -22.5q44 0 76 38.5t32 81.5q0 32 -19.5 55t-52.5 23q-44 0 -75.5 -39.5t-31.5 -82.5z
M578 326q0 -33 48 -33q36 0 69 17t33 42q0 17 -11.5 35.5t-36.5 18.5q-31 0 -66.5 -25t-35.5 -55z" />
    <glyph glyph-name="Scaron" unicode="&#x160;" horiz-adv-x="607" 
d="M38 461q0 109 74.5 179t174.5 70q71 0 135 -36q6 30 21 42q19 10 48 10q46 0 64 -18q6 -18 6 -70q0 -134 -41 -143q-17 -5 -33 -5q-37 0 -59 15q-6 15 -6 33q-34 28 -76 28q-43 0 -76 -30t-33 -66q0 -59 87 -59q9 0 49.5 1t49.5 1q65 0 109 -37t44 -124
q0 -115 -78 -188.5t-199 -73.5q-70 0 -121 37q0 -25 -10 -37q-18 -10 -59 -10q-44 0 -60 15q-6 37 -6 72q0 93 43 168q18 7 37 7q37 0 54 -17q5 -13 7 -38q29 -34 81 -34q53 0 84 20t31 52q0 18 -9.5 29.5t-29.5 17t-33.5 7t-37.5 2.5q-25 1 -40 2.5t-42.5 6.5t-45 12
t-39.5 20.5t-34.5 31t-21.5 45.5t-9 62zM165 931q13 6 28 6q13 0 28 -6q44 -20 85 -71q27 41 85 71q16 8 29 8t27 -8q-44 -89 -99 -141q-25 -15 -45 -15q-19 0 -39 15q-12 11 -23 24t-18 22.5t-17 24.5t-14 22t-14 25t-13 23z" />
    <glyph glyph-name="scaron" unicode="&#x161;" horiz-adv-x="512" 
d="M16 30q1 29 9 57t29.5 52.5t51.5 24.5q25 0 54.5 -10.5t29.5 -30.5q0 -4 -2 -12q36 -12 49 -12q23 0 40.5 17.5t17.5 42.5q0 24 -18.5 36t-47 13t-61 6t-61 13.5t-47 36.5t-18.5 74q0 62 34 102t80.5 54t104.5 14q44 0 98 -9q10 18 23 22q74 -7 98 -50q-2 -29 -9.5 -56.5
t-29 -52.5t-52.5 -25q-25 0 -54 10.5t-29 30.5q0 4 2 12q-24 8 -38 8q-24 0 -41 -17t-17 -37q0 -24 28.5 -35t69 -15t81.5 -12t69.5 -36.5t28.5 -79.5q0 -86 -74 -129.5t-176 -43.5q-48 0 -102 9q-10 -18 -23 -22q-74 7 -98 50zM106 743q14 6 28 6q13 0 28 -6q44 -20 85 -71
q27 41 85 71q16 8 29 8t27 -8q-44 -89 -99 -141q-25 -15 -45 -15t-39 15q-12 11 -23 24t-18 22.5t-17 24.5t-14 22t-14 25t-13 23z" />
    <glyph glyph-name="Ydieresis" unicode="&#x178;" horiz-adv-x="680" 
d="M4 605q87 69 261 97q1 0 20 -39q19 -43 19 -63q0 -5 -25 -17q-18 -9 -31 -9q14 -43 98 -132q24 14 52 60t36 72q-12 0 -31 9q-24 11 -25 16q0 22 19 64q19 39 20 39q65 0 144.5 -29.5t116.5 -67.5q-7 -39 -11 -53q-9 -32 -17 -53q-19 4 -42 15q-5 -8 -23.5 -38t-31.5 -47
t-42.5 -45.5t-66.5 -52.5q-5 -23 -7.5 -94t-4.5 -86q29 0 55 -14q4 -7 4 -32q0 -71 -13 -97q-12 -9 -142 -9q-148 0 -159 16q-4 10 -4 50q0 66 8 74q25 12 58 12q-7 164 -10 180q-59 38 -103.5 98.5t-51.5 84.5q-23 -11 -42 -15q-9 22 -18 54q-6 19 -10 52zM194 870
q0 29 18 55q23 17 48 17t51 -17q17 -27 17 -57t-17 -62q-29 -19 -53 -19t-46 19q-18 34 -18 64zM364 870q0 29 18 55q23 17 48 17t51 -17q17 -27 17 -57t-17 -62q-29 -19 -53 -19t-46 19q-18 34 -18 64z" />
    <glyph glyph-name="Zcaron" unicode="&#x17d;" horiz-adv-x="756" 
d="M19 -20q0 97 30 168t79.5 114.5t100.5 75.5t106.5 71.5t85.5 81.5q-1 0 -12.5 5.5t-34.5 11.5t-49 6q-89 0 -99 -5q1 -4 1 -9q0 -10 -14 -32q-42 -16 -77 -16t-62 17q-22 28 -22 104q0 49 3.5 76.5t7.5 34.5t11 13q8 4 71 4q89 0 93 -11q6 -1 7 -5q2 -4 2 -13
q102 4 176 4q80 0 119 -3q3 18 9 21q4 10 95 10q64 0 69 -4q-7 -90 -50.5 -177t-105 -152t-121 -111t-113.5 -74q27 -3 63 -3q101 0 157 21q-1 5 -1 16q0 17 14 43q15 7 74 7q55 0 68 -7t19.5 -55.5t6.5 -90.5q0 -37 -7 -71t-13 -49t-9 -17q-6 -3 -69 -3q-91 0 -95 10
q-5 1 -9 42q-54 -18 -87 -24t-102 -6q-75 0 -144 6q-1 -16 -8 -18q-4 -11 -93 -11q-63 0 -71 4zM258 946q14 6 28 6q13 0 28 -6q44 -20 85 -71q27 41 85 71q16 8 29 8t27 -8q-44 -89 -99 -141q-25 -15 -45 -15t-39 15q-12 11 -23 24t-18 22.5t-17 24.5t-14 22t-14 25t-13 23
z" />
    <glyph glyph-name="zcaron" unicode="&#x17e;" horiz-adv-x="610" 
d="M13 29q1 65 93 164t220 175q-29 17 -71 17q-53 0 -79 -29q3 -9 3 -24q0 -10 -3 -14q-18 -9 -50 -9q-41 0 -67 16q-14 13 -14 82q0 77 14 86q28 7 62 7q33 0 64 -7q6 -1 7 -22q38 31 158 31q113 0 226 -24q-1 -59 -106.5 -169.5t-186.5 -159.5q22 -7 46 -7q41 0 114 33
q-1 3 -1 8q0 17 11 37q19 8 56 8q35 0 53 -8q19 -14 19 -92q0 -45 -6 -83.5t-15 -41.5t-52 -3q-70 0 -74 8q-5 1 -7 32q-26 -20 -99 -30t-139 -10q-124 0 -176 29zM175 741q13 6 28 6q13 0 28 -6q44 -20 85 -71q27 41 85 71q16 8 29 8t27 -8q-44 -89 -99 -141
q-25 -15 -45 -15q-19 0 -39 15q-12 11 -23 24t-18 22.5t-17 24.5t-14 22t-14 25t-13 23z" />
    <glyph glyph-name="florin" unicode="&#x192;" horiz-adv-x="436" 
d="M-20 -102q0 68 31 89q18 11 49 11q21 0 33 -4q-3 198 -3 267q-1 0 -4.5 -0.5t-9.5 -0.5h-13q-14 0 -42 4q-4 4 -4 25q0 76 13 93q15 8 59 13q-7 43 -7 83q0 99 46 139t126 40q52 0 188 -26q13 -17 13 -93q0 -39 -10 -68l-92 21l6 21q-6 1 -18 1q-80 0 -80 -79
q0 -6 0.5 -19t0.5 -17h42q18 0 25 0.5t8 0.5q16 0 44 -4q4 -4 4 -25q0 -76 -13 -93q-18 -11 -103 -14q9 -191 9 -301q0 -64 -3 -122q-48 -14 -143 -14q-102 0 -142 14q-10 23 -10 58z" />
    <glyph glyph-name="circumflex" unicode="&#x2c6;" horiz-adv-x="833" 
d="M172 593q3 5 13 23t14 25t14 22t17 24.5t18 22.5t23 24q19 15 39 15t45 -15q55 -52 99 -141q-14 -8 -27 -8t-29 8q-58 30 -85 71q-41 -51 -85 -71q-15 -6 -28 -6q-14 0 -28 6z" />
    <glyph glyph-name="tilde" unicode="&#x2dc;" horiz-adv-x="833" 
d="M114 624q9 65 29.5 89.5t63.5 24.5q39 0 87 -24t80 -24q19 0 26 9t15 43q3 2 11 2q16 0 35.5 -14.5t31.5 -30.5q-9 -65 -30 -89.5t-62 -24.5q-36 0 -85.5 24t-85.5 24q-17 0 -24 -8.5t-14 -42.5q-8 -5 -16 -5q-16 0 -35 14t-27 33z" />
    <glyph glyph-name="endash" unicode="&#x2013;" horiz-adv-x="489" 
d="M43 278q0 20 13 39q82 11 217 11q108 0 159 -11q15 -18 15 -39t-15 -48q-46 -13 -155 -13q-134 0 -221 13q-13 26 -13 48z" />
    <glyph glyph-name="emdash" unicode="&#x2014;" horiz-adv-x="659" 
d="M43 277q0 20 13 39q94 11 334 11q57 0 99.5 -2t72.5 -5.5t40 -3.5q15 -18 15 -39t-15 -48q-4 -6 -101 -9.5t-165 -3.5q-88 0 -280 13q-13 26 -13 48z" />
    <glyph glyph-name="quoteleft" unicode="&#x2018;" horiz-adv-x="236" 
d="M20 406q21 111 109 219q37 31 61 31q10 0 15 -1q-2 -142 -39 -231q-49 -26 -95 -26q-19 0 -51 8z" />
    <glyph glyph-name="quoteright" unicode="&#x2019;" horiz-adv-x="234" 
d="M37 399q2 142 39 231q49 26 95 26q19 0 51 -8q-21 -111 -109 -219q-37 -31 -61 -31q-10 0 -15 1z" />
    <glyph glyph-name="quotesinglbase" unicode="&#x201a;" horiz-adv-x="208" 
d="M-14 -72q41 104 85 151q18 2 28 2q44 0 81 -26q-41 -70 -134 -127q-24 -8 -35 -8q-14 0 -25 8z" />
    <glyph glyph-name="quotedblleft" unicode="&#x201c;" horiz-adv-x="436" 
d="M20 406q21 111 109 219q37 31 61 31q10 0 15 -1q-2 -142 -39 -231q-49 -26 -95 -26q-19 0 -51 8zM220 406q21 111 109 219q37 31 61 31q10 0 15 -1q-2 -142 -39 -231q-49 -26 -95 -26q-19 0 -51 8z" />
    <glyph glyph-name="quotedblright" unicode="&#x201d;" horiz-adv-x="434" 
d="M37 399q2 142 39 231q49 26 95 26q19 0 51 -8q-21 -111 -109 -219q-37 -31 -61 -31q-10 0 -15 1zM237 399q2 142 39 231q49 26 95 26q19 0 51 -8q-21 -111 -109 -219q-37 -31 -61 -31q-10 0 -15 1z" />
    <glyph glyph-name="quotedblbase" unicode="&#x201e;" horiz-adv-x="411" 
d="M3 -28q41 104 85 151q18 2 28 2q44 0 81 -26q-41 -70 -134 -127q-24 -8 -35 -8q-14 0 -25 8zM193 -28q41 104 85 151q18 2 28 2q44 0 81 -26q-41 -70 -134 -127q-24 -8 -35 -8q-14 0 -25 8z" />
    <glyph glyph-name="dagger" unicode="&#x2020;" horiz-adv-x="352" 
d="M39 279q0 20 13 39q82 11 137 11q58 0 109 -11q15 -18 15 -39t-15 -48q-46 -13 -106 -13q-53 0 -140 13q-13 26 -13 48zM116 303q0 220 21 406q2 1 8 5.5t9 6.5t8 5t10 4t11 1q16 0 34 -9q20 -194 20 -410q0 -215 -20 -485q-16 -25 -41 -25q-18 0 -39 12q-21 265 -21 489
z" />
    <glyph glyph-name="daggerdbl" unicode="&#x2021;" horiz-adv-x="492" 
d="M34 279q0 20 13 39q83 11 204 11q41 0 114.5 -3.5t77.5 -7.5q15 -18 15 -39t-15 -48q-42 -13 -188 -13q-121 0 -208 13q-13 26 -13 48zM34 449q0 20 13 39q83 11 204 11q41 0 114.5 -3.5t77.5 -7.5q15 -18 15 -39t-15 -48q-42 -13 -188 -13q-121 0 -208 13q-13 26 -13 48
zM186 303q0 220 21 406q2 1 8 5.5t9 6.5t8 5t10 4t11 1q16 0 34 -9q20 -194 20 -410q0 -215 -20 -485q-16 -25 -41 -25q-18 0 -39 12q-21 265 -21 489z" />
    <glyph glyph-name="bullet" unicode="&#x2022;" horiz-adv-x="350" 
d="M44 320q0 54 34 108q49 32 96 32q46 0 99 -32q33 -55 33 -114q0 -58 -33 -120q-57 -38 -103 -38q-47 0 -92 38q-34 70 -34 126z" />
    <glyph glyph-name="ellipsis" unicode="&#x2026;" horiz-adv-x="1866" 
d="M33 64q0 29 18 55q23 17 48 17t51 -17q17 -27 17 -57t-17 -62q-29 -19 -53 -19t-46 19q-18 34 -18 64zM866 64q0 29 18 55q23 17 48 17t51 -17q17 -27 17 -57t-17 -62q-29 -19 -53 -19t-46 19q-18 34 -18 64zM1699 64q0 29 18 55q23 17 48 17t51 -17q17 -27 17 -57
t-17 -62q-29 -19 -53 -19t-46 19q-18 34 -18 64z" />
    <glyph glyph-name="perthousand" unicode="&#x2030;" horiz-adv-x="1257" 
d="M37 485q0 91 46.5 145t116.5 54t116.5 -54t46.5 -145t-46.5 -145t-116.5 -54t-116.5 54t-46.5 145zM173 505q0 -42 15.5 -68.5t44.5 -26.5q30 0 44.5 26.5t14.5 68.5t-15 68.5t-44 26.5q-30 0 -45 -26.5t-15 -68.5zM193 11q37 57 93.5 183t91.5 181t121.5 153.5
t122.5 155.5q12 4 25 4q29 0 44 -21q-37 -56 -90.5 -178t-89.5 -178q-35 -55 -124.5 -158t-125.5 -159q-18 -5 -29 -5q-26 0 -39 22zM525 191q0 91 46.5 145t116.5 54t116.5 -54t46.5 -145t-46.5 -145t-116.5 -54t-116.5 54t-46.5 145zM661 211q0 -42 15.5 -68.5t44.5 -26.5
q30 0 44.5 26.5t14.5 68.5t-15 68.5t-44 26.5q-30 0 -45 -26.5t-15 -68.5zM895 191q0 91 46.5 145t116.5 54t116.5 -54t46.5 -145t-46.5 -145t-116.5 -54t-116.5 54t-46.5 145zM1031 211q0 -42 15.5 -68.5t44.5 -26.5q30 0 44.5 26.5t14.5 68.5t-15 68.5t-44 26.5
q-30 0 -45 -26.5t-15 -68.5z" />
    <glyph glyph-name="guilsinglleft" unicode="&#x2039;" horiz-adv-x="292" 
d="M24 239q70 148 161 238q38 17 57 17q20 0 25 -17q-65 -152 -146 -238q100 -88 140 -228q-17 -28 -36 -28q-6 0 -12 2t-13.5 5.5t-11.5 4.5q-110 98 -164 244z" />
    <glyph glyph-name="guilsinglright" unicode="&#x203a;" horiz-adv-x="292" 
d="M25 477q5 17 25 17q19 0 57 -17q91 -90 161 -238q-54 -146 -164 -244q-4 -1 -11.5 -4.5t-13.5 -5.5t-12 -2q-19 0 -36 28q40 140 140 228q-81 86 -146 238z" />
    <glyph glyph-name="Euro" unicode="&#x20ac;" horiz-adv-x="777" 
d="M37 286q0 15 14 31q74 9 193 9q126 0 177 -9q15 -14 15 -30t-15 -38q-35 -9 -177 -9q-116 0 -193 9q-14 23 -14 37zM37 438q0 16 14 30q61 9 192 9q149 0 178 -9q15 -12 15 -30q0 -15 -15 -37q-4 -4 -75.5 -7t-107.5 -3q-101 0 -187 10q-14 23 -14 37zM124 344
q0 153 78.5 258t208.5 105q95 0 140 -44q2 30 21 37q25 11 61 11q47 0 74 -20q12 -70 12 -118q0 -86 -36 -138q-53 -20 -93 -20q-38 0 -81 20q-1 2 -1 9q0 12 3 16q0 38 -32 60.5t-60 22.5q-41 0 -70 -63t-29 -139q0 -72 28 -112.5t70 -40.5q48 0 91 53q-3 18 -3 20t0.5 4
t0.5 3q37 17 80 17q45 0 97 -20q35 -53 35 -137q0 -47 -12 -119q-31 -25 -80 -25q-36 0 -55 16q-21 8 -21 39q-66 -45 -134 -45q-53 0 -104 22t-94 64t-69 110.5t-26 153.5z" />
    <glyph glyph-name="trademark" unicode="&#x2122;" horiz-adv-x="871" 
d="M62 539q0 57 7 78q100 7 169 7t165 -7q5 -3 5 -75q0 -26 -3 -36q-15 -5 -37 -5q-24 0 -37 7l-8 29q-8 7 -32 7q3 -12 3 -86q0 -90 -10 -92q13 0 29 -6q4 -8 4 -28q0 -18 -4 -26q-12 -14 -74 -14q-68 0 -82 14q-2 12 -2 35q0 17 2 19q2 0 5.5 1t12.5 3q8 2 12 2
q-10 39 -10 84q0 19 2.5 50t2.5 44q-29 -1 -35 -7l-8 -29q-12 -7 -35 -7q-24 0 -39 5q-3 10 -3 33zM427 343q0 12 5 17q18 6 28 6q-6 45 -6 90q0 44 6 87q-21 0 -28 4q-4 16 -4 40q0 16 4 24q9 13 102 13q38 0 48 -4q9 -27 9 -72q-8 -4 -17 -4q13 -14 45 -34q33 20 44 34
q-1 0 -4.5 0.5t-5.5 1t-3 1.5q-4 16 -4 40q0 16 4 24q28 15 103 15q33 0 47 -6q10 -37 10 -72q-11 -4 -32 -4q6 -36 6 -71q0 -2 -6 -110q3 1 9 1q13 0 23 -5v-10q0 -24 -10 -51q-18 -8 -62 -8q-72 0 -88 16q-3 15 -3 35q0 16 3 19q21 6 26 6q-4 62 -4 87q-10 -9 -28 -24
t-25 -21q-5 4 -24 20t-30 25q-1 -21 -5 -90q3 1 9 1q12 0 22 -5q1 -5 1 -15q0 -23 -10 -46q-24 -6 -72 -6q-68 0 -78 14q0 1 -2.5 14.5t-2.5 22.5z" />
    <glyph glyph-name="uniE000" unicode="&#xe000;" horiz-adv-x="500" 
d="M0 500h500v-500h-500v500z" />
    </font>
</defs>
</svg>
