<svg width="100%" height="100%" preserveAspectRatio="none" viewBox="0 0 93 31" version="1.1" xmlns="http://www.w3.org/2000/svg" xmlns:xlink="http://www.w3.org/1999/xlink" xml:space="preserve" xmlns:serif="http://www.serif.com/" style="fill-rule:evenodd;clip-rule:evenodd;stroke-linejoin:round;stroke-miterlimit:2;">
    <g transform="matrix(1,0,0,1,-163,-12.88)">
        <g id="Export" transform="matrix(0.315869,0,0,0.0483209,287.76,12.4991)">
            <rect x="-394.972" y="7.884" width="294.299" height="627.069" style="fill:none;"/>
            <g transform="matrix(2.40479,0,0,20.7021,-1139.82,-12307.9)">
                <path d="M430.914,596.559C423.027,596.678 414.576,596.188 406.644,596.559C401.774,596.787 397.424,597.97 392.564,597.955C386.885,597.938 381.219,597.415 375.583,597.043C374.938,597.001 374.543,597.292 373.899,597.254C373.214,597.214 372.281,596.847 371.597,596.815C369.603,596.721 367.613,596.667 365.628,596.681C363.144,596.698 354.175,597.95 351.708,597.955C346.123,597.966 340.289,596.303 330.388,596.303C320.452,596.928 312.955,597.171 310.935,596.559L310.935,612.03C311.491,612.284 311.786,612.669 311.763,613.212C311.196,615.32 311.063,616.993 310.935,618.662L310.935,623.431C313.163,623.331 315.702,623.222 318.49,623.106C318.801,623.093 318.791,622.863 319.109,622.85C319.514,622.833 320.25,623.033 320.665,623.016C324.177,622.872 328.031,622.719 332.122,622.561C334.569,622.501 337.017,622.465 339.465,622.452C340.71,622.445 342.883,621.749 344.129,621.754C345.593,621.76 346.13,622.469 347.594,622.491C355.193,622.603 362.792,622.925 370.392,623.431C377.306,623.665 383.375,623.768 388.843,623.794C389.624,623.798 390.468,622.762 391.225,622.763C392.343,622.764 393.436,623.431 394.505,623.43C408.99,623.411 419.203,623.192 430.914,623.431L430.914,596.559Z" style="fill:rgb(242,242,242);"/>
            </g>
        </g>
    </g>
</svg>
