<?xml version="1.0" encoding="UTF-8" standalone="no"?>
<!DOCTYPE svg PUBLIC "-//W3C//DTD SVG 1.1//EN" "http://www.w3.org/Graphics/SVG/1.1/DTD/svg11.dtd">
<svg width="100%" height="100%" viewBox="0 0 24 19" version="1.1" xmlns="http://www.w3.org/2000/svg" xmlns:xlink="http://www.w3.org/1999/xlink" xml:space="preserve" xmlns:serif="http://www.serif.com/" style="fill-rule:evenodd;clip-rule:evenodd;stroke-linejoin:round;stroke-miterlimit:2;">
    <g transform="matrix(1,0,0,1,-86,-306)">
        <g id="Heart" transform="matrix(0.413184,0,0,0.426186,50.4386,175.54)">
            <rect x="86.067" y="306.11" width="57.554" height="43.965" style="fill:none;"/>
            <clipPath id="_clip1">
                <rect x="86.067" y="306.11" width="57.554" height="43.965"/>
            </clipPath>
            <g clip-path="url(#_clip1)">
                <g transform="matrix(1.15086,0,0,0.900137,-8621.58,-272.865)">
                    <g transform="matrix(0.261954,0.151239,-0.155633,0.269565,7343.66,382.709)">
                        <path d="M1183.17,478.399C1186.87,480.369 1191.46,479.841 1194.59,477.083C1194.59,477.083 1224.77,450.444 1242.54,423.886C1251.17,410.99 1256.68,397.916 1256.33,387.424C1255.69,368.523 1252.26,356.18 1247.67,348.525C1243.52,341.617 1238.27,337.779 1232.64,335.91C1223.82,332.983 1213.31,335.202 1203.12,340.879C1191.23,347.507 1179.62,358.693 1172.75,365.957C1164.65,360.392 1151.26,352.037 1137.87,347.467C1124.97,343.065 1112.08,342.431 1102.4,347.865C1092.89,353.214 1085.08,364.81 1085.08,387.74C1085.08,399.526 1094.14,413.648 1108.16,426.877C1136.3,453.424 1183.17,478.399 1183.17,478.399ZM1186.45,458.048C1173.33,450.646 1142.4,432.312 1121.98,413.047C1116.74,408.099 1112.2,403.114 1109.02,398.236C1106.62,394.552 1104.92,391.069 1104.92,387.74C1104.92,374.876 1106.99,367.553 1112.33,364.552C1117.51,361.642 1124.39,363.296 1131.3,365.654C1149.61,371.906 1167.89,386.479 1167.89,386.479C1169.94,388.105 1172.58,388.867 1175.21,388.596C1177.84,388.326 1180.25,387.045 1181.91,385.038C1181.91,385.038 1193.24,371.265 1206.62,361.682C1210.6,358.829 1214.76,356.333 1218.84,354.903C1221.44,353.99 1223.95,353.397 1226.23,354.151C1228.64,354.952 1230.31,357.288 1231.88,360.88C1234.53,366.93 1236.09,375.747 1236.5,388.056C1236.85,398.316 1228.09,411.334 1218.38,423.694C1207.05,438.107 1193.64,451.287 1186.45,458.047L1186.45,458.048Z" style="fill:white;"/>
                    </g>
                    <g transform="matrix(0.18515,0.320689,-1.59841,0.92284,8220.63,-334.499)">
                        <path d="M1465.81,571.913C1465.7,573.005 1467.01,574.027 1469.91,574.969L1461.7,574.969C1462.35,573.894 1463.66,572.87 1465.81,571.913Z" style="fill:white;"/>
                    </g>
                    <g transform="matrix(-0.178134,-0.324638,1.61809,-0.887873,6913.58,1637.57)">
                        <path d="M1465.97,567.695C1465.87,568.788 1459.49,575.439 1469.91,574.969L1461.7,574.969C1458.67,573.978 1463.82,568.653 1465.97,567.695Z" style="fill:white;"/>
                    </g>
                    <g transform="matrix(0.320689,-0.18515,0.645108,1.11736,6755.22,311.596)">
                        <path d="M1465.81,571.913C1468.98,573.061 1469.8,574.075 1469.91,574.969L1461.7,574.969C1465.34,574.281 1467.79,573.406 1465.81,571.913Z" style="fill:white;"/>
                    </g>
                </g>
            </g>
        </g>
    </g>
</svg>
