<svg viewBox="0 0 210 93" xmlns="http://www.w3.org/2000/svg" fill-rule="evenodd" clip-rule="evenodd" stroke-linecap="round" stroke-linejoin="round" stroke-miterlimit="1.5">
  <g transform="matrix(1.28653 0 0 1.59561 209 -124)">
    <path fill="none" d="M-163 78H0v58h-163z"/>
    <clipPath id="a">
      <path d="M-163 78H0v58h-163z"/>
    </clipPath>
    <g clip-path="url(#a)">
      <path d="M-26 109l10-6-7 1c-3 0-7 4-3 5z" fill="#517b52"/>
      <path d="M994 214c0 6 4 6 7 9 16 16 4 22 3 30" fill="none" stroke="#5b835c" stroke-width="2.4" transform="matrix(.5261 0 0 .59587 -607 -17)"/>
      <path d="M997 214c17 6 8 29 7 39M1012 200s-11-1-16-8" fill="none" stroke="#375838" stroke-width="2.4" transform="matrix(.6423 0 0 .51788 -798 4)"/>
      <path d="M-106 136l-14-6h10c4 0 10 3 4 6z" fill="#517b52"/>
      <path d="M1099 255s0-6 5-10" fill="none" stroke="#517b52" stroke-width=".7" transform="matrix(.6423 0 0 .51788 -809 3)"/>
      <path d="M1105 255l-2-5" fill="none" stroke="#517b52" stroke-width=".4" transform="matrix(.85423 0 0 1.005 -1045 -121)"/>
      <path d="M1102 255c1-4-3-11-3-10" fill="none" stroke="#517b52" stroke-width=".7" transform="matrix(.6385 -.05617 .06966 .51482 -824 66)"/>
      <path d="M-21 108l10-6-7 1c-3 0-7 4-3 5z" fill="#517b52"/>
      <text x="1130.9" y="264.8" font-family="'EmilysCandy-Regular','Emilys Candy'" font-size="184" fill="#fff" transform="matrix(.48562 0 0 .39155 -715 29)">
        inis
      </text>
      <path d="M-24 109l2 1 3-1v0h2l1-1v1l2-1h2l1-1h2v-1a49 49 0 011 0h1l1-1v-1h1a8 8 0 003-3l1-1v-1-1l1-1v-1a4 4 0 00-2-3l-1-1h-1-1-2-1-1-3-1l-1 1-1-2h-1l-1-2v-1h-1v-1l-2-1-2-1h-3-1-2l-1 1-1 1-2 2v6l1 1v1l1 2 1 1v1l1 2v1l1 1 1 2 1 1 1 1zm3-2l-7-12v-3-2l4-2 3 1 4 6 1 1h1l7-1h4v2l-2 4-7 3-8 3z" fill="#fff"/>
      <g transform="matrix(.39436 .2523 -.39922 .40569 -733 -684)">
        <path d="M2312 503a3 3 0 001 0 1 1 0 01-1 0zm0-2v-1l1 1a3 3 0 00-1 0z" fill="#0d0d0d"/>
        <circle cx="2312.5" cy="501.8" r="1.3" fill="#fff"/>
      </g>
      <g transform="matrix(.46946 -.28842 .43136 .45646 -1326 537)">
        <path d="M2314 502l-2 1-1-1 1 1 2-1zm-3-1a1 1 0 013 0h-2-1z" fill="#0d0d0d"/>
        <circle cx="2312.5" cy="501.8" r="1.3" fill="#fff"/>
      </g>
      <g transform="matrix(.54527 .39024 -.6799 .6176 -928 -1112)">
        <path d="M2312 500a1 1 0 110 3 1 1 0 010-3zm1 2h-1 1z" fill="#0d0d0d"/>
        <circle cx="2312.5" cy="501.8" r="1.3" fill="#fff"/>
      </g>
      <circle cx="2312.5" cy="501.8" r="1.3" fill="#fff" transform="matrix(.27775 0 0 .27993 -656 -39)"/>
      <circle cx="2312.5" cy="501.8" r="1.3" fill="#fff" transform="matrix(.27775 0 0 .27993 -658 -40)"/>
      <circle cx="2312.5" cy="501.8" r="1.3" fill="#fff" transform="matrix(.18624 .16614 -.25757 .1877 -323 -379)"/>
      <circle cx="2312.5" cy="501.8" r="1.3" fill="#fff" transform="matrix(.27775 0 0 .27993 -667 -43)"/>
      <path d="M1006 184s-13 14-13 21" fill="none" stroke="#375838" stroke-width="2.4" transform="matrix(.6423 0 0 .51788 -722 5)"/>
      <path d="M-77 101l7-6-5 2c-3 0-5 4-2 4z" fill="#517b52"/>
      <path d="M-77 101z" fill="#527552"/>
      <path d="M1004 185s-6 8-8 7" fill="none" stroke="#375838" stroke-width="2.4" transform="matrix(.6423 0 0 .51788 -798 4)"/>
      <path d="M1012 177c1 2-13 16-15 14" fill="none" stroke="#375838" stroke-width="2.4" transform="matrix(.6423 0 0 .51788 -798 16)"/>
      <path d="M-150 101l-3-1h-2c-2-1-1-3 1-4 2-2 3-1 5-4 0 0 3 9-1 9zM-156 113h3v-2l-1-2s-5 4-2 4z" fill="#406c42"/>
      <path d="M-154 114v-1-1h2l2 1s-3 3-4 1z" fill="#517b52"/>
      <path d="M-98 136c-2 0-2-2-2-2h-2c-1-1 2-4 4-4 3 1 4 1 7-4 0 0-2 10-7 10z" fill="#537854"/>
      <path d="M-103 136c2 0 1-1 1-1h2v-2l-2-3s-5 5-1 6z" fill="#406c42"/>
      <path d="M-103 135h-1l-1 1-1-2 1-3s4 3 2 4z" fill="#a97f5f"/>
      <path d="M1103 255s0-5 3-9" fill="none" stroke="#517b52" stroke-width=".7" transform="matrix(.55624 -.25894 .32115 .4485 -796 307)"/>
      <path d="M1109 255s0-6-3-11" fill="none" stroke="#517b52" stroke-width=".7" transform="scale(.6423 .51788) rotate(18 451 -3848)"/>
      <g>
        <path d="M1109 255s0-6-3-11" fill="none" stroke="#517b52" stroke-width=".7" transform="matrix(.61818 -.14056 .17433 .49844 -834 164)"/>
      </g>
      <g>
        <path d="M1107 255s1-9 4-12" fill="none" stroke="#517b52" stroke-width=".7" transform="matrix(.6204 .13404 -.16624 .50023 -746 -140)"/>
      </g>
      <g>
        <path d="M1110 254s0-9-4-13" fill="none" stroke="#517b52" stroke-width=".7" transform="matrix(.6423 0 0 .51788 -817 4)"/>
      </g>
      <g>
        <path d="M1086 254s4-8 3-12" fill="none" stroke="#517b52" stroke-width=".7" transform="matrix(.6423 0 0 .51788 -799 4)"/>
      </g>
      <g>
        <path d="M1088 254s-2-6 0-13" fill="none" stroke="#517b52" stroke-width=".7" transform="matrix(.6423 0 0 .51788 -799 4)"/>
      </g>
      <g>
        <path d="M1103 255s0-5 3-9" fill="none" stroke="#517b52" stroke-width=".7" transform="matrix(-.60521 -.25894 -.34942 .4485 657 307)"/>
      </g>
      <g>
        <path d="M1088 254s-2-6 0-13" fill="none" stroke="#517b52" stroke-width=".7" transform="matrix(-.69884 0 0 .51788 661 4)"/>
      </g>
      <g>
        <path d="M-106 136l-14-6 10 1c6 1 10 4 4 5z" fill="#486149"/>
      </g>
      <g>
        <path d="M-21 108l10-6-7 2c-5 1-7 4-3 4z" fill="#486149"/>
      </g>
      <g>
        <path d="M-26 109l10-6-7 3c-4 1-7 4-3 3z" fill="#486149"/>
      </g>
    </g>
  </g>
</svg>