<?xml version="1.0" encoding="UTF-8" standalone="no"?>
<!DOCTYPE svg PUBLIC "-//W3C//DTD SVG 1.1//EN" "http://www.w3.org/Graphics/SVG/1.1/DTD/svg11.dtd">
<svg width="100%" height="100%" viewBox="0 0 122 86" version="1.1" xmlns="http://www.w3.org/2000/svg" xmlns:xlink="http://www.w3.org/1999/xlink" xml:space="preserve" xmlns:serif="http://www.serif.com/" style="fill-rule:evenodd;clip-rule:evenodd;stroke-linejoin:round;stroke-miterlimit:2;">
    <g transform="matrix(1,0,0,1,-84.5501,-85.0391)">
        <path d="M203.496,98.318C202.099,93.091 197.982,88.975 192.755,87.578C183.281,85.039 145.292,85.039 145.292,85.039C145.292,85.039 107.303,85.039 97.829,87.578C92.602,88.975 88.485,93.091 87.088,98.318C84.55,107.792 84.55,127.559 84.55,127.559C84.55,127.559 84.55,147.326 87.088,156.799C88.485,162.026 92.602,166.143 97.829,167.54C107.303,170.079 145.292,170.079 145.292,170.079C145.292,170.079 183.281,170.079 192.755,167.54C197.982,166.143 202.099,162.026 203.496,156.799C206.034,147.326 206.034,127.559 206.034,127.559C206.034,127.559 206.034,107.792 203.496,98.318ZM133.143,145.782L133.143,109.336L164.705,127.559L133.143,145.782Z" style="fill:white;fill-rule:nonzero;"/>
    </g>
</svg>
